<?xml version="1.0" encoding="UTF-8"?>
<svg id="e" xmlns="http://www.w3.org/2000/svg" version="1.1" viewBox="0 0 800 800">
  <!-- Generator: Adobe Illustrator 29.0.1, SVG Export Plug-In . SVG Version: 2.1.0 Build 192)  -->
  <defs>
    <style>
      .st0 {
        fill: #010101;
      }

      .st1 {
        fill: #e12228;
      }

      .st2 {
        fill: #fff;
      }

      .st3 {
        fill: #d4df30;
      }

      .st4 {
        fill: #1f9cd8;
      }

      .st5 {
        fill: #bcbec0;
      }

      .st6 {
        fill: #c1cb30;
      }

      .st7 {
        fill: #1c7dae;
      }

      .st8 {
        fill: #b02024;
      }

      .st9 {
        fill: #d1d3d4;
      }
    </style>
  </defs>
  <polygon class="st1" points="181.4 256 266.5 256 259.9 271.3 245.1 291.7 238.6 299 146.6 295.8 74.8 321.2 74.8 330.2 183.9 333.1 181.4 367.4 74.8 372.5 74.8 409.3 198.3 409.3 209.1 368.8 183.9 367.4 188.1 333.1 353.1 338.7 353.1 241.6 341.6 232.8 299.5 261.8 326.6 262.4 329.2 300 276.9 297.6 301.6 259.4 353 236.3 199 232.8 181.4 256"/>
  <polyline class="st1" points="270.1 369.5 281.1 404.6 345.7 401.6 347.4 369.5 270.1 369.5"/>
  <path class="st1" d="M353.1,371.7l-4.3,27.7h50.2l15.8,5.2s11.5-7.1,12.6-6.9,10.8-16.1,10.8-16.1l20.4-18.2s12.4-1.4,14.4-1.1,13.3,2.7,14.2,3.3,20.6,19.5,20.6,19.5c0,0,7.3,10.8,8.2,11.7s33.8,2,33.8,2l3.7-49.8,7.5-132.1-110.5-10.3-100.5-4.6-1.3,136.6,58.4,3.2s51-36,53.2-35.8-32.7,51.1-32.7,51.1c0,0-12.4,19.7-17.5,19.5s-57-5-57-5h0Z"/>
  <polygon class="st3" points="186.2 366.8 211.8 366.2 234.4 356.4 266.7 367.4 410.7 374.2 460.3 306 415.1 336.2 395.1 340.1 181.2 333 186.2 366.8"/>
  <polygon class="st2" points="181.4 256 266.5 256 241.4 295.8 142.4 299 181.2 259.6 181.4 256"/>
  <polygon class="st2" points="278.8 299 303.4 261.5 329.2 259.9 326.9 303.5 278.8 299"/>
  <polyline class="st2" points="78.3 333.7 94.9 331.3 103.7 363.4 96.4 372.5 74.8 372.5 74.8 344.6 78.3 333.7"/>
  <polygon class="st2" points="149.4 327.9 183.9 331.3 181.4 367.4 153.4 374.2 149.4 366.8 149.4 327.9"/>
  <polyline class="st2" points="103.7 337 142.4 337 146.6 356.4 108.1 361.4 101.2 351.1 103.7 337"/>
  <circle class="st2" cx="473" cy="403.4" r="42.3" transform="translate(-.9 805.7) rotate(-80.8)"/>
  <path class="st8" d="M269,261c1.6,1.2,2.2,4.6,1.1,6.3-4.4,7-12.4,22.8-18.3,32.1-2.6,4-6.5,7-11.3,7l-112.1.4s18.3-11.1,20.1-12,93.4,1.6,93.4,1.6l22.3-40.9,4.9,5.6h0Z"/>
  <path class="st8" d="M337.8,297.6c-.2,1.6,3.2,4,.2,12.1-1,2.8-3.2,4.6-5.6,4.5l-44.3-1.1c-3.8,0-6.9-3-7.3-6.8-.1-1.7-.2-3.2.1-3.4.9-.6,53.5,2.9,53.5,2.9l3.4-8.3h0Z"/>
  <path class="st9" d="M150.5,362.6l21.1-.5c1.6,0,2.9-1.3,2.9-2.9v-26s4-2.1,5,1.1,4.7,9.4,4.4,10.4-2.5,22.8-2.5,22.8c0,0,0,5.9-3.5,6.1s-13.6,1.2-15,.8-12.1-4-12.3-4.7,0-6.9,0-6.9Z"/>
  <path class="st9" d="M68.4,363.7l24-.6v-28.8s4-2.1,5,1.1,4.7,9.4,4.3,10.4-2.5,22.8-2.5,22.8c0,0,0,5.9-3.5,6.1s-13.6,1.2-15,.8-12.1-4-12.3-4.7,0-6.9,0-6.9h0Z"/>
  <path class="st9" d="M105.9,354.5l31.7-.6-.5-12.8s4-2.1,5,1.1c1,3.2,4.7,9.4,4.4,10.4s-2.1,6.7-2.1,6.7c0,0,0,5.9-3.5,6.1s-13.6,1.2-15,.8-19.8-3.5-20-4.2,0-7.5,0-7.5h0Z"/>
  <path class="st9" d="M154.4,286.6c1.2,0,61.8,0,76.7,0,2.1,0,4-1,5.3-2.6l19.8-25.9s9.8.9,9.2,1.6-11.7,15.9-12.6,16.6-14.6,17.1-15.5,17.1-74.3-1.6-77-1.7-1.1.6-5-.4-4-1.6-4-1.6l3.1-3.1h0Z"/>
  <path class="st9" d="M283.8,293.5c3.2.1,39.1,1.4,39.1,1.4l1.8-30.9s8.5,1.1,8.5,1.7,3.2,33.9,3.2,33.9l-11.8,6.4s-12.3.5-19.7-1.2c-7.4-1.7-26.8-1.9-25.9-4.1s4.8-7.1,4.8-7.1h0Z"/>
  <polygon class="st8" points="551.3 219.5 534.1 384.3 507.8 382 486 362.3 458.6 364.9 440.1 382 345.7 386.5 348.8 399.4 429.8 391.5 445.2 372.6 472.6 359.4 499.7 372.1 512.7 392.3 548.3 410.8 561.1 216.8 551.3 219.5"/>
  <polygon class="st8" points="74.8 409.3 73.7 398.4 206.6 394.8 200.9 432 74.8 409.3"/>
  <polygon class="st6" points="185.8 351.9 349.6 356.4 347.2 372 266.7 367.4 249.4 356.4 230.7 359.6 211.8 366.2 196.9 369.5 184.1 365.3 185.8 351.9"/>
  <path class="st6" d="M351.8,356.1l52.9,2.4,45-41.8-11.5,24.8-20.8,25.9-6.7,4.6-38.1,3.4s-21.9-4-22.5-3.4,1.8-15.9,1.8-15.9h0Z"/>
  <path class="st8" d="M89.3,318.1l250.1,9.8,3.6-92.1,12.3-2s.7,108.4-1.5,110-163.8-3.9-164.7-3.9-23.9-6.4-28.4-6.2-83.9,2.1-83.9,2.1l12.6-17.7h0Z"/>
  <polygon class="st8" points="251.3 426.9 246.9 389.2 379.8 385.6 374 426.9 251.3 426.9"/>
  <path class="st8" d="M204.7,330.1l48.9-13.7c6.6-1.8,12.2-6,16-11.7l48.4-73.2-14-2.4-25.8,37.2-21.6,39.6-66.6,17.3,14.8,6.9h0Z"/>
  <g>
    <path class="st0" d="M567.6,253.4c28.8,1.2,57.4,3.4,86,6.7,6.8.8,13-3,13.9-8.5,0-.6.2-.9.2-1.6.9-5.5-4-10.8-11-11.7-29.2-3.3-58.5-5.6-88-6.9-7-.2-13,4.2-13.2,9.8,0,.6,0,.9,0,1.6-.3,5.6,5.2,10.3,12,10.6h0Z"/>
    <path class="st0" d="M565,300c48.8,2,97.2,7.3,145.3,15.9,6.4,1.2,12.5-2.3,13.8-7.7.1-.6.2-.9.3-1.5,1.2-5.5-3.1-11-9.6-12.2-49.2-8.8-98.7-14.2-148.6-16.3-6.7-.2-12.4,4.2-12.6,9.8,0,.6,0,.9,0,1.6-.2,5.6,5,10.3,11.5,10.5h0Z"/>
    <path class="st0" d="M557.7,339.9c53.2,2.4,105.7,8.7,157.9,19.2,6.1,1.3,12.1-2.1,13.4-7.5.2-.6.2-.9.4-1.5,1.3-5.5-2.7-11-8.9-12.3-53.4-10.8-107.2-17.3-161.6-19.7-6.4-.2-11.8,4.2-12,9.8,0,.6,0,.9,0,1.6-.2,5.6,4.8,10.3,11,10.5h0Z"/>
    <path class="st0" d="M556,383c25.1,1.1,50,3,74.9,5.9,5.9.7,11.3-3.2,12.1-8.7,0-.6.1-.9.2-1.5.8-5.5-3.5-10.8-9.5-11.5-25.5-2.9-51.1-4.9-76.8-6-6.1-.2-11.3,4.2-11.5,9.8,0,.6,0,.9,0,1.6-.2,5.6,4.6,10.3,10.5,10.5h0Z"/>
    <path class="st0" d="M684.3,396c8.1,1.4,16.2,2.9,24.3,4.5,5.8,1.2,11.5-2.3,12.7-7.8.1-.6.2-.9.3-1.5,1.2-5.5-2.6-11-8.5-12.2-8.3-1.7-16.6-3.2-24.9-4.7-6-1-11.7,2.7-12.6,8.2,0,.6-.2.9-.3,1.5-.9,5.5,3.1,10.8,8.9,11.8h0Z"/>
  </g>
  <path class="st0" d="M85.3,417.4c-8.8.1-16.2-6.7-16.7-15.6-.8-22.1-1.6-44.2-2.4-66.3,0-.4,0-.8,0-1.2-.2-2.9-.4-6.9,2.7-11.4,3-4.4,6.6-5.7,9.2-6.6.4-.2.9-.3,1.4-.5.1,0,.2,0,.4-.1,19.2-6.4,44.2-11.3,58.2-22.3,21.1-16.5,40.9-45.5,61.2-68.2,1.9-2.2,2.9-3.2,4.9-5.4,1.9,2.2,2.9,3.3,4.8,5.5.9,1,2.1,1.6,3.4,1.6h0c43,0,86,.6,129,1.8,1.2,0,2.3-.4,3.2-1.2s1.4-1.8,1.4-2.9c.2-5.5.2-8.2.4-13.6,0-1.4-.7-2.8-2-3.6-7.1-4.6-10.7-6.9-17.9-11.4,75.4,2,150.6,5.9,225.8,11.7,0,0,0,0,.2,0,8.9.8,16.2,8.2,15.6,17.4-5.1,62.6-10.2,125.3-15.4,187.9-.9,8.9-8.7,15.3-17.5,14.8-11.7-.9-23.4-1.8-35.1-2.6,1.6-3.2,2.5-4.8,4.1-8,2.6-5,3.9-10.5,3.8-16.2-.4-17.7-15.4-32-32.6-33.5-8.4-.7-19.7,3.4-25.8,8.9-6.1,5.5-11.2,16.1-11.1,24.5,0,4.1.6,8.4,2.1,12.3,1.2,3.4,1.9,5.1,3.1,8.4-57.9-3.1-115.9-5.1-173.9-6,1-3.1,1.5-4.6,2.5-7.6,1.2-3.6,1.7-7.4,1.6-11.2-.4-18.9-17.3-33.6-35.8-33.4-8.2,0-18.9,4.9-24.4,10.8-5.5,5.8-9.7,16.5-9.3,24.6.2,2.9.6,6,1.5,8.8,1,3.1,1.4,4.6,2.4,7.7-40.9.1-81.7.9-122.5,2.1h-.2ZM83.8,326.9c-.6.2-1.1.4-1.7.6-2,.7-2.4.9-3.1,2-.8,1.2-.8,1.9-.7,4.2,0,.5,0,1,0,1.5.8,22.1,1.5,44.2,2.2,66.3,0,2.3,2.1,4.1,4.4,4.1h0c35.8-1.1,71.6-1.8,107.4-2.1-.2-1.4-.3-2.8-.4-4.1-.5-12.3,4-24.3,12.4-33.2,8.6-9,20.6-14.4,33-14.6,24.5-.5,48,19.5,48.2,45.1,0,2.5-.1,4.9-.5,7.4,47.2.9,94.4,2.5,141.6,4.8-.4-2.7-.6-5.4-.6-8.2.2-12.5,5.6-24.7,14.9-33,9.2-8.2,22.3-13.1,34.8-12.1,22.9,2,43.9,21.5,43.9,45.2,0,4.6-.6,9.3-1.9,13.8,7.2.5,10.8.8,17.9,1.4,2.4.2,4.4-1.6,4.6-3.9,5-62.6,9.9-125.3,14.8-187.9.2-2.3-1.7-4.4-4.1-4.6h0c-64.1-4.9-128.3-8.5-192.6-10.8.1.9.2,1.8.1,2.6-.2,5.5-.3,8.2-.5,13.6-.5,9.2-8.5,15.8-17.5,15.6-42.9-1.2-85.7-1.8-128.6-1.8-2.6,0-5.1-.6-7.4-1.6-19.4,21.6-38,47-58.4,64.8-15,13.1-42.7,18.3-62.6,24.9h0Z"/>
  <path class="st5" d="M506.9,383.3c1.1,22.7-13.2,39.5-32.3,41.1"/>
  <path class="st0" d="M469.8,447.7c-18.1-1.3-34.5-13.5-40.8-30.5-2-5.3-3-11-2.8-16.6.6-24.8,22.5-46.4,48-45.1,24.6,1.2,46.9,22.2,45.6,47.8-.3,6.7-2,13.3-5.1,19.3-8.2,15.7-25.3,25.7-43,25.2-.7,0-1.3,0-2-.1h0ZM475.5,367.5c-.5,0-1,0-1.5,0-18.8-.5-35.3,14.5-35.7,33.5,0,4.2.6,8.5,2.1,12.3,4.8,12.5,17.7,22.8,31.8,22.8,12.8,0,26.2-7.1,32-18.8,2.2-4.4,3.6-9.3,3.8-14.4.6-18.4-14.1-34-32.3-35.4h0Z"/>
  <g>
    <path class="st0" d="M397.2,413.3c-7,12.4-21.5,21.1-35.8,20.9-15-.2-30.8-9.3-37-23.4,24.3.7,48.5,1.5,72.8,2.6h0Z"/>
    <path class="st0" d="M359.4,440.1c-16.7-.8-33.6-11.2-40.4-26.8-1.6-3.5-2.5-5.2-4.1-8.7,30.8.8,61.5,1.9,92.3,3.3-1.9,3.4-2.8,5-4.7,8.4-8,14.2-24.6,24.2-41,23.9-.7,0-1.3,0-2,0h0ZM335.8,417c6.6,7.1,16.1,11,25.7,11.2,8,.2,18.3-3.7,24-9.5-16.5-.7-33.1-1.3-49.6-1.8h0Z"/>
  </g>
  <path class="st0" d="M341.6,409c1.5-63.5,3-127,4.4-190.6,5,.1,7.5.2,12.6.3-1.6,63.5-3.3,127-5,190.5-4.8-.1-7.2-.2-12-.3h0Z"/>
  <path class="st0" d="M173.5,377.5c-29.8.1-59.6.5-89.4,1.2-8.9.1-16.5-6.7-16.9-15.7-.2-8.4-.3-12.6-.6-20.9,0-9.1,7.2-16.2,16.2-16.5,30.2-.7,60.4-1.1,90.6-1.2,9,0,16.5,7,16.6,16.1,0,8.4,0,12.6,0,21-.2,9-7.5,16-16.4,16.1h0ZM83.1,337.4c-2.4,0-4.3,2-4.3,4.4.2,8.4.3,12.6.5,20.9,0,2.3,2.1,4.2,4.4,4.1,29.9-.7,59.8-1.1,89.7-1.2,2.4,0,4.3-1.9,4.3-4.2,0-8.4,0-12.6,0-21,0-2.3-2-4.2-4.4-4.2-30.1.1-60.2.5-90.3,1.2h0Z"/>
  <path class="st0" d="M96.4,372.5c-.5-13.8-1-27.5-1.5-41.3,4.9-.2,7.3-.2,12.2-.4.4,13.8.9,27.5,1.3,41.3-4.8.1-7.3.2-12.1.4h0Z"/>
  <path class="st0" d="M141.3,372c-.6-13.8-1.2-27.5-1.8-41.3,4.9-.2,7.3-.3,12.2-.5.6,13.8,1.1,27.5,1.6,41.3-4.8.2-7.3.3-12.1.5h0Z"/>
  <path class="st0" d="M101.5,345.8c-.1-4.8-.2-7.1-.3-11.9,14.9-.3,29.8-.6,44.8-.8,0,4.8,0,7.1.1,11.9-14.9.2-29.8.5-44.6.8h0Z"/>
  <path class="st0" d="M146.6,368.3c-14.9.1-29.7.3-44.6.5,0-4.8-.1-7.1-.2-11.9,14.9-.2,29.8-.4,44.7-.5,0,4.8,0,7.1,0,11.9Z"/>
  <path class="st0" d="M349,344.6c-55.9-2.7-111.8-4.3-167.7-4.8,0-4.8,0-7.1.1-11.9,56.1.5,112.2,2.2,168.2,4.8-.2,4.8-.4,7.1-.6,11.9h0Z"/>
  <path class="st0" d="M211.7,373.4c-9.3,0-18.6,0-27.9-.1v-11.9c9.3,0,18.6,0,27.9.1,0,4.8,0,7.1,0,11.9Z"/>
  <path class="st0" d="M348.3,376.7c-27.2-1.1-54.5-1.9-81.7-2.5.1-4.8.1-7.1.2-11.9,27.3.6,54.7,1.4,82,2.5-.2,4.8-.3,7.1-.5,11.9Z"/>
  <path class="st0" d="M403.9,379.3c-18.5-1-37-1.9-55.6-2.6.2-4.8.3-7.1.5-11.9,18.6.8,37.1,1.6,55.7,2.6,3.4.2,6.6-1.3,8.6-4,11-14.5,22.1-28.9,33.3-43.2-9.7,7.2-19.3,14.4-29,21.6-4.2,3.2-9.4,4.8-14.8,4.5-17.8-.7-35.7-1.3-53.5-1.8.1-4.8.2-7.1.3-11.9,17.9.5,35.8,1.1,53.7,1.8,2.5.1,4.8-.6,6.7-2.1,13.9-10.5,27.9-20.9,41.9-31.2,4.1-3,9.7-2.6,13.3.9s4,8.9.9,12.8c-14.5,18.5-28.9,37-43.2,55.6-4.5,5.9-11.6,9.1-19,8.7h0Z"/>
  <path class="st0" d="M234.8,303.8c-29.5-.3-58.9-.3-88.4,0-3.4,0-6.2-2.6-6.2-5.9,0-3.3,2.7-6,6.1-6,29.6-.2,59.1-.2,88.7,0,1.7,0,3.2-.8,4.2-2.1,6.6-8.9,13.3-17.8,19.9-26.7-25.4-.1-50.9,0-76.3.2-3.4,0-6.3-2.6-6.3-5.9s2.7-6,6.1-6c26.7-.3,53.4-.4,80.1-.2,4,0,7.6,2.2,9.4,5.6,1.8,3.4,1.5,7.4-.9,10.5-7.4,9.8-14.7,19.6-22.1,29.4-3.3,4.5-8.7,7.1-14.4,7h0Z"/>
  <path class="st0" d="M328.3,310.8c-.1,0-.2,0-.3,0-14.3-.5-28.6-.9-42.9-1.3-4.1-.3-7.8-2.7-9.5-6.3-1.7-3.6-1.4-7.8,1-11,7.6-10.7,15.3-21.3,23-31.9,2.2-2.9,5.8-4.5,9.5-4.4,8.2.2,12.3.4,20.6.6,6,.2,10.9,4.8,11,10.6v.3c-.2,10.8-.5,21.5-.8,32.3,0,3-1.2,6-3.5,8-2.2,2-5.2,3.1-8.2,3h0ZM287.8,297.7c13.3.3,26.6.7,40,1.2.2-10.2.4-20.3.6-30.5-7.6-.2-11.4-.4-19-.6-7.2,10-14.4,19.9-21.6,29.9h0ZM281.7,295.7h0Z"/>
  <g>
    <path class="st4" d="M199.8,200.9c.9,10.9,1.4,15.2,2.3,25.6,13,1.6,26,3.2,39.1,4.8.8-13.6,1.2-19,2-32.8-14.4.9-28.9,1.7-43.3,2.3h0Z"/>
    <path class="st4" d="M308.1,199.2c-.6,13-.9,19-1.4,31.9,13.3.4,26.7.8,40,1.2.3-11.2.6-22.5.9-33.7-13.2.1-26.3.4-39.5.6h0Z"/>
    <path class="st2" d="M243.1,226.8v-24c21.7-1.1,43.4-2.3,65-3.5-1,11.4-1.5,16.7-2.5,27.9-20.9-.1-41.7-.2-62.5-.4h0Z"/>
    <path class="st9" d="M241.8,222.3c18.4,0,36.7,0,55,0,.2-8.8.4-13.1.6-22,0,0-2.9,0-.9,2.6,2,2.6,9,7.4,8.4,8.1s-4.9,18.2-4.9,18.2c0,0,0,4.8-6.9,4.9s-26.4.6-29.1.3-23.5-3.4-23.9-4c-.4-.6,1.6-8.1,1.6-8.1h0Z"/>
    <path class="st7" d="M309.2,231.9c.6-3.5.9-5.2,1.4-8.6,10.1.3,15.2.5,25.3.8,2.8,0,5.1-2.1,5.1-4.9v-13.8c3.3.8,4.9,1.2,8.2,2.1,1.1,6.8,1.6,10.1,2.7,16.9-1.1,4.3-1.6,6.5-2.7,10.8-13.4-1.1-26.7-2.2-40-3.4h0Z"/>
    <path class="st7" d="M201.3,229.1c.6-3.2.9-4.7,1.4-7.7,12.1.3,18.2.5,30.4.8v-16.7c3.3.7,4.9,1.1,8.2,1.8,1.1,6.1,1.6,9,2.7,15.1-1.1,3.9-1.6,5.8-2.7,9.9-13.3-1.1-26.7-2.1-40-3.1h0Z"/>
    <path class="st0" d="M210.1,235.9c-5.1,0-9.8-2.2-13.1-5.7-2.5-2.6-3.8-5.8-3.9-9,0-4.7,0-6.9,0-11.7,0-3.7,1.7-7.4,5-10.3,3.2-2.9,7.5-4.6,12.1-4.7,43.3-.6,86.7-1.7,130-1.2,3.2,0,6.4,1,9.1,2.8,4.9,3.1,7.7,8.3,7.5,13.8-.2,5.5-.3,8.2-.5,13.6-.1,4.3-2,8.3-5.4,11.2s-7.6,4.5-12.1,4.3c-42.9-1.5-85.7-2.8-128.6-3.2h-.1,0ZM339.8,205.3h0c-43.2-.6-86.4,0-129.7.4-1.2,0-2.3.4-3.2,1.1-.9.7-1.3,1.7-1.3,2.6,0,4.8,0,7,0,11.7,0,1.1.6,1.9,1,2.3.9.9,2.1,1.4,3.4,1.4h0c43,.2,86,1,129,2.3,1.2,0,2.3-.4,3.2-1.1.9-.8,1.4-1.8,1.4-2.9.2-5.4.2-8.1.4-13.6,0-1.4-.7-2.8-2-3.6-.7-.4-1.5-.7-2.3-.7h0Z"/>
    <path class="st0" d="M242.7,235.4c-3.4,0-6.2-2.7-6.2-5.8.1-10.2.3-19.4.4-29.8,0-3.1,2.9-5.8,6.4-5.8,3.5,0,6.3,2.6,6.2,5.7-.2,10.5-.4,19.8-.5,30.2,0,3.1-2.9,5.6-6.4,5.5h0Z"/>
    <path class="st0" d="M305.7,238c-3.5-.1-6.2-2.9-6.1-6.1.3-11.1.6-21.6,1-32.8,0-3.2,3-5.9,6.5-5.9s6.2,2.7,6.1,6c-.4,11.2-.7,22-1,33.2-.1,3.2-3,5.8-6.4,5.7h0Z"/>
  </g>
  <path class="st0" d="M490.8,403.6c-.7,9.8-9.7,17.3-19.4,16.6s-17.5-9.4-16.9-19.2c.7-9.9,9.6-17.4,19.5-16.7s17.6,9.4,16.9,19.2h0Z"/>
  <g>
    <g>
      <path class="st0" d="M149.8,553.5c-8,.3-15.7-2.8-21.3-8.8-6.6-7-9.3-17-6.9-26.6,6.8-27.6,14-55.2,21.5-82.6,2.9-10.8,12-19,23.2-20.9,17.6-3,35.4-5.9,53.1-8.5,2.7-.4,5.4-.6,7.9-.6,7.2,0,14.1,1.5,19.9,4,9.5,4.1,19,15.5,21.2,25.7,1.8,8.1,1.4,17.3-1.7,26.9-2,6-2.9,9.1-4.9,15.2,0,.3-.2.6-.3.9-1.7,4.8-3.3,8.7-5.1,12-1.9,3.6-4.3,6.9-7,9.7-.1,4.3-.2,8.6-.3,12.9-.4,13.9-10.7,25.8-24.5,28-7.1,1.1-10.7,1.6-17.8,2.8-1.3.2-2.6.3-4,.4-5.1,0-10.1-1.2-14.4-3.7-4.2,4.8-9.9,8.2-16.4,9.4-7.2,1.3-10.7,2-17.9,3.4-1.5.3-2.9.5-4.4.5h0Z"/>
      <path class="st0" d="M229.7,539.7c-8.3,0-16.2-3.5-21.7-9.9-6.3-7.4-8.5-17.5-5.7-26.9,8.1-27.3,16.5-54.5,25.3-81.5,3.5-10.6,12.9-18.4,24.2-19.8,24.1-2.9,48.4-5.4,72.6-7.5,1,0,2-.1,3-.1,8.9.2,17.3,4.3,22.7,11.4,6,7.9,7.4,18.2,3.9,27.4-2.5,6.5-3.8,9.7-6.2,16.2-2.8,7.4-8.5,13.2-15.5,16.3-1.1,3.2-2,5.5-2.9,7.9,3.3,6.9,3.8,14.9,1.2,22.2-2.3,6.5-3.5,9.8-5.8,16.3-3.7,10.6-13.1,18-24.1,19.2-22.5,2.4-45,5.2-67.4,8.4-1.2.2-2.5.3-3.7.3h0Z"/>
      <path class="st0" d="M320.3,529c-6.8-.1-13.1-1.7-18.5-4.1-9.5-4.2-18.8-15.8-20.6-26.1-1.4-7.6-.8-16.3,2.3-25.3,0-.1,0-.2.1-.3,1.2-3.2,1.8-4.8,2.9-8.1,1.3-3.5,3.2-6.7,5.6-9.4.2-5,1.2-10.2,3.1-15.6,0-.2.1-.4.2-.5,1.5-4.2,2.3-6.4,3.9-10.6,2.6-7.1,5.6-12.9,9.2-17.7,5.1-6.7,12.1-11.9,20.4-15.1,6-2.3,13-3.7,21.4-4.3,12.7-.9,25.4-1.6,38-2.1,1.9,0,3.8-.1,5.6,0,7.6.3,14.5,2.2,20.2,5,9.3,4.6,18.2,16.5,19.7,26.8,1.2,8.1,0,17-3.9,26,0,0-2,4.7-3.4,7.7-1.5,3.3-3.5,6.3-6,8.8-.5,5-1.9,10.1-4.1,15.7,0,.2-.1.3-.2.5-1.7,4-2.6,6.1-4.2,10-2.8,7-6,12.8-9.7,17.5-5.2,6.5-12,11.3-20,14.3-5.8,2.1-12.4,3.4-20.4,3.9-11.8.8-23.6,1.7-35.4,2.7-2.1.2-4.2.3-6.3.2h0Z"/>
      <path class="st0" d="M405.7,523.7c-8-.3-15.4-2.6-21.7-6.2-8.8-5-16.9-16.7-18.6-26.6-1.5-8.7-.6-18.3,3.4-28,5.6-13.6,11.3-27.2,17-40.7,0,0,0-.1,0-.1,2.8-6.5,6.1-11.9,10-16.5,5.1-6,11.5-10.5,19-13.4,6.1-2.4,13.2-3.6,20.8-3.8,13.4-.2,26.8-.3,40.2-.3,1.2,0,2.4,0,3.5.1,8.6.5,16.3,3.1,22.8,6.9,8.7,5.1,16.7,17,18.1,27,1.3,9-.2,18.6-4.9,28-1.7,3.4-2.5,5.2-4.2,8.7-1.5,3.2-3.6,6-6.1,8.4-.3,3.2-1.2,6.4-2.6,9.4-2.2,4.7-3.4,7.1-5.5,11.7-3.1,6.8-6.5,12.4-10.5,16.9-5.2,6-11.4,10.6-18.6,13.5-6.2,2.5-13.2,3.8-20.9,3.9-12.2.1-24.5.4-36.7.9-1.5,0-3,0-4.4,0h0Z"/>
      <path class="st0" d="M489.4,522.7c-8.6-.6-16.3-3.2-22.8-7.2-8.7-5.4-16.4-17.6-17.6-27.7-1.1-8.8.3-18.4,4.8-28,8.6-18.4,17.4-36.9,26.4-55.1,4.9-10,15.4-16.2,26.7-16,7.8.2,11.8.3,19.6.5.4,0,.8,0,1.3,0,7.3.5,14,3.7,19,8.8,5.6-4.8,13-7.4,20.8-7,7.8.5,11.8.7,19.6,1.2.2,0,.5,0,.8,0,9.8.9,18.5,6.6,23.2,15,4.8,8.7,4.8,19.1,0,27.7-10.5,18.6-20.9,37.5-30.9,56.4-3.8,7.3-7.9,13.1-12.5,17.6-5.9,5.9-12.9,10.1-20.7,12.3-6.1,1.8-13,2.5-21,2.2-11.1-.4-22.3-.7-33.4-.9-1,0-2.1,0-3.2-.1h0Z"/>
      <path class="st0" d="M551.4,524.6c-9.3-.8-17.7-6.1-22.5-14.4-4.9-8.5-5.2-18.9-.8-27.6,13-25.2,26.3-50.3,40.1-75.1,5.4-9.7,16.2-15.5,27.5-14.6,24.4,1.9,48.7,4.2,73.1,6.9,0,0,0,0,0,0,10,1.2,18.8,7.3,23.2,16.2,4.4,8.9,3.9,19.4-1.3,27.7-3.7,5.9-5.5,8.8-9.1,14.7-4.1,6.7-10.8,11.3-18.3,12.9-1.7,2.9-3,5-4.3,7.2,2,7.4,1,15.4-2.9,22-3.5,5.9-5.2,8.9-8.7,14.9-5.6,9.6-16.2,15.1-27.2,14.1-22.6-2.1-45.4-3.7-68.1-5-.3,0-.6,0-.9,0h0Z"/>
      <path class="st0" d="M236.2,632.3c-8,0-15.6-3.4-21-9.7-6.2-7.3-8.4-17.3-5.8-26.7,7.5-27.2,15.4-54.4,23.7-81.4,3.3-10.8,12.6-18.6,23.7-20.1,16.9-2.1,33.9-4,50.8-5.7,2.2-.2,4.3-.3,6.4-.3,7.7.1,14.7,2.1,20.8,5.2,9,4.7,17.5,16.5,19.1,26.6,1.3,8.1.6,17.1-2.7,26.4-2.1,5.9-3.2,9-5.2,15-.1.3-.2.6-.3.9-1.8,4.7-3.5,8.5-5.3,11.7-2,3.5-4.4,6.7-7.1,9.4-.3,4.3-.5,8.7-.8,13-.9,13.7-11.4,25.4-25.1,26.9-6.8.8-10.2,1.1-17,1.9-1.1.1-2.2.2-3.2.2-5,0-9.8-1.4-14-4.1-4.3,4.3-9.8,7.2-16,8.1-6.9.9-10.3,1.4-17.1,2.5-1.2.2-2.5.3-3.7.3h0Z"/>
      <path class="st0" d="M330.5,621.2c-7.4-.2-14.1-1.9-20.1-5.2-9.7-5.4-16.5-14.5-19.1-25.7-2-8.6-1.3-18,2-28,6.5-19.2,13.1-38.3,19.9-57.4,3.8-10.6,13.4-18,24.6-18.9,7.4-.6,11.1-.9,18.5-1.4.9,0,1.8,0,2.7,0,6.3.2,12.3,2.5,17.1,6.4,5-5,11.7-8.2,19-8.5,7.4-.3,11.1-.5,18.6-.7.7,0,1.5,0,2.2,0,8.9.4,17.2,5,22.3,12.5,5.5,8.1,6.4,18.4,2.6,27.4-8.2,19.6-16.4,39.4-24.2,59.2-3,7.6-6.3,13.8-10.2,18.8-5.1,6.6-11.5,11.5-18.8,14.6-5.8,2.4-12.4,3.8-20.1,4.3-10.5.7-21.1,1.5-31.5,2.4-2,.2-3.9.2-5.8.2h0Z"/>
      <path class="st0" d="M406.9,616.4c-7.3-.3-13.9-2.3-19.5-5.3-9-4.8-17.2-16.9-18.5-27.1-.9-7.6,0-16,3.3-24.7,0,0,0-.2.1-.3,1.2-3.2,1.9-4.7,3.1-7.9,1.4-3.4,3.4-6.5,5.8-9.1.4-5,1.6-10.1,3.6-15.5,0-.2.1-.4.2-.5,1.7-4.1,2.5-6.2,4.2-10.3,2.8-7,6-12.6,9.6-17.2,5.2-6.5,12.3-11.5,20.5-14.2,6-2,12.8-3.1,21-3.2,12.1-.2,24.2-.2,36.2-.2,1.3,0,2.6,0,3.8.1,8.1.5,15.3,2.9,21.2,6.3,8.8,5.2,16.6,17.5,17.5,27.7.7,8-.8,16.7-4.9,25.4,0,0,0,0,0,.1-1.4,3-2.1,4.5-3.5,7.4-1.5,3.3-3.6,6.1-6.1,8.5-.7,4.9-2.3,10-4.6,15.4,0,.2-.1.3-.2.5-1.8,3.9-2.7,6-4.4,9.8-3,6.8-6.2,12.5-10,17-5.3,6.3-12.2,10.9-20.1,13.5-5.7,1.9-12.2,2.8-20,3-11.2.2-22.5.5-33.7.8-1.5,0-3.1,0-4.6,0h0Z"/>
      <path class="st0" d="M468.5,615.1c-8.8-.5-16.8-5.3-21.7-13-5.2-8.2-6-18.5-2.1-27.3,11.2-25.8,22.8-51.6,34.8-77,4.8-10.1,15.1-16.5,26.3-16.3,7.5.2,11.2.3,18.7.5.4,0,.8,0,1.2,0,6.7.5,12.9,3.4,17.6,7.9,5.4-4.3,12.2-6.6,19.4-6.2,7.5.4,11.2.7,18.7,1.2.2,0,.5,0,.7,0,9.5.9,17.9,6.5,22.5,14.9,4.7,8.6,4.7,19,0,27.5-13.1,24.4-26,49.1-38.3,73.9-5,10-15.2,16.1-26.1,15.6-6.9-.3-10.4-.5-17.4-.7-.4,0-.8,0-1.2,0-6.2-.5-11.9-3-16.4-7.2-5,4.1-11.3,6.5-17.9,6.4-6.9,0-10.4-.1-17.4-.1-.5,0-1.1,0-1.6,0h0Z"/>
    </g>
    <path class="st2" d="M469.8,438.6c-57.2-3.2-114.5-5.2-171.8-5.8-.6,49.2-1.2,98.4-1.9,147.6,55.2.6,110.3,2.4,165.4,5.5,2.8-49.1,5.5-98.3,8.3-147.4h0Z"/>
    <path class="st2" d="M566.7,474.2c-26.2-2.3-52.3-4.3-78.5-6-1.8,29.5-3.6,59-5.4,88.4,25.6,1.7,51.2,3.7,76.7,5.9,2.4-29.4,4.8-58.9,7.2-88.3h0Z"/>
    <g>
      <path class="st2" d="M149.5,542c-4.8.2-9.5-1.7-12.8-5.3-4-4.2-5.5-10.2-4.1-16,6.8-27.5,14.1-55,21.6-82.4,1.8-6.5,7.2-11.4,13.9-12.5,17.5-3,35.2-5.9,52.8-8.4,2.2-.3,4.3-.5,6.4-.5,5.5,0,10.5.9,14.9,3,7.6,3.5,12.9,10,14.9,18,1.5,6.2,1,13.1-1.4,20.6-2,6.1-2.9,9.2-4.8,15.3,0,.2-.1.4-.2.5-1.5,4.2-2.9,7.6-4.3,10.3-2.1,4-4.9,7.3-8.2,9.9-.1,6-.3,11.9-.4,17.9-.2,8.5-6.4,15.6-14.7,16.8-7.2,1.1-10.7,1.7-17.9,2.8-.8.1-1.6.2-2.4.2-4.2,0-8.3-1.4-11.4-4.2-3-2.6-4.9-6.2-5.6-10.2-.7,2.5-1.4,5.1-2,7.6-1.7,6.5-7,11.5-13.6,12.7-7.2,1.3-10.8,2-18,3.4-.9.2-1.8.3-2.7.3h0Z"/>
      <path class="st2" d="M229.7,528.2c-5,0-9.7-2.1-13-5.9-3.8-4.4-5.1-10.5-3.4-16.1,8.1-27.2,16.6-54.3,25.5-81.2,2.1-6.4,7.8-11,14.5-11.8,24-2.9,48.1-5.4,72.2-7.5.6,0,1.2,0,1.8,0,5.3,0,10.4,2.6,13.6,6.8,3.6,4.7,4.5,10.9,2.4,16.4-2.5,6.5-3.7,9.8-6.2,16.3-2.3,6.1-7.9,10.4-14.4,11.2,0,1.7-.4,3.4-1,5-2,5.5-3.1,8.6-4.8,13.5.2.2.3.4.5.6,3.6,4.6,4.6,10.8,2.6,16.3-2.3,6.5-3.5,9.8-5.7,16.4-2.2,6.4-7.9,10.9-14.5,11.6-22.6,2.4-45.3,5.2-67.8,8.4-.7.1-1.5.2-2.2.2h0Z"/>
      <path class="st2" d="M320.5,517.5c-5.2,0-9.9-1.1-14-3-7.6-3.5-12.6-9.9-14.2-18-1.2-5.8-.5-12.1,2-19.2,0,0,1.8-5,3-8.2,1.3-3.4,3.5-6.3,6.5-8.3-.5-5.2.3-10.8,2.4-17,0-.1,0-.2.1-.3,1.6-4.2,2.4-6.4,3.9-10.6,2.2-6,4.7-10.9,7.7-14.7,3.8-5.1,9-8.8,15.3-11.2,4.9-1.9,10.8-3,18-3.5,12.6-.8,25.2-1.5,37.8-2.1,1.6,0,3.1,0,4.6,0,5.8.2,10.9,1.5,15.2,3.7,7.5,3.9,12.3,10.4,13.7,18.5,1,6.1,0,12.5-3,19.6-1.4,3.1-2,4.7-3.3,7.7-1.4,3.2-3.7,5.9-6.6,7.8.1,5.2-1,10.8-3.5,17,0,.1,0,.2-.1.3-1.7,4.1-2.6,6.1-4.2,10.1-2.4,5.9-5,10.8-8,14.6-3.9,4.9-9,8.5-15.1,10.7-4.7,1.8-10.4,2.8-17.2,3.2-11.9.8-23.8,1.7-35.6,2.7-1.8.2-3.5.2-5.1.2h0Z"/>
      <path class="st2" d="M406.1,512.2c-6.1-.3-11.6-1.8-16.4-4.6-6.9-4.1-11.6-10.9-13.2-19-1.3-6.6-.4-13.9,2.8-21.4,5.6-13.5,11.3-27.2,17.1-40.6,2.4-5.6,5.1-10,8.2-13.7,3.9-4.5,8.7-7.9,14.4-10.1,4.9-1.9,10.5-2.9,16.8-3,13.3-.2,26.6-.3,39.9-.3,1,0,1.9,0,2.9,0,6.6.4,12.4,2.1,17.2,5.1,6.9,4.3,11.5,11.1,12.8,19.1,1.1,6.7-.2,13.9-3.8,21.2-1.7,3.5-2.5,5.3-4.2,8.8-1.6,3.3-4.2,6-7.3,7.7.6,3.4.1,6.9-1.4,10.1-2.2,4.7-3.4,7.1-5.5,11.8-2.7,5.8-5.5,10.5-8.7,14.3-4,4.6-8.7,8.1-14.2,10.3-4.9,2-10.5,3-16.8,3.1-12.3.1-24.6.4-36.9.9-1.2,0-2.4,0-3.5,0h0ZM442.7,450.2c-1.6,3.5-3.2,7.1-4.8,10.8.8,0,1.6,0,2.4,0,.5-1.1,1-2.2,1.6-3.6,1.3-3,3.5-5.4,6.1-7.2-1.8,0-3.5,0-5.3,0h0Z"/>
      <path class="st2" d="M490.1,511.3c-6.7-.5-12.5-2.3-17.3-5.4-6.8-4.5-11.3-11.4-12.5-19.6-1-6.7.3-13.9,3.9-21.5,8.7-18.4,17.5-36.7,26.5-54.9,3-6,9.2-9.7,16-9.6,7.8.2,11.7.3,19.5.5.2,0,.5,0,.8,0,5.7.4,10.9,3.6,13.8,8.5,3.1,5.1,3.2,11.4.5,16.6-6.1,11.9-12.2,23.8-18.2,35.7.4,0,.8,0,1.2,0,8.6-16.8,17.4-33.5,26.3-50,3.2-5.9,9.5-9.4,16.3-9,7.8.5,11.7.7,19.5,1.2.2,0,.3,0,.5,0,5.8.5,11,3.9,13.9,9,2.9,5.2,2.9,11.5,0,16.6-10.5,18.8-20.9,37.7-30.9,56.7-3.2,6.2-6.6,11.1-10.4,14.9-4.5,4.5-9.8,7.7-15.8,9.5-5,1.4-10.7,2-17.5,1.8-11.2-.4-22.4-.7-33.6-.9-.9,0-1.7,0-2.6-.1h0Z"/>
      <path class="st2" d="M552.3,513.2c-5.6-.5-10.7-3.7-13.5-8.6-2.9-5.1-3.1-11.3-.4-16.5,13-25.1,26.4-50.1,40.2-74.8,3.2-5.8,9.7-9.2,16.5-8.7,24.2,1.9,48.5,4.2,72.7,6.9h0c6,.7,11.2,4.4,13.9,9.7,2.7,5.3,2.4,11.6-.7,16.6-3.7,5.9-5.5,8.8-9.1,14.8-3.4,5.6-9.7,8.7-16.3,8.1-.4,1.6-1,3.2-1.9,4.7-3,5-4.7,7.9-7.3,12.3.1.2.3.5.4.7,2.7,5.3,2.6,11.5-.4,16.6-3.5,6-5.2,9-8.6,14.9-3.3,5.8-9.7,9.1-16.3,8.5-22.8-2.1-45.6-3.7-68.5-5-.2,0-.4,0-.5,0h0Z"/>
      <path class="st2" d="M236.2,620.8c-4.8,0-9.4-2.1-12.6-5.9-3.7-4.4-5-10.4-3.4-16,7.6-27.1,15.5-54.2,23.8-81.1,2-6.5,7.6-11.2,14.2-12,16.8-2.1,33.6-4,50.5-5.7,1.8-.2,3.5-.2,5.1-.2,5.8,0,11,1.4,15.5,3.8,7.1,3.9,11.9,10.6,13.5,18.7,1.2,6.2.4,13.1-2.2,20.4-2.1,5.9-3.1,9-5.2,15,0,.2-.1.3-.2.5-1.6,4.1-3,7.4-4.5,10.1-2.2,3.9-4.9,7-8.2,9.5-.4,6-.8,11.9-1.1,17.9-.5,8.5-6.9,15.3-15.1,16.2-6.8.7-10.3,1.1-17.1,1.9-.6,0-1.3.1-2,.1-4.2,0-8.3-1.7-11.4-4.7-2.4-2.3-4-5.3-4.7-8.6-.5,1.8-1,3.5-1.6,5.3-1.9,6.5-7.4,11.3-13.9,12.2-6.9,1-10.3,1.4-17.2,2.5-.7.1-1.5.2-2.2.2h0Z"/>
      <path class="st2" d="M330.8,609.7c-5.6-.1-10.7-1.4-15-3.8-6.9-3.8-11.6-10.3-13.5-18.3-1.5-6.5-.9-13.7,1.8-21.5,6.5-19.1,13.2-38.2,20-57.2,2.3-6.3,8.1-10.8,14.8-11.3,7.4-.6,11-.8,18.4-1.3.5,0,1.1,0,1.6,0,5.2.1,10.1,2.7,13.3,7,3.4,4.7,4.2,10.9,2.1,16.4-4.8,12.5-9.4,25-14,37.5,0,0,.2,0,.3,0,6.6-17.5,13.4-34.9,20.3-52.2,2.5-6.2,8.4-10.5,15.1-10.8,7.4-.3,11.1-.5,18.5-.7.4,0,.9,0,1.3,0,5.3.2,10.3,3,13.3,7.5,3.3,4.8,3.9,11,1.6,16.4-8.2,19.7-16.4,39.6-24.1,59.5-2.5,6.5-5.3,11.7-8.5,15.8-3.9,5-8.7,8.8-14.3,11.1-4.6,2-10.1,3.1-16.6,3.5-10.5.7-21.2,1.5-31.7,2.4-1.6.1-3.1.2-4.6.2h0Z"/>
      <path class="st2" d="M407.3,604.9c-5.5-.2-10.5-1.5-14.7-3.9-7.1-4-11.6-10.6-12.8-18.7-.8-5.8,0-12,2.7-18.8,0,0,0-.1,0-.2,1.2-3.1,1.9-4.7,3.1-7.9,1.4-3.4,3.7-6.1,6.6-8-.3-5.2.7-10.7,3-16.8,0-.1,0-.2.1-.3,1.7-4.2,2.5-6.2,4.2-10.4,2.4-5.9,5-10.6,8-14.3,3.9-4.9,9.1-8.5,15.3-10.6,4.8-1.6,10.5-2.5,17.5-2.6,12-.2,24-.2,36-.2,1.1,0,2.1,0,3.1.1,6.2.4,11.6,2,16,4.6,6.9,4.2,11.2,11,12.1,19.1.7,6-.6,12.3-3.8,19.2-1.4,3.1-2.1,4.5-3.5,7.5-1.5,3.2-3.8,5.7-6.7,7.4-.1,5.2-1.5,10.7-4.1,16.8,0,0,0,.2-.1.3-1.8,4-2.8,6-4.5,9.9-2.5,5.8-5.2,10.5-8.2,14.1-4,4.7-9,8.1-15,10.1-4.7,1.5-10.1,2.3-16.7,2.4-11.3.2-22.6.5-33.9.8-1.3,0-2.5,0-3.8,0h0Z"/>
      <path class="st2" d="M469.2,603.7c-5.3-.3-10.1-3.2-13-7.8-3.1-4.9-3.6-11.1-1.2-16.4,11.2-25.7,22.9-51.4,34.9-76.7,2.9-6.1,9-9.9,15.8-9.7,7.4.2,11.2.3,18.6.5.2,0,.5,0,.7,0,5.6.4,10.6,3.6,13.5,8.4,3,5,3.2,11.2.7,16.3,2.4-4.7,4.7-9.3,7.1-13.9,3.1-6,9.4-9.6,16.1-9.2,7.4.4,11.2.7,18.6,1.2.2,0,.3,0,.4,0,5.7.5,10.7,3.9,13.5,8.9,2.8,5.2,2.8,11.4,0,16.5-13.1,24.5-25.9,49.3-38.3,74.2-3,6-9.1,9.7-15.7,9.4-7-.3-10.5-.5-17.5-.7-.2,0-.5,0-.7,0-5.4-.4-10.3-3.5-13.1-8.3-2.1-3.7-2.9-8-2.1-12.1-1.5,3.2-2.9,6.4-4.4,9.6-2.8,6.2-8.8,10-15.4,9.9-7,0-10.5-.1-17.5-.1-.3,0-.7,0-1,0h0Z"/>
    </g>
    <g>
      <path class="st0" d="M170.9,442.8c17.4-3,34.8-5.8,52.3-8.4,4.6-.7,8.4-.3,11.4,1,2.9,1.3,4.8,3.6,5.5,6.6.8,3.1.4,6.8-1,11.3-1.9,6.2-2.9,9.3-4.8,15.5-1.1,3.4-2.2,6-3.2,7.9-1,1.9-2.3,3.5-3.9,4.6-1.6,1.1-3.6,2.2-6.1,3.1-.2,9.3-.4,18.6-.5,27.9-7.2,1.1-10.9,1.7-18.1,2.8.3-8.8.5-17.6.8-26.4-9.6,1.5-19.2,3.2-28.8,4.9-2.5,9.2-5,18.4-7.4,27.7-7.3,1.3-10.9,2-18.2,3.5,7-27.4,14.2-54.7,21.9-82h0ZM214.3,470.6c.8-.4,1.4-.9,1.9-1.5s.9-1.5,1.2-2.5c1.4-4.5,2.1-6.8,3.6-11.4.3-.9.3-1.6.1-2.2-.2-.6-.6-1.1-1.2-1.4-.6-.3-1.5-.4-2.6-.2-10.8,1.6-21.5,3.3-32.2,5.1-2.3,8.1-3.4,12.1-5.6,20.2,10.6-1.8,21.1-3.6,31.8-5.2,1.3-.2,2.4-.5,3.2-.9h0Z"/>
      <path class="st0" d="M255.3,430.1c23.8-2.8,47.7-5.3,71.6-7.4-2.5,6.5-3.7,9.8-6.1,16.4-17.3,1.5-34.6,3.3-51.9,5.3-2.1,6.2-3.2,9.4-5.3,15.6,13.9-1.6,27.8-3.1,41.8-4.5-2.3,6.4-3.4,9.6-5.6,16-13.8,1.5-27.6,3-41.4,4.7-2.1,6.3-3.1,9.4-5.1,15.6,16.8-2.2,33.6-4.1,50.5-5.8-2.3,6.6-3.4,9.9-5.7,16.4-22.8,2.5-45.6,5.3-68.4,8.5,8.2-27,16.8-54,25.7-80.8h0Z"/>
      <path class="st0" d="M313.8,498.9c-2.6-1.2-4.2-3.2-4.7-5.8-.5-2.7,0-6,1.4-10.1,1.2-3.2,1.8-4.8,3-8,7.2-.7,10.8-1,18-1.6-1.1,2.9-1.6,4.3-2.7,7.1-.2.8-.3,1.4-.2,1.8.1.4.4.8.9,1s1.1.2,2,.2c10.8-.9,21.7-1.7,32.5-2.4,1.2,0,2.3-.4,3-.9.8-.5,1.3-1.3,1.8-2.4,1.4-3.4,2-5.1,3.4-8.5.3-1,.4-1.8.3-2.3s-.4-.9-.9-1.1-1.3-.3-2.5-.2c-11,.6-22,1.4-33.1,2.3-4.2.3-7.5-.1-10.1-1.4-2.5-1.3-4.1-3.4-4.7-6.3-.6-2.9-.1-6.5,1.4-11,1.6-4.2,2.4-6.3,3.9-10.5,1.6-4.4,3.4-7.9,5.3-10.3,1.9-2.5,4.4-4.3,7.6-5.5,3.2-1.2,7.5-2,12.8-2.4,12.5-.8,25-1.5,37.5-2.1,4.6-.2,8.2.4,10.8,1.7,2.6,1.3,4.1,3.4,4.6,6.1s-.1,6.1-1.8,10.1c-1.3,3.1-2,4.6-3.3,7.7-7.4.3-11.1.5-18.5.8,1.1-2.8,1.7-4.1,2.9-6.9.3-1.1.3-2-.1-2.4-.4-.5-1.3-.7-2.7-.6-11,.5-22,1.2-32.9,2-1,0-1.7.2-2.3.5s-1.1.6-1.5,1.1-.8,1.1-1,1.8c-1.4,3.3-2,4.9-3.4,8.2-.5,1.3-.4,2.3.2,2.9.6.6,1.7.8,3.2.7,11.3-.8,22.6-1.5,34-2.1,4.5-.2,7.9.3,10.2,1.7,2.3,1.4,3.7,3.5,4,6.5s-.4,6.8-2.2,11.3c-1.7,4.1-2.5,6.2-4.2,10.4-1.7,4.4-3.5,7.8-5.4,10.2-1.9,2.4-4.4,4.2-7.6,5.3-3.1,1.2-7.3,1.9-12.4,2.2-12,.8-24,1.7-36,2.7-4.3.4-7.8,0-10.4-1.3h0Z"/>
      <path class="st0" d="M398.5,492.7c-2.8-1.6-4.5-4.1-5.1-7.4s0-7.1,1.8-11.6c5.6-13.5,11.4-27,17.2-40.4,1.7-3.9,3.6-7,5.6-9.3,2-2.3,4.5-4,7.4-5.2,2.9-1.1,6.5-1.7,10.8-1.8,13.2-.2,26.4-.4,39.5-.3,4.5,0,8.1.9,10.8,2.6,2.7,1.7,4.3,4.1,4.9,7.3.5,3.2-.2,6.8-2.3,10.9-1.7,3.6-2.6,5.4-4.3,9-7.5,0-11.2-.1-18.6,0,1.4-3.2,2.1-4.7,3.6-7.9.6-1.2.9-2.3.8-3.2,0-.9-.5-1.6-1.2-2-.7-.4-1.7-.6-3.1-.6-9.8,0-19.6.1-29.4.3-1.4,0-2.6.2-3.6.5-1,.3-1.9.9-2.6,1.8-.7.8-1.4,1.9-1.9,3.2-5,11.3-10,22.7-14.9,34-.5,1.3-.7,2.4-.6,3.4.1.9.6,1.6,1.4,2.1s1.9.7,3.2.6c9.1-.3,18.2-.5,27.4-.6,1.6,0,3-.2,4.1-.6,1.1-.4,2-1,2.7-1.9.7-.9,1.5-2,2.1-3.5,1.4-3.1,2.1-4.6,3.5-7.7,7.4,0,11.1,0,18.4,0-2.2,4.8-3.4,7.2-5.6,11.9-2,4.4-4,7.8-6.1,10.3-2.1,2.5-4.7,4.4-7.6,5.6-2.9,1.2-6.4,1.8-10.6,1.9-12.4.1-24.9.4-37.3.9-4.3.1-7.8-.6-10.6-2.2h0Z"/>
      <path class="st0" d="M482.1,491.4c-2.7-1.8-4.3-4.3-4.7-7.6-.5-3.3.4-7.2,2.5-11.7,8.7-18.3,17.6-36.5,26.6-54.7,7.7.2,11.6.3,19.3.5-9.1,17.9-18.1,35.9-26.9,53.9-.6,1.4-.9,2.6-.8,3.5.1.9.6,1.6,1.4,2.1.8.5,2,.7,3.6.8,8,.2,16,.4,24,.7,2.1,0,3.9,0,5.2-.5,1.3-.4,2.5-1.1,3.5-2.2,1-1,2-2.6,3-4.6,9-17.4,18.2-34.7,27.5-52,7.7.4,11.6.7,19.3,1.2-10.5,18.9-20.7,37.9-30.8,57-2.4,4.7-4.8,8.3-7.3,10.8s-5.3,4.2-8.4,5.1c-3.2.9-7.2,1.3-12.1,1.1-11.3-.4-22.6-.7-33.9-.9-4.5,0-8.1-1-10.8-2.7h0Z"/>
      <path class="st0" d="M593.9,421.7c24,1.9,48,4.2,72,6.8-3.7,5.9-5.5,8.9-9.1,14.9-17.4-1.9-34.8-3.6-52.2-5-3.3,5.7-4.9,8.6-8.1,14.3,14,1.1,28,2.4,42.1,3.8-3.4,5.8-5.1,8.7-8.5,14.6-13.9-1.3-27.8-2.5-41.7-3.5-3.2,5.7-4.8,8.6-7.9,14.4,17,1.2,34,2.6,50.9,4.2-3.5,6-5.2,9-8.6,15-23-2-46-3.7-69.1-5.1,13.1-25,26.5-49.7,40.3-74.3h0Z"/>
      <path class="st0" d="M260.2,522.9c16.7-2.1,33.4-4,50.1-5.6,4.5-.4,8,.1,10.8,1.6s4.4,3.8,5,6.9c.6,3.1.1,6.9-1.4,11.2-2.1,6.1-3.1,9.1-5.2,15.2-1.2,3.3-2.4,5.9-3.4,7.7s-2.3,3.3-3.9,4.4c-1.5,1.1-3.5,2-5.9,2.7-.5,9.3-1.1,18.5-1.6,27.8-6.9.7-10.4,1.1-17.3,1.9.6-8.8,1.2-17.5,1.8-26.3-9.2,1-18.4,2.2-27.5,3.3-2.8,9.1-5.5,18.1-8.1,27.2-7,1-10.4,1.5-17.4,2.5,7.7-27,15.7-53.9,24.1-80.7h0ZM300.3,552.9c.8-.3,1.4-.8,1.9-1.4.5-.6.9-1.4,1.2-2.5,1.5-4.5,2.3-6.7,3.9-11.2.3-.9.4-1.6.2-2.2-.2-.6-.5-1.1-1.1-1.4-.6-.3-1.4-.4-2.5-.3-10.3,1-20.6,2.2-30.9,3.4-2.5,7.9-3.8,11.9-6.2,19.8,10.1-1.3,20.2-2.5,30.4-3.5,1.3-.1,2.3-.4,3.1-.7h0Z"/>
      <path class="st0" d="M323.7,590.7c-2.7-1.5-4.4-3.8-5.1-7.1-.7-3.2-.3-7.2,1.3-11.9,6.6-19,13.3-38,20.2-57,7.3-.6,10.9-.8,18.2-1.3-7,18.7-13.9,37.5-20.6,56.3-.5,1.5-.6,2.7-.5,3.6.2.9.7,1.6,1.5,2,.8.4,2,.5,3.5.4,7.5-.6,15.1-1.1,22.6-1.6,2-.1,3.6-.5,4.9-1,1.2-.5,2.3-1.4,3.1-2.5.8-1.1,1.6-2.8,2.4-4.8,7-18.2,14.1-36.3,21.3-54.4,7.3-.3,11-.5,18.3-.7-8.2,19.9-16.2,39.8-24,59.8-1.9,4.9-3.9,8.7-5.9,11.4-2.1,2.7-4.6,4.7-7.5,5.9-2.9,1.2-6.7,2-11.3,2.3-10.7.7-21.4,1.5-32,2.4-4.3.4-7.7-.2-10.4-1.7h0Z"/>
      <path class="st0" d="M400.7,585.9c-2.4-1.4-3.8-3.4-4.2-6.1-.4-2.7.2-6,1.8-10,1.3-3.1,1.9-4.7,3.2-7.8,6.9-.3,10.3-.4,17.2-.6-1.2,2.8-1.8,4.2-2.9,7-.3.8-.4,1.4-.3,1.8,0,.5.3.8.8,1,.4.2,1,.3,1.9.3,10.3-.3,20.6-.5,31-.7,1.2,0,2.2-.2,2.9-.7s1.3-1.2,1.8-2.3c1.5-3.3,2.2-5,3.6-8.3.3-1,.4-1.8.4-2.3s-.3-1-.8-1.2-1.3-.3-2.3-.3c-10.5,0-21,.3-31.5.6-4,.1-7.1-.5-9.5-2-2.4-1.4-3.7-3.6-4.2-6.5-.4-2.9.2-6.6,1.8-10.9,1.7-4.1,2.5-6.2,4.2-10.3,1.8-4.3,3.6-7.7,5.5-10,1.9-2.3,4.4-4,7.5-5.1,3.1-1,7.2-1.6,12.3-1.7,11.9-.2,23.8-.2,35.7-.2,4.4,0,7.8.8,10.2,2.2,2.4,1.5,3.7,3.6,4,6.3.3,2.8-.4,6.1-2.2,10-1.4,3-2.1,4.5-3.5,7.5-7,0-10.6,0-17.6,0,1.2-2.7,1.8-4.1,3.1-6.8.4-1.1.4-1.9,0-2.4s-1.2-.7-2.5-.7c-10.5,0-20.9,0-31.4.3-.9,0-1.7.1-2.2.3s-1.1.5-1.5,1c-.4.5-.8,1-1,1.7-1.4,3.2-2.2,4.8-3.6,8-.5,1.3-.5,2.2,0,2.9.5.6,1.5.9,3,.9,10.8-.2,21.6-.4,32.3-.4,4.2,0,7.5.7,9.6,2.2,2.2,1.5,3.3,3.7,3.5,6.7s-.7,6.7-2.6,11.2c-1.8,4-2.7,6.1-4.5,10.1-1.8,4.3-3.6,7.6-5.6,9.9-1.9,2.3-4.4,3.9-7.4,4.9-3,1-7,1.5-11.9,1.6-11.4.2-22.8.5-34.2.9-4.1.2-7.4-.5-9.8-1.8h0Z"/>
      <path class="st0" d="M505.2,510.2c7.4.2,11.1.3,18.4.5-4.8,9.8-9.5,19.6-14.2,29.4,12.3.3,24.7.8,37,1.4,4.9-9.7,9.8-19.4,14.8-29,7.4.4,11.1.7,18.4,1.2-13.1,24.7-25.8,49.6-38.2,74.6-7.1-.3-10.6-.5-17.7-.7,4.8-10.1,9.7-20.2,14.6-30.2-12.2-.6-24.5-1-36.7-1.2-4.7,10.2-9.4,20.3-14,30.6-7.1,0-10.6-.1-17.6-.1,11.3-25.6,23-51,35-76.3h0Z"/>
    </g>
  </g>
  <circle class="st2" cx="239.2" cy="398.4" r="42.3"/>
  <path class="st5" d="M269.9,391.7c1.1,22.7-16.2,36.2-35.3,37.8-28.1,2.4,20.2,7.5,20.2,7.5l28-26.4s-14.3-47-12.9-18.9h0Z"/>
  <path class="st0" d="M238.2,443.9c-20-.3-38.1-13.7-44.1-32.8-1.2-3.8-1.9-7.8-2.1-11.8-.4-13.3,5.3-27.6,15.7-36.3,8.2-6.9,18.8-11.2,29.7-11.5,12.3-.4,24.4,4.1,33.4,12.4,9.2,8.4,14.5,20.3,14.8,32.7.1,5.1-.6,10.1-2.2,15-6,18.6-23.7,31.7-43.2,32.2-.7,0-1.3,0-2,0h0ZM239.3,363.4c-.5,0-1,0-1.6,0-7.3,0-16.6,3.6-22,8.5-7.5,6.7-12.1,16.7-11.7,26.9.1,3,.7,6,1.5,8.8,4.2,14.4,19.6,24.5,34.3,24.4,14.1-.2,27.7-10.6,32.1-24h0c1.2-3.6,1.6-7.4,1.6-11.1,0-8.2-5-18.8-11-24.3-5.6-5.1-15.4-9.3-23.2-9.2h0Z"/>
  <path class="st0" d="M257,398c-.2,9.8-8.6,17.8-18.4,17.7-9.8-.1-18-8.4-17.9-18.2,0-9.9,8.6-17.9,18.4-17.8,9.8.1,18.1,8.4,17.9,18.2h0Z"/>
  <g>
    <path class="st0" d="M173.5,409.6c-4.3,17.1-19.8,29.7-37.3,30.7-18.6,1-36.1-11.2-41.4-29.1,26.2-.8,52.5-1.3,78.7-1.6h0Z"/>
    <path class="st0" d="M134.6,446.3c-20.6.2-39.6-13.6-45.5-33.4-.9-3-1.3-4.4-2.2-7.4,31.4-1,62.9-1.6,94.3-1.9-.8,3-1.1,4.5-1.9,7.5-4.9,19.5-22.7,34.1-42.8,35.2-.7,0-1.3,0-2,0h0ZM103.7,416.9c6.6,10.7,19.2,18.6,32.2,17.5,11.8-1,23.7-7.8,29-18.7-20.4.3-40.8.7-61.2,1.2Z"/>
  </g>
  <path class="st0" d="M301.2,229.3l10.8,7.3-44.5,64.3c-5.4,7.9-13.6,13.5-22.8,15.9l-64.5,18.6-6.8-11.1,67.3-17.9c7.1-1.7,13.2-6.1,17.2-12.1l43.2-65h0Z"/>
</svg>