<?xml version="1.0" encoding="UTF-8"?>
<svg id="Layer_1" data-name="Layer 1" xmlns="http://www.w3.org/2000/svg" viewBox="0 0 600 600">
  <defs>
    <style>
      .cls-1 {
        fill: #c1cb30;
      }

      .cls-2 {
        fill: #fff;
      }

      .cls-3 {
        fill: #e12228;
      }

      .cls-4 {
        fill: #1f9cd8;
      }

      .cls-5 {
        fill: #b02024;
      }

      .cls-6 {
        fill: #d1d3d4;
      }

      .cls-7 {
        fill: #1c7dae;
      }

      .cls-8 {
        fill: #010101;
      }

      .cls-9 {
        fill: #bcbec0;
      }

      .cls-10 {
        fill: #d4df30;
      }
    </style>
  </defs>
  <polygon class="cls-3" points="148.1 225.96 243.17 223.79 236.12 241.04 220.17 264.14 213.06 272.46 110.38 271.22 30.89 301.34 31.12 311.37 152.89 311.89 150.92 350.17 32.19 358.66 33.12 399.67 170.9 396.54 181.86 351.02 153.76 350.18 157.62 311.78 341.8 313.84 339.33 205.47 326.27 196.02 280.09 229.39 310.36 229.35 314.17 271.22 255.82 269.92 282.38 226.69 339.12 199.53 167.25 199.63 148.1 225.96"/>
  <polyline class="cls-3" points="249.96 350.28 263.13 389.17 335.17 384.26 336.29 348.32 249.96 350.28"/>
  <path class="cls-3" d="M342.63,350.62l-4.08,31.06,56.07-1.27,17.76,5.37s12.64-8.17,13.85-7.99,11.68-18.2,11.68-18.2l22.27-20.83s13.82-1.89,16.09-1.64,14.9,2.63,15.89,3.33c.98.7,23.5,21.24,23.5,21.24,0,0,8.46,11.9,9.45,12.85s37.77,1.32,37.77,1.32l2.88-55.71,5.08-147.59-123.58-8.66-112.27-2.53,2.03,152.41,65.2,2.1s56.02-41.43,58.45-41.24-35.21,57.89-35.21,57.89c0,0-13.28,22.34-19.09,22.22s-63.72-4.13-63.72-4.13Z"/>
  <polygon class="cls-10" points="156.33 349.43 184.9 348.08 209.8 336.58 246.15 348.08 407.01 352 460.66 274.64 410.93 309.47 388.74 314.34 149.93 311.88 156.33 349.43"/>
  <polygon class="cls-2" points="148.1 225.96 243.17 223.79 216.17 268.82 105.77 274.9 148.07 229.97 148.1 225.96"/>
  <polygon class="cls-2" points="257.94 271.42 284.39 229.01 313.12 226.54 311.76 275.28 257.94 271.42"/>
  <polyline class="cls-2" points="35.09 315.19 53.55 312.07 64.22 347.72 56.23 358.11 32.19 358.66 31.48 327.49 35.09 315.19"/>
  <polygon class="cls-2" points="114.24 306.97 152.84 309.82 150.92 350.17 119.92 358.52 115.22 350.36 114.24 306.97"/>
  <polyline class="cls-2" points="63.55 318.21 106.73 317.23 111.85 338.81 69.08 345.41 61.06 334.02 63.55 318.21"/>
  <circle class="cls-2" cx="477.3" cy="382.96" r="47.23"/>
  <path class="cls-5" d="M245.97,229.33c1.87,1.35,2.58,5.03,1.4,7.01-4.77,7.98-13.22,25.79-19.6,36.32-2.77,4.58-7.06,8.01-12.42,8.05l-125.11,3.24s20.17-12.88,22.08-13.92,104.22-.62,104.22-.62l23.8-46.2,5.62,6.12Z"/>
  <path class="cls-5" d="M323.69,268.36c-.13,1.76,3.68,4.35.53,13.51-1.09,3.18-3.5,5.21-6.18,5.22l-49.46-.15c-4.24.01-7.81-3.17-8.28-7.38-.22-1.93-.28-3.55.08-3.8.95-.67,59.78,1.91,59.78,1.91l3.55-9.31Z"/>
  <path class="cls-6" d="M116.37,345.61l23.59-1.15c1.77-.09,3.15-1.57,3.11-3.34l-.66-28.98s4.45-2.42,5.66,1.16c1.21,3.58,5.44,10.36,5.12,11.43s-2.26,25.45-2.26,25.45c0,0,.14,6.55-3.79,6.85-3.93.3-15.16,1.68-16.74,1.26s-13.61-4.17-13.85-4.97-.18-7.71-.18-7.71Z"/>
  <path class="cls-6" d="M24.83,348.94l26.77-1.31-.73-32.17s4.45-2.42,5.66,1.16c1.21,3.58,5.44,10.36,5.12,11.43s-2.26,25.45-2.26,25.45c0,0,.14,6.55-3.79,6.85-3.93.3-15.16,1.68-16.74,1.26-1.59-.41-13.61-4.17-13.85-4.97s-.18-7.71-.18-7.71Z"/>
  <path class="cls-6" d="M66.41,337.73l35.39-1.43-.85-14.28s4.45-2.42,5.66,1.16c1.21,3.58,5.44,10.36,5.12,11.43s-2.14,7.56-2.14,7.56c0,0,.14,6.55-3.79,6.85-3.93.3-15.16,1.68-16.74,1.26s-22.22-3.44-22.46-4.23-.19-8.31-.19-8.31Z"/>
  <path class="cls-6" d="M118.86,260.72c1.38-.13,68.98-1.59,85.6-1.95,2.31-.05,4.46-1.17,5.82-3.04l21.43-29.44s10.96.76,10.35,1.57c-.61.8-12.6,18.08-13.6,18.89s-15.89,19.51-16.9,19.53-82.99.08-85.92.04-1.22.7-5.64-.32c-4.42-1.03-4.54-1.7-4.54-1.7l3.41-3.57Z"/>
  <path class="cls-6" d="M263.38,265.17c3.6.09,43.64.51,43.64.51l1.24-34.47s9.48.97,9.5,1.64,4.39,37.74,4.39,37.74l-13,7.39s-13.66.92-21.98-.8c-8.32-1.72-29.93-1.48-28.97-3.91.96-2.43,5.17-8.1,5.17-8.1Z"/>
  <polygon class="cls-5" points="559.93 175.8 544.97 360.13 515.57 358.27 490.72 336.79 460.17 340.43 440.01 359.92 334.77 367.38 337.18 387.49 430.34 395.33 445.5 349.29 475.69 333.92 506.25 347.34 521.28 369.64 521.36 399.98 558.51 399.92 570.83 172.56 559.93 175.8"/>
  <polygon class="cls-5" points="33.12 399.67 31.57 387.56 179.83 380.18 174.28 398.09 33.12 399.67"/>
  <polygon class="cls-1" points="155.51 332.81 338.41 333.66 336.09 351.13 246.15 348.08 226.63 336.2 205.77 340.24 184.9 348.08 168.31 352.14 153.92 347.84 155.51 332.81"/>
  <path class="cls-1" d="M340.87,333.29l59.04,1.3,49.14-47.74-12.15,27.93-22.58,29.4-7.31,5.34-42.46,4.79s-24.55-3.87-25.25-3.22,1.58-17.8,1.58-17.8Z"/>
  <path class="cls-5" d="M46.94,297.57l279.25,4.58,1.72-102.86,13.68-2.58s3.54,121,1.14,122.8-182.85-.17-183.86-.14c-1.01.02-26.84-6.52-31.9-6.2-5.06.32-93.61,4.51-93.61,4.51l13.58-20.11Z"/>
  <polygon class="cls-5" points="232.61 399.72 224.59 372.93 372.85 365.55 369.51 396.61 232.61 399.72"/>
  <path class="cls-5" d="M176.04,308l54.22-16.55c7.28-2.22,13.52-6.99,17.57-13.44l52.13-82.91-15.73-2.33-27.89,42.19-23.13,44.79-73.9,20.97,16.72,7.28Z"/>
  <path class="cls-8" d="M45.03,408.47c-9.87.33-18.3-7.05-19.04-16.93-1.46-24.63-2.93-49.26-4.4-73.89-.03-.47-.07-.92-.1-1.36-.27-3.24-.65-7.67,2.66-12.83,3.22-5.02,7.19-6.52,10.08-7.62.49-.19,1-.38,1.52-.6.16-.06.24-.09.4-.15,21.24-7.67,48.97-13.69,64.4-26.33,23.07-18.9,44.48-51.84,66.59-77.62,2.12-2.47,3.17-3.7,5.3-6.17,2.18,2.41,3.27,3.61,5.45,6.02.98,1.09,2.39,1.69,3.88,1.67.02,0,.03,0,.04,0,47.99-1.08,95.97-1.48,143.97-1.22,1.32,0,2.57-.48,3.53-1.37.96-.89,1.49-2.07,1.5-3.32.04-6.1.07-9.15.11-15.25.01-1.61-.85-3.1-2.31-4-8.08-4.94-12.12-7.41-20.24-12.32,84.15.35,168.24,2.81,252.26,7.38.05,0,.11,0,.16.01,9.98.67,18.29,8.78,17.9,19.07-4.11,70.02-8.26,140.03-12.42,210.05-.75,9.95-9.28,17.34-19.2,16.91-13.06-.73-26.13-1.4-39.19-2.01,1.75-3.61,2.63-5.42,4.4-9.03,2.77-5.69,4.07-11.82,3.79-18.21-.84-19.73-18.03-35.35-37.22-36.55-9.42-.59-21.87,4.26-28.6,10.62-6.62,6.26-12.05,18.28-11.82,27.58.11,4.63.9,9.34,2.61,13.7,1.46,3.74,2.19,5.61,3.65,9.34-64.71-2.05-129.43-2.8-194.17-2.26,1.02-3.43,1.52-5.15,2.54-8.58,1.2-4.05,1.72-8.25,1.53-12.49-.96-21.12-20.19-37.02-40.74-36.38-9.21.29-20.91,5.96-27.01,12.66-6.01,6.61-10.45,18.67-9.71,27.74.27,3.27.85,6.62,1.9,9.75,1.14,3.4,1.71,5.1,2.85,8.5-45.58,1.2-91.13,3.03-136.67,5.48-.05,0-.11,0-.16,0ZM41.02,307.47c-.63.26-1.24.49-1.84.72-2.2.83-2.64,1.03-3.43,2.26-.88,1.37-.86,2.17-.65,4.73.05.55.09,1.11.12,1.68,1.4,24.63,2.79,49.26,4.18,73.89.14,2.55,2.44,4.58,5.02,4.46.01,0,.03,0,.04,0,39.9-2.15,79.81-3.83,119.75-5.03-.24-1.53-.41-3.07-.51-4.62-.88-13.66,3.82-27.23,13.01-37.37,9.33-10.3,22.67-16.53,36.42-17.1,27.34-1.14,54.06,20.56,54.87,49.07.08,2.73,0,5.52-.32,8.24,52.74-.24,105.45.36,158.17,1.81-.56-3-.86-6.05-.88-9.14-.1-14.01,5.67-27.71,15.83-37.17,10.09-9.39,24.54-15.21,38.57-14.34,25.55,1.59,49.48,22.88,50.14,49.3.13,5.15-.41,10.43-1.77,15.43,8.02.41,12.03.63,20.05,1.07,2.64.15,4.91-1.85,5.05-4.46,3.96-70.03,7.9-140.05,11.8-210.08.14-2.55-2.01-4.84-4.71-5.02-.01,0-.03,0-.04,0-71.67-3.9-143.38-6.27-215.15-7.11.16.96.23,1.95.22,2.94-.06,6.1-.09,9.14-.15,15.24-.31,10.27-9.07,17.81-19.12,17.83-47.86-.26-95.71.15-143.56,1.22-2.9.06-5.73-.49-8.3-1.59-21.07,24.53-41.19,53.44-63.58,73.82-16.43,14.96-47.13,21.45-69.23,29.33Z"/>
  <path class="cls-9" d="M512.02,373.45c1.86,25.3-17.21,40.83-38.43,43.1-31.32,3.35,22.74,7.82,22.74,7.82l30.55-30.15s-17.17-52.11-14.86-20.77Z"/>
  <path class="cls-8" d="M474.77,432.54c-20.24-1.02-38.8-14.19-46.24-33.04-2.32-5.87-3.58-12.15-3.56-18.44.08-27.67,23.92-52.36,52.47-51.56,27.52.77,52.93,23.59,52.1,52.15-.22,7.5-1.88,14.91-5.22,21.7-8.74,17.77-27.54,29.33-47.34,29.25-.74,0-1.48-.02-2.21-.06ZM479.1,342.81c-.57-.03-1.15-.04-1.72-.05-20.97-.11-39.04,17.06-38.98,38.24.02,4.72.86,9.44,2.61,13.71,5.67,13.8,20.33,25.02,36.03,24.63,14.26-.36,29.04-8.61,35.2-21.78,2.34-5,3.76-10.47,3.83-16.12.25-20.53-16.64-37.61-36.97-38.63Z"/>
  <g>
    <path class="cls-8" d="M392.9,396c-7.5,14.05-23.43,24.07-39.36,24.19-16.74.12-34.6-9.56-41.89-25.21,27.09.13,54.17.48,81.25,1.03Z"/>
    <path class="cls-8" d="M351.45,426.82c-18.67-.43-37.77-11.7-45.8-28.9-1.92-3.84-2.89-5.76-4.82-9.6,34.36.09,68.7.52,103.05,1.3-2.03,3.79-3.04,5.68-5.06,9.48-8.61,16.1-26.87,27.58-45.14,27.72-.74,0-1.49.02-2.24,0ZM324.48,401.67c7.55,7.75,18.27,11.92,28.91,11.89,8.91-.02,20.29-4.61,26.53-11.19-18.48-.35-36.96-.59-55.44-.7Z"/>
  </g>
  <path class="cls-8" d="M330.74,392.56c.09-70.91.13-141.82.12-212.73,5.61,0,8.42.02,14.03.04-.2,70.91-.45,141.82-.75,212.73-5.36-.02-8.04-.03-13.4-.04Z"/>
  <path class="cls-8" d="M142.44,361.69c-33.25.87-66.48,2.06-99.71,3.58-9.95.35-18.55-7.06-19.22-17.08-.47-9.34-.71-14.01-1.19-23.35-.34-10.13,7.64-18.3,17.63-18.88,33.66-1.53,67.32-2.74,101-3.62,10.01-.14,18.55,7.44,18.93,17.57.2,9.35.29,14.02.49,23.37.04,10.04-7.99,18.05-17.94,18.41ZM40.57,319.21c-2.68.13-4.77,2.35-4.64,4.96.45,9.34.67,14.01,1.12,23.35.12,2.61,2.39,4.63,5.06,4.5,33.32-1.52,66.65-2.71,100-3.59,2.67-.07,4.78-2.24,4.72-4.85-.22-9.35-.33-14.02-.56-23.37-.06-2.61-2.3-4.68-4.98-4.62-33.59.88-67.15,2.08-100.72,3.61Z"/>
  <path class="cls-8" d="M56.23,358.11c-.89-15.35-1.78-30.69-2.68-46.04,5.46-.31,8.18-.47,13.64-.76.85,15.35,1.7,30.7,2.54,46.05-5.4.29-8.1.45-13.5.76Z"/>
  <path class="cls-8" d="M106.36,356.31c-1-15.35-2-30.69-3.01-46.04,5.45-.35,8.18-.52,13.63-.85.96,15.35,1.92,30.7,2.87,46.05-5.4.33-8.1.5-13.5.84Z"/>
  <path class="cls-8" d="M61.24,328.13c-.24-5.3-.37-7.95-.61-13.25,16.64-.74,33.28-1.42,49.92-2.02.19,5.3.28,7.95.47,13.25-16.6.6-33.19,1.28-49.78,2.02Z"/>
  <path class="cls-8" d="M112.22,352.06c-16.59.49-33.17,1.05-49.75,1.68-.21-5.3-.31-7.95-.52-13.25,16.63-.63,33.26-1.19,49.9-1.68.15,5.3.22,7.95.37,13.26Z"/>
  <path class="cls-8" d="M337.46,320.53c-62.41-1.55-124.81-1.93-187.24-1.12-.07-5.3-.11-7.96-.18-13.26,62.6-.81,125.19-.43,187.77,1.12-.14,5.3-.21,7.95-.36,13.26Z"/>
  <path class="cls-8" d="M184.99,356.16c-10.36.17-20.72.37-31.08.59-.12-5.3-.18-7.96-.3-13.26,10.39-.22,20.78-.42,31.17-.59.08,5.3.12,7.96.21,13.26Z"/>
  <path class="cls-8" d="M337.44,356.32c-30.42-.5-60.84-.74-91.27-.71-.01-5.3-.02-7.96-.03-13.26,30.52-.03,61.02.21,91.54.71-.09,5.3-.14,7.96-.23,13.26Z"/>
  <path class="cls-8" d="M399.49,357.84c-20.68-.62-41.37-1.13-62.06-1.52.09-5.3.14-7.96.23-13.26,20.75.39,41.49.9,62.24,1.53,3.78.12,7.35-1.61,9.53-4.63,11.93-16.42,23.95-32.78,36.05-49.07-10.62,8.26-21.21,16.56-31.78,24.89-4.61,3.65-10.42,5.58-16.36,5.45-19.91-.33-39.83-.56-59.74-.69.02-5.3.03-7.96.06-13.26,19.98.12,39.96.35,59.95.69,2.73.06,5.37-.82,7.46-2.48,15.26-12.06,30.59-24.04,45.99-35.93,4.46-3.43,10.71-3.16,14.85.65,4.14,3.81,4.69,9.81,1.35,14.25-15.73,20.95-31.32,42.01-46.76,63.19-4.84,6.65-12.68,10.45-21,10.19Z"/>
  <path class="cls-8" d="M208.93,277.93c-32.89.41-65.76,1.13-98.63,2.15-3.79.12-6.97-2.74-7.09-6.4-.12-3.66,2.86-6.73,6.67-6.86,32.97-1.02,65.94-1.74,98.92-2.16,1.86-.02,3.6-.92,4.65-2.4,7.15-10.12,14.34-20.21,21.57-30.28-28.38.52-56.75,1.26-85.11,2.21-3.8.16-7.05-2.72-7.18-6.38-.14-3.66,2.86-6.74,6.7-6.88,29.77-1.01,59.55-1.77,89.34-2.29,4.43-.08,8.54,2.22,10.64,5.97,2.1,3.75,1.82,8.25-.7,11.75-7.99,11.09-15.94,22.21-23.86,33.35-3.59,5.07-9.52,8.13-15.88,8.2Z"/>
  <path class="cls-8" d="M313.5,283.35c-.13,0-.25,0-.38,0-15.95-.19-31.9-.29-47.85-.32-4.6-.2-8.72-2.79-10.77-6.77-2.03-3.95-1.7-8.64.88-12.28,8.24-12.1,16.52-24.17,24.84-36.22,2.4-3.25,6.32-5.19,10.49-5.16,9.19.05,13.78.09,22.96.18,6.69.07,12.23,5.13,12.6,11.5,0,.15,0,.22.01.37,0,12.02,0,24.04-.02,36.05.13,3.38-1.21,6.68-3.69,9.08-2.41,2.32-5.69,3.61-9.07,3.57ZM267.89,269.78c14.87.03,29.74.12,44.61.3-.03-11.35-.06-22.7-.09-34.05-8.47-.08-12.7-.12-21.17-.16-7.82,11.28-15.6,22.59-23.35,33.91ZM261.09,267.67s0,0,0,0c0,0,0,0,0,0Z"/>
  <g>
    <path class="cls-4" d="M167.26,164.02c1.29,12.13,1.9,16.89,3.17,28.52,14.57,1.41,29.14,2.88,43.7,4.41.55-15.16.86-21.19,1.4-36.61-16.08,1.36-32.17,2.61-48.27,3.68Z"/>
    <path class="cls-4" d="M288.11,159.36c-.3,14.5-.47,21.21-.77,35.64,14.9.12,29.8.23,44.7.32.03-12.55.07-25.1.1-37.65-14.68.49-29.35,1.06-44.03,1.69Z"/>
    <path class="cls-2" d="M216.25,191.71c-.25-10.91-.36-15.75-.61-26.82,24.16-1.79,48.32-3.68,72.48-5.53-.82,12.71-1.25,18.66-2.08,31.17-23.26.4-46.53.78-69.79,1.18Z"/>
    <path class="cls-6" d="M214.71,186.82c20.47-.45,40.94-.9,61.42-1.34.05-9.82.09-14.57.14-24.6,0,0-3.19.11-.95,2.91,2.25,2.8,10.28,7.99,9.62,8.87-.66.87-5.04,20.42-5.04,20.42,0,0,.1,5.33-7.52,5.59-7.62.26-29.44,1.39-32.5,1.06-3.07-.33-26.28-3.23-26.73-3.84s1.57-9.05,1.57-9.05Z"/>
    <path class="cls-7" d="M290.19,195.81c.54-3.87.82-5.79,1.36-9.6,11.3.09,16.96.15,28.26.25,3.1.03,5.6-2.49,5.53-5.57-.14-6.13-.21-9.19-.35-15.34,3.7.83,5.55,1.24,9.24,2.09,1.36,7.51,2.04,11.27,3.39,18.8-1.08,4.85-1.61,7.27-2.69,12.14-14.92-.9-29.84-1.82-44.75-2.76Z"/>
    <path class="cls-7" d="M169.68,195.37c.55-3.57.83-5.28,1.38-8.67,13.57.06,20.35.08,33.92.15-.17-7.49-.25-11.02-.42-18.67,3.69.71,5.54,1.07,9.24,1.78,1.34,6.79,2.01,10.01,3.35,16.78-1.09,4.36-1.63,6.55-2.71,11.14-14.91-.88-29.83-1.71-44.75-2.5Z"/>
    <path class="cls-8" d="M179.61,202.78c-5.65.06-11-2.22-14.7-5.99-2.82-2.87-4.44-6.39-4.54-9.92-.16-5.24-.23-7.74-.39-13.01-.12-4.15,1.74-8.28,5.27-11.61,3.53-3.33,8.28-5.38,13.38-5.56,48.35-1.74,96.66-4.06,145.04-4.61,3.62.02,7.19.96,10.27,2.84,5.52,3.35,8.77,9.05,8.71,15.21-.06,6.1-.09,9.14-.15,15.24-.05,4.79-2.07,9.27-5.69,12.64-3.62,3.36-8.38,5.2-13.43,5.14-47.87-.54-95.73-.99-143.6-.36-.06,0-.11,0-.17,0ZM323.66,165.33s-.03,0-.05,0c-48.25.39-96.45,2.17-144.67,3.77-1.32.04-2.57.53-3.51,1.36-.93.83-1.43,1.88-1.4,2.97.14,5.3.21,7.83.35,13.1.03,1.19.66,2.05,1.19,2.56.98.95,2.38,1.48,3.87,1.46.02,0,.03,0,.04,0,48-.84,95.98-1.06,143.98-.69,1.32.01,2.57-.47,3.53-1.36.96-.89,1.49-2.06,1.5-3.31.04-6.07.07-9.1.11-15.17.01-1.6-.85-3.09-2.31-3.96-.81-.49-1.7-.74-2.63-.74Z"/>
    <path class="cls-8" d="M216.07,201.39c-3.86-.01-7.01-2.89-7.04-6.28-.1-11.4-.17-21.61-.27-33.23-.03-3.45,3.1-6.51,6.99-6.64,3.89-.13,7.07,2.72,7.09,6.19.07,11.7.1,22.14.17,33.66.02,3.42-3.09,6.3-6.95,6.29Z"/>
    <path class="cls-8" d="M286.35,202.67c-3.86-.07-6.97-3.11-6.94-6.7.07-12.4.16-24.16.23-36.59.02-3.6,3.19-6.65,7.09-6.72,3.89-.07,7.03,2.88,7,6.5-.11,12.52-.23,24.52-.34,37.03-.03,3.62-3.18,6.55-7.04,6.48Z"/>
  </g>
  <path class="cls-8" d="M497.08,382.76c-.58,10.94-10.35,19.52-21.27,18.99-10.92-.53-19.82-10.01-19.34-20.96.48-11.02,10.3-19.61,21.28-19.08,10.98.53,19.92,10.04,19.33,21.05Z"/>
  <circle class="cls-2" cx="216.26" cy="383.37" r="47.23"/>
  <path class="cls-9" d="M250.31,375.04c1.86,25.3-17.21,40.83-38.43,43.1-31.32,3.35,22.74,7.82,22.74,7.82l30.55-30.15s-17.17-52.11-14.86-20.77Z"/>
  <path class="cls-8" d="M216.28,434.11c-22.28.18-42.83-14.32-49.99-35.43-1.42-4.17-2.35-8.64-2.59-13.11-.8-14.81,5.24-30.9,16.58-40.9,8.98-7.92,20.7-12.94,32.8-13.57,13.68-.71,27.27,3.91,37.59,12.94,10.44,9.14,16.74,22.26,17.32,36.12.24,5.68-.47,11.35-2.11,16.81-6.26,20.87-25.62,35.94-47.35,37.08-.75.04-1.5.06-2.24.07ZM215.52,344.29c-.58,0-1.16.03-1.73.05-8.11.28-18.37,4.49-24.3,10.05-8.22,7.72-13.08,18.93-12.38,30.34.21,3.36.92,6.68,1.9,9.74,5.08,15.95,22.46,26.9,38.84,26.32,15.78-.56,30.68-12.51,35.19-27.59,0,0,0,0,0,0,1.2-4.06,1.63-8.35,1.53-12.49-.23-9.21-6.09-20.86-12.91-26.8-6.36-5.53-17.39-10.03-26.13-9.64Z"/>
  <path class="cls-8" d="M236.12,382.43c.05,10.95-9.2,20.08-20.13,20.18-10.93.1-20.33-8.87-20.48-19.82-.15-11.02,9.14-20.17,20.13-20.27,10.98-.1,20.44,8.89,20.48,19.91Z"/>
  <g>
    <path class="cls-8" d="M143.28,397.47c-4.38,19.18-21.29,33.67-40.87,35.19-20.72,1.61-40.54-11.57-46.91-31.4,29.25-1.51,58.51-2.77,87.78-3.79Z"/>
    <path class="cls-8" d="M100.72,439.39c-22.95.76-44.55-14.23-51.61-36.13-1.05-3.26-1.57-4.9-2.62-8.16,35.06-1.87,70.13-3.39,105.22-4.54-.76,3.34-1.14,5.01-1.9,8.36-5.02,21.94-24.49,38.58-46.89,40.35-.74.06-1.47.1-2.2.12ZM65.58,407.38c7.64,11.79,21.91,20.22,36.32,18.67,13.09-1.41,26.24-9.28,31.88-21.61-22.74.84-45.47,1.82-68.2,2.94Z"/>
  </g>
  <path class="cls-8" d="M281.12,193.08l12.26,7.88-48,72.93c-5.87,8.92-14.78,15.42-25.07,18.3l-71.46,22.42-7.9-12.27,74.68-21.68c7.84-2.12,14.6-7.11,18.94-13.98l46.55-73.6Z"/>
</svg>