<?xml version="1.0" encoding="UTF-8"?>
<svg id="Layer_1" data-name="Layer 1" xmlns="http://www.w3.org/2000/svg" viewBox="0 0 600 600">
  <defs>
    <style>
      .cls-1 {
        fill: #c1cb30;
      }

      .cls-2 {
        fill: #fff;
      }

      .cls-3 {
        fill: #e12228;
      }

      .cls-4 {
        fill: #1f9cd8;
      }

      .cls-5 {
        fill: #808285;
      }

      .cls-6 {
        fill: #b02024;
      }

      .cls-7 {
        fill: #d1d3d4;
      }

      .cls-8 {
        fill: #1c7dae;
      }

      .cls-9 {
        fill: #010101;
      }

      .cls-10 {
        fill: #bcbec0;
      }

      .cls-11 {
        fill: #d4df30;
      }
    </style>
  </defs>
  <path class="cls-5" d="M278.92,396.78c-.75,3.33-1.14,4.99-1.9,8.33-5.01,21.86-24.4,38.45-46.73,40.22-.74.06-1.46.09-2.2.12-22.88.75-44.4-14.19-51.44-36.01-1.03-3.26-1.56-4.89-2.61-8.14,34.95-1.87,69.91-3.37,104.89-4.52Z"/>
  <path class="cls-5" d="M416.44,386.27c-.75,3.33-1.14,4.99-1.9,8.33-5.01,21.86-24.4,38.45-46.73,40.22-.74.06-1.46.09-2.2.12-22.88.75-44.4-14.19-51.44-36.01-1.03-3.26-1.56-4.89-2.61-8.14,34.95-1.87,69.91-3.37,104.89-4.52Z"/>
  <path class="cls-5" d="M537.51,390.91c-.75,3.33-1.14,4.99-1.9,8.33-5.01,21.86-24.4,38.45-46.73,40.22-.74.06-1.46.09-2.2.12-22.88.75-44.4-14.19-51.44-36.01-1.03-3.26-1.56-4.89-2.61-8.14,34.95-1.87,69.91-3.37,104.89-4.52Z"/>
  <g>
    <path class="cls-5" d="M53.96,417.79c-9.66.33-17.92-7.03-18.65-16.89-1.44-24.55-2.89-49.1-4.34-73.65-.03-.46-.06-.91-.1-1.36-.27-3.23-.64-7.65,2.6-12.78,3.15-5,7.03-6.5,9.87-7.59.48-.18.98-.37,1.48-.59.16-.06.23-.09.39-.15,20.79-7.64,47.94-13.63,63.04-26.22,22.58-18.83,43.53-51.66,65.16-77.35,2.07-2.46,3.11-3.69,5.18-6.15,2.14,2.4,3.21,3.6,5.34,6.01.96,1.08,2.34,1.69,3.8,1.67.01,0,.03,0,.04,0,46.98-1.05,93.96-1.44,140.95-1.16,1.29,0,2.52-.48,3.46-1.37.94-.89,1.46-2.07,1.47-3.31.04-6.08.06-9.12.1-15.2.01-1.6-.84-3.09-2.27-3.99-7.91-4.93-11.87-7.39-19.82-12.29,82.39.38,164.71,2.87,246.98,7.45.05,0,.11,0,.16.01,9.77.68,17.91,8.76,17.53,19.02-4,69.79-8.03,139.59-12.08,209.38-.73,9.92-9.08,17.28-18.79,16.85-12.79-.73-25.58-1.4-38.37-2.02,1.72-3.6,2.58-5.4,4.3-9,2.71-5.67,3.98-11.78,3.71-18.15-.83-19.67-17.67-35.25-36.45-36.45-9.22-.59-21.41,4.24-27.99,10.57-6.48,6.24-11.79,18.22-11.56,27.49.11,4.61.88,9.31,2.56,13.66,1.43,3.73,2.15,5.59,3.57,9.32-63.35-2.07-126.71-2.85-190.1-2.33.99-3.42,1.49-5.13,2.49-8.56,1.17-4.03,1.68-8.22,1.49-12.45-.95-21.05-19.78-36.91-39.9-36.29-9.01.28-20.47,5.93-26.44,12.61-5.88,6.58-10.23,18.61-9.5,27.65.26,3.26.83,6.6,1.86,9.72,1.12,3.39,1.68,5.08,2.8,8.47-44.63,1.18-89.22,2.98-133.8,5.41-.05,0-.1,0-.16,0ZM49.99,317.11c-.61.26-1.21.49-1.8.72-2.15.83-2.58,1.02-3.36,2.26-.86,1.36-.84,2.16-.64,4.71.04.55.09,1.11.12,1.68,1.38,24.55,2.75,49.11,4.12,73.66.14,2.54,2.39,4.57,4.91,4.45.01,0,.03,0,.04,0,39.06-2.13,78.14-3.78,117.24-4.97-.23-1.52-.4-3.06-.5-4.61-.87-13.62,3.73-27.14,12.72-37.25,9.13-10.26,22.18-16.47,35.65-17.04,26.77-1.12,52.94,20.52,53.74,48.93.08,2.72,0,5.5-.31,8.21,51.63-.22,103.24.4,154.85,1.86-.55-2.99-.84-6.03-.87-9.11-.1-13.97,5.54-27.62,15.49-37.05,9.87-9.36,24.02-15.16,37.75-14.28,25.02,1.6,48.45,22.83,49.1,49.17.13,5.13-.4,10.4-1.73,15.38,7.85.41,11.78.63,19.63,1.08,2.58.15,4.8-1.84,4.95-4.44,3.85-69.8,7.67-139.61,11.47-209.41.14-2.55-1.97-4.83-4.61-5-.01,0-.03,0-.04,0-70.17-3.91-140.38-6.31-210.64-7.18.16.96.23,1.94.22,2.94-.06,6.08-.09,9.12-.15,15.19-.3,10.24-8.87,17.75-18.71,17.77-46.86-.27-93.7.11-140.55,1.16-2.84.06-5.61-.49-8.13-1.59-20.62,24.45-40.31,53.25-62.21,73.56-16.08,14.91-46.14,21.36-67.77,29.2Z"/>
    <g>
      <path class="cls-5" d="M150.15,406.87c-4.28,19.12-20.83,33.55-40,35.06-20.28,1.59-39.69-11.55-45.94-31.32,28.64-1.49,57.28-2.74,85.94-3.74Z"/>
      <path class="cls-5" d="M108.5,448.64c-22.46.75-43.62-14.2-50.54-36.03-1.02-3.25-1.54-4.88-2.57-8.14,34.32-1.85,68.66-3.35,103.01-4.49-.75,3.33-1.12,5-1.86,8.33-4.91,21.87-23.96,38.45-45.89,40.2-.72.06-1.44.1-2.16.12ZM74.08,416.72c7.48,11.75,21.46,20.17,35.56,18.62,12.81-1.4,25.69-9.24,31.2-21.53-22.26.83-44.51,1.79-66.76,2.91Z"/>
    </g>
  </g>
  <polygon class="cls-3" points="148.58 224.97 243.35 222.82 236.32 240.01 220.42 263.04 213.34 271.33 110.98 270.1 31.74 300.12 31.97 310.12 153.36 310.64 151.39 348.8 33.04 357.26 33.97 398.14 171.31 395.02 182.24 349.65 154.23 348.8 158.07 310.53 341.66 312.58 339.21 204.55 326.19 195.13 280.15 228.4 310.33 228.36 314.13 270.1 255.96 268.8 282.43 225.71 338.99 198.63 167.67 198.74 148.58 224.97"/>
  <polyline class="cls-3" points="250.12 348.91 263.25 387.67 335.06 382.78 336.18 346.96 250.12 348.91"/>
  <path class="cls-3" d="M342.5,349.25l-4.07,30.96,55.89-1.27,17.71,5.35s12.6-8.15,13.81-7.97,11.65-18.14,11.65-18.14l22.2-20.76s13.77-1.89,16.04-1.63,14.85,2.62,15.84,3.32,23.42,21.17,23.42,21.17c0,0,8.44,11.87,9.42,12.81.99.94,37.65,1.31,37.65,1.31l2.87-55.53,5.06-147.12-123.18-8.63-111.92-2.52,2.02,151.93,65,2.09s55.84-41.3,58.26-41.11c2.42.19-35.1,57.71-35.1,57.71,0,0-13.24,22.27-19.03,22.15s-63.52-4.11-63.52-4.11Z"/>
  <polygon class="cls-11" points="156.78 348.06 185.26 346.71 210.09 335.25 246.32 346.71 406.68 350.62 460.15 273.51 410.58 308.22 388.46 313.08 150.41 310.63 156.78 348.06"/>
  <polygon class="cls-2" points="148.58 224.97 243.35 222.82 216.44 267.7 106.38 273.76 148.55 228.98 148.58 224.97"/>
  <polygon class="cls-2" points="258.07 270.29 284.44 228.02 313.08 225.56 311.72 274.14 258.07 270.29"/>
  <polyline class="cls-2" points="35.93 313.92 54.33 310.82 64.97 346.35 57.01 356.71 33.04 357.26 32.33 326.18 35.93 313.92"/>
  <polygon class="cls-2" points="114.82 305.73 153.31 308.57 151.39 348.8 120.49 357.12 115.81 348.99 114.82 305.73"/>
  <polyline class="cls-2" points="64.3 316.94 107.34 315.96 112.44 337.47 69.81 344.05 61.82 332.69 64.3 316.94"/>
  <circle class="cls-2" cx="476.74" cy="381.48" r="47.08"/>
  <path class="cls-6" d="M246.14,228.34c1.87,1.34,2.57,5.01,1.39,6.99-4.76,7.96-13.18,25.71-19.54,36.21-2.76,4.56-7.04,7.98-12.38,8.02l-124.72,3.23s20.11-12.84,22.01-13.88,103.9-.62,103.9-.62l23.73-46.05,5.6,6.1Z"/>
  <path class="cls-6" d="M323.61,267.24c-.13,1.75,3.66,4.34.52,13.46-1.09,3.17-3.49,5.2-6.16,5.2l-49.31-.15c-4.22.01-7.79-3.16-8.26-7.36-.22-1.93-.28-3.54.08-3.79.95-.67,59.59,1.91,59.59,1.91l3.54-9.28Z"/>
  <path class="cls-7" d="M116.95,344.25l23.51-1.15c1.77-.09,3.14-1.56,3.1-3.33l-.66-28.89s4.44-2.41,5.64,1.15c1.2,3.56,5.43,10.33,5.1,11.4s-2.25,25.37-2.25,25.37c0,0,.14,6.53-3.77,6.83s-15.11,1.67-16.69,1.26c-1.58-.41-13.57-4.16-13.81-4.95-.24-.79-.17-7.68-.17-7.68Z"/>
  <path class="cls-7" d="M25.7,347.57l26.69-1.3-.73-32.07s4.44-2.41,5.64,1.15c1.2,3.56,5.43,10.33,5.1,11.4s-2.25,25.37-2.25,25.37c0,0,.14,6.53-3.77,6.83s-15.11,1.67-16.69,1.26c-1.58-.41-13.57-4.16-13.81-4.95s-.17-7.68-.17-7.68Z"/>
  <path class="cls-7" d="M67.15,336.4l35.28-1.43-.85-14.23s4.44-2.41,5.64,1.15c1.2,3.56,5.43,10.33,5.1,11.4s-2.13,7.53-2.13,7.53c0,0,.14,6.53-3.77,6.83-3.91.3-15.11,1.67-16.69,1.26s-22.15-3.43-22.39-4.22-.19-8.28-.19-8.28Z"/>
  <path class="cls-7" d="M119.43,259.63c1.38-.13,68.76-1.59,85.33-1.94,2.3-.05,4.44-1.17,5.8-3.03l21.36-29.35s10.92.76,10.31,1.56-12.56,18.02-13.56,18.83-15.84,19.44-16.85,19.47-82.73.08-85.65.04c-2.92-.05-1.22.7-5.62-.32-4.4-1.02-4.53-1.69-4.53-1.69l3.4-3.56Z"/>
  <path class="cls-7" d="M263.49,264.07c3.58.09,43.5.51,43.5.51l1.24-34.36s9.45.96,9.47,1.64,4.38,37.62,4.38,37.62l-12.95,7.37s-13.62.91-21.91-.8c-8.29-1.71-29.84-1.48-28.88-3.9s5.16-8.07,5.16-8.07Z"/>
  <polygon class="cls-6" points="559.11 174.98 544.19 358.73 514.89 356.87 490.12 335.46 459.67 339.09 439.56 358.52 334.66 365.95 337.06 386 429.93 393.82 445.04 347.92 475.14 332.6 505.6 345.98 520.59 368.2 520.66 398.45 557.69 398.39 569.97 171.75 559.11 174.98"/>
  <polygon class="cls-6" points="33.97 398.14 32.42 386.07 180.21 378.72 174.68 396.57 33.97 398.14"/>
  <polygon class="cls-1" points="155.96 331.49 338.29 332.34 335.98 349.76 246.32 346.71 226.86 334.87 206.07 338.9 185.26 346.71 168.73 350.76 154.38 346.47 155.96 331.49"/>
  <path class="cls-10" d="M511.89,371.13c1.86,25.22-17.15,40.7-38.31,42.97-31.22,3.34,22.67,7.79,22.67,7.79l30.45-30.06s-17.11-51.95-14.82-20.7Z"/>
  <path class="cls-1" d="M340.74,331.98l58.85,1.29,48.99-47.59-12.11,27.84-22.51,29.31-7.29,5.32-42.32,4.78s-24.47-3.85-25.17-3.21,1.57-17.75,1.57-17.75Z"/>
  <path class="cls-6" d="M47.74,296.36l278.37,4.57,1.71-102.53,13.64-2.57s3.53,120.61,1.14,122.42-182.27-.17-183.28-.14-26.75-6.5-31.8-6.18-93.31,4.5-93.31,4.5l13.54-20.05Z"/>
  <polygon class="cls-6" points="232.83 398.19 224.83 371.49 372.62 364.13 369.29 395.09 232.83 398.19"/>
  <path class="cls-6" d="M176.44,306.76l54.05-16.5c7.26-2.22,13.48-6.97,17.52-13.39l51.97-82.65-15.68-2.32-27.8,42.06-23.05,44.65-73.67,20.9,16.66,7.26Z"/>
  <path class="cls-9" d="M45.84,406.91c-9.84.33-18.24-7.02-18.98-16.88-1.46-24.55-2.92-49.1-4.39-73.65-.03-.46-.07-.91-.1-1.36-.27-3.23-.65-7.65,2.66-12.79,3.21-5,7.17-6.5,10.05-7.59.49-.19.99-.37,1.51-.59.16-.06.24-.09.4-.15,21.17-7.64,48.82-13.65,64.2-26.25,23-18.84,44.34-51.68,66.37-77.38,2.11-2.46,3.16-3.69,5.28-6.15,2.18,2.4,3.26,3.6,5.43,6.01.98,1.08,2.38,1.69,3.86,1.66.02,0,.03,0,.04,0,47.83-1.07,95.67-1.48,143.51-1.22,1.31,0,2.56-.48,3.52-1.37.95-.89,1.49-2.07,1.49-3.31.04-6.08.07-9.12.11-15.2.01-1.6-.85-3.09-2.3-3.98-8.05-4.93-12.09-7.38-20.18-12.28,83.89.35,167.7,2.8,251.47,7.35.05,0,.11,0,.16.01,9.95.67,18.23,8.76,17.84,19.01-4.1,69.8-8.23,139.59-12.38,209.38-.75,9.92-9.25,17.28-19.14,16.86-13.02-.72-26.04-1.39-39.07-2,1.75-3.6,2.63-5.4,4.38-9,2.77-5.67,4.05-11.79,3.78-18.15-.84-19.67-17.98-35.24-37.1-36.43-9.39-.58-21.8,4.25-28.51,10.59-6.6,6.24-12.01,18.22-11.78,27.49.11,4.61.9,9.31,2.6,13.66,1.46,3.73,2.18,5.59,3.63,9.31-64.51-2.04-129.02-2.8-193.55-2.25,1.01-3.42,1.52-5.13,2.54-8.56,1.2-4.03,1.72-8.23,1.52-12.45-.96-21.05-20.13-36.9-40.61-36.27-9.18.28-20.85,5.94-26.92,12.62-5.99,6.59-10.42,18.61-9.68,27.65.27,3.26.84,6.6,1.89,9.72,1.14,3.39,1.71,5.08,2.84,8.47-45.44,1.2-90.84,3.02-136.23,5.46-.05,0-.11,0-.16,0ZM41.84,306.23c-.63.26-1.24.49-1.83.72-2.19.83-2.63,1.03-3.42,2.26-.88,1.36-.86,2.16-.65,4.71.04.55.09,1.11.12,1.68,1.39,24.55,2.78,49.11,4.17,73.66.14,2.54,2.43,4.57,5,4.45.01,0,.03,0,.04,0,39.77-2.14,79.56-3.81,119.37-5.02-.24-1.52-.41-3.06-.51-4.61-.88-13.62,3.8-27.14,12.97-37.25,9.3-10.26,22.6-16.48,36.3-17.05,27.25-1.13,53.89,20.49,54.69,48.91.08,2.72,0,5.5-.32,8.21,52.57-.24,105.12.36,157.67,1.8-.56-2.99-.86-6.03-.88-9.11-.1-13.97,5.66-27.62,15.78-37.05,10.06-9.36,24.46-15.17,38.45-14.29,25.47,1.59,49.32,22.81,49.98,49.15.13,5.13-.41,10.4-1.76,15.38,8,.41,11.99.62,19.99,1.07,2.63.15,4.89-1.84,5.04-4.44,3.95-69.8,7.87-139.61,11.77-209.42.14-2.55-2-4.83-4.7-5-.01,0-.03,0-.04,0-71.44-3.89-142.93-6.25-214.47-7.09.16.96.23,1.94.22,2.94-.06,6.08-.09,9.12-.15,15.19-.31,10.24-9.04,17.75-19.05,17.77-47.71-.26-95.41.15-143.11,1.21-2.89.06-5.71-.48-8.28-1.59-21,24.46-41.06,53.27-63.38,73.59-16.38,14.92-46.99,21.38-69.01,29.23Z"/>
  <path class="cls-9" d="M474.21,430.91c-20.17-1.01-38.67-14.15-46.1-32.93-2.31-5.86-3.57-12.11-3.55-18.38.08-27.58,23.85-52.19,52.3-51.39,27.43.77,52.76,23.51,51.94,51.98-.22,7.48-1.87,14.86-5.2,21.63-8.71,17.71-27.45,29.24-47.19,29.16-.73,0-1.47-.02-2.2-.06ZM478.54,341.46c-.57-.03-1.14-.04-1.72-.05-20.9-.11-38.92,17-38.85,38.11.02,4.71.85,9.41,2.6,13.66,5.65,13.75,20.27,24.94,35.92,24.55,14.22-.35,28.94-8.58,35.09-21.71,2.34-4.99,3.74-10.44,3.81-16.07.25-20.46-16.59-37.49-36.85-38.51Z"/>
  <g>
    <path class="cls-9" d="M392.61,394.48c-7.47,14-23.35,24-39.23,24.11-16.69.12-34.49-9.53-41.76-25.13,27,.13,54,.47,80.99,1.02Z"/>
    <path class="cls-9" d="M351.29,425.2c-18.61-.43-37.65-11.67-45.65-28.81-1.92-3.83-2.88-5.74-4.8-9.57,34.25.09,68.49.52,102.72,1.3-2.02,3.78-3.03,5.67-5.04,9.45-8.58,16.05-26.78,27.49-44.99,27.64-.74,0-1.49.02-2.23,0ZM324.4,400.13c7.53,7.72,18.21,11.88,28.82,11.85,8.88-.02,20.23-4.59,26.44-11.15-18.42-.35-36.84-.59-55.27-.7Z"/>
  </g>
  <path class="cls-9" d="M330.64,391.06c.09-70.69.12-141.37.12-212.06,5.6,0,8.39.02,13.99.04-.2,70.69-.45,141.37-.74,212.06-5.34-.02-8.02-.03-13.36-.04Z"/>
  <path class="cls-9" d="M142.94,360.28c-33.14.87-66.27,2.06-99.39,3.56-9.92.35-18.49-7.04-19.16-17.03-.47-9.31-.71-13.97-1.18-23.28-.34-10.1,7.62-18.25,17.58-18.82,33.55-1.53,67.11-2.73,100.69-3.61,9.98-.14,18.49,7.42,18.87,17.51.19,9.32.29,13.98.49,23.3.04,10.01-7.96,17.99-17.89,18.36ZM41.4,317.93c-2.68.13-4.75,2.35-4.63,4.95.45,9.31.67,13.97,1.11,23.28.12,2.6,2.39,4.61,5.04,4.49,33.22-1.51,66.44-2.7,99.68-3.57,2.66-.07,4.77-2.24,4.71-4.84-.22-9.32-.33-13.98-.56-23.3-.06-2.6-2.29-4.67-4.97-4.6-33.48.88-66.94,2.08-100.4,3.6Z"/>
  <path class="cls-9" d="M57.01,356.71c-.89-15.3-1.78-30.6-2.67-45.89,5.44-.31,8.16-.46,13.6-.76.85,15.3,1.69,30.6,2.54,45.9-5.39.29-8.08.44-13.46.75Z"/>
  <path class="cls-9" d="M106.97,354.92c-.99-15.3-1.99-30.6-3-45.89,5.44-.35,8.15-.52,13.59-.85.96,15.3,1.91,30.6,2.86,45.9-5.38.33-8.07.49-13.45.84Z"/>
  <path class="cls-9" d="M61.99,326.82c-.24-5.28-.37-7.92-.61-13.21,16.59-.74,33.17-1.41,49.76-2.02.19,5.28.28,7.93.47,13.21-16.54.6-33.08,1.27-49.62,2.01Z"/>
  <path class="cls-9" d="M112.81,350.68c-16.54.49-33.07,1.04-49.6,1.67-.21-5.28-.31-7.93-.52-13.21,16.58-.63,33.16-1.19,49.74-1.68.15,5.29.22,7.93.37,13.21Z"/>
  <path class="cls-9" d="M337.34,319.25c-62.21-1.55-124.42-1.92-186.64-1.12-.07-5.29-.11-7.93-.18-13.22,62.4-.81,124.79-.43,187.18,1.12-.14,5.29-.21,7.93-.35,13.22Z"/>
  <path class="cls-9" d="M185.35,354.76c-10.33.17-20.65.37-30.98.59-.12-5.29-.18-7.93-.3-13.22,10.36-.22,20.71-.42,31.07-.59.08,5.29.12,7.93.21,13.22Z"/>
  <path class="cls-9" d="M337.32,354.93c-30.33-.5-60.65-.73-90.98-.7-.01-5.29-.02-7.93-.03-13.22,30.42-.03,60.83.21,91.25.71-.09,5.29-.14,7.93-.23,13.22Z"/>
  <path class="cls-9" d="M399.18,356.44c-20.62-.62-41.24-1.12-61.86-1.52.09-5.29.14-7.93.23-13.22,20.68.39,41.36.9,62.04,1.52,3.77.12,7.32-1.61,9.5-4.62,11.89-16.37,23.87-32.67,35.93-48.92-10.59,8.24-21.15,16.51-31.68,24.81-4.6,3.64-10.38,5.56-16.31,5.43-19.85-.33-39.7-.56-59.55-.68.02-5.29.03-7.93.06-13.22,19.92.12,39.84.35,59.76.69,2.72.06,5.35-.82,7.44-2.47,15.21-12.02,30.49-23.96,45.84-35.82,4.44-3.42,10.68-3.15,14.8.65,4.12,3.8,4.68,9.78,1.34,14.21-15.68,20.89-31.22,41.88-46.61,62.99-4.82,6.63-12.64,10.42-20.94,10.16Z"/>
  <path class="cls-9" d="M209.21,276.78c-32.78.41-65.55,1.13-98.32,2.14-3.78.12-6.95-2.73-7.07-6.38-.12-3.65,2.85-6.71,6.64-6.83,32.86-1.02,65.73-1.74,98.6-2.15,1.86-.02,3.59-.92,4.63-2.39,7.13-10.09,14.29-20.15,21.5-30.18-28.29.52-56.57,1.25-84.85,2.21-3.78.16-7.02-2.71-7.16-6.36-.14-3.65,2.85-6.72,6.68-6.85,29.68-1.01,59.36-1.76,89.06-2.28,4.41-.08,8.51,2.21,10.6,5.95,2.09,3.74,1.82,8.22-.7,11.71-7.96,11.06-15.89,22.14-23.78,33.24-3.58,5.05-9.49,8.1-15.83,8.17Z"/>
  <path class="cls-9" d="M313.45,282.19c-.13,0-.25,0-.38,0-15.9-.19-31.8-.29-47.7-.32-4.58-.2-8.69-2.78-10.74-6.75-2.03-3.93-1.69-8.62.87-12.24,8.22-12.06,16.47-24.09,24.76-36.1,2.39-3.24,6.3-5.17,10.46-5.15,9.16.05,13.73.08,22.89.18,6.67.07,12.19,5.11,12.56,11.47,0,.15,0,.22.01.37,0,11.98,0,23.96-.02,35.94.13,3.37-1.21,6.66-3.68,9.05-2.4,2.32-5.67,3.6-9.04,3.56ZM267.99,268.66c14.82.03,29.64.12,44.47.3-.03-11.31-.06-22.63-.09-33.94-8.44-.08-12.66-.12-21.11-.16-7.79,11.25-15.55,22.51-23.27,33.81ZM261.21,266.56s0,0,0,0c0,0,0,0,0,0Z"/>
  <g>
    <path class="cls-4" d="M167.68,163.24c1.28,12.09,1.89,16.84,3.16,28.43,14.53,1.41,29.05,2.87,43.56,4.4.55-15.11.85-21.12,1.4-36.49-16.03,1.36-32.07,2.6-48.12,3.67Z"/>
    <path class="cls-4" d="M288.15,158.59c-.3,14.45-.46,21.14-.77,35.53,14.85.12,29.7.23,44.56.32.03-12.51.07-25.02.1-37.53-14.64.49-29.26,1.05-43.89,1.68Z"/>
    <path class="cls-2" d="M216.51,190.84c-.25-10.87-.36-15.7-.61-26.74,24.09-1.78,48.16-3.67,72.25-5.51-.82,12.67-1.24,18.6-2.07,31.08-23.19.39-46.38.78-69.57,1.17Z"/>
    <path class="cls-7" d="M214.98,185.96c20.41-.45,40.81-.89,61.22-1.34.05-9.79.09-14.52.13-24.53,0,0-3.18.11-.94,2.9,2.24,2.79,10.25,7.97,9.59,8.84-.66.87-5.02,20.35-5.02,20.35,0,0,.1,5.31-7.49,5.57-7.6.26-29.34,1.39-32.4,1.06-3.06-.33-26.2-3.22-26.65-3.83s1.57-9.02,1.57-9.02Z"/>
    <path class="cls-8" d="M290.23,194.93c.54-3.86.81-5.77,1.36-9.57,11.27.09,16.9.14,28.17.25,3.09.03,5.59-2.49,5.52-5.55-.14-6.11-.21-9.16-.35-15.29,3.69.82,5.53,1.24,9.21,2.08,1.35,7.49,2.03,11.23,3.38,18.74-1.07,4.84-1.61,7.25-2.68,12.1-14.87-.9-29.74-1.82-44.61-2.75Z"/>
    <path class="cls-8" d="M170.09,194.49c.55-3.56.82-5.26,1.38-8.64,13.52.06,20.29.08,33.81.15-.17-7.46-.25-10.99-.42-18.61,3.68.71,5.52,1.06,9.21,1.77,1.34,6.77,2,9.98,3.34,16.72-1.08,4.35-1.63,6.53-2.7,11.1-14.87-.87-29.73-1.7-44.6-2.49Z"/>
    <path class="cls-9" d="M180,201.87c-5.63.06-10.97-2.21-14.66-5.97-2.81-2.86-4.42-6.37-4.53-9.89-.16-5.22-.23-7.72-.39-12.97-.12-4.13,1.74-8.25,5.26-11.57,3.52-3.32,8.26-5.37,13.33-5.54,48.2-1.74,96.35-4.04,144.58-4.59,3.61.02,7.17.96,10.24,2.83,5.5,3.34,8.74,9.02,8.68,15.16-.06,6.08-.09,9.12-.15,15.19-.05,4.77-2.06,9.24-5.67,12.6-3.61,3.35-8.36,5.18-13.38,5.12-47.72-.54-95.42-.99-143.14-.36-.06,0-.11,0-.17,0ZM323.58,164.54s-.03,0-.05,0c-48.1.38-96.14,2.16-144.21,3.76-1.32.04-2.56.53-3.49,1.35-.93.82-1.43,1.88-1.4,2.96.14,5.29.21,7.81.35,13.06.03,1.19.66,2.04,1.18,2.55.97.94,2.38,1.48,3.86,1.46.02,0,.03,0,.04,0,47.84-.84,95.67-1.06,143.52-.68,1.31.01,2.56-.47,3.52-1.35.96-.88,1.49-2.06,1.49-3.29.04-6.05.07-9.07.11-15.12.01-1.6-.85-3.08-2.3-3.95-.81-.49-1.69-.74-2.62-.74Z"/>
    <path class="cls-9" d="M216.34,200.49c-3.84-.01-6.99-2.88-7.01-6.26-.1-11.36-.16-21.54-.27-33.13-.03-3.44,3.09-6.49,6.97-6.62,3.88-.13,7.05,2.71,7.07,6.17.07,11.66.1,22.07.17,33.56.02,3.41-3.08,6.28-6.92,6.27Z"/>
    <path class="cls-9" d="M286.4,201.76c-3.84-.07-6.94-3.1-6.92-6.68.07-12.36.16-24.08.23-36.47.02-3.59,3.18-6.63,7.06-6.7,3.88-.07,7,2.87,6.97,6.48-.11,12.48-.23,24.44-.34,36.91-.03,3.61-3.17,6.53-7.01,6.46Z"/>
  </g>
  <path class="cls-9" d="M496.46,381.28c-.58,10.91-10.32,19.46-21.21,18.93-10.89-.53-19.75-9.98-19.28-20.89.48-10.98,10.27-19.55,21.21-19.02,10.94.53,19.86,10.01,19.27,20.98Z"/>
  <circle class="cls-2" cx="216.53" cy="381.89" r="47.08"/>
  <path class="cls-10" d="M250.47,373.59c1.86,25.22-17.15,40.7-38.31,42.97-31.22,3.34,22.67,7.79,22.67,7.79l30.45-30.06s-17.11-51.95-14.82-20.7Z"/>
  <path class="cls-9" d="M216.55,432.47c-22.21.18-42.69-14.27-49.84-35.32-1.41-4.16-2.34-8.61-2.59-13.07-.8-14.76,5.23-30.8,16.53-40.77,8.96-7.9,20.63-12.9,32.69-13.53,13.63-.71,27.19,3.9,37.47,12.9,10.4,9.11,16.69,22.19,17.27,36.01.24,5.66-.47,11.31-2.1,16.76-6.24,20.8-25.54,35.83-47.2,36.96-.75.04-1.49.06-2.24.07ZM215.78,342.93c-.57,0-1.16.03-1.72.05-8.08.28-18.31,4.47-24.23,10.02-8.2,7.69-13.04,18.87-12.34,30.25.21,3.35.92,6.66,1.89,9.71,5.06,15.9,22.39,26.82,38.72,26.24,15.73-.56,30.59-12.47,35.08-27.5,0,0,0,0,0,0,1.2-4.05,1.63-8.32,1.52-12.45-.23-9.18-6.07-20.8-12.87-26.71-6.34-5.52-17.33-10-26.05-9.61Z"/>
  <path class="cls-9" d="M236.32,380.96c.05,10.92-9.17,20.02-20.06,20.12-10.9.1-20.27-8.84-20.42-19.75-.15-10.98,9.12-20.11,20.06-20.21,10.95-.1,20.37,8.86,20.42,19.85Z"/>
  <g>
    <path class="cls-9" d="M143.78,395.95c-4.36,19.12-21.22,33.56-40.74,35.07-20.65,1.6-40.41-11.54-46.76-31.3,29.16-1.5,58.32-2.76,87.5-3.78Z"/>
    <path class="cls-9" d="M101.35,437.74c-22.87.76-44.41-14.19-51.44-36.01-1.04-3.25-1.56-4.88-2.61-8.13,34.95-1.87,69.91-3.38,104.89-4.53-.76,3.33-1.14,5-1.9,8.33-5.01,21.87-24.41,38.46-46.74,40.22-.73.06-1.47.1-2.2.12ZM66.32,405.83c7.61,11.75,21.84,20.16,36.2,18.61,13.04-1.41,26.16-9.25,31.78-21.54-22.67.83-45.33,1.81-67.98,2.93Z"/>
  </g>
  <path class="cls-9" d="M281.18,192.2l12.22,7.86-47.85,72.7c-5.86,8.9-14.73,15.37-24.99,18.24l-71.23,22.35-7.87-12.23,74.44-21.61c7.82-2.12,14.55-7.09,18.88-13.93l46.4-73.37Z"/>
</svg>