<?xml version="1.0" encoding="UTF-8"?>
<svg id="Layer_1" data-name="Layer 1" xmlns="http://www.w3.org/2000/svg" viewBox="0 0 600 600">
  <defs>
    <style>
      .cls-1 {
        fill: none;
      }

      .cls-1, .cls-2 {
        stroke: #231f20;
        stroke-miterlimit: 10;
        stroke-width: 8.5px;
      }

      .cls-3 {
        fill: #c1cb30;
      }

      .cls-4, .cls-2 {
        fill: #fff;
      }

      .cls-5 {
        fill: #e12228;
      }

      .cls-6 {
        fill: #1f9cd8;
      }

      .cls-7 {
        fill: #b02024;
      }

      .cls-8 {
        fill: #d1d3d4;
      }

      .cls-9 {
        fill: #1c7dae;
      }

      .cls-10 {
        fill: #010101;
      }

      .cls-11 {
        fill: #bcbec0;
      }

      .cls-12 {
        fill: #d4df30;
      }

      .cls-13 {
        fill: #d4d4d4;
      }
    </style>
  </defs>
  <g>
    <g>
      <path class="cls-13" d="M439.6,230.19l71.94,5.13c3.41.24,6.39-2.32,6.65-5.73l.19-2.45,7.81,2.39-2.39,10.59-6.08,4.52-81.03-5.57-1.99-9.42,4.91.53Z"/>
      <path class="cls-2" d="M441.56,237.61c24.28,1.02,48.43,2.89,72.58,5.63,5.72.68,10.99-2.52,11.74-7.19.08-.52.13-.78.21-1.31.75-4.67-3.4-9.13-9.24-9.84-24.68-2.81-49.38-4.74-74.2-5.79-5.91-.21-10.94,3.54-11.16,8.27-.02.53-.04.79-.06,1.32-.22,4.73,4.35,8.7,10.14,8.91Z"/>
      <path class="cls-13" d="M439.6,230.19l71.94,5.13c3.41.24,6.39-2.32,6.65-5.73l.19-2.45,7.81,2.39-2.39,10.59-6.08,4.52-81.03-5.57-1.99-9.42,4.91.53Z"/>
      <path class="cls-1" d="M441.56,237.61c24.28,1.02,48.43,2.89,72.58,5.63,5.72.68,10.99-2.52,11.74-7.19.08-.52.13-.78.21-1.31.75-4.67-3.4-9.13-9.24-9.84-24.68-2.81-49.38-4.74-74.2-5.79-5.91-.21-10.94,3.54-11.16,8.27-.02.53-.04.79-.06,1.32-.22,4.73,4.35,8.7,10.14,8.91Z"/>
    </g>
    <g>
      <path class="cls-2" d="M439.42,279.04c41.19,1.73,81.98,6.18,122.57,13.43,5.37,1,10.59-1.91,11.62-6.53.11-.52.17-.77.29-1.29,1.03-4.62-2.6-9.29-8.1-10.32-41.52-7.43-83.25-12.01-125.4-13.79-5.64-.2-10.42,3.56-10.62,8.29-.02.53-.03.79-.05,1.32-.19,4.73,4.18,8.69,9.69,8.88Z"/>
      <path class="cls-13" d="M443.24,269.51c37.13,2.68,73.83,7.36,110.45,14.09,5.18.99,10.1-.84,11.02-4.15.27-.95.4-1.43.67-2.38,4.66,1.69,6.98,2.55,11.6,4.3-2.17,3.93-3.25,5.9-5.39,9.84-3.98,1.18-5.96,1.78-9.9,3-40.78-7.88-81.66-13.16-123.1-15.9-1.17-3.78-1.76-5.67-2.96-9.45,3.05.24,4.57.37,7.61.64Z"/>
      <path class="cls-1" d="M439.42,279.04c41.19,1.73,81.98,6.18,122.57,13.43,5.37,1,10.59-1.91,11.62-6.53.11-.52.17-.77.29-1.29,1.03-4.62-2.6-9.29-8.1-10.32-41.52-7.43-83.25-12.01-125.4-13.79-5.64-.2-10.42,3.56-10.62,8.29-.02.53-.03.79-.05,1.32-.19,4.73,4.18,8.69,9.69,8.88Z"/>
    </g>
    <g>
      <path class="cls-2" d="M433.26,317.91c44.86,1.99,89.18,7.37,133.21,16.23,5.11,1.07,10.17-1.77,11.27-6.37.12-.51.18-.77.31-1.29,1.1-4.6-2.26-9.32-7.49-10.41-45.07-9.09-90.44-14.61-136.37-16.66-5.4-.2-9.98,3.56-10.16,8.28-.02.53-.03.79-.05,1.32-.18,4.72,4.01,8.69,9.28,8.89Z"/>
      <path class="cls-13" d="M440.25,310.53c39.41,2.86,78.4,7.74,117.29,14.7,5.5,1.02,10.71-.78,11.68-4.09.28-.95.42-1.42.69-2.37,4.95,1.72,7.42,2.59,12.34,4.37-2.29,3.92-3.42,5.88-5.67,9.82-4.21,1.16-6.31,1.75-10.49,2.95-43.31-8.13-86.77-13.64-130.73-16.58-1.26-3.79-1.9-5.69-3.19-9.47,3.23.26,4.85.4,8.08.69Z"/>
      <path class="cls-1" d="M433.26,317.91c44.86,1.99,89.18,7.37,133.21,16.23,5.11,1.07,10.17-1.77,11.27-6.37.12-.51.18-.77.31-1.29,1.1-4.6-2.26-9.32-7.49-10.41-45.07-9.09-90.44-14.61-136.37-16.66-5.4-.2-9.98,3.56-10.16,8.28-.02.53-.03.79-.05,1.32-.18,4.72,4.01,8.69,9.28,8.89Z"/>
    </g>
    <g>
      <g>
        <path class="cls-2" d="M431.78,359.66c21.15.93,42.17,2.57,63.2,4.96,4.98.6,9.58-2.69,10.24-7.37.07-.52.11-.79.18-1.31.66-4.68-2.95-9.07-8.05-9.68-21.55-2.45-43.08-4.14-64.75-5.09-5.16-.19-9.52,3.58-9.68,8.3-.02.53-.03.79-.04,1.32-.15,4.72,3.86,8.69,8.9,8.87Z"/>
        <path class="cls-13" d="M421.03,351.23l71.94,5.13c3.41.24,6.39-2.32,6.65-5.73l.19-2.45,7.81,2.39-2.39,10.59-6.08,4.52-81.03-5.57-1.99-9.42,4.91.53Z"/>
        <path class="cls-1" d="M431.78,359.66c21.15.93,42.17,2.57,63.2,4.96,4.98.6,9.58-2.69,10.24-7.37.07-.52.11-.79.18-1.31.66-4.68-2.95-9.07-8.05-9.68-21.55-2.45-43.08-4.14-64.75-5.09-5.16-.19-9.52,3.58-9.68,8.3-.02.53-.03.79-.04,1.32-.15,4.72,3.86,8.69,8.9,8.87Z"/>
      </g>
      <g>
        <path class="cls-2" d="M540.05,370.62c6.85,1.17,13.69,2.45,20.49,3.84,4.89.99,9.71-1.93,10.74-6.55.12-.52.17-.77.29-1.29,1.03-4.61-2.2-9.27-7.21-10.28-6.97-1.42-13.98-2.73-20.99-3.94-5.04-.87-9.84,2.28-10.63,6.94-.09.52-.13.78-.22,1.3-.79,4.66,2.61,9.12,7.54,9.97Z"/>
        <path class="cls-13" d="M558.11,367.46c3.41.24,6.39-2.32,6.65-5.73l.19-2.45,7.81,2.39-2.39,10.59-6.08,4.52-26.18-3.4-1.99-9.42,22,3.49Z"/>
        <path class="cls-1" d="M540.05,370.62c6.85,1.17,13.69,2.45,20.49,3.84,4.89.99,9.71-1.93,10.74-6.55.12-.52.17-.77.29-1.29,1.03-4.61-2.2-9.27-7.21-10.28-6.97-1.42-13.98-2.73-20.99-3.94-5.04-.87-9.84,2.28-10.63,6.94-.09.52-.13.78-.22,1.3-.79,4.66,2.61,9.12,7.54,9.97Z"/>
      </g>
    </g>
  </g>
  <g>
    <polygon class="cls-5" points="115.88 245.75 189.78 244.07 184.3 257.47 171.9 275.43 166.38 281.9 86.57 280.93 24.78 304.35 24.96 312.14 119.61 312.55 118.08 342.3 25.79 348.9 26.52 380.78 133.61 378.34 142.13 342.96 120.29 342.3 123.28 312.46 266.44 314.06 264.52 229.83 254.37 222.48 218.48 248.42 242 248.39 244.97 280.94 199.61 279.92 220.25 246.33 264.35 225.21 130.77 225.29 115.88 245.75"/>
    <polyline class="cls-5" points="195.06 342.39 205.3 372.61 261.29 368.79 262.16 340.86 195.06 342.39"/>
    <path class="cls-5" d="M267.09,342.65l-3.17,24.14,43.58-.99,13.81,4.17s9.82-6.35,10.76-6.21,9.08-14.15,9.08-14.15l17.31-16.19s10.74-1.47,12.5-1.27c1.76.2,11.58,2.04,12.35,2.59s18.26,16.51,18.26,16.51c0,0,6.58,9.25,7.35,9.99s29.36,1.03,29.36,1.03l2.24-43.3,3.95-114.71-96.05-6.73-87.27-1.97,1.58,118.46,50.68,1.63s43.54-32.2,45.43-32.06c1.88.15-27.37,45-27.37,45,0,0-10.32,17.36-14.84,17.27s-49.53-3.21-49.53-3.21Z"/>
    <polygon class="cls-12" points="122.28 341.72 144.49 340.67 163.85 331.74 192.09 340.67 317.13 343.72 358.82 283.59 320.17 310.66 302.92 314.45 117.31 312.54 122.28 341.72"/>
    <polygon class="cls-4" points="115.88 245.75 189.78 244.07 168.79 279.07 82.98 283.79 115.86 248.87 115.88 245.75"/>
    <polygon class="cls-4" points="201.26 281.09 221.82 248.13 244.15 246.21 243.09 284.09 201.26 281.09"/>
    <polyline class="cls-4" points="28.05 315.11 42.4 312.69 50.69 340.39 44.48 348.47 25.79 348.9 25.24 324.67 28.05 315.11"/>
    <polygon class="cls-4" points="89.56 308.72 119.57 310.93 118.08 342.3 93.98 348.79 90.33 342.45 89.56 308.72"/>
    <polyline class="cls-4" points="50.17 317.46 83.73 316.7 87.71 333.47 54.47 338.6 48.23 329.74 50.17 317.46"/>
    <circle class="cls-4" cx="371.76" cy="367.79" r="36.71"/>
    <path class="cls-7" d="M191.96,248.37c1.45,1.05,2.01,3.91,1.09,5.45-3.71,6.2-10.28,20.05-15.23,28.23-2.16,3.56-5.49,6.22-9.65,6.25l-97.24,2.52s15.68-10.01,17.16-10.82,81.01-.48,81.01-.48l18.5-35.91,4.37,4.76Z"/>
    <path class="cls-7" d="M252.36,278.71c-.1,1.37,2.86,3.38.41,10.5-.85,2.47-2.72,4.05-4.8,4.06l-38.45-.11c-3.29,0-6.07-2.46-6.44-5.74-.17-1.5-.22-2.76.06-2.96.74-.52,46.46,1.49,46.46,1.49l2.76-7.24Z"/>
    <path class="cls-8" d="M91.22,338.75l18.33-.89c1.38-.07,2.45-1.22,2.42-2.6l-.51-22.53s3.46-1.88,4.4.9,4.23,8.05,3.98,8.89-1.76,19.78-1.76,19.78c0,0,.11,5.09-2.94,5.32-3.05.23-11.78,1.3-13.01.98-1.23-.32-10.58-3.24-10.77-3.86s-.14-5.99-.14-5.99Z"/>
    <path class="cls-8" d="M20.07,341.34l20.81-1.02-.57-25.01s3.46-1.88,4.4.9c.94,2.78,4.23,8.05,3.98,8.89s-1.76,19.78-1.76,19.78c0,0,.11,5.09-2.94,5.32-3.05.23-11.78,1.3-13.01.98-1.23-.32-10.58-3.24-10.77-3.86s-.14-5.99-.14-5.99Z"/>
    <path class="cls-8" d="M52.39,332.63l27.51-1.12-.66-11.1s3.46-1.88,4.4.9,4.23,8.05,3.98,8.89-1.66,5.87-1.66,5.87c0,0,.11,5.09-2.94,5.32s-11.78,1.3-13.01.98-17.27-2.67-17.46-3.29-.15-6.46-.15-6.46Z"/>
    <path class="cls-8" d="M93.16,272.78c1.07-.1,53.62-1.24,66.53-1.52,1.79-.04,3.46-.91,4.52-2.36l16.66-22.88s8.52.59,8.04,1.22-9.8,14.05-10.57,14.68-12.35,15.16-13.13,15.18-64.51.07-66.78.03c-2.28-.04-.95.55-4.38-.25-3.43-.8-3.53-1.32-3.53-1.32l2.65-2.77Z"/>
    <path class="cls-8" d="M205.49,276.23c2.8.07,33.92.4,33.92.4l.97-26.79s7.37.75,7.38,1.28,3.41,29.33,3.41,29.33l-10.1,5.74s-10.62.71-17.08-.62-23.27-1.15-22.52-3.04,4.02-6.29,4.02-6.29Z"/>
    <polygon class="cls-7" points="435.98 206.77 424.35 350.04 401.5 348.59 382.19 331.9 358.45 334.73 342.77 349.88 260.98 355.67 262.85 371.3 335.26 377.4 347.04 341.62 370.51 329.67 394.26 340.1 405.95 357.43 406 381.02 434.88 380.97 444.45 204.25 435.98 206.77"/>
    <polygon class="cls-7" points="26.52 380.78 25.31 371.36 140.55 365.63 136.24 379.55 26.52 380.78"/>
    <polygon class="cls-3" points="121.64 328.8 263.81 329.46 262 343.05 192.09 340.67 176.92 331.44 160.71 334.58 144.49 340.67 131.6 343.83 120.41 340.49 121.64 328.8"/>
    <path class="cls-3" d="M265.71,329.18l45.89,1.01,38.2-37.11-9.45,21.71-17.55,22.85-5.68,4.15-33,3.73s-19.08-3.01-19.63-2.5,1.23-13.84,1.23-13.84Z"/>
    <path class="cls-7" d="M37.26,301.41l217.05,3.56,1.33-79.95,10.63-2.01s2.75,94.04.89,95.45c-1.86,1.41-142.12-.13-142.91-.11-.79.02-20.86-5.07-24.79-4.82s-72.76,3.51-72.76,3.51l10.56-15.63Z"/>
    <polygon class="cls-7" points="181.57 380.81 175.34 359.99 290.57 354.25 287.97 378.39 181.57 380.81"/>
    <path class="cls-7" d="M137.6,309.52l42.14-12.86c5.66-1.73,10.51-5.43,13.66-10.44l40.52-64.45-12.23-1.81-21.67,32.79-17.98,34.81-57.44,16.3,12.99,5.66Z"/>
    <path class="cls-10" d="M35.77,387.61c-7.67.26-14.22-5.48-14.8-13.16-1.14-19.14-2.28-38.29-3.42-57.43-.02-.36-.05-.71-.08-1.06-.21-2.52-.51-5.96,2.07-9.97,2.51-3.9,5.59-5.07,7.84-5.92.38-.14.78-.29,1.18-.46.12-.05.18-.07.31-.12,16.51-5.96,38.06-10.64,50.06-20.47,17.93-14.69,34.57-40.29,51.75-60.33,1.64-1.92,2.47-2.88,4.12-4.79,1.7,1.87,2.54,2.81,4.24,4.68.76.84,1.86,1.32,3.01,1.3.01,0,.02,0,.03,0,37.3-.84,74.59-1.15,111.9-.95,1.02,0,2-.37,2.74-1.07.74-.69,1.16-1.61,1.16-2.58.03-4.74.05-7.11.08-11.85,0-1.25-.66-2.41-1.8-3.11-6.28-3.84-9.42-5.76-15.73-9.57,65.41.27,130.76,2.18,196.07,5.73.04,0,.09,0,.13,0,7.75.52,14.22,6.83,13.91,14.82-3.2,54.42-6.42,108.84-9.66,163.26-.58,7.73-7.21,13.48-14.93,13.15-10.15-.57-20.31-1.09-30.46-1.56,1.36-2.81,2.05-4.21,3.42-7.02,2.16-4.42,3.16-9.19,2.95-14.15-.65-15.33-14.02-27.48-28.93-28.41-7.32-.45-17,3.31-22.23,8.25-5.15,4.87-9.36,14.21-9.19,21.44.09,3.6.7,7.26,2.03,10.65,1.14,2.9,1.7,4.36,2.83,7.26-50.3-1.59-100.6-2.18-150.92-1.76.79-2.67,1.18-4,1.98-6.67.93-3.14,1.34-6.41,1.19-9.71-.75-16.42-15.69-28.77-31.67-28.28-7.16.22-16.25,4.63-20.99,9.84-4.67,5.14-8.12,14.51-7.55,21.56.21,2.54.66,5.15,1.47,7.58.89,2.64,1.33,3.96,2.22,6.6-35.43.93-70.83,2.35-106.22,4.26-.04,0-.08,0-.12,0ZM32.65,309.11c-.49.2-.96.38-1.43.56-1.71.65-2.05.8-2.67,1.76-.68,1.06-.67,1.68-.51,3.67.04.43.07.86.09,1.31,1.09,19.14,2.17,38.29,3.25,57.43.11,1.98,1.89,3.56,3.9,3.47.01,0,.02,0,.03,0,31.01-1.67,62.04-2.97,93.08-3.91-.19-1.19-.32-2.39-.39-3.59-.69-10.62,2.97-21.16,10.11-29.05,7.25-8,17.62-12.85,28.3-13.29,21.25-.88,42.02,15.98,42.65,38.14.06,2.12,0,4.29-.25,6.4,40.99-.19,81.96.28,122.94,1.4-.44-2.33-.67-4.7-.68-7.1-.08-10.89,4.41-21.54,12.31-28.89,7.84-7.3,19.07-11.82,29.98-11.15,19.86,1.24,38.46,17.78,38.97,38.32.1,4-.32,8.11-1.37,11.99,6.23.32,9.35.49,15.59.83,2.05.11,3.81-1.44,3.93-3.46,3.08-54.43,6.14-108.86,9.17-163.29.11-1.99-1.56-3.77-3.66-3.9-.01,0-.02,0-.03,0-55.71-3.03-111.45-4.87-167.23-5.53.12.75.18,1.51.17,2.29-.05,4.74-.07,7.11-.12,11.85-.24,7.98-7.05,13.84-14.86,13.86-37.2-.2-74.39.12-111.58.95-2.26.05-4.46-.38-6.45-1.24-16.38,19.07-32.02,41.54-49.42,57.38-12.77,11.63-36.64,16.67-53.81,22.79Z"/>
    <path class="cls-11" d="M398.74,360.39c1.45,19.66-13.37,31.74-29.87,33.5-24.34,2.61,17.67,6.08,17.67,6.08l23.75-23.44s-13.34-40.51-11.55-16.14Z"/>
    <path class="cls-10" d="M369.79,406.32c-15.73-.79-30.15-11.03-35.94-25.68-1.8-4.57-2.78-9.44-2.77-14.33.06-21.51,18.59-40.69,40.78-40.07,21.39.6,41.14,18.33,40.5,40.53-.17,5.83-1.46,11.59-4.06,16.86-6.79,13.81-21.41,22.8-36.79,22.73-.57,0-1.15-.02-1.72-.05ZM373.16,336.58c-.44-.02-.89-.03-1.34-.04-16.3-.09-30.35,13.26-30.29,29.72.01,3.67.66,7.34,2.03,10.65,4.41,10.72,15.8,19.45,28.01,19.14,11.09-.28,22.57-6.69,27.36-16.93,1.82-3.89,2.92-8.14,2.97-12.53.19-15.96-12.94-29.23-28.73-30.02Z"/>
    <g>
      <path class="cls-10" d="M306.16,377.92c-5.83,10.92-18.21,18.71-30.59,18.8-13.01.09-26.9-7.43-32.56-19.6,21.05.1,42.1.37,63.15.8Z"/>
      <path class="cls-10" d="M273.94,401.87c-14.51-.33-29.36-9.1-35.6-22.47-1.49-2.98-2.24-4.48-3.74-7.46,26.7.07,53.4.41,80.1,1.01-1.58,2.94-2.36,4.42-3.93,7.36-6.69,12.52-20.88,21.43-35.08,21.55-.57,0-1.16.01-1.74,0ZM252.98,382.33c5.87,6.02,14.2,9.26,22.47,9.24,6.92-.02,15.77-3.58,20.62-8.7-14.36-.27-28.73-.46-43.09-.54Z"/>
    </g>
    <path class="cls-10" d="M257.84,375.25c.07-55.12.1-110.23.09-165.35,4.36,0,6.54.01,10.91.03-.16,55.12-.35,110.23-.58,165.35-4.17-.02-6.25-.03-10.42-.03Z"/>
    <path class="cls-10" d="M111.49,351.26c-25.84.68-51.67,1.6-77.5,2.78-7.74.27-14.41-5.49-14.94-13.28-.37-7.26-.55-10.89-.92-18.15-.27-7.87,5.94-14.23,13.71-14.67,26.16-1.19,52.33-2.13,78.51-2.82,7.78-.11,14.42,5.79,14.72,13.66.15,7.27.23,10.9.38,18.17.03,7.8-6.21,14.03-13.95,14.31ZM32.31,318.23c-2.09.1-3.7,1.83-3.61,3.86.35,7.26.52,10.89.87,18.15.1,2.03,1.86,3.6,3.93,3.5,25.9-1.18,51.81-2.11,77.73-2.79,2.07-.05,3.72-1.74,3.67-3.77-.17-7.27-.26-10.9-.43-18.17-.05-2.03-1.79-3.64-3.87-3.59-26.1.68-52.2,1.62-78.28,2.81Z"/>
    <path class="cls-10" d="M44.48,348.47c-.69-11.93-1.39-23.86-2.08-35.79,4.24-.24,6.36-.36,10.6-.59.66,11.93,1.32,23.86,1.98,35.79-4.2.23-6.3.35-10.5.59Z"/>
    <path class="cls-10" d="M83.44,347.07c-.77-11.93-1.55-23.86-2.34-35.78,4.24-.27,6.36-.4,10.6-.66.75,11.93,1.49,23.86,2.23,35.79-4.2.25-6.29.39-10.49.65Z"/>
    <path class="cls-10" d="M48.37,325.16c-.19-4.12-.29-6.18-.48-10.3,12.93-.58,25.87-1.1,38.8-1.57.15,4.12.22,6.18.36,10.3-12.9.47-25.8.99-38.69,1.57Z"/>
    <path class="cls-10" d="M88,343.77c-12.89.38-25.78.81-38.67,1.3-.16-4.12-.24-6.18-.4-10.3,12.93-.49,25.85-.93,38.78-1.31.12,4.12.17,6.18.29,10.3Z"/>
    <path class="cls-10" d="M263.07,319.26c-48.51-1.21-97.01-1.5-145.53-.87-.06-4.12-.09-6.18-.14-10.31,48.66-.63,97.3-.34,145.95.87-.11,4.12-.17,6.18-.28,10.3Z"/>
    <path class="cls-10" d="M144.56,346.95c-8.05.14-16.1.29-24.16.46-.09-4.12-.14-6.18-.23-10.31,8.08-.17,16.15-.32,24.23-.46.06,4.12.1,6.18.16,10.31Z"/>
    <path class="cls-10" d="M263.05,347.08c-23.65-.39-47.29-.57-70.94-.55,0-4.12-.01-6.18-.02-10.31,23.72-.02,47.43.16,71.15.55-.07,4.12-.11,6.18-.18,10.31Z"/>
    <path class="cls-10" d="M311.28,348.26c-16.08-.48-32.15-.88-48.23-1.18.07-4.12.11-6.18.18-10.31,16.13.31,32.25.7,48.37,1.19,2.94.09,5.71-1.25,7.41-3.6,9.27-12.76,18.61-25.47,28.02-38.14-8.26,6.42-16.49,12.87-24.7,19.35-3.58,2.84-8.1,4.34-12.71,4.23-15.48-.26-30.96-.44-46.44-.53.02-4.12.03-6.18.04-10.31,15.53.1,31.06.27,46.59.53,2.12.05,4.17-.64,5.8-1.92,11.86-9.38,23.78-18.68,35.74-27.93,3.46-2.67,8.33-2.45,11.54.51,3.22,2.96,3.65,7.62,1.05,11.08-12.23,16.29-24.34,32.66-36.34,49.11-3.76,5.17-9.86,8.13-16.32,7.92Z"/>
    <path class="cls-10" d="M163.16,286.15c-25.56.32-51.11.88-76.66,1.67-2.95.1-5.42-2.13-5.51-4.97-.1-2.84,2.22-5.23,5.18-5.33,25.62-.8,51.25-1.36,76.88-1.68,1.45-.02,2.8-.71,3.61-1.87,5.56-7.87,11.14-15.71,16.76-23.53-22.06.4-44.11.98-66.16,1.72-2.95.13-5.48-2.11-5.58-4.96-.11-2.84,2.23-5.24,5.21-5.34,23.14-.78,46.29-1.38,69.44-1.78,3.44-.07,6.64,1.72,8.27,4.64,1.63,2.91,1.42,6.41-.55,9.13-6.21,8.62-12.39,17.26-18.54,25.92-2.79,3.94-7.4,6.32-12.35,6.37Z"/>
    <path class="cls-10" d="M244.44,290.37c-.1,0-.2,0-.3,0-12.4-.15-24.8-.23-37.19-.25-3.57-.15-6.78-2.17-8.37-5.26-1.58-3.07-1.32-6.72.68-9.55,6.41-9.4,12.84-18.79,19.31-28.15,1.86-2.53,4.91-4.03,8.16-4.01,7.14.04,10.71.07,17.85.14,5.2.05,9.5,3.99,9.79,8.94,0,.12,0,.17,0,.29,0,9.34,0,18.68-.01,28.02.1,2.63-.94,5.19-2.87,7.05-1.87,1.81-4.42,2.8-7.05,2.78ZM208.99,279.81c11.56.03,23.11.1,34.67.23-.02-8.82-.04-17.64-.07-26.47-6.58-.07-9.87-.09-16.46-.13-6.08,8.77-12.13,17.55-18.15,26.36ZM203.71,278.18s0,0,0,0c0,0,0,0,0,0Z"/>
    <g>
      <path class="cls-6" d="M130.78,197.61c1,9.43,1.48,13.13,2.47,22.17,11.33,1.1,22.65,2.24,33.97,3.43.43-11.78.67-16.47,1.09-28.46-12.5,1.06-25.01,2.03-37.52,2.86Z"/>
      <path class="cls-6" d="M224.71,193.99c-.23,11.27-.36,16.48-.6,27.7,11.58.1,23.16.18,34.74.25.03-9.75.05-19.51.08-29.26-11.41.38-22.81.82-34.22,1.31Z"/>
      <path class="cls-4" d="M168.85,219.14c-.19-8.48-.28-12.24-.47-20.85,18.78-1.39,37.56-2.86,56.33-4.3-.64,9.88-.97,14.51-1.61,24.23-18.08.31-36.16.61-54.25.92Z"/>
      <path class="cls-8" d="M167.66,215.33c15.91-.35,31.82-.7,47.74-1.05.04-7.63.07-11.32.11-19.12,0,0-2.48.08-.74,2.26,1.75,2.18,7.99,6.21,7.48,6.89-.51.68-3.92,15.87-3.92,15.87,0,0,.08,4.14-5.84,4.34-5.92.2-22.88,1.08-25.26.83s-20.43-2.51-20.78-2.99,1.22-7.04,1.22-7.04Z"/>
      <path class="cls-9" d="M226.33,222.32c.42-3.01.63-4.5,1.06-7.47,8.79.07,13.18.11,21.96.2,2.41.02,4.36-1.94,4.3-4.33-.11-4.77-.16-7.14-.27-11.92,2.87.64,4.31.97,7.19,1.62,1.05,5.84,1.58,8.76,2.64,14.61-.84,3.77-1.25,5.65-2.09,9.43-11.6-.7-23.19-1.42-34.78-2.15Z"/>
      <path class="cls-9" d="M132.66,221.98c.43-2.77.64-4.1,1.07-6.74,10.55.05,15.82.07,26.36.11-.13-5.82-.19-8.57-.33-14.51,2.87.55,4.31.83,7.18,1.38,1.04,5.28,1.56,7.78,2.6,13.04-.84,3.39-1.27,5.09-2.11,8.66-11.59-.68-23.18-1.33-34.78-1.94Z"/>
      <path class="cls-10" d="M140.38,227.74c-4.39.05-8.55-1.73-11.43-4.65-2.19-2.23-3.45-4.97-3.53-7.71-.12-4.07-.18-6.02-.3-10.12-.1-3.22,1.36-6.44,4.1-9.02,2.74-2.59,6.44-4.18,10.4-4.32,37.58-1.35,75.13-3.15,112.73-3.58,2.81.02,5.59.75,7.98,2.2,4.29,2.6,6.82,7.04,6.77,11.82-.05,4.74-.07,7.11-.12,11.85-.04,3.72-1.61,7.21-4.42,9.82-2.81,2.61-6.52,4.04-10.44,3.99-37.21-.42-74.4-.77-111.61-.28-.04,0-.09,0-.13,0ZM252.34,198.63s-.03,0-.04,0c-37.5.3-74.96,1.68-112.44,2.93-1.03.03-2,.41-2.72,1.06-.73.64-1.11,1.46-1.09,2.31.11,4.12.16,6.09.27,10.18.02.93.52,1.59.92,1.99.76.74,1.85,1.15,3.01,1.14.01,0,.02,0,.03,0,37.3-.65,74.6-.82,111.91-.53,1.02.01,2-.36,2.74-1.05.74-.69,1.16-1.6,1.16-2.57.03-4.72.05-7.07.09-11.79,0-1.24-.66-2.4-1.8-3.08-.63-.38-1.32-.57-2.04-.58Z"/>
      <path class="cls-10" d="M168.72,226.66c-3,0-5.45-2.25-5.47-4.88-.07-8.86-.13-16.8-.21-25.83-.02-2.69,2.41-5.06,5.44-5.16,3.03-.1,5.49,2.11,5.51,4.81.05,9.09.08,17.21.13,26.16.01,2.66-2.4,4.9-5.4,4.89Z"/>
      <path class="cls-10" d="M223.34,227.65c-3-.06-5.41-2.41-5.4-5.21.06-9.64.13-18.78.18-28.44.02-2.8,2.48-5.17,5.51-5.22,3.03-.05,5.46,2.23,5.44,5.05-.08,9.73-.18,19.05-.26,28.78-.02,2.82-2.47,5.09-5.47,5.04Z"/>
    </g>
    <path class="cls-10" d="M387.13,367.63c-.45,8.51-8.05,15.17-16.54,14.76-8.49-.41-15.4-7.78-15.03-16.29.37-8.56,8.01-15.25,16.54-14.83,8.53.41,15.48,7.8,15.03,16.36Z"/>
    <circle class="cls-4" cx="168.87" cy="368.1" r="36.71"/>
    <path class="cls-11" d="M195.33,361.63c1.45,19.66-13.37,31.74-29.87,33.5-24.34,2.61,17.67,6.08,17.67,6.08l23.75-23.44s-13.34-40.51-11.55-16.14Z"/>
    <path class="cls-10" d="M168.88,407.54c-17.32.14-33.29-11.13-38.86-27.54-1.1-3.24-1.83-6.71-2.02-10.19-.63-11.51,4.07-24.02,12.89-31.79,6.98-6.16,16.09-10.06,25.49-10.55,10.63-.56,21.2,3.04,29.22,10.06,8.11,7.1,13.01,17.3,13.46,28.07.18,4.41-.36,8.82-1.64,13.06-4.87,16.22-19.92,27.94-36.8,28.82-.58.03-1.17.05-1.74.05ZM168.28,337.73c-.45,0-.9.02-1.34.04-6.3.22-14.28,3.49-18.89,7.81-6.39,6-10.17,14.71-9.62,23.58.16,2.61.72,5.19,1.47,7.57,3.95,12.4,17.46,20.91,30.19,20.46,12.27-.43,23.85-9.72,27.35-21.44,0,0,0,0,0,0,.94-3.16,1.27-6.49,1.19-9.71-.18-7.16-4.74-16.21-10.04-20.83-4.94-4.3-13.51-7.8-20.31-7.49Z"/>
    <path class="cls-10" d="M184.3,367.38c.04,8.51-7.15,15.61-15.64,15.68-8.5.08-15.81-6.89-15.92-15.4-.12-8.56,7.11-15.68,15.64-15.76,8.54-.08,15.89,6.91,15.92,15.47Z"/>
    <g>
      <path class="cls-10" d="M112.14,379.07c-3.4,14.91-16.55,26.17-31.77,27.35-16.1,1.25-31.51-9-36.46-24.4,22.74-1.17,45.48-2.15,68.23-2.95Z"/>
      <path class="cls-10" d="M79.06,411.65c-17.84.59-34.63-11.06-40.11-28.08-.81-2.54-1.22-3.81-2.03-6.34,27.25-1.46,54.51-2.63,81.78-3.53-.59,2.6-.89,3.9-1.48,6.5-3.91,17.05-19.04,29.98-36.45,31.36-.57.04-1.14.08-1.71.1ZM51.74,386.77c5.94,9.16,17.03,15.72,28.23,14.51,10.17-1.1,20.4-7.22,24.78-16.8-17.67.65-35.34,1.41-53.01,2.29Z"/>
    </g>
    <path class="cls-10" d="M219.28,220.2l9.53,6.13-37.31,56.69c-4.57,6.94-11.49,11.99-19.49,14.22l-55.54,17.43-6.14-9.53,58.04-16.85c6.09-1.65,11.35-5.53,14.72-10.86l36.18-57.21Z"/>
  </g>
</svg>