<?xml version="1.0" encoding="UTF-8"?>
<svg id="Layer_1" data-name="Layer 1" xmlns="http://www.w3.org/2000/svg" viewBox="0 0 600 600">
  <defs>
    <style>
      .cls-1 {
        fill: none;
      }

      .cls-1, .cls-2 {
        stroke: #231f20;
        stroke-miterlimit: 10;
        stroke-width: 8.5px;
      }

      .cls-3 {
        fill: #c1cb30;
      }

      .cls-4, .cls-2 {
        fill: #fff;
      }

      .cls-5 {
        fill: #e12228;
      }

      .cls-6 {
        fill: #1f9cd8;
      }

      .cls-7 {
        fill: #808285;
      }

      .cls-8 {
        fill: #b02024;
      }

      .cls-9 {
        fill: #d1d3d4;
      }

      .cls-10 {
        fill: #1c7dae;
      }

      .cls-11 {
        fill: #010101;
      }

      .cls-12 {
        fill: #bcbec0;
      }

      .cls-13 {
        fill: #d4df30;
      }

      .cls-14 {
        fill: #d4d4d4;
      }
    </style>
  </defs>
  <g>
    <g>
      <path class="cls-7" d="M446.2,243.35c24.28,1.02,48.43,2.89,72.58,5.63,5.72.68,10.99-2.52,11.74-7.19.08-.52.13-.78.21-1.31.75-4.67-3.4-9.13-9.24-9.84-24.68-2.81-49.38-4.74-74.2-5.79-5.91-.21-10.94,3.54-11.16,8.27-.02.53-.04.79-.06,1.32-.22,4.73,4.35,8.7,10.14,8.91Z"/>
      <path class="cls-14" d="M439.97,228.01l71.94,5.13c3.41.24,6.39-2.32,6.65-5.73l.19-2.45,7.81,2.39-2.39,10.59-6.08,4.52-81.03-5.57-1.99-9.42,4.91.53Z"/>
      <path class="cls-2" d="M441.94,235.43c24.28,1.02,48.43,2.89,72.58,5.63,5.72.68,10.99-2.52,11.74-7.19.08-.52.13-.78.21-1.31.75-4.67-3.4-9.13-9.24-9.84-24.68-2.81-49.38-4.74-74.2-5.79-5.91-.21-10.94,3.54-11.16,8.27-.02.53-.04.79-.06,1.32-.22,4.73,4.35,8.7,10.14,8.91Z"/>
      <path class="cls-14" d="M439.97,228.01l71.94,5.13c3.41.24,6.39-2.32,6.65-5.73l.19-2.45,7.81,2.39-2.39,10.59-6.08,4.52-81.03-5.57-1.99-9.42,4.91.53Z"/>
      <path class="cls-1" d="M441.94,235.43c24.28,1.02,48.43,2.89,72.58,5.63,5.72.68,10.99-2.52,11.74-7.19.08-.52.13-.78.21-1.31.75-4.67-3.4-9.13-9.24-9.84-24.68-2.81-49.38-4.74-74.2-5.79-5.91-.21-10.94,3.54-11.16,8.27-.02.53-.04.79-.06,1.32-.22,4.73,4.35,8.7,10.14,8.91Z"/>
    </g>
    <g>
      <path class="cls-7" d="M444.56,281.72c41.19,1.73,81.98,6.18,122.57,13.43,5.37,1,10.59-1.91,11.62-6.53.11-.52.17-.77.29-1.29,1.03-4.62-2.6-9.29-8.1-10.32-41.52-7.43-83.25-12.01-125.4-13.79-5.64-.2-10.42,3.56-10.62,8.29-.02.53-.03.79-.05,1.32-.19,4.73,4.18,8.69,9.69,8.88Z"/>
      <path class="cls-2" d="M440.3,273.8c41.19,1.73,81.98,6.18,122.57,13.43,5.37,1,10.59-1.91,11.62-6.53.11-.52.17-.77.29-1.29,1.03-4.62-2.6-9.29-8.1-10.32-41.52-7.43-83.25-12.01-125.4-13.79-5.64-.2-10.42,3.56-10.62,8.29-.02.53-.03.79-.05,1.32-.19,4.73,4.18,8.69,9.69,8.88Z"/>
      <path class="cls-14" d="M444.12,264.27c37.13,2.68,73.83,7.36,110.45,14.09,5.18.99,10.1-.84,11.02-4.15.27-.95.4-1.43.67-2.38,4.66,1.69,6.98,2.55,11.6,4.3-2.17,3.93-3.25,5.9-5.39,9.84-3.98,1.18-5.96,1.78-9.9,3-40.78-7.88-81.66-13.16-123.1-15.9-1.17-3.78-1.76-5.67-2.96-9.45,3.05.24,4.57.37,7.61.64Z"/>
      <path class="cls-1" d="M440.3,273.8c41.19,1.73,81.98,6.18,122.57,13.43,5.37,1,10.59-1.91,11.62-6.53.11-.52.17-.77.29-1.29,1.03-4.62-2.6-9.29-8.1-10.32-41.52-7.43-83.25-12.01-125.4-13.79-5.64-.2-10.42,3.56-10.62,8.29-.02.53-.03.79-.05,1.32-.19,4.73,4.18,8.69,9.69,8.88Z"/>
    </g>
    <g>
      <path class="cls-7" d="M438.4,319.84c44.86,1.99,89.18,7.37,133.21,16.23,5.11,1.07,10.17-1.77,11.27-6.37.12-.51.18-.77.31-1.29,1.1-4.6-2.26-9.32-7.49-10.41-45.07-9.09-90.44-14.61-136.37-16.66-5.4-.2-9.98,3.56-10.16,8.28-.02.53-.03.79-.05,1.32-.18,4.72,4.01,8.69,9.28,8.89Z"/>
      <path class="cls-2" d="M434.14,311.92c44.86,1.99,89.18,7.37,133.21,16.23,5.11,1.07,10.17-1.77,11.27-6.37.12-.51.18-.77.31-1.29,1.1-4.6-2.26-9.32-7.49-10.41-45.07-9.09-90.44-14.61-136.37-16.66-5.4-.2-9.98,3.56-10.16,8.28-.02.53-.03.79-.05,1.32-.18,4.72,4.01,8.69,9.28,8.89Z"/>
      <path class="cls-14" d="M441.12,304.54c39.41,2.86,78.4,7.74,117.29,14.7,5.5,1.02,10.71-.78,11.68-4.09.28-.95.42-1.42.69-2.37,4.95,1.72,7.42,2.59,12.34,4.37-2.29,3.92-3.42,5.88-5.67,9.82-4.21,1.16-6.31,1.75-10.49,2.95-43.31-8.13-86.77-13.64-130.73-16.58-1.26-3.79-1.9-5.69-3.19-9.47,3.23.26,4.85.4,8.08.69Z"/>
      <path class="cls-1" d="M434.14,311.92c44.86,1.99,89.18,7.37,133.21,16.23,5.11,1.07,10.17-1.77,11.27-6.37.12-.51.18-.77.31-1.29,1.1-4.6-2.26-9.32-7.49-10.41-45.07-9.09-90.44-14.61-136.37-16.66-5.4-.2-9.98,3.56-10.16,8.28-.02.53-.03.79-.05,1.32-.18,4.72,4.01,8.69,9.28,8.89Z"/>
    </g>
    <g>
      <g>
        <path class="cls-7" d="M436.92,360.78c21.15.93,42.17,2.57,63.2,4.96,4.98.6,9.58-2.69,10.24-7.37.07-.52.11-.79.18-1.31.66-4.68-2.95-9.07-8.05-9.68-21.55-2.45-43.08-4.14-64.75-5.09-5.16-.19-9.52,3.58-9.68,8.3-.02.53-.03.79-.04,1.32-.15,4.72,3.86,8.69,8.9,8.87Z"/>
        <path class="cls-2" d="M432.66,352.87c21.15.93,42.17,2.57,63.2,4.96,4.98.6,9.58-2.69,10.24-7.37.07-.52.11-.79.18-1.31.66-4.68-2.95-9.07-8.05-9.68-21.55-2.45-43.08-4.14-64.75-5.09-5.16-.19-9.52,3.58-9.68,8.3-.02.53-.03.79-.04,1.32-.15,4.72,3.86,8.69,8.9,8.87Z"/>
        <path class="cls-14" d="M421.91,344.44l71.94,5.13c3.41.24,6.39-2.32,6.65-5.73l.19-2.45,7.81,2.39-2.39,10.59-6.08,4.52-81.03-5.57-1.99-9.42,4.91.53Z"/>
        <path class="cls-1" d="M432.66,352.87c21.15.93,42.17,2.57,63.2,4.96,4.98.6,9.58-2.69,10.24-7.37.07-.52.11-.79.18-1.31.66-4.68-2.95-9.07-8.05-9.68-21.55-2.45-43.08-4.14-64.75-5.09-5.16-.19-9.52,3.58-9.68,8.3-.02.53-.03.79-.04,1.32-.15,4.72,3.86,8.69,8.9,8.87Z"/>
      </g>
      <g>
        <path class="cls-7" d="M545.19,371.74c6.85,1.17,13.69,2.45,20.49,3.84,4.89.99,9.71-1.93,10.74-6.55.12-.52.17-.77.29-1.29,1.03-4.61-2.2-9.27-7.21-10.28-6.97-1.42-13.98-2.73-20.99-3.94-5.04-.87-9.84,2.28-10.63,6.94-.09.52-.13.78-.22,1.3-.79,4.66,2.61,9.12,7.54,9.97Z"/>
        <path class="cls-2" d="M540.92,363.82c6.85,1.17,13.69,2.45,20.49,3.84,4.89.99,9.71-1.93,10.74-6.55.12-.52.17-.77.29-1.29,1.03-4.61-2.2-9.27-7.21-10.28-6.97-1.42-13.98-2.73-20.99-3.94-5.04-.87-9.84,2.28-10.63,6.94-.09.52-.13.78-.22,1.3-.79,4.66,2.61,9.12,7.54,9.97Z"/>
        <path class="cls-14" d="M558.99,360.67c3.41.24,6.39-2.32,6.65-5.73l.19-2.45,7.81,2.39-2.39,10.59-6.08,4.52-26.18-3.4-1.99-9.42,22,3.49Z"/>
        <path class="cls-1" d="M540.92,363.82c6.85,1.17,13.69,2.45,20.49,3.84,4.89.99,9.71-1.93,10.74-6.55.12-.52.17-.77.29-1.29,1.03-4.61-2.2-9.27-7.21-10.28-6.97-1.42-13.98-2.73-20.99-3.94-5.04-.87-9.84,2.28-10.63,6.94-.09.52-.13.78-.22,1.3-.79,4.66,2.61,9.12,7.54,9.97Z"/>
      </g>
    </g>
  </g>
  <g>
    <path class="cls-7" d="M216.64,375.46c-.59,2.59-.89,3.89-1.48,6.5-3.9,17.05-19.03,29.98-36.44,31.36-.58.05-1.14.07-1.72.1-17.84.59-34.62-11.07-40.11-28.08-.8-2.54-1.22-3.81-2.03-6.35,27.25-1.46,54.51-2.63,81.79-3.52Z"/>
    <path class="cls-7" d="M323.87,367.27c-.59,2.59-.89,3.89-1.48,6.5-3.9,17.05-19.03,29.98-36.44,31.36-.58.05-1.14.07-1.72.1-17.84.59-34.62-11.07-40.11-28.08-.8-2.54-1.22-3.81-2.03-6.35,27.25-1.46,54.51-2.63,81.79-3.52Z"/>
    <path class="cls-7" d="M418.27,370.88c-.59,2.59-.89,3.89-1.48,6.5-3.9,17.05-19.03,29.98-36.44,31.36-.58.05-1.14.07-1.72.1-17.84.59-34.62-11.07-40.11-28.08-.8-2.54-1.22-3.81-2.03-6.35,27.25-1.46,54.51-2.63,81.79-3.52Z"/>
    <g>
      <path class="cls-7" d="M41.24,391.85c-7.53.26-13.97-5.48-14.54-13.17-1.13-19.14-2.25-38.29-3.38-57.43-.02-.36-.05-.71-.08-1.06-.21-2.52-.5-5.96,2.03-9.97,2.46-3.9,5.49-5.07,7.69-5.92.38-.14.76-.29,1.16-.46.12-.05.18-.07.3-.12,16.21-5.95,37.38-10.63,49.16-20.45,17.6-14.68,33.94-40.28,50.8-60.31,1.61-1.92,2.42-2.88,4.04-4.79,1.67,1.87,2.5,2.81,4.16,4.68.75.84,1.83,1.32,2.96,1.3.01,0,.02,0,.03,0,36.63-.82,73.26-1.12,109.9-.9,1.01,0,1.96-.37,2.69-1.07.73-.69,1.14-1.61,1.14-2.58.03-4.74.05-7.11.08-11.85,0-1.25-.65-2.41-1.77-3.11-6.17-3.85-9.26-5.76-15.46-9.58,64.24.3,128.43,2.24,192.57,5.81.04,0,.08,0,.12,0,7.62.53,13.97,6.83,13.67,14.83-3.12,54.42-6.26,108.84-9.42,163.26-.57,7.73-7.08,13.47-14.65,13.14-9.97-.57-19.94-1.09-29.92-1.58,1.34-2.81,2.01-4.21,3.35-7.02,2.12-4.42,3.1-9.19,2.89-14.15-.65-15.33-13.78-27.49-28.42-28.42-7.19-.46-16.69,3.3-21.83,8.25-5.05,4.86-9.19,14.21-9.02,21.43.09,3.6.69,7.26,2,10.65,1.12,2.9,1.67,4.36,2.79,7.26-49.4-1.61-98.8-2.22-148.22-1.82.77-2.67,1.16-4,1.94-6.67.92-3.14,1.31-6.41,1.16-9.71-.74-16.42-15.42-28.78-31.11-28.29-7.03.22-15.96,4.63-20.61,9.83-4.58,5.13-7.97,14.51-7.41,21.56.21,2.54.65,5.15,1.45,7.58.87,2.64,1.31,3.96,2.18,6.6-34.8.92-69.57,2.32-104.32,4.22-.04,0-.08,0-.12,0ZM38.14,313.34c-.48.2-.95.38-1.4.56-1.68.65-2.01.8-2.62,1.76-.67,1.06-.66,1.68-.5,3.67.03.43.07.86.09,1.31,1.07,19.14,2.15,38.29,3.21,57.43.11,1.98,1.86,3.56,3.83,3.47.01,0,.02,0,.03,0,30.46-1.66,60.93-2.95,91.41-3.87-.18-1.19-.31-2.39-.39-3.59-.68-10.62,2.9-21.16,9.92-29.04,7.12-8,17.3-12.84,27.79-13.28,20.87-.88,41.28,16,41.9,38.15.06,2.12,0,4.29-.24,6.4,40.26-.17,80.5.31,120.74,1.45-.43-2.33-.66-4.7-.68-7.1-.08-10.89,4.32-21.54,12.08-28.89,7.7-7.3,18.73-11.82,29.44-11.13,19.51,1.24,37.78,17.8,38.29,38.34.1,4-.31,8.11-1.35,11.99,6.12.32,9.18.49,15.31.84,2.01.12,3.74-1.44,3.86-3.46,3-54.43,5.98-108.85,8.94-163.28.11-1.99-1.54-3.77-3.6-3.9-.01,0-.02,0-.03,0-54.71-3.05-109.46-4.92-164.24-5.6.12.75.18,1.51.17,2.29-.05,4.74-.07,7.11-.11,11.85-.23,7.98-6.91,13.84-14.59,13.85-36.54-.21-73.06.09-109.59.9-2.22.05-4.38-.38-6.34-1.24-16.08,19.06-31.43,41.52-48.51,57.36-12.54,11.63-35.97,16.66-52.84,22.77Z"/>
      <g>
        <path class="cls-7" d="M116.24,383.33c-3.34,14.91-16.24,26.16-31.19,27.34-15.82,1.24-30.95-9.01-35.82-24.42,22.33-1.16,44.66-2.13,67.01-2.92Z"/>
        <path class="cls-7" d="M83.76,415.9c-17.52.58-34.01-11.07-39.41-28.1-.8-2.54-1.2-3.81-2-6.34,26.76-1.45,53.53-2.61,80.32-3.5-.58,2.6-.87,3.9-1.45,6.49-3.83,17.05-18.68,29.98-35.78,31.35-.56.04-1.12.08-1.68.1ZM56.92,391.01c5.83,9.16,16.73,15.72,27.73,14.52,9.99-1.09,20.03-7.21,24.33-16.79-17.36.64-34.71,1.4-52.06,2.27Z"/>
      </g>
    </g>
    <polygon class="cls-5" points="115.01 241.5 188.91 239.82 183.42 253.22 171.02 271.18 165.5 277.65 85.7 276.68 23.91 300.1 24.08 307.89 118.73 308.3 117.2 338.05 24.92 344.65 25.64 376.52 132.73 374.09 141.25 338.71 119.41 338.05 122.41 308.21 265.56 309.81 263.65 225.58 253.5 218.23 217.6 244.17 241.13 244.14 244.09 276.69 198.74 275.67 219.38 242.08 263.48 220.96 129.9 221.04 115.01 241.5"/>
    <polyline class="cls-5" points="194.18 338.14 204.42 368.36 260.41 364.54 261.28 336.61 194.18 338.14"/>
    <path class="cls-5" d="M266.21,338.4l-3.17,24.14,43.58-.99,13.81,4.17s9.82-6.35,10.76-6.21,9.08-14.15,9.08-14.15l17.31-16.19s10.74-1.47,12.5-1.27c1.76.2,11.58,2.04,12.35,2.59s18.26,16.51,18.26,16.51c0,0,6.58,9.25,7.35,9.99s29.36,1.03,29.36,1.03l2.24-43.3,3.95-114.71-96.05-6.73-87.27-1.97,1.58,118.46,50.68,1.63s43.54-32.2,45.43-32.06c1.88.15-27.37,45-27.37,45,0,0-10.32,17.36-14.84,17.27s-49.53-3.21-49.53-3.21Z"/>
    <polygon class="cls-13" points="121.41 337.47 143.61 336.42 162.97 327.48 191.22 336.42 316.25 339.47 357.95 279.34 319.3 306.41 302.05 310.2 116.43 308.29 121.41 337.47"/>
    <polygon class="cls-4" points="115.01 241.5 188.91 239.82 167.92 274.82 82.11 279.54 114.99 244.62 115.01 241.5"/>
    <polygon class="cls-4" points="200.38 276.84 220.94 243.88 243.28 241.96 242.21 279.84 200.38 276.84"/>
    <polyline class="cls-4" points="27.18 310.86 41.53 308.44 49.82 336.14 43.61 344.22 24.92 344.65 24.37 320.42 27.18 310.86"/>
    <polygon class="cls-4" points="88.69 304.47 118.7 306.68 117.2 338.05 93.11 344.54 89.46 338.2 88.69 304.47"/>
    <polyline class="cls-4" points="49.3 313.21 82.85 312.44 86.83 329.21 53.59 334.35 47.36 325.49 49.3 313.21"/>
    <circle class="cls-4" cx="370.89" cy="363.53" r="36.71"/>
    <path class="cls-8" d="M191.08,244.12c1.45,1.05,2.01,3.91,1.09,5.45-3.71,6.2-10.28,20.05-15.23,28.23-2.16,3.56-5.49,6.22-9.65,6.25l-97.24,2.52s15.68-10.01,17.16-10.82,81.01-.48,81.01-.48l18.5-35.91,4.37,4.76Z"/>
    <path class="cls-8" d="M251.49,274.46c-.1,1.37,2.86,3.38.41,10.5-.85,2.47-2.72,4.05-4.8,4.06l-38.45-.11c-3.29,0-6.07-2.46-6.44-5.74-.17-1.5-.22-2.76.06-2.96.74-.52,46.46,1.49,46.46,1.49l2.76-7.24Z"/>
    <path class="cls-9" d="M90.35,334.5l18.33-.89c1.38-.07,2.45-1.22,2.42-2.6l-.51-22.53s3.46-1.88,4.4.9,4.23,8.05,3.98,8.89-1.76,19.78-1.76,19.78c0,0,.11,5.09-2.94,5.32-3.05.23-11.78,1.3-13.01.98s-10.58-3.24-10.77-3.86-.14-5.99-.14-5.99Z"/>
    <path class="cls-9" d="M19.2,337.09l20.81-1.02-.57-25.01s3.46-1.88,4.4.9,4.23,8.05,3.98,8.89-1.76,19.78-1.76,19.78c0,0,.11,5.09-2.94,5.32-3.05.23-11.78,1.3-13.01.98-1.23-.32-10.58-3.24-10.77-3.86s-.14-5.99-.14-5.99Z"/>
    <path class="cls-9" d="M51.52,328.38l27.51-1.12-.66-11.1s3.46-1.88,4.4.9c.94,2.78,4.23,8.05,3.98,8.89s-1.66,5.87-1.66,5.87c0,0,.11,5.09-2.94,5.32s-11.78,1.3-13.01.98c-1.23-.32-17.27-2.67-17.46-3.29s-.15-6.46-.15-6.46Z"/>
    <path class="cls-9" d="M92.28,268.52c1.07-.1,53.62-1.24,66.53-1.52,1.79-.04,3.46-.91,4.52-2.36l16.66-22.88s8.52.59,8.04,1.22-9.8,14.05-10.57,14.68-12.35,15.16-13.13,15.18c-.79.02-64.51.07-66.78.03-2.28-.04-.95.55-4.38-.25-3.43-.8-3.53-1.32-3.53-1.32l2.65-2.77Z"/>
    <path class="cls-9" d="M204.61,271.98c2.8.07,33.92.4,33.92.4l.97-26.79s7.37.75,7.38,1.28,3.41,29.33,3.41,29.33l-10.1,5.74s-10.62.71-17.08-.62c-6.46-1.34-23.27-1.15-22.52-3.04s4.02-6.29,4.02-6.29Z"/>
    <polygon class="cls-8" points="435.11 202.52 423.48 345.79 400.63 344.34 381.32 327.65 357.57 330.48 341.9 345.63 260.1 351.42 261.98 367.05 334.39 373.15 346.17 337.37 369.63 325.42 393.39 335.85 405.07 353.18 405.13 376.77 434 376.72 443.58 200 435.11 202.52"/>
    <polygon class="cls-8" points="25.64 376.52 24.44 367.11 139.67 361.38 135.36 375.3 25.64 376.52"/>
    <polygon class="cls-3" points="120.77 324.55 262.93 325.21 261.13 338.8 191.22 336.42 176.05 327.19 159.84 330.33 143.61 336.42 130.72 339.58 119.53 336.24 120.77 324.55"/>
    <path class="cls-12" d="M398.3,355.46c1.45,19.66-13.37,31.74-29.87,33.5-24.34,2.61,17.67,6.08,17.67,6.08l23.75-23.44s-13.34-40.51-11.55-16.14Z"/>
    <path class="cls-3" d="M264.84,324.93l45.89,1.01,38.2-37.11-9.45,21.71-17.55,22.85-5.68,4.15-33,3.73s-19.08-3.01-19.63-2.5,1.23-13.84,1.23-13.84Z"/>
    <path class="cls-8" d="M36.39,297.16l217.05,3.56,1.33-79.95,10.63-2.01s2.75,94.04.89,95.45c-1.86,1.41-142.12-.13-142.91-.11s-20.86-5.07-24.79-4.82-72.76,3.51-72.76,3.51l10.56-15.63Z"/>
    <polygon class="cls-8" points="180.7 376.56 174.46 355.74 289.7 350 287.1 374.14 180.7 376.56"/>
    <path class="cls-8" d="M136.73,305.27l42.14-12.86c5.66-1.73,10.51-5.43,13.66-10.44l40.52-64.45-12.23-1.81-21.67,32.79-17.98,34.81-57.44,16.3,12.99,5.66Z"/>
    <path class="cls-11" d="M34.9,383.36c-7.67.26-14.22-5.48-14.8-13.16-1.14-19.14-2.28-38.29-3.42-57.43-.02-.36-.05-.71-.08-1.06-.21-2.52-.51-5.96,2.07-9.97,2.51-3.9,5.59-5.07,7.84-5.92.38-.14.78-.29,1.18-.46.12-.05.18-.07.31-.12,16.51-5.96,38.06-10.64,50.06-20.47,17.93-14.69,34.57-40.29,51.75-60.33,1.64-1.92,2.47-2.88,4.12-4.79,1.7,1.87,2.54,2.81,4.24,4.68.76.84,1.86,1.32,3.01,1.3.01,0,.02,0,.03,0,37.3-.84,74.59-1.15,111.9-.95,1.02,0,2-.37,2.74-1.07.74-.69,1.16-1.61,1.16-2.58.03-4.74.05-7.11.08-11.85,0-1.25-.66-2.41-1.8-3.11-6.28-3.84-9.42-5.76-15.73-9.57,65.41.27,130.76,2.18,196.07,5.73.04,0,.09,0,.13,0,7.75.52,14.22,6.83,13.91,14.82-3.2,54.42-6.42,108.84-9.66,163.26-.58,7.73-7.21,13.48-14.93,13.15-10.15-.57-20.31-1.09-30.46-1.56,1.36-2.81,2.05-4.21,3.42-7.02,2.16-4.42,3.16-9.19,2.95-14.15-.65-15.33-14.02-27.48-28.93-28.41-7.32-.45-17,3.31-22.23,8.25-5.15,4.87-9.36,14.21-9.19,21.44.09,3.6.7,7.26,2.03,10.65,1.14,2.9,1.7,4.36,2.83,7.26-50.3-1.59-100.6-2.18-150.92-1.76.79-2.67,1.18-4,1.98-6.67.93-3.14,1.34-6.41,1.19-9.71-.75-16.42-15.69-28.77-31.67-28.28-7.16.22-16.25,4.63-20.99,9.84-4.67,5.14-8.12,14.51-7.55,21.56.21,2.54.66,5.15,1.47,7.58.89,2.64,1.33,3.96,2.22,6.6-35.43.93-70.83,2.35-106.22,4.26-.04,0-.08,0-.12,0ZM31.78,304.86c-.49.2-.96.38-1.43.56-1.71.65-2.05.8-2.67,1.76-.68,1.06-.67,1.68-.51,3.67.04.43.07.86.09,1.31,1.09,19.14,2.17,38.29,3.25,57.43.11,1.98,1.89,3.56,3.9,3.47.01,0,.02,0,.03,0,31.01-1.67,62.04-2.97,93.08-3.91-.19-1.19-.32-2.39-.39-3.59-.69-10.62,2.97-21.16,10.11-29.05,7.25-8,17.62-12.85,28.3-13.29,21.25-.88,42.02,15.98,42.65,38.14.06,2.12,0,4.29-.25,6.4,40.99-.19,81.96.28,122.94,1.4-.44-2.33-.67-4.7-.68-7.1-.08-10.89,4.41-21.54,12.31-28.89,7.84-7.3,19.07-11.82,29.98-11.15,19.86,1.24,38.46,17.78,38.97,38.32.1,4-.32,8.11-1.37,11.99,6.23.32,9.35.49,15.59.83,2.05.11,3.81-1.44,3.93-3.46,3.08-54.43,6.14-108.86,9.17-163.29.11-1.99-1.56-3.77-3.66-3.9-.01,0-.02,0-.03,0-55.71-3.03-111.45-4.87-167.23-5.53.12.75.18,1.51.17,2.29-.05,4.74-.07,7.11-.12,11.85-.24,7.98-7.05,13.84-14.86,13.86-37.2-.2-74.39.12-111.58.95-2.26.05-4.46-.38-6.45-1.24-16.38,19.07-32.02,41.54-49.42,57.38-12.77,11.63-36.64,16.67-53.81,22.79Z"/>
    <path class="cls-11" d="M368.92,402.07c-15.73-.79-30.15-11.03-35.94-25.68-1.8-4.57-2.78-9.44-2.77-14.33.06-21.51,18.59-40.69,40.78-40.07,21.39.6,41.14,18.33,40.5,40.53-.17,5.83-1.46,11.59-4.06,16.86-6.79,13.81-21.41,22.8-36.79,22.73-.57,0-1.15-.02-1.72-.05ZM372.29,332.33c-.44-.02-.89-.03-1.34-.04-16.3-.09-30.35,13.26-30.29,29.72.01,3.67.66,7.34,2.03,10.65,4.41,10.72,15.8,19.45,28.01,19.14,11.09-.28,22.57-6.69,27.36-16.93,1.82-3.89,2.92-8.14,2.97-12.53.19-15.96-12.94-29.23-28.73-30.02Z"/>
    <g>
      <path class="cls-11" d="M305.28,373.67c-5.83,10.92-18.21,18.71-30.59,18.8-13.01.09-26.9-7.43-32.56-19.6,21.05.1,42.1.37,63.15.8Z"/>
      <path class="cls-11" d="M273.07,397.62c-14.51-.33-29.36-9.1-35.6-22.47-1.49-2.98-2.24-4.48-3.74-7.46,26.7.07,53.4.41,80.1,1.01-1.58,2.94-2.36,4.42-3.93,7.36-6.69,12.52-20.88,21.43-35.08,21.55-.57,0-1.16.01-1.74,0ZM252.1,378.08c5.87,6.02,14.2,9.26,22.47,9.24,6.92-.02,15.77-3.58,20.62-8.7-14.36-.27-28.73-.46-43.09-.54Z"/>
    </g>
    <path class="cls-11" d="M256.97,371c.07-55.12.1-110.23.09-165.35,4.36,0,6.54.01,10.91.03-.16,55.12-.35,110.23-.58,165.35-4.17-.02-6.25-.03-10.42-.03Z"/>
    <path class="cls-11" d="M110.61,347c-25.84.68-51.67,1.6-77.5,2.78-7.74.27-14.41-5.49-14.94-13.28-.37-7.26-.55-10.89-.92-18.15-.27-7.87,5.94-14.23,13.71-14.67,26.16-1.19,52.33-2.13,78.51-2.82,7.78-.11,14.42,5.79,14.72,13.66.15,7.27.23,10.9.38,18.17.03,7.8-6.21,14.03-13.95,14.31ZM31.44,313.98c-2.09.1-3.7,1.83-3.61,3.86.35,7.26.52,10.89.87,18.15.1,2.03,1.86,3.6,3.93,3.5,25.9-1.18,51.81-2.11,77.73-2.79,2.07-.05,3.72-1.74,3.67-3.77-.17-7.27-.26-10.9-.43-18.17-.05-2.03-1.79-3.64-3.87-3.59-26.1.68-52.2,1.62-78.28,2.81Z"/>
    <path class="cls-11" d="M43.61,344.22c-.69-11.93-1.39-23.86-2.08-35.79,4.24-.24,6.36-.36,10.6-.59.66,11.93,1.32,23.86,1.98,35.79-4.2.23-6.3.35-10.5.59Z"/>
    <path class="cls-11" d="M82.57,342.82c-.77-11.93-1.55-23.86-2.34-35.78,4.24-.27,6.36-.4,10.6-.66.75,11.93,1.49,23.86,2.23,35.79-4.2.25-6.29.39-10.49.65Z"/>
    <path class="cls-11" d="M47.5,320.91c-.19-4.12-.29-6.18-.48-10.3,12.93-.58,25.87-1.1,38.8-1.57.15,4.12.22,6.18.36,10.3-12.9.47-25.8.99-38.69,1.57Z"/>
    <path class="cls-11" d="M87.12,339.52c-12.89.38-25.78.81-38.67,1.3-.16-4.12-.24-6.18-.4-10.3,12.93-.49,25.85-.93,38.78-1.31.12,4.12.17,6.18.29,10.3Z"/>
    <path class="cls-11" d="M262.19,315.01c-48.51-1.21-97.01-1.5-145.53-.87-.06-4.12-.09-6.18-.14-10.31,48.66-.63,97.3-.34,145.95.87-.11,4.12-.17,6.18-.28,10.3Z"/>
    <path class="cls-11" d="M143.68,342.7c-8.05.14-16.1.29-24.16.46-.09-4.12-.14-6.18-.23-10.31,8.08-.17,16.15-.32,24.23-.46.06,4.12.1,6.18.16,10.31Z"/>
    <path class="cls-11" d="M262.17,342.83c-23.65-.39-47.29-.57-70.94-.55,0-4.12-.01-6.18-.02-10.31,23.72-.02,47.43.16,71.15.55-.07,4.12-.11,6.18-.18,10.31Z"/>
    <path class="cls-11" d="M310.41,344.01c-16.08-.48-32.15-.88-48.23-1.18.07-4.12.11-6.18.18-10.31,16.13.31,32.25.7,48.37,1.19,2.94.09,5.71-1.25,7.41-3.6,9.27-12.76,18.61-25.47,28.02-38.14-8.26,6.42-16.49,12.87-24.7,19.35-3.58,2.84-8.1,4.34-12.71,4.23-15.48-.26-30.96-.44-46.44-.53.02-4.12.03-6.18.04-10.31,15.53.1,31.06.27,46.59.53,2.12.05,4.17-.64,5.8-1.92,11.86-9.38,23.78-18.68,35.74-27.93,3.46-2.67,8.33-2.45,11.54.51,3.22,2.96,3.65,7.62,1.05,11.08-12.23,16.29-24.34,32.66-36.34,49.11-3.76,5.17-9.86,8.13-16.32,7.92Z"/>
    <path class="cls-11" d="M162.29,281.9c-25.56.32-51.11.88-76.66,1.67-2.95.1-5.42-2.13-5.51-4.97-.1-2.84,2.22-5.23,5.18-5.33,25.62-.8,51.25-1.36,76.88-1.68,1.45-.02,2.8-.71,3.61-1.87,5.56-7.87,11.14-15.71,16.76-23.53-22.06.4-44.11.98-66.16,1.72-2.95.13-5.48-2.11-5.58-4.96-.11-2.84,2.23-5.24,5.21-5.34,23.14-.78,46.29-1.38,69.44-1.78,3.44-.07,6.64,1.72,8.27,4.64,1.63,2.91,1.42,6.41-.55,9.13-6.21,8.62-12.39,17.26-18.54,25.92-2.79,3.94-7.4,6.32-12.35,6.37Z"/>
    <path class="cls-11" d="M243.57,286.12c-.1,0-.2,0-.3,0-12.4-.15-24.8-.23-37.19-.25-3.57-.15-6.78-2.17-8.37-5.26-1.58-3.07-1.32-6.72.68-9.55,6.41-9.4,12.84-18.79,19.31-28.15,1.86-2.53,4.91-4.03,8.16-4.01,7.14.04,10.71.07,17.85.14,5.2.05,9.5,3.99,9.79,8.94,0,.12,0,.17,0,.29,0,9.34,0,18.68-.01,28.02.1,2.63-.94,5.19-2.87,7.05-1.87,1.81-4.42,2.8-7.05,2.78ZM208.12,275.56c11.56.03,23.11.1,34.67.23-.02-8.82-.04-17.64-.07-26.47-6.58-.07-9.87-.09-16.46-.13-6.08,8.77-12.13,17.55-18.15,26.36ZM202.83,273.93s0,0,0,0c0,0,0,0,0,0Z"/>
    <g>
      <path class="cls-6" d="M129.9,193.36c1,9.43,1.48,13.13,2.47,22.17,11.33,1.1,22.65,2.24,33.97,3.43.43-11.78.67-16.47,1.09-28.46-12.5,1.06-25.01,2.03-37.52,2.86Z"/>
      <path class="cls-6" d="M223.84,189.74c-.23,11.27-.36,16.48-.6,27.7,11.58.1,23.16.18,34.74.25.03-9.75.05-19.51.08-29.26-11.41.38-22.81.82-34.22,1.31Z"/>
      <path class="cls-4" d="M167.98,214.89c-.19-8.48-.28-12.24-.47-20.85,18.78-1.39,37.56-2.86,56.33-4.3-.64,9.88-.97,14.51-1.61,24.23-18.08.31-36.16.61-54.25.92Z"/>
      <path class="cls-9" d="M166.79,211.08c15.91-.35,31.82-.7,47.74-1.05.04-7.63.07-11.32.11-19.12,0,0-2.48.08-.74,2.26,1.75,2.18,7.99,6.21,7.48,6.89-.51.68-3.92,15.87-3.92,15.87,0,0,.08,4.14-5.84,4.34-5.92.2-22.88,1.08-25.26.83s-20.43-2.51-20.78-2.99,1.22-7.04,1.22-7.04Z"/>
      <path class="cls-10" d="M225.45,218.07c.42-3.01.63-4.5,1.06-7.47,8.79.07,13.18.11,21.96.2,2.41.02,4.36-1.94,4.3-4.33-.11-4.77-.16-7.14-.27-11.92,2.87.64,4.31.97,7.19,1.62,1.05,5.84,1.58,8.76,2.64,14.61-.84,3.77-1.25,5.65-2.09,9.43-11.6-.7-23.19-1.42-34.78-2.15Z"/>
      <path class="cls-10" d="M131.78,217.73c.43-2.77.64-4.1,1.07-6.74,10.55.05,15.82.07,26.36.11-.13-5.82-.19-8.57-.33-14.51,2.87.55,4.31.83,7.18,1.38,1.04,5.28,1.56,7.78,2.6,13.04-.84,3.39-1.27,5.09-2.11,8.66-11.59-.68-23.18-1.33-34.78-1.94Z"/>
      <path class="cls-11" d="M139.51,223.49c-4.39.05-8.55-1.73-11.43-4.65-2.19-2.23-3.45-4.97-3.53-7.71-.12-4.07-.18-6.02-.3-10.12-.1-3.22,1.36-6.44,4.1-9.02,2.74-2.59,6.44-4.18,10.4-4.32,37.58-1.35,75.13-3.15,112.73-3.58,2.81.02,5.59.75,7.98,2.2,4.29,2.6,6.82,7.04,6.77,11.82-.05,4.74-.07,7.11-.12,11.85-.04,3.72-1.61,7.21-4.42,9.82-2.81,2.61-6.52,4.04-10.44,3.99-37.21-.42-74.4-.77-111.61-.28-.04,0-.09,0-.13,0ZM251.47,194.38s-.03,0-.04,0c-37.5.3-74.96,1.68-112.44,2.93-1.03.03-2,.41-2.72,1.06-.73.64-1.11,1.46-1.09,2.31.11,4.12.16,6.09.27,10.18.02.93.52,1.59.92,1.99.76.74,1.85,1.15,3.01,1.14.01,0,.02,0,.03,0,37.3-.65,74.6-.82,111.91-.53,1.02.01,2-.36,2.74-1.05.74-.69,1.16-1.6,1.16-2.57.03-4.72.05-7.07.09-11.79,0-1.24-.66-2.4-1.8-3.08-.63-.38-1.32-.57-2.04-.58Z"/>
      <path class="cls-11" d="M167.84,222.41c-3,0-5.45-2.25-5.47-4.88-.07-8.86-.13-16.8-.21-25.83-.02-2.69,2.41-5.06,5.44-5.16,3.03-.1,5.49,2.11,5.51,4.81.05,9.09.08,17.21.13,26.16.01,2.66-2.4,4.9-5.4,4.89Z"/>
      <path class="cls-11" d="M222.47,223.4c-3-.06-5.41-2.41-5.4-5.21.06-9.64.13-18.78.18-28.44.02-2.8,2.48-5.17,5.51-5.22,3.03-.05,5.46,2.23,5.44,5.05-.08,9.73-.18,19.05-.26,28.78-.02,2.82-2.47,5.09-5.47,5.04Z"/>
    </g>
    <path class="cls-11" d="M386.26,363.38c-.45,8.51-8.05,15.17-16.54,14.76-8.49-.41-15.4-7.78-15.03-16.29.37-8.56,8.01-15.25,16.54-14.83,8.53.41,15.48,7.8,15.03,16.36Z"/>
    <circle class="cls-4" cx="167.99" cy="363.85" r="36.71"/>
    <path class="cls-12" d="M194.45,357.38c1.45,19.66-13.37,31.74-29.87,33.5-24.34,2.61,17.67,6.08,17.67,6.08l23.75-23.44s-13.34-40.51-11.55-16.14Z"/>
    <path class="cls-11" d="M168.01,403.29c-17.32.14-33.29-11.13-38.86-27.54-1.1-3.24-1.83-6.71-2.02-10.19-.63-11.51,4.07-24.02,12.89-31.79,6.98-6.16,16.09-10.06,25.49-10.55,10.63-.56,21.2,3.04,29.22,10.06,8.11,7.1,13.01,17.3,13.46,28.07.18,4.41-.36,8.82-1.64,13.06-4.87,16.22-19.92,27.94-36.8,28.82-.58.03-1.17.05-1.74.05ZM167.41,333.48c-.45,0-.9.02-1.34.04-6.3.22-14.28,3.49-18.89,7.81-6.39,6-10.17,14.71-9.62,23.58.16,2.61.72,5.19,1.47,7.57,3.95,12.4,17.46,20.91,30.19,20.46,12.27-.43,23.85-9.72,27.35-21.44,0,0,0,0,0,0,.94-3.16,1.27-6.49,1.19-9.71-.18-7.16-4.74-16.21-10.04-20.83-4.94-4.3-13.51-7.8-20.31-7.49Z"/>
    <path class="cls-11" d="M183.43,363.13c.04,8.51-7.15,15.61-15.64,15.68-8.5.08-15.81-6.89-15.92-15.4-.12-8.56,7.11-15.68,15.64-15.76,8.54-.08,15.89,6.91,15.92,15.47Z"/>
    <g>
      <path class="cls-11" d="M111.27,374.81c-3.4,14.91-16.55,26.17-31.77,27.35-16.1,1.25-31.51-9-36.46-24.4,22.74-1.17,45.48-2.15,68.23-2.95Z"/>
      <path class="cls-11" d="M78.19,407.4c-17.84.59-34.63-11.06-40.11-28.08-.81-2.54-1.22-3.81-2.03-6.34,27.25-1.46,54.51-2.63,81.78-3.53-.59,2.6-.89,3.9-1.48,6.5-3.91,17.05-19.04,29.98-36.45,31.36-.57.04-1.14.08-1.71.1ZM50.87,382.52c5.94,9.16,17.03,15.72,28.23,14.51,10.17-1.1,20.4-7.22,24.78-16.8-17.67.65-35.34,1.41-53.01,2.29Z"/>
    </g>
    <path class="cls-11" d="M218.41,215.95l9.53,6.13-37.31,56.69c-4.57,6.94-11.49,11.99-19.49,14.22l-55.54,17.43-6.14-9.53,58.04-16.85c6.09-1.65,11.35-5.53,14.72-10.86l36.18-57.21Z"/>
  </g>
</svg>