<?xml version="1.0" encoding="UTF-8"?>
<svg id="Layer_1" data-name="Layer 1" xmlns="http://www.w3.org/2000/svg" viewBox="0 0 1182.06 718.37">
  <defs>
    <style>
      .cls-1 {
        fill: #fff;
      }

      .cls-2 {
        fill: #010101;
      }
    </style>
  </defs>
  <g>
    <path class="cls-2" d="M112.37,410.32c-16.11.21-31.47-7.21-41.34-20.13-10.58-13.86-13.38-32.16-7.42-48.55,17.97-49.44,36.67-99.49,55.56-148.76,7.13-18.59,24.38-31.36,44.24-32.74,32.27-2.25,65.04-4.33,97.39-6.17,1.74-.1,3.36-.15,4.95-.17,16.66-.21,31.53,3.4,44.19,10.73,18.44,10.68,30.51,28.17,33.97,49.23,2.5,15.2.32,31.43-6.49,48.25-4.4,11.04-6.61,16.61-10.99,27.7-.2.51-.41,1.02-.63,1.53-3.7,8.56-7.24,15.48-10.81,21.17-4.13,6.55-9.01,12.29-14.6,17.14-.85,8.36-1.69,16.73-2.53,25.09-2.5,25.02-22.8,44.51-47.89,46.01-13.5.81-20.25,1.22-33.75,2.11-.9.06-1.79.09-2.69.1-11.31.14-22.3-3.47-31.28-10.17-8.48,8.43-19.82,13.8-32.21,14.75-13.66,1.04-20.49,1.58-34.14,2.7-1.18.1-2.37.15-3.54.17Z"/>
    <path class="cls-2" d="M264.48,399.76c-16.61.21-32.34-7.66-42.13-21.19-10.21-14.12-12.54-32.46-6.18-48.69,19.2-48.97,39.14-98.53,59.26-147.31,7.59-18.41,25.17-30.74,45.06-31.62,43.79-1.94,88.27-3.51,132.2-4.66.23,0,.46-.01.69-.01,17.25-.22,33.47,8.27,43.12,22.61,9.78,14.53,11.45,33.05,4.43,49.09-5.19,11.86-7.77,17.79-12.9,29.66-5.72,13.21-16.6,23.16-29.71,27.86-.06.15-.13.3-.19.45-2.76,6.52-4.73,11.19-6.8,16.11,5.61,12.73,5.86,27.35.38,40.44-4.98,11.89-7.46,17.85-12.39,29.75-7.66,18.49-25.4,30.83-45.4,31.57-42.26,1.56-85.08,3.54-127.26,5.87-.73.04-1.45.07-2.18.07Z"/>
    <path class="cls-2" d="M440.7,392.76c-16.55.21-31.19-3.13-43.53-9.92-18.89-10.4-31.34-28.46-34.14-49.56-1.88-14.18.55-29.4,7.23-45.27.08-.18.16-.37.24-.55,2.54-5.85,3.82-8.77,6.38-14.62,2.79-6.38,6.78-11.98,11.64-16.6.87-9.32,3.36-19.01,7.44-28.99.13-.32.27-.64.4-.96,3.33-7.69,5.01-11.55,8.35-19.2,5.49-12.75,11.55-22.97,18.5-31.25,9.75-11.62,22.8-20.34,37.72-25.22,10.99-3.6,23.63-5.47,38.67-5.72,8.29-.13,16.51-.25,24.74-.35,14.63-.19,29.5-.34,44.2-.45,17.94-.11,32.82,3.42,45.56,10.78,18.27,10.55,30.32,28.53,33.05,49.33,1.95,14.83-.85,30.56-8.33,46.76-.03.07-.07.15-.1.22-2.62,5.62-3.93,8.43-6.54,14.05-2.85,6.14-6.83,11.52-11.61,15.96-1.21,9.27-4.01,18.94-8.45,29.22-.12.28-.25.57-.38.85-3.36,7.41-5.07,11.19-8.35,18.47-5.5,12.8-11.66,23.07-18.83,31.38-9.95,11.54-22.59,19.82-37.57,24.64-10.81,3.47-23.25,5.28-38.02,5.52-21.97.39-44.39.88-66.57,1.45-.52.01-1.12.03-1.7.04Z"/>
    <path class="cls-2" d="M670.82,390.79c-.99.01-1.99.01-3,0-21.7-.23-44.15-.33-68.67-.31-18.05.02-34.04-4.44-47.52-13.25-17.28-11.3-28.47-28.91-31.51-49.57-2.37-16.11.44-33.03,8.36-50.29,11.32-24.72,22.93-49.83,34.5-74.59.04-.08.08-.16.11-.24,5.57-11.76,11.77-21.36,18.95-29.35,9.49-10.56,21.13-18.36,34.58-23.19,10.34-3.71,21.97-5.67,34.57-5.83.92-.01,1.85-.01,2.8,0,25.99.21,49.74.53,72.62.97,17.86.35,33.53,4.85,46.58,13.39,17.1,11.19,28.2,28.56,31.27,48.9,2.48,16.47-.61,33.52-9.2,50.67-3.13,6.43-4.74,9.75-7.91,16.28-2.9,5.98-6.86,11.22-11.6,15.54-.55,6.04-2.19,12.03-4.91,17.65-4.23,8.72-6.35,13.12-10.51,21.78-5.86,12.47-12.24,22.56-19.49,30.84-9.56,10.92-21.13,19.05-34.38,24.16-10.68,4.12-22.67,6.29-35.63,6.46Z"/>
    <path class="cls-2" d="M823.79,394.23c-2.56.03-5.22,0-7.92-.09-20.83-.7-41.87-1.32-62.47-1.86-18.25-.45-34.2-5.19-47.35-14.09-17.23-11.67-28.11-29.62-30.64-50.55-1.95-16.17,1.36-33.14,9.86-50.46,16.56-33.94,33.57-68.3,50.56-102.11,8.61-17.13,26.03-27.95,45.08-28.2.7,0,1.4,0,2.11.02,14.16.4,21.24.62,35.39,1.1,14.11.48,27.22,6.74,36.44,17.06,9.24-8.81,21.59-13.98,34.68-14.15,1-.01,2,0,3.01.05,14.15.65,21.23.99,35.37,1.72,17.47.9,33.28,10.66,41.9,25.88,8.63,15.22,8.88,33.79.68,49.24-18.72,35.26-37.44,71.1-55.66,106.52-6.87,13.53-14.21,24.22-22.45,32.66-10.7,10.97-23.38,18.68-37.68,22.94-9.27,2.75-19.38,4.16-30.91,4.31Z"/>
    <path class="cls-2" d="M996.19,402.58c-1.29.02-2.58-.02-3.88-.1-42.21-2.66-85.02-4.96-127.24-6.85-17.41-.78-33.22-10.36-41.98-25.42-8.75-15.07-9.24-33.55-1.3-49.06,23.98-46.81,48.76-94.14,73.65-140.68,8.83-16.52,25.93-26.81,44.48-27.05,1.16-.01,2.33,0,3.5.07,43.88,2.44,88.31,5.31,132.07,8.54,17.47,1.29,33.06,11.42,41.34,26.86,8.28,15.44,8.09,34.03-.5,49.3-6.35,11.28-9.51,16.92-15.8,28.22-7.01,12.58-18.84,21.39-32.36,24.76-.08.15-.16.29-.24.44-3.39,6.2-5.82,10.66-8.36,15.34,4.32,13.23,3.1,27.81-3.66,40.29-6.15,11.34-9.21,17.01-15.3,28.37-8.85,16.49-25.93,26.74-44.44,26.97Z"/>
    <path class="cls-2" d="M263.02,573.28c-16.46.21-32.07-7.52-41.88-20.85-10.28-13.97-12.78-32.19-6.66-48.41,18.49-48.98,37.7-98.55,57.1-147.33,7.43-18.69,25.11-31.29,45.2-32.22,31.44-1.46,63.33-2.73,94.78-3.78.81-.03,1.54-.04,2.27-.05,17.78-.23,33.46,3.85,46.61,12.13,17.78,11.19,29.16,28.89,32.03,49.83,2.06,14.99-.39,30.94-7.29,47.4-4.52,10.93-6.78,16.44-11.27,27.43-.21.5-.42,1-.64,1.5-3.77,8.44-7.35,15.26-10.94,20.85-4.16,6.46-9.05,12.1-14.62,16.86-1.01,8.43-2.02,16.86-3.03,25.29-2.98,25.05-23.77,44.2-48.98,45.11-13.12.47-19.68.73-32.8,1.28-.5.02-.99.03-1.49.04-11.31.14-22.27-3.46-31.22-10.13-8.55,7.72-19.64,12.5-31.61,13.14-13.28.7-19.92,1.07-33.2,1.85-.79.05-1.57.07-2.35.08Z"/>
    <path class="cls-2" d="M449.94,565.72c-17.68.23-33.33-3.83-46.52-12.05-17.41-10.84-28.91-28.16-32.39-48.77-2.67-15.78-.33-32.66,6.96-50.18,14.34-34.71,29.12-69.88,43.93-104.53,7.89-18.46,25.84-30.61,45.91-31.06,13.76-.32,20.65-.45,34.41-.69h.23c13.53-.18,26.41,5,35.99,14.14,9.28-9.25,21.94-14.78,35.51-14.95.13,0,.25,0,.38,0,13.77-.07,20.65-.09,34.42-.08,17.39,0,33.59,8.85,43.01,23.47,9.42,14.62,10.77,33.03,3.58,48.87-16.4,36.16-32.79,72.91-48.71,109.23-5.97,13.82-12.55,24.85-20.12,33.7-9.97,11.66-22.11,20.15-36.08,25.23-11.08,4.03-23.62,6.1-38.35,6.34-20.12.32-40.51.76-60.61,1.3-.52.01-1.04.02-1.56.03Z"/>
    <path class="cls-2" d="M664.84,563.87c-1.35.02-2.72.02-4.13,0-21.4-.17-43.18-.25-64.66-.24-17.23.03-32.38-3.8-44.98-11.37-18.23-10.97-29.92-29.28-32.1-50.23-1.45-13.97,1.26-28.92,8.06-44.42.08-.18.16-.36.24-.53,2.62-5.78,3.93-8.67,6.55-14.45,2.85-6.27,6.87-11.77,11.73-16.29,1.02-9.23,3.65-18.78,7.94-28.82.13-.31.27-.62.41-.93,3.42-7.6,5.15-11.41,8.58-18.97,5.65-12.59,11.78-22.65,18.74-30.75,9.92-11.54,23.07-20.07,38.03-24.67,10.04-3.09,21.34-4.68,34.54-4.85,1.3-.02,2.63-.02,3.98,0,22.42.22,44.94.54,67.03.94,17.67.34,32.88,4.47,45.25,12.25,17.63,11.1,28.94,29.33,31.05,50.01,1.49,14.61-1.6,30.04-9.18,45.87l-.1.21c-2.69,5.55-4.04,8.33-6.72,13.88-2.92,6.05-6.93,11.34-11.73,15.69-1.38,9.22-4.33,18.81-8.91,28.99-.12.28-.25.55-.38.83-3.45,7.33-5.21,11.06-8.58,18.26-5.65,12.63-11.89,22.72-19.06,30.84-9.96,11.29-23.05,19.63-37.86,24.1-9.84,2.98-20.89,4.5-33.76,4.66Z"/>
    <path class="cls-2" d="M845.7,568.04c-.91.01-1.82,0-2.74-.04-13.29-.54-19.93-.79-33.22-1.25-12.7-.44-24.61-5.58-33.58-14.14-8.93,7.59-20.37,12.03-32.49,12.18-.62,0-1.23,0-1.85,0-13.29-.31-19.94-.44-33.23-.68-17.34-.31-33.34-9.36-42.52-24.07-9.18-14.71-10.3-33.06-2.96-48.78,22.15-47.42,45.07-95.39,68.13-142.57,8.51-17.41,26.08-28.47,45.33-28.71.7,0,1.41,0,2.12.02,13.85.39,20.78.61,34.63,1.08,13.3.45,25.73,6.05,34.83,15.34,9.02-7.84,20.65-12.41,32.93-12.56,1-.01,2,0,3,.05,13.85.64,20.77.97,34.61,1.68,17.38.9,33.11,10.56,41.77,25.65,8.66,15.1,9.06,33.56,1.06,49.01-23.86,46.08-47.61,92.97-70.6,139.35-8.57,17.28-26.07,28.21-45.2,28.46Z"/>
  </g>
  <rect class="cls-1" x="389.43" y="224.42" width="314.54" height="275.69" transform="translate(29.12 -40.51) rotate(4.36)"/>
  <rect class="cls-1" x="740.34" y="297.7" width="145.07" height="165.44" transform="translate(31.27 -60.69) rotate(4.36)"/>
  <g>
    <path class="cls-1" d="M112.04,384.72c-8.06.1-15.74-3.6-20.67-10.06-5.29-6.93-6.69-16.08-3.71-24.28,17.92-49.3,36.56-99.21,55.4-148.34,3.56-9.29,12.19-15.68,22.12-16.37,32.16-2.24,64.82-4.31,97.07-6.14,1.33-.07,2.59-.12,3.82-.13,11.98-.15,22.42,2.3,31.03,7.29,11.7,6.78,19.35,17.87,21.55,31.24,1.73,10.53.04,22.19-5.02,34.64-4.39,11.01-6.6,16.59-11.01,27.76-.1.26-.21.51-.32.76-3.17,7.34-6.11,13.13-8.98,17.69-4.27,6.78-9.69,12.2-16.11,16.13-.38.23-.75.45-1.14.68-1.24,12.17-2.47,24.34-3.69,36.52-1.25,12.51-11.4,22.26-23.95,23-13.56.81-20.33,1.23-33.89,2.11-.45.03-.9.05-1.34.05-7.11.09-13.96-2.79-18.89-7.97-5.23-5.51-7.75-13.07-6.86-20.61.72-6.12,1.44-12.24,2.17-18.37-2.23.15-4.46.31-6.69.46-4.28,11.48-8.56,23.01-12.77,34.46-3.46,9.4-12.09,15.92-22.07,16.68-13.72,1.05-20.57,1.59-34.29,2.72-.59.05-1.18.08-1.77.08Z"/>
    <path class="cls-1" d="M264.16,374.17c-8.3.11-16.17-3.83-21.06-10.59-5.11-7.06-6.27-16.23-3.09-24.35,19.15-48.84,39.03-98.26,59.1-146.9,3.8-9.2,12.58-15.37,22.53-15.81,43.64-1.94,87.96-3.5,131.74-4.64.11,0,.23,0,.34,0,8.63-.11,16.74,4.13,21.56,11.3,4.89,7.27,5.72,16.52,2.21,24.55-5.2,11.9-7.79,17.84-12.94,29.75-3.95,9.13-12.83,15.14-22.77,15.42-1.79.05-3.58.1-5.37.15.51,4.33-.1,8.79-1.85,12.94-4.84,11.45-7.28,17.25-12.02,28.58,1.11,1.1,2.12,2.31,3.02,3.62,4.96,7.18,5.92,16.39,2.55,24.43-5,11.93-7.49,17.9-12.43,29.85-3.83,9.25-12.7,15.41-22.7,15.78-42.41,1.57-85.39,3.55-127.73,5.89-.36.02-.73.03-1.09.04Z"/>
    <path class="cls-1" d="M440.37,367.16c-12.23.16-22.33-2.05-30.86-6.75-11.87-6.53-19.37-17.36-21.11-30.5-1.29-9.74.49-20.19,5.45-31.97.04-.09.08-.18.12-.27,2.54-5.83,3.81-8.75,6.36-14.57,2.72-6.22,7.73-10.98,13.79-13.45-1.24-9.9.57-20.61,5.52-32.7.07-.16.13-.32.2-.48,3.34-7.7,5.01-11.55,8.37-19.25,4.46-10.36,9.25-18.55,14.59-24.92,6.77-8.07,15.55-13.91,26.08-17.36,8.52-2.79,18.7-4.24,31.14-4.45,8.23-.13,16.44-.24,24.63-.35,14.59-.19,29.41-.34,44.06-.45,13.23-.08,23.87,2.32,32.57,7.35,11.49,6.63,18.76,17.47,20.48,30.5,1.33,10.1-.7,20.8-6.19,32.71-2.68,5.74-3.99,8.56-6.61,14.2-2.75,5.92-7.59,10.45-13.41,12.86.01.15.02.29.03.44.57,9.73-1.71,20.36-6.96,32.52-.06.14-.12.28-.19.43-3.4,7.51-5.12,11.3-8.47,18.74-4.48,10.46-9.31,18.63-14.78,24.97-6.83,7.92-15.58,13.63-26.01,16.98-8.38,2.69-18.39,4.1-30.61,4.29-22.07.39-44.57.88-66.82,1.46-.43.01-.9.02-1.37.03Z"/>
    <path class="cls-1" d="M670.49,365.2c-.8.01-1.6.01-2.42,0-21.79-.23-44.34-.33-68.96-.31-12.99.02-24.26-3.04-33.48-9.07-11.23-7.34-18.21-18.36-20.2-31.88-1.64-11.14.48-23.21,6.3-35.9,11.29-24.67,22.88-49.71,34.42-74.42,4.55-9.61,9.41-17.2,14.91-23.32,6.63-7.37,14.76-12.83,24.19-16.21,7.66-2.75,16.49-4.2,26.25-4.33.75,0,1.51-.01,2.28,0,25.87.21,49.52.52,72.31.97,12.98.25,24.11,3.35,33.07,9.21,10.91,7.14,18,18.26,19.97,31.29,1.68,11.18-.62,23.13-6.84,35.51-3.19,6.55-4.8,9.87-8,16.47-3.14,6.49-8.81,11.24-15.48,13.3,2.33,6.43,2.01,13.6-1.03,19.88-4.26,8.79-6.39,13.2-10.6,21.96-4.84,10.32-9.95,18.49-15.63,24.97-6.8,7.77-14.99,13.53-24.33,17.14-7.83,3.02-16.83,4.62-26.75,4.74ZM644.45,283.91c6.13.04,12.25.08,18.33.13,1.63-3.44,2.9-6.11,4.92-10.36,3.1-6.53,8.75-11.32,15.42-13.42-1.08-2.93-1.61-6.02-1.58-9.11-7.19-.09-14.38-.16-21.56-.23-5.06,10.68-10.2,21.62-15.52,32.99Z"/>
    <path class="cls-1" d="M823.47,368.64c-2.15.03-4.41,0-6.7-.08-20.93-.7-42.03-1.33-62.7-1.86-13.3-.33-24.64-3.59-33.66-9.7-11-7.45-17.96-18.96-19.58-32.42-1.35-11.19,1.16-23.37,7.47-36.18,16.48-33.79,33.46-68.07,50.42-101.82,4.3-8.56,13.01-13.98,22.54-14.1.35,0,.7,0,1.06,0,14.1.4,21.15.62,35.25,1.1,8.74.3,16.73,5.04,21.18,12.58,4.45,7.54,4.73,16.82.76,24.62-12.84,25.21-25.68,50.71-38.33,76.1,5.36.17,10.7.35,16.02.54,16.52-32.35,33.45-65.05,50.35-97.22,4.38-8.35,12.98-13.57,22.33-13.69.5,0,1,0,1.5.02,14.09.65,21.14.99,35.23,1.72,8.74.45,16.64,5.33,20.95,12.94,4.31,7.61,4.44,16.9.34,24.62-18.79,35.41-37.6,71.39-55.88,106.95-5.63,11.11-11.52,19.78-17.94,26.37-7.61,7.8-16.58,13.28-26.65,16.27-6.97,2.07-14.81,3.14-23.95,3.25Z"/>
    <path class="cls-1" d="M995.86,376.98c-.64,0-1.29,0-1.94-.05-42.37-2.67-85.33-4.98-127.7-6.87-8.7-.39-16.61-5.18-20.99-12.71-4.38-7.53-4.62-16.78-.65-24.53,23.92-46.68,48.63-93.87,73.44-140.28,4.42-8.26,12.96-13.41,22.24-13.52.58,0,1.16,0,1.75.04,43.73,2.43,88.01,5.29,131.61,8.51,8.73.65,16.53,5.71,20.67,13.43,4.14,7.72,4.05,17.02-.25,24.65-6.37,11.32-9.54,16.98-15.85,28.31-4.49,8.05-12.92,13.02-22.03,13.13-.72,0-1.44-.01-2.16-.06-1.79-.13-3.58-.25-5.37-.38.07,4.37-.97,8.74-3.13,12.7-5.96,10.91-8.97,16.43-14.81,27.23.99,1.21,1.88,2.51,2.65,3.9,4.22,7.64,4.25,16.9.09,24.57-6.17,11.38-9.24,17.07-15.35,28.46-4.43,8.24-12.96,13.37-22.22,13.49Z"/>
    <path class="cls-1" d="M262.69,547.69c-8.23.1-16.04-3.76-20.94-10.43-5.14-6.98-6.39-16.09-3.33-24.21,18.44-48.84,37.6-98.27,56.94-146.92,3.72-9.34,12.56-15.65,22.6-16.11,31.34-1.45,63.11-2.72,94.45-3.77.61-.02,1.18-.03,1.74-.04,12.76-.16,23.75,2.6,32.65,8.2,11.27,7.09,18.47,18.33,20.3,31.65,1.43,10.42-.44,21.89-5.57,34.09-4.55,11-6.82,16.53-11.33,27.57-.1.25-.21.5-.32.75-3.24,7.25-6.21,12.95-9.09,17.44-4.32,6.71-9.76,12.05-16.17,15.87-.33.19-.65.38-.99.57-1.47,12.17-2.93,24.35-4.38,36.52-1.49,12.53-11.89,22.1-24.49,22.56-13.18.48-19.77.74-32.94,1.29-.25,0-.5.02-.75.02-7.3.09-14.32-2.94-19.25-8.36-5.1-5.6-7.46-13.18-6.44-20.68.84-6.15,1.67-12.29,2.52-18.44-1.7.08-3.41.16-5.11.24-4.38,11.3-8.74,22.64-13.03,33.86-3.61,9.45-12.45,15.89-22.56,16.42-13.34.7-20.01,1.08-33.34,1.86-.39.02-.78.04-1.18.04Z"/>
    <path class="cls-1" d="M449.61,540.13c-12.7.16-23.69-2.59-32.66-8.18-11.26-7.02-18.41-17.84-20.69-31.31-1.86-10.98-.04-23.14,5.38-36.16,14.28-34.55,29.02-69.65,43.8-104.23,3.94-9.23,12.92-15.3,22.95-15.53,13.71-.31,20.56-.45,34.27-.69h.12c8.66-.11,16.79,4.16,21.6,11.36,4.84,7.23,5.67,16.43,2.21,24.41-11.23,25.9-22.45,52.1-33.48,78.19,4.75-.09,9.51-.17,14.25-.25,14.37-33.06,29.13-66.49,43.89-99.4,4.08-9.1,13.07-14.99,23.03-15.12h.19c13.71-.07,20.57-.09,34.28-.09,8.7,0,16.8,4.42,21.51,11.74,4.71,7.31,5.39,16.51,1.79,24.43-16.47,36.3-32.92,73.2-48.9,109.66-4.89,11.36-10.17,20.31-16.08,27.22-7.07,8.26-15.6,14.25-25.37,17.81-8.36,3.04-18.17,4.61-30.01,4.8-20.21.33-40.68.77-60.87,1.3l-1.2.02Z"/>
    <path class="cls-1" d="M664.52,538.28c-1.16.01-2.35.02-3.56,0-21.51-.17-43.36-.25-64.91-.24-12.71.02-23.12-2.5-31.78-7.71-11.43-6.88-18.47-17.87-19.83-30.94-1-9.64.97-19.94,6.04-31.49.04-.09.08-.18.12-.27,2.61-5.76,3.91-8.64,6.53-14.41,2.78-6.12,7.78-10.77,13.8-13.18-1-9.88,1-20.51,6.11-32.48.07-.16.14-.31.2-.47,3.43-7.61,5.15-11.42,8.61-19.03,4.58-10.24,9.44-18.3,14.79-24.52,6.86-7.98,15.66-13.67,26.15-16.9,7.67-2.36,16.61-3.58,27.33-3.71,1.12-.01,2.27-.02,3.44,0,22.31.22,44.77.54,66.78.93,13.1.26,23.58,2.98,32.09,8.33,11.07,6.97,17.89,17.96,19.22,30.94,1.02,10-1.21,20.53-6.8,32.21-2.75,5.67-4.1,8.46-6.79,14.03-2.81,5.82-7.65,10.24-13.42,12.59,0,.22.02.44.03.66.3,9.63-2.17,20.11-7.54,32.06-.06.14-.13.28-.19.41-3.5,7.42-5.26,11.17-8.7,18.52-4.61,10.33-9.51,18.36-14.98,24.56-6.91,7.83-15.68,13.39-26.07,16.53-7.52,2.27-16.24,3.44-26.68,3.57Z"/>
    <path class="cls-1" d="M845.37,542.45c-.45,0-.91,0-1.37-.02-13.35-.54-20.02-.79-33.37-1.26-8.66-.3-16.58-4.97-21.05-12.4-4.46-7.43-4.87-16.61-1.07-24.4,3.43-7.03,6.88-14.09,10.34-21.16-4.23-.14-8.52-.27-12.86-.4-6.68,13.96-13.33,27.94-19.85,41.73-4.19,8.86-13.06,14.52-22.81,14.65-.31,0-.62,0-.93,0-13.35-.31-20.03-.45-33.38-.68-8.67-.15-16.67-4.68-21.26-12.04-4.59-7.35-5.15-16.53-1.48-24.39,22.09-47.29,44.94-95.12,67.93-142.16,4.25-8.71,13.04-14.23,22.67-14.36.35,0,.7,0,1.06,0,13.79.39,20.69.61,34.48,1.08,8.7.3,16.65,4.99,21.11,12.46,4.46,7.47,4.82,16.7.95,24.5-3.15,6.35-6.31,12.74-9.47,19.14,4.61.17,9.17.34,13.68.51,6.73-13.36,13.51-26.72,20.23-39.88,4.34-8.49,13.01-13.83,22.46-13.95.5,0,1,0,1.5.02,13.79.63,20.68.97,34.46,1.68,8.69.45,16.56,5.28,20.89,12.83,4.33,7.55,4.53,16.78.53,24.5-23.93,46.21-47.75,93.23-70.8,139.75-4.28,8.64-13.04,14.11-22.6,14.23Z"/>
  </g>
  <g>
    <path class="cls-2" d="M166.97,211.21c32.24-2.25,64.48-4.29,96.74-6.12,8.58-.48,15.44.78,20.56,3.75,5.12,2.97,8.16,7.39,9.12,13.24.96,5.86-.2,12.81-3.47,20.85-4.47,11.2-6.69,16.8-11.11,28.01-2.61,6.05-5,10.79-7.15,14.21-2.16,3.43-4.75,6.06-7.8,7.92-3.04,1.86-6.94,3.42-11.69,4.68-1.77,17.27-3.53,34.54-5.25,51.81-13.61.81-20.42,1.24-34.03,2.12,1.92-16.31,3.85-32.63,5.8-48.94-17.99,1.15-35.98,2.37-53.95,3.68-6.25,16.64-12.45,33.3-18.59,49.98-13.78,1.05-20.66,1.6-34.43,2.73,17.99-49.47,36.4-98.78,55.25-147.93ZM241.68,270.82c1.51-.58,2.74-1.43,3.71-2.54.96-1.11,1.83-2.61,2.6-4.48,3.31-8.21,4.98-12.32,8.32-20.53.65-1.58.83-2.97.54-4.15-.29-1.18-.97-2.09-2.04-2.73-1.07-.64-2.64-.9-4.7-.78-19.95,1.16-39.9,2.41-59.84,3.76-5.58,14.57-8.35,21.86-13.85,36.44,19.75-1.39,39.51-2.68,59.27-3.88,2.49-.15,4.49-.52,5.99-1.1Z"/>
    <path class="cls-2" d="M322.76,202.09c43.75-1.94,87.5-3.48,131.27-4.63-5.22,11.93-7.82,17.9-12.98,29.84-31.84.9-63.67,2-95.5,3.3-4.74,11.34-7.11,17.01-11.8,28.35,25.74-1.11,51.49-2.09,77.24-2.95-4.92,11.62-7.36,17.44-12.23,29.07-25.63.91-51.25,1.94-76.87,3.1-4.65,11.35-6.96,17.03-11.56,28.4,31.39-1.49,62.78-2.77,94.18-3.86-5.02,11.97-7.51,17.96-12.47,29.94-42.75,1.58-85.48,3.55-128.19,5.91,19.22-49,38.86-97.83,58.93-146.48Z"/>
    <path class="cls-2" d="M421.86,337.99c-4.71-2.6-7.41-6.41-8.08-11.45-.67-5.04.55-11.26,3.67-18.67,2.53-5.81,3.8-8.72,6.34-14.53,13.39-.4,20.08-.58,33.47-.91-2.32,5.2-3.48,7.8-5.8,13-.55,1.42-.74,2.55-.57,3.39.17.84.65,1.46,1.47,1.86.81.4,2.01.58,3.61.54,20.14-.5,40.28-.9,60.42-1.2,2.32-.03,4.21-.48,5.65-1.35,1.44-.86,2.59-2.28,3.44-4.26,2.8-6.19,4.2-9.28,7.02-15.47.56-1.83.8-3.28.71-4.33-.09-1.05-.61-1.78-1.56-2.19-.96-.41-2.46-.6-4.5-.58-20.38.26-40.76.63-61.14,1.1-7.74.18-13.88-1.07-18.4-3.76-4.53-2.69-7.2-6.77-8.01-12.22-.81-5.46.43-12.24,3.75-20.34,3.33-7.68,4.99-11.51,8.34-19.19,3.48-8.1,7.07-14.33,10.74-18.7,3.67-4.37,8.49-7.54,14.45-9.49,5.96-1.95,13.83-3.02,23.61-3.19,22.82-.36,45.63-.62,68.45-.79,8.45-.05,14.97,1.26,19.57,3.92,4.59,2.65,7.23,6.55,7.9,11.68.67,5.13-.69,11.35-4.06,18.65-2.64,5.65-3.96,8.48-6.58,14.14-13.58.05-20.37.09-33.96.21,2.34-5.08,3.51-7.62,5.85-12.69.72-2.11.71-3.62-.04-4.53-.74-.91-2.37-1.35-4.88-1.33-20.13.18-40.25.45-60.38.82-1.77.03-3.21.24-4.3.61-1.1.37-2.05.99-2.84,1.85-.79.86-1.47,1.93-2.04,3.2-2.8,5.96-4.19,8.94-6.98,14.9-.98,2.41-.94,4.2.11,5.37,1.05,1.17,2.97,1.73,5.76,1.67,20.84-.39,41.68-.71,62.53-.95,8.22-.08,14.43,1.24,18.63,3.95,4.2,2.71,6.46,6.88,6.79,12.49.33,5.62-1.32,12.58-4.91,20.89-3.45,7.61-5.17,11.41-8.6,19.03-3.42,8.04-7,14.22-10.72,18.53-3.73,4.32-8.55,7.43-14.46,9.33-5.91,1.9-13.64,2.92-23.19,3.07-22.36.4-44.71.88-67.06,1.46-8.1.22-14.51-.96-19.22-3.55Z"/>
    <path class="cls-2" d="M579.64,334.39c-5.01-3.28-7.98-8-8.88-14.18-.91-6.17.5-13.35,4.24-21.51,11.35-24.8,22.8-49.54,34.34-74.25,3.39-7.16,6.99-12.85,10.77-17.05,3.78-4.21,8.38-7.28,13.79-9.23,5.41-1.94,11.98-2.89,19.68-2.83,24,.19,48.01.5,72,.97,8.15.16,14.67,1.84,19.56,5.04,4.89,3.2,7.78,7.77,8.67,13.69.89,5.92-.6,12.7-4.46,20.34-3.25,6.67-4.87,10-8.1,16.68-13.65-.3-20.48-.43-34.14-.66,2.74-5.86,4.11-8.78,6.87-14.64,1.22-2.22,1.77-4.19,1.65-5.87-.12-1.69-.8-2.93-2.04-3.72-1.24-.79-3.11-1.21-5.62-1.25-17.91-.3-35.83-.51-53.74-.65-2.51-.02-4.69.25-6.53.8-1.85.55-3.48,1.59-4.88,3.13-1.41,1.54-2.64,3.5-3.68,5.88-9.9,20.85-19.69,41.76-29.4,62.7-1.02,2.39-1.46,4.46-1.31,6.22.14,1.76.95,3.09,2.4,4,1.45.91,3.41,1.37,5.89,1.38,16.87.05,33.74.15,50.61.3,3.05.03,5.57-.29,7.54-.97,1.97-.68,3.66-1.82,5.06-3.42,1.4-1.6,2.78-3.72,4.12-6.37,2.7-5.7,4.05-8.55,6.75-14.24,13.58.19,20.37.3,33.95.56-4.29,8.85-6.43,13.28-10.69,22.14-3.78,8.08-7.7,14.44-11.76,19.08-4.06,4.64-8.82,8.01-14.28,10.12-5.46,2.1-12.02,3.11-19.69,3.03-23.08-.24-46.16-.33-69.25-.31-7.96,0-14.44-1.62-19.45-4.9Z"/>
    <path class="cls-2" d="M734.75,335.8c-4.92-3.33-7.77-8.1-8.52-14.29-.75-6.2.92-13.47,5.02-21.82,16.57-33.98,33.35-67.85,50.32-101.62,14.04.4,21.06.62,35.1,1.09-17.01,33.4-33.82,66.9-50.44,100.51-1.24,2.64-1.77,4.84-1.59,6.6.17,1.76,1.01,3.08,2.52,3.97,1.5.88,3.71,1.36,6.62,1.44,14.76.4,29.52.86,44.27,1.38,3.93.14,7.14-.17,9.64-.92,2.5-.75,4.66-2.11,6.49-4.08,1.82-1.97,3.68-4.82,5.57-8.54,16.63-32.57,33.44-65.04,50.45-97.41,14.03.64,21.05.99,35.08,1.71-18.91,35.63-37.59,71.37-56.04,107.24-4.46,8.81-8.96,15.54-13.51,20.2-4.55,4.66-9.75,7.86-15.61,9.6-5.86,1.74-13.35,2.45-22.46,2.13-20.98-.7-41.95-1.33-62.93-1.87-8.39-.21-15.05-1.97-19.97-5.3Z"/>
    <path class="cls-2" d="M940.6,204.61c43.74,2.43,87.45,5.26,131.14,8.48-6.39,11.35-9.57,17.03-15.9,28.4-31.79-2.28-63.58-4.35-95.4-6.23-5.85,10.81-8.77,16.21-14.57,27.03,25.73,1.46,51.46,3.05,77.17,4.76-6.05,11.08-9.07,16.62-15.07,27.71-25.6-1.65-51.21-3.18-76.82-4.58-5.76,10.83-8.63,16.25-14.34,27.1,31.39,1.65,62.76,3.5,94.12,5.54-6.19,11.41-9.27,17.12-15.4,28.55-42.7-2.69-85.42-4.99-128.17-6.9,24-46.84,48.41-93.47,73.24-139.88Z"/>
    <path class="cls-2" d="M319.15,375.6c31.37-1.45,62.74-2.71,94.12-3.76,8.35-.27,14.99,1.15,19.9,4.24,4.91,3.09,7.77,7.58,8.58,13.46.81,5.88-.48,12.8-3.83,20.76-4.58,11.09-6.86,16.64-11.4,27.74-2.67,5.98-5.09,10.66-7.25,14.03-2.17,3.37-4.75,5.95-7.74,7.73-3,1.79-6.81,3.25-11.46,4.39-2.1,17.22-4.17,34.44-6.22,51.66-13.24.48-19.85.74-33.09,1.29,2.21-16.26,4.44-32.52,6.69-48.78-17.49.71-34.99,1.49-52.47,2.35-6.42,16.48-12.79,32.98-19.1,49.5-13.4.71-20.09,1.08-33.49,1.87,18.5-49,37.42-97.83,56.78-146.5ZM390.45,437.02c1.47-.55,2.7-1.36,3.66-2.45.96-1.09,1.83-2.56,2.63-4.42,3.4-8.13,5.1-12.2,8.52-20.32.66-1.57.87-2.94.61-4.13-.25-1.18-.9-2.12-1.92-2.78-1.02-.67-2.54-.97-4.55-.9-19.41.67-38.81,1.44-58.22,2.3-5.73,14.43-8.58,21.64-14.23,36.09,19.21-.9,38.43-1.71,57.65-2.43,2.42-.09,4.37-.41,5.85-.95Z"/>
    <path class="cls-2" d="M430.49,510.22c-4.95-3.08-7.95-7.69-8.99-13.85-1.04-6.15.21-13.5,3.77-22.04,14.36-34.76,28.93-69.44,43.71-104.03,13.65-.31,20.47-.45,34.13-.68-14.84,34.22-29.47,68.53-43.9,102.92-1.07,2.7-1.47,4.92-1.21,6.67.26,1.75,1.14,3.03,2.64,3.83,1.5.81,3.67,1.17,6.49,1.11,14.34-.34,28.68-.63,43.02-.86,3.81-.06,6.91-.53,9.31-1.41,2.39-.88,4.42-2.35,6.09-4.41,1.67-2.06,3.33-5,4.98-8.81,14.5-33.37,29.2-66.65,44.09-99.85,13.65-.07,20.48-.09,34.13-.08-16.58,36.55-32.92,73.2-49.03,109.96-3.89,9.02-7.91,15.97-12.09,20.86-4.18,4.89-9.07,8.35-14.66,10.38-5.6,2.04-12.83,3.12-21.68,3.26-20.38.33-40.76.77-61.14,1.31-8.15.22-14.7-1.21-19.64-4.29Z"/>
    <path class="cls-2" d="M577.46,508.4c-4.51-2.72-7.04-6.6-7.56-11.65-.53-5.05.81-11.24,4.02-18.57,2.6-5.75,3.9-8.62,6.51-14.36,13.01-.06,19.52-.07,32.53-.05-2.39,5.14-3.58,7.71-5.95,12.85-.57,1.4-.78,2.53-.64,3.37.14.84.6,1.48,1.38,1.9.77.42,1.94.63,3.5.63,19.57.02,39.14.13,58.71.34,2.26.02,4.1-.38,5.52-1.2,1.42-.83,2.57-2.21,3.44-4.17,2.88-6.12,4.32-9.18,7.21-15.29.59-1.82.86-3.26.8-4.31-.06-1.05-.54-1.8-1.46-2.23-.92-.43-2.37-.66-4.36-.69-19.8-.25-39.61-.4-59.41-.45-7.53-.02-13.45-1.43-17.78-4.23-4.33-2.81-6.83-6.95-7.48-12.42-.65-5.48.72-12.22,4.14-20.23,3.42-7.59,5.14-11.38,8.58-18.97,3.58-8,7.22-14.15,10.9-18.42,3.67-4.27,8.44-7.32,14.27-9.12,5.84-1.8,13.51-2.67,23.02-2.59,22.18.22,44.36.53,66.53.93,8.21.16,14.52,1.64,18.92,4.4,4.4,2.77,6.86,6.73,7.38,11.87.52,5.14-.96,11.32-4.42,18.55-2.71,5.59-4.06,8.38-6.76,13.97-13.2-.29-19.8-.42-33-.64,2.4-5.02,3.6-7.53,6.01-12.54.75-2.09.78-3.61.08-4.53-.7-.92-2.27-1.41-4.7-1.45-19.56-.33-39.12-.56-58.68-.7-1.72-.01-3.12.16-4.2.5-1.08.34-2.01.94-2.81,1.77-.79.84-1.48,1.89-2.06,3.15-2.87,5.88-4.3,8.83-7.15,14.71-1.01,2.39-1.02,4.18-.02,5.37.99,1.2,2.84,1.8,5.56,1.82,20.26.11,40.51.32,60.77.63,7.99.12,13.99,1.6,18,4.42,4.01,2.81,6.1,7.04,6.27,12.66.17,5.62-1.6,12.54-5.3,20.76-3.54,7.52-5.31,11.28-8.83,18.81-3.53,7.95-7.16,14.04-10.88,18.26-3.73,4.23-8.49,7.21-14.28,8.96-5.79,1.75-13.32,2.57-22.6,2.49-21.72-.17-43.44-.25-65.16-.25-7.87.01-14.06-1.33-18.58-4.05Z"/>
    <path class="cls-2" d="M777.22,371.16c13.73.39,20.6.6,34.34,1.07-9.05,18.23-18.02,36.49-26.93,54.79,23.18.7,46.36,1.51,69.53,2.48,9.12-18.19,18.31-36.35,27.57-54.47,13.73.63,20.59.96,34.32,1.67-24.08,46.51-47.75,93.23-71.01,140.15-13.4-.54-20.11-.8-33.51-1.27,9.2-18.87,18.45-37.71,27.76-56.53-23.05-.91-46.12-1.67-69.18-2.31-9.09,18.92-18.12,37.87-27.1,56.85-13.41-.31-20.11-.45-33.52-.68,22.16-47.45,44.74-94.7,67.74-141.76Z"/>
  </g>
</svg>