<?xml version="1.0" encoding="UTF-8"?>
<svg id="Layer_1" data-name="Layer 1" xmlns="http://www.w3.org/2000/svg" viewBox="0 0 2071.87 428.21">
  <defs>
    <style>
      .cls-1 {
        fill: #f1f2f2;
      }

      .cls-2 {
        fill: #231f20;
      }

      .cls-3 {
        fill: #fff;
      }
    </style>
  </defs>
  <g>
    <g>
      <path class="cls-2" d="M119.78,339.86c-14.22-2.29-27.14-10.47-35.48-22.01-9.71-13.45-11.06-32.6-4.65-47.46,21.8-50.56,46.71-102.2,68.7-152.6,7.67-17.59,27.25-29.56,46.31-29.59,32.93-.05,65.91-.09,98.85-.13,5.07,0,9.98.32,14.63.96,12.41,1.68,24.56,6.15,34.95,12.97,16.75,11,29.14,31.09,30.68,50.37,1.32,16.58-1.84,31.65-8.1,47.24-3.8,9.47-8.3,19.24-12.43,28.86-.21.48-.42.95-.64,1.42-4.04,8.64-7.86,15.58-11.65,21.22-4.65,6.89-10.16,12.81-16.46,17.69-1.36,9.6-2.71,19.2-4.06,28.8-3.51,24.87-26.06,42.59-50.76,42.64-11.85.03-23.69.04-35.54.06-2.64,0-5.29-.23-7.83-.56-9.12-1.18-20.17-5.92-27.12-12.15-9.53,8.3-21.92,12.81-34.54,12.86-12.03.04-24.06.08-36.09.1-2.96,0-5.88-.23-8.75-.68Z"/>
      <path class="cls-2" d="M279.77,339.7c-14.67-2.02-28.06-10.32-36.57-22.23-9.63-13.48-10.87-32.59-4.44-47.41,21.87-50.5,46.83-102.09,68.83-152.45,7.68-17.57,27.22-29.57,46.28-29.57,44.47,0,88.99.07,133.48.08,1.86,0,3.73.09,5.54.3,14.29,1.72,28.86,9.75,36.78,22.3,8.68,13.77,11.14,32.48,4.29,47.5-4.65,10.19-9.33,20.92-13.7,31.26-5.42,12.81-17.37,22.82-30.39,27.38-.24.63-.5,1.27-.78,1.89-2.85,6.56-5.69,13.12-8.54,19.68,5.9,12.62,6.22,27.34.7,40.14-4.49,10.42-9.02,20.86-13.53,31.28-8.06,18.58-27.27,30.28-47.35,30.29-44.41.03-88.82.05-133.23.06-2.48,0-4.95-.17-7.38-.5Z"/>
      <path class="cls-2" d="M458.65,339.95c-12.32-1.32-24.44-5.02-35.08-11.42-17.87-10.76-30.26-29.47-32.23-50.31-1.49-15.74,2.65-30.23,8.5-44.19.07-.17.15-.34.23-.51,2.8-6.09,4.23-9.15,7.06-15.24,3.05-6.58,7.44-12.29,12.78-16.88.86-10.85,4.39-21.12,8.34-30.89.12-.29.26-.59.39-.89,3.65-8.03,5.53-12.09,9.12-20.07,5-11.12,11.09-22.15,19.02-31.37,9.89-11.5,23.65-20.74,38.31-25.19,12.68-3.84,26.21-5.3,39.48-5.23,23.08.12,46.27.11,69.39.17,3.56,0,7.02.17,10.3.47,12.59,1.12,25.12,4.91,35.93,11.3,17.14,10.14,29.3,29.12,31.8,48.88,2.06,16.28-1.84,31.45-7.74,45.91-.03.07-.06.14-.09.21-2.65,5.96-3.97,8.95-6.61,14.91-2.86,6.45-7.02,12.1-12.11,16.69-.95,10.99-4.46,21.44-8.38,31.38-.1.26-.23.53-.34.8-3.45,7.88-5.33,11.93-8.59,19.63-4.78,11.28-10.86,22.49-18.74,31.99-9.88,11.91-24.13,20.7-38.69,25.33-13,4.14-26.66,5.12-40.14,5.3-22.82.31-46.33-.07-69.47-.1-4.24,0-8.44-.23-12.44-.67Z"/>
      <path class="cls-2" d="M625.78,340.57c-14.9-2.16-28.5-5.54-41.15-14.13-16.4-11.14-28.41-29.87-30.62-49.69-1.86-16.68,1.55-34.32,8.63-49.42,12.11-25.82,23.93-52.46,35.91-78.69.03-.07.07-.15.1-.22,5.05-10.43,10.87-20.93,18.68-29.86,9.29-10.62,21.19-19.07,34.47-24.03,12.1-4.53,25.13-6.39,38.02-6.31,24.26.15,48.58.22,72.86.33,2.32.01,4.66.04,6.8.24,14.32,1.39,28.19,5.09,40.74,13.12,16.27,10.42,27.73,29.03,31.15,47.86,3.03,16.66-.69,34.59-7.41,49.98-3.02,6.92-4.56,10.49-7.61,17.51-2.79,6.43-6.87,12.07-11.88,16.68-.09,6.42-1.45,12.84-4.12,18.91-4.11,9.36-6.27,14.11-10.26,23.37-4.86,11.29-10.87,22.38-18.7,31.99-9.2,11.28-21.17,20.22-34.65,25.69-12.83,5.21-26.82,7.39-40.63,7.31-23.81-.13-47.74-.18-71.58-.26-2.91-.01-5.88-.14-8.76-.39Z"/>
      <path class="cls-2" d="M788.76,341.42c-15.72-1.91-30.13-5.04-43.52-13.99-16.57-11.07-28.66-29.93-30.83-49.87-1.83-16.85,1.8-34.63,8.95-49.83,16.81-35.71,33.95-72.96,49.8-108.99,7.7-17.51,27.19-29.54,46.24-29.44,11.83.06,23.68.14,35.52.22.82,0,1.64.03,2.45.08,13.19.73,25.73,6.7,34.65,16.47,9.63-10.25,23.25-16.13,37.31-16.03,11.83.08,23.68.18,35.51.27.52,0,1.04,0,1.55.04,15.56.79,31.86,9.07,40.33,22.79,8.52,13.8,10.85,32.47,3.96,47.41-17.39,37.72-34.43,77.23-51.21,115.7-5.36,12.28-12.18,24.28-20.88,34.48-9.86,11.56-23.42,20.51-37.66,25.45-13.15,4.57-26.99,5.7-40.69,5.85-21.32.23-43.35-.25-65.01-.38-2.15-.01-4.35-.08-6.49-.22Z"/>
      <path class="cls-2" d="M909.48,341.86c-16.36-.27-31.91-9.85-41.14-22.91-9.62-13.61-10.27-32.59-3.78-47.28,22.21-50.27,47.37-101.64,69.5-151.83,7.73-17.53,27.27-29.57,46.36-29.41,44.22.37,88.51.8,132.76,1.19.12,0,.25,0,.37,0,15.95.46,32.8,8.79,41.47,22.86,8.5,13.81,10.81,32.48,3.9,47.41-4.7,10.15-9.43,20.83-13.86,31.12-5.5,12.78-17.49,22.76-30.55,27.26-.23.58-.47,1.15-.72,1.73-2.88,6.51-5.76,13.03-8.64,19.54,5.79,12.69,5.95,27.42.32,40.17-4.58,10.38-9.19,20.79-13.8,31.15-8.02,18.02-28.1,30.53-47.74,30.09-43.49-.98-88.3-.7-132.45-1.05-.67,0-1.33-.02-2-.05Z"/>
    </g>
    <g>
      <path class="cls-3" d="M123.73,315.17c-7.14-1.14-13.59-5.08-17.7-10.97-4.93-7.07-5.81-15.99-2.39-23.72,22.5-50.87,46.61-102.25,68-152.43,3.49-8.2,14.31-15.02,23.17-14.84,32.23.66,65.91-.1,98.85-.14,3.87,0,7.6.24,11.1.72,9.2,1.26,17.31,4.24,24.1,8.82,10.97,7.41,18.05,19.46,19.64,32.48,1.48,12.1-2.12,23.85-6.38,34.58-3.76,9.46-8.4,19.31-12.59,28.97-.1.24-.21.48-.32.71-3.54,7.48-6.76,13.35-9.87,17.93-4.58,6.75-10.29,12.06-16.99,15.79-.62.34-1.25.68-1.89,1-1.94,13.29-3.79,26.68-5.79,39.87-1.88,12.4-12.97,21.21-25.39,21.27-11.8.06-23.68.04-35.52.06-1.31,0-2.62-.09-3.9-.28-6.26-.9-12.03-3.96-16.2-8.67-5.02-5.68-7.17-13.16-5.9-20.44,1.28-7.34,2.56-14.67,3.84-22-2.67,0-5.34,0-8.01.01-5.28,12.14-10.52,24.35-15.82,36.42-4.07,9.27-13.54,15.07-23.62,15.12-12,.06-24.04.07-36.07.1-1.47,0-2.93-.11-4.36-.34Z"/>
      <path class="cls-3" d="M283.16,314.93c-7.37-1.01-14.05-5.01-18.24-11.08-4.88-7.07-5.73-15.98-2.29-23.7,22.58-50.81,46.74-102.14,68.14-152.29,3.49-8.19,14.3-15.02,23.16-14.83,43.53.96,88.98.06,133.47.08.93,0,1.86.05,2.78.15,7.46.82,14.24,4.88,18.43,11.19,4.7,7.07,5.49,16.01,2.07,23.75-4.61,10.42-9.51,20.96-13.83,31.27-3.46,8.27-14.34,15.13-23.25,14.93-2.11-.05-4.32,0-6.49,0,.93,4.8.41,9.83-1.61,14.45-4.43,10.13-8.87,20.26-13.3,30.39-.24.54-.49,1.07-.76,1.59,1.35,1.26,2.57,2.67,3.64,4.22,4.83,7.03,5.73,15.93,2.35,23.68-4.55,10.43-9.08,20.93-13.66,31.29-4.09,9.27-13.57,15.08-23.66,15.1-44.35.1-88.85.05-133.28.05-1.24,0-2.47-.08-3.67-.25Z"/>
      <path class="cls-3" d="M461.39,315.1c-9.21-1.02-17.34-3.65-24.11-7.72-11.2-6.73-18.78-18.37-20.17-31.33-1.2-11.19,2.34-22.05,6.35-31.94.03-.08.08-.17.11-.25,2.81-6.05,4.19-9.13,6.99-15.22,2.96-6.43,8.49-11.21,15.1-13.4-.05-.36-.09-.73-.14-1.1-1.47-11.82,2.15-23.35,6.23-33.86.06-.15.13-.3.19-.45,3.61-8.03,5.59-12.13,9.05-20.08,3.74-8.61,9.19-18.23,15.18-25.48,6.26-7.57,17.25-14.65,26.61-17.47,10.17-3.06,21.25-3.88,31.77-4.05,22.68-.37,46.27.11,69.38.17,2.8,0,5.5.13,8.05.36,9.71.89,18.12,3.48,25.02,7.69,10.93,6.66,18.17,18.12,19.87,30.69,1.55,11.47-1.96,22.63-6,32.83-.01.03-.03.07-.05.1-2.7,5.9-4.01,8.96-6.68,14.93-2.77,6.2-7.93,10.9-14.17,13.23.09.8.15,1.62.2,2.44.7,11.51-2.94,22.66-6.93,32.93-.05.13-.11.27-.17.4-3.5,7.95-5.53,12.07-8.77,19.86-3.57,8.6-8.96,18.53-14.98,25.76-6.33,7.6-17.43,14.67-26.85,17.49-10.27,3.07-21.44,3.89-32.07,4.07-22.73.4-46.34-.07-69.5-.1-3.28,0-6.5-.17-9.52-.51ZM525.84,194.5"/>
      <path class="cls-3" d="M627.93,315.67c-9.39-.49-20.75-4.29-28.42-9.61-10.75-7.46-18.21-19.25-19.91-32.37-1.6-12.35,1.37-24.93,6.49-36.11,11.91-26.05,23.71-52.43,35.58-78.64.02-.04.03-.07.05-.11,3.62-8.26,9.02-17.16,14.79-23.98,5.9-6.97,15.67-13.78,24.23-16.93,8.63-3.18,19.78-4.84,29-4.69,23.99.41,48.58.22,72.86.33,1.77,0,3.54.1,5.19.19,9.2.46,20.82,3.82,28.56,9.02,10.58,7.11,18.78,19.03,20.09,31.14,1.42,13.21-.75,23.14-5.8,35.83-2.74,6.88-4.65,10.59-7.75,17.67-3.12,7.12-9.38,12.29-16.81,14.21,3.45,6.61,3.77,14.43.72,21.31-4.17,9.41-6.47,14.22-10.41,23.5-3.74,8.82-9.23,18.7-15.25,26.19-5.94,7.37-15.82,14.75-24.61,18.27-8.95,3.59-20.79,5.5-30.44,5.34-23.53-.4-47.75-.17-71.6-.26-2.2,0-4.42-.1-6.55-.29ZM696.54,195.01c-5.84,13.11-11.68,26.23-17.52,39.34,7.05.03,13.93.05,20.72.08,1.8-4.03,3.11-6.94,5.26-11.75,3.19-7.11,9.49-12.24,16.94-14.14-2.16-4.18-3.06-8.83-2.66-13.43-7.58-.03-15.18-.07-22.74-.11Z"/>
      <path class="cls-3" d="M790.32,316.47c-10.75-1.49-21.25-3.32-30.36-9.55-10.86-7.41-18.32-19.25-19.98-32.42-1.58-12.53,1.61-25.28,6.81-36.58,16.55-35.98,33.93-72.99,49.34-108.86,3.51-8.16,14.29-15,23.15-14.76,11.59.31,23.67.14,35.51.22.41,0,.82.02,1.23.04,8.02.44,15.38,4.65,19.79,11.39,4.63,7.08,5.37,16.01,1.93,23.73-12.71,28.48-25.42,56.98-38.11,85.47,6.15.04,12.3.07,18.41.1.03-.06.05-.12.08-.18,15.96-35.1,32.94-70.61,47.89-105.31,3.51-8.16,14.3-14.99,23.17-14.74,11.58.33,23.67.18,35.5.27.26,0,.52,0,.78.02,8.18.31,15.73,4.56,20.21,11.43,4.62,7.08,5.35,16,1.9,23.71-17.25,38.62-34.15,78.15-51.71,115.88-4.58,9.84-9.88,19.89-16.98,28.2-6.45,7.54-17.23,14.93-26.68,18.07-10.19,3.38-21.29,4.24-31.86,4.41-21.22.33-43.36-.25-65.02-.38-1.67,0-3.35-.07-4.97-.17Z"/>
      <path class="cls-3" d="M910.61,316.89c-8.32-.38-15.98-4.62-20.53-11.42-4.72-7.07-5.45-15.95-1.97-23.64,22.92-50.57,47.35-101.7,68.86-151.66,3.52-8.17,14.33-15.01,23.21-14.74,43.31,1.3,88.51.8,132.76,1.19.06,0,.13,0,.19,0,8.41.14,16.2,4.43,20.78,11.46,4.61,7.09,5.33,16,1.87,23.71-4.65,10.38-9.6,20.88-13.97,31.14-3.52,8.26-14.45,15.1-23.38,14.83-2.05-.06-4.2-.04-6.3-.06.85,4.77.29,9.75-1.74,14.32-4.49,10.09-8.99,20.18-13.49,30.26-.24.54-.5,1.06-.77,1.57,1.36,1.29,2.58,2.73,3.64,4.31,4.71,7.04,5.5,15.92,2.06,23.63-4.63,10.39-9.54,20.88-13.91,31.16-3.58,8.43-14.77,15.27-23.84,15-43.17-1.29-88.32-.7-132.49-1.05-.33,0-.66-.01-1-.03Z"/>
    </g>
    <path class="cls-1" d="M739.26,170.19c-25.32.34-50.64.57-75.97.67.15,24.94.32,49.88.52,74.83,25.6-.11,51.2-.33,76.8-.68-.47-24.94-.92-49.88-1.35-74.81Z"/>
    <g>
      <path class="cls-2" d="M194.96,138.22c32.95-.03,65.89-.08,98.84-.14,8.75,0,15.66,1.7,20.73,5.13,5.06,3.42,7.94,8.27,8.64,14.53.7,6.26-.83,13.57-4.56,21.92-4.26,9.69-8.51,19.38-12.76,29.08-2.98,6.27-5.67,11.15-8.06,14.66-2.39,3.51-5.2,6.16-8.43,7.95-3.23,1.79-7.33,3.22-12.3,4.26-2.73,18.19-5.45,36.39-8.15,54.59-11.83.02-23.66.04-35.49.05,2.93-17.16,5.87-34.31,8.82-51.46-18.65.05-37.3.08-55.95.1-7.54,17.17-15.07,34.33-22.59,51.51-12.01.04-24.03.07-36.04.1,22.28-50.82,44.72-101.57,67.3-152.26ZM267.72,206.42c1.58-.52,2.9-1.35,3.95-2.46,1.05-1.12,2.02-2.65,2.92-4.59,3.85-8.5,5.77-12.75,9.63-21.26.75-1.64,1.01-3.09.77-4.36-.23-1.26-.88-2.27-1.94-3.02-1.06-.74-2.65-1.12-4.76-1.11-20.47.02-40.94.05-61.4.09-5.52,12.53-11.04,25.07-16.55,37.6,20.39-.04,40.78-.07,61.16-.1,2.56,0,4.64-.27,6.22-.79Z"/>
      <path class="cls-2" d="M353.99,138.05c44.49.04,88.97.06,133.46.08-4.65,10.43-9.3,20.85-13.96,31.28-32.5,0-65-.03-97.5-.06-4.41,9.84-8.82,19.68-13.23,29.52,26.41.02,52.82.03,79.22.03-4.47,10.13-8.95,20.27-13.43,30.4-26.4,0-52.8,0-79.21-.01-4.38,9.84-8.76,19.68-13.14,29.53,32.48.01,64.96.01,97.45,0-4.6,10.43-9.19,20.87-13.79,31.3-44.44.02-88.88.04-133.32.05,22.36-50.76,44.85-101.46,67.45-152.12Z"/>
      <path class="cls-2" d="M450.92,286.22c-4.82-2.91-7.51-7.05-8.06-12.42-.55-5.37.88-11.93,4.29-19.68,2.77-6.08,4.15-9.12,6.92-15.2,11.49.02,22.98.03,34.47.04-2.5,5.45-3.75,8.18-6.25,13.63-.6,1.49-.81,2.68-.66,3.58.15.89.64,1.57,1.47,2.01.83.45,2.06.67,3.72.67,20.78.03,41.56.06,62.34.11,2.4,0,4.35-.44,5.84-1.33,1.5-.89,2.69-2.38,3.59-4.46,2.95-6.52,4.43-9.78,7.38-16.3.59-1.93.85-3.47.78-4.58-.08-1.12-.6-1.9-1.58-2.35-.98-.45-2.51-.68-4.61-.68-20.94-.03-41.87-.07-62.81-.12-7.96-.01-14.24-1.51-18.82-4.5-4.59-2.99-7.23-7.39-7.93-13.2s.75-12.97,4.34-21.46c3.59-8.05,5.39-12.07,8.98-20.11,3.74-8.49,7.54-15.01,11.37-19.55,3.83-4.54,8.79-7.77,14.88-9.7,6.08-1.93,14.09-2.88,24.01-2.86,23.13.07,46.25.12,69.38.17,8.56.02,15.16,1.46,19.81,4.31,4.65,2.84,7.31,6.99,7.98,12.43.67,5.45-.72,12.04-4.17,19.77-2.7,5.98-4.05,8.97-6.75,14.96-11.55-.03-23.1-.06-34.65-.1,2.43-5.36,3.64-8.04,6.07-13.4.75-2.23.75-3.84,0-4.81-.75-.97-2.4-1.46-4.95-1.47-20.49-.05-40.99-.1-61.48-.14-1.8,0-3.27.18-4.39.55-1.13.37-2.1,1-2.93,1.9-.82.89-1.54,2.01-2.14,3.35-2.97,6.26-4.45,9.38-7.41,15.64-1.05,2.54-1.04,4.44.01,5.7,1.05,1.27,3.01,1.91,5.86,1.91,21.32.05,42.63.1,63.95.14,8.4.02,14.74,1.49,19.02,4.41s6.57,7.36,6.87,13.32c.31,5.96-1.41,13.34-5.14,22.12-3.58,8.04-5.37,12.06-8.95,20.1-3.58,8.49-7.3,15-11.18,19.54-3.88,4.54-8.89,7.77-15.03,9.69-6.14,1.92-14.15,2.88-24.05,2.86-23.17-.02-46.35-.06-69.52-.11-8.41,0-15.02-1.47-19.84-4.38Z"/>
      <path class="cls-2" d="M614.32,285.63c-5.18-3.52-8.23-8.56-9.14-15.12-.92-6.56.56-14.16,4.44-22.79,11.74-26.2,23.49-52.4,35.26-78.59,3.45-7.59,7.1-13.61,10.93-18.07,3.83-4.46,8.48-7.72,13.96-9.79,5.47-2.07,12.11-3.08,19.91-3.05,24.28.12,48.56.23,72.85.33,8.24.04,14.87,1.72,19.88,5.02,5.01,3.3,8.03,8.09,9.07,14.35,1.03,6.26-.33,13.49-4.09,21.66-3.16,7.14-4.74,10.71-7.89,17.84-11.61-.05-23.21-.11-34.82-.17,2.7-6.25,4.05-9.37,6.76-15.62,1.2-2.38,1.73-4.46,1.58-6.25-.15-1.79-.86-3.1-2.13-3.92-1.27-.82-3.18-1.25-5.73-1.26-18.21-.07-36.41-.15-54.62-.24-2.55-.01-4.76.28-6.63.87-1.88.59-3.53,1.7-4.95,3.33-1.43,1.64-2.67,3.72-3.72,6.25-9.96,22.17-19.92,44.34-29.87,66.52-1.05,2.53-1.49,4.73-1.34,6.59.15,1.86.98,3.28,2.48,4.26,1.5.97,3.52,1.47,6.07,1.47,17.37.06,34.74.13,52.11.2,3.14.01,5.73-.35,7.75-1.08,2.02-.74,3.74-1.96,5.16-3.67,1.42-1.71,2.8-3.97,4.15-6.8,2.69-6.07,4.04-9.1,6.74-15.17,11.6.06,23.21.12,34.81.17-4.23,9.46-6.34,14.19-10.56,23.65-3.74,8.63-7.67,15.43-11.78,20.4-4.11,4.98-8.97,8.6-14.58,10.89-5.61,2.29-12.38,3.41-20.31,3.38-23.87-.08-47.75-.16-71.62-.26-8.24-.03-14.94-1.8-20.12-5.32Z"/>
      <path class="cls-2" d="M774.61,286.39c-5.16-3.45-8.19-8.46-9.09-15.03-.9-6.56.67-14.3,4.72-23.23,16.29-36.28,32.59-72.56,48.92-108.82,11.83.07,23.66.14,35.5.21-16.18,35.96-32.35,71.93-48.5,107.91-1.2,2.83-1.69,5.17-1.46,7.03.22,1.87,1.12,3.25,2.69,4.15,1.57.9,3.85,1.36,6.84,1.38,15.18.1,30.36.19,45.55.27,4.04.03,7.33-.4,9.87-1.28,2.54-.88,4.71-2.39,6.51-4.54,1.8-2.15,3.6-5.23,5.4-9.24,15.81-35.06,31.62-70.12,47.45-105.18,11.83.09,23.66.18,35.49.27-17.41,38.69-34.82,77.37-52.22,116.07-4.21,9.51-8.56,16.82-13.05,21.93-4.49,5.11-9.74,8.69-15.71,10.74-5.98,2.05-13.68,3.04-23.1,2.98-21.68-.12-43.36-.24-65.04-.38-8.67-.05-15.59-1.8-20.75-5.25Z"/>
      <path class="cls-2" d="M979.98,140.43c44.25.4,88.51.8,132.76,1.19-4.69,10.39-9.39,20.77-14.09,31.15-32.34-.28-64.68-.58-97.02-.88-4.45,9.8-8.9,19.6-13.36,29.4,26.27.24,52.53.47,78.8.69-4.53,10.09-9.06,20.18-13.6,30.27-26.26-.21-52.51-.44-78.77-.67-4.44,9.8-8.89,19.6-13.33,29.4,32.3.28,64.61.55,96.91.81-4.67,10.39-9.35,20.78-14.03,31.17-44.17-.35-88.34-.7-132.52-1.05,22.71-50.51,45.46-101,68.23-151.49Z"/>
    </g>
  </g>
  <g>
    <g>
      <path class="cls-2" d="M1345.1,349.04c-.72.03-1.44.05-2.16.06-12.28.09-24.57.17-36.85.25-13.29.09-26.36-4.75-36.22-13.7-9.52,8.89-22.16,13.93-35.17,14.27-.3,0-.59.01-.89.02-12.44.11-25.07.05-37.32.36-17.02.42-34.15-8.84-44.07-22.52-9.87-13.63-10.51-32.8-3.91-47.58,22.88-51.24,48.75-103.57,71.56-154.74,7.5-16.83,25.92-28.68,44.29-29.3.43-.01.86-.02,1.29-.03,34.36-.23,69.59-1.32,103.1-.73,16.93.3,34.92,3.79,49.58,13.18,16.93,10.85,30.18,30.99,31.85,50.52,1.46,17.02-1.87,32.37-8.48,48.32-3.97,9.58-8.68,19.46-13.02,29.19-.22.49-.45.98-.68,1.46-4.26,8.75-8.26,15.79-12.23,21.48-4.85,6.96-10.6,12.92-17.15,17.81-1.44,9.63-2.87,19.26-4.32,28.88-3.64,24.13-25.21,41.7-49.21,42.8Z"/>
      <path class="cls-2" d="M1485.47,348.49c-3.75.27-7.72.41-11.78.42-22.71.09-45.98.72-68.16.28-17.77-.35-35.07-3.64-50.67-13.38-17.02-10.62-29.71-29.71-31.99-49.94-2.05-18.13,2.27-34.85,9.4-50.91,16.17-36.47,35.43-74.11,52-110.76,7.34-16.23,24.92-27.89,42.66-29.03,1-.06,2-.1,3-.1,12.48-.05,25.1-.24,37.44-.15,14.52.11,30.03,6.57,39.27,18.38,8.68-10.53,21.38-17.23,34.96-18.41,1.41-.12,2.83-.18,4.26-.19,12.5-.02,25.16-.19,37.5-.05,16.24.19,33.43,9.11,42.45,22.78,9.01,13.65,10.32,32.97,3.76,47.8-17.17,38.79-35.58,78.84-53.78,117.19-5.89,12.42-12.69,24.46-21.9,34.9-10.23,11.59-24.06,20.35-38.64,25.48-9.28,3.26-19.98,5.17-29.78,5.68Z"/>
      <path class="cls-2" d="M1659.54,347.81c-5.78.6-12.08.9-18.7.89-24.23,0-48.76-.23-72.76.01-16.32.16-33.62-3.54-47.81-11.69-17.66-10.15-31.05-29.91-32.53-50.51-1.15-16.02,3.17-30.91,9.44-45.1.08-.17.17-.35.25-.53,3.01-6.17,4.52-9.26,7.53-15.43,3.26-6.68,7.89-12.43,13.47-17.01,1.03-11.05,4.81-21.44,9.01-31.33.13-.3.28-.61.42-.91,3.86-8.13,5.87-12.24,9.68-20.31,5.31-11.28,11.75-22.45,20.05-31.72,10.2-11.4,24.25-20.45,39.02-24.81,6.8-2.01,14.15-3.5,22.35-4.33,5.53-.56,11.54-.84,17.85-.83,24.39.02,48.9-.04,73.2.07,15.85.07,32.98,3.38,46.7,11.3,17.28,9.98,31.24,29.85,33,49.15,1.51,16.6-1.91,31.49-8.55,47.02-.03.07-.07.14-.1.22-2.82,6.01-4.27,9.03-7.11,15.05-3.08,6.53-7.51,12.21-12.88,16.78-1.15,11.16-4.99,21.7-9.22,31.72-.11.27-.24.54-.37.81-3.73,7.95-5.75,12.04-9.29,19.81-5.21,11.44-11.79,22.77-20.14,32.28-10.44,11.89-25.07,20.45-40.07,25.06-6.84,2.1-14.23,3.5-22.45,4.35Z"/>
      <path class="cls-2" d="M1854.47,348.34c-2.61.36-5.26.54-7.94.53-12.53-.06-25.06-.12-37.58-.18-14.26-.07-28.18-5.77-38.08-16.09-8.57,8.58-19.97,14.01-31.99,15.43-2.18.26-4.39.39-6.63.38-12.49-.03-24.98-.06-37.47-.09-16.82-.03-34.68-8.46-43.71-23.05-8.64-13.96-10.4-32.84-2.91-47.64,25.32-50.07,49.44-103.59,74.55-153.96,7.33-14.7,22.83-26.51,39.53-28.4,2.17-.25,4.44-.42,6.69-.42,12.64.04,25.43-.05,37.93.13,14.24.21,29.43,6.43,38.67,17.84,8-9.08,19.09-15.12,31.05-16.92,2.61-.39,5.27-.59,7.96-.57,12.69.07,25.54-.02,38.08.21,16.31.3,33.6,9.29,42.59,23.1,8.95,13.74,10,33.11,3.19,47.87-23.34,50.59-49.76,102.23-73.15,152.72-7.27,15.71-23.99,26.36-40.78,29.1Z"/>
    </g>
    <g>
      <path class="cls-3" d="M1343.95,324.07c-.36.02-.72.03-1.08.03-12.29.09-24.59.16-36.89.25-7.73.06-15.08-3.19-20.04-8.85-4.96-5.66-7.03-13.14-5.67-20.43,1.39-7.45,2.78-14.95,4.17-22.47-3.48.03-6.97.05-10.45.08-5.56,12.39-11.44,24.9-16.69,37.17-3.53,8.24-14.38,15.06-23.25,15.09-.14,0-.3,0-.44,0-12.43.09-24.91.23-37.36.36-8.85.09-17.13-4.14-21.98-11.22s-5.6-16.03-2.06-23.78c23.55-51.5,48.65-103.57,70.75-154.46,3.41-7.84,13.66-14.6,22.19-14.7.21,0,.43-.01.65-.01,34.34-.21,68.86-.36,103.1-.73,12.37-.13,25.14,2.4,35.67,9.15,11.3,7.23,18.7,19.4,20.4,32.62,1.59,12.37-2.22,24.34-6.68,35.23-3.93,9.58-8.79,19.53-13.19,29.3-.11.25-.23.49-.34.73-3.71,7.59-7.11,13.53-10.35,18.15-4.75,6.77-10.64,12.09-17.53,15.82-.71.39-1.44.76-2.17,1.12-2.06,13.41-4.06,26.92-6.2,40.22-1.94,12.02-12.49,20.71-24.58,21.34Z"/>
      <path class="cls-3" d="M1483.69,323.56c-3.14.22-6.47.34-9.91.35-22.72.09-45.57.09-68.21.28-12.52.1-25.43-2.47-36.17-9.21-11.44-7.17-19.06-19.1-20.82-32.47-1.69-12.77,1.68-25.8,7.11-37.27,17.28-36.51,34.32-73.7,51.45-110.56,3.91-8.42,12.15-13.98,21.38-14.57.5-.03,1-.05,1.51-.05,12.47-.06,24.94-.1,37.42-.15,8.58-.03,16.59,4.25,21.28,11.38,4.69,7.13,5.4,16.14,1.85,23.91-13.23,28.91-26.48,57.81-39.74,86.72,7.19-.03,14.35-.06,21.47-.09.1-.21.21-.43.32-.67,16.76-35.61,33.57-71.26,50.3-106.9,3.86-8.22,11.84-13.69,20.82-14.46.71-.06,1.42-.09,2.14-.09,12.49-.02,24.98-.04,37.47-.05,8.59,0,16.6,4.29,21.27,11.43,4.67,7.14,5.36,16.15,1.78,23.91-18.09,39.17-35.89,79.27-54.36,117.47-4.83,9.99-10.11,20.76-17.84,28.56-7.68,7.75-16.64,14.68-27.56,18.21-6.65,2.15-14.23,3.69-22.95,4.31Z"/>
      <path class="cls-3" d="M1656.97,322.94c-4.84.5-10.17.75-15.85.75-24.25,0-48.67-.11-72.81.02-11.75.06-23.89-2.05-34.21-8.02-11.46-6.62-19.16-18.35-20.47-31.47-1.14-11.45,2.74-22.44,7.01-32.5.04-.09.08-.18.13-.26,2.98-6.16,4.47-9.24,7.45-15.4,3.17-6.55,9.01-11.34,15.89-13.4-.05-.34-.09-.68-.13-1.02-1.47-12.1,2.45-23.86,6.8-34.5.06-.15.14-.3.21-.45,3.82-8.13,5.71-12.39,9.6-20.32,4.41-8.98,9.45-18.14,16.02-25.76,6.54-7.58,17.78-14.6,27.38-17.35,5.1-1.46,11.04-2.7,17.47-3.35,4.69-.47,9.84-.71,15.3-.71,24.38.02,48.89.17,73.18.07,11.61-.04,23.66,1.95,33.85,7.84,11.28,6.52,18.88,18.08,20.62,30.9,1.6,11.77-2.15,23.42-6.61,33.49-.02.03-.03.07-.05.11-2.84,6.02-4.31,9.05-7.18,15.08-3,6.3-8.49,11.01-15.02,13.2.08.78.13,1.58.17,2.37.64,11.79-3.37,23.13-7.7,33.5-.06.13-.12.27-.19.4-3.78,8.03-5.67,12.21-9.48,20.06-4.43,9.13-9.36,18.37-16.1,26-7.58,8.58-17.73,13.84-27.97,17.4-4.92,1.71-10.87,2.66-17.33,3.33ZM1627.18,201.27"/>
      <path class="cls-3" d="M1851.02,323.58c-1.3.18-2.62.27-3.95.26-12.54-.07-25.08-.12-37.63-.18-8.91-.04-17.12-4.39-21.8-11.53-4.68-7.15-5.21-16.11-1.45-23.82,4.29-8.78,8.57-17.57,12.85-26.36-6.7-.03-13.4-.05-20.07-.08-7.38,15.57-14.77,31.13-22.17,46.68-3.84,8.07-11.81,13.58-20.86,14.65-1.08.13-2.19.19-3.3.19-12.5-.03-25.02-.06-37.52-.08-8.89-.02-17.11-4.35-21.82-11.48-4.71-7.13-5.28-16.1-1.56-23.81,24.68-51.2,49.31-102.43,73.86-153.69,3.75-7.84,11.27-13.15,19.81-14.25,1.11-.14,2.23-.21,3.36-.21,12.63.04,25.27.08,37.9.13,8.63.03,16.65,4.37,21.3,11.53,4.64,7.16,5.27,16.18,1.61,23.92-3.81,8.05-7.64,16.14-11.48,24.24,7.02.03,14.03.06,21.04.08,7.29-15,14.58-30,21.84-45.01,3.7-7.65,10.99-12.88,19.31-14.13,1.31-.2,2.65-.29,4-.29,12.68.07,25.36.14,38.04.21,8.67.05,16.7,4.41,21.33,11.59,4.63,7.18,5.21,16.2,1.49,23.94-24.52,51.03-49.13,102.03-73.8,152.99-3.81,7.86-11.53,13.27-20.34,14.5Z"/>
    </g>
    <g>
      <path class="cls-2" d="M1265.98,146.12c34.37-.24,68.74-.48,103.1-.73,9.14-.05,16.37,1.64,21.66,5.07,5.29,3.43,8.31,8.31,9.04,14.63.73,6.32-.86,13.7-4.77,22.15-4.45,9.81-8.91,19.62-13.37,29.43-3.13,6.34-5.94,11.29-8.45,14.84-2.51,3.55-5.44,6.24-8.82,8.07-3.37,1.83-7.65,3.28-12.83,4.37-2.91,18.38-5.83,36.77-8.76,55.15-12.31.08-24.62.17-36.93.25,3.14-17.33,6.27-34.67,9.4-52-19.4.16-38.81.31-58.21.45-7.87,17.38-15.75,34.76-23.63,52.14-12.47.12-24.94.23-37.4.36,23.28-51.41,46.61-102.79,69.96-154.18ZM1341.88,214.54c1.65-.54,3.02-1.37,4.12-2.51,1.09-1.13,2.11-2.68,3.05-4.65,4.02-8.61,6.03-12.91,10.06-21.51.78-1.66,1.05-3.13.81-4.41-.24-1.28-.92-2.29-2.02-3.04-1.1-.75-2.76-1.11-4.97-1.1-21.34.16-42.68.31-64.02.45-5.74,12.69-11.48,25.38-17.21,38.07,21.24-.15,42.47-.31,63.71-.47,2.67-.02,4.84-.3,6.49-.83Z"/>
      <path class="cls-2" d="M1383.84,294.11c-5.42-3.43-8.6-8.46-9.56-15.08-.96-6.62.67-14.46,4.89-23.51,16.99-36.81,33.98-73.62,50.95-110.44,12.46-.05,24.93-.1,37.39-.15-16.86,36.51-33.74,73-50.63,109.5-1.26,2.87-1.76,5.24-1.52,7.12.24,1.88,1.18,3.27,2.83,4.16,1.65.9,4.04,1.34,7.19,1.32,15.95-.05,31.89-.12,47.84-.19,4.24-.01,7.7-.48,10.37-1.39,2.67-.91,4.96-2.46,6.85-4.65,1.89-2.19,3.78-5.32,5.68-9.39,16.62-35.56,33.21-71.12,49.78-106.7,12.48-.02,24.96-.04,37.45-.05-18.29,39.26-36.6,78.5-54.94,117.74-4.44,9.65-9.02,17.07-13.75,22.27-4.73,5.2-10.24,8.87-16.53,10.99-6.29,2.13-14.37,3.2-24.26,3.23-22.75.1-45.49.2-68.24.28-9.1.04-16.35-1.65-21.77-5.08Z"/>
      <path class="cls-2" d="M1547.81,294.32c-5.01-2.93-7.78-7.1-8.3-12.52-.53-5.42,1.04-12.05,4.69-19.88,2.95-6.15,4.43-9.22,7.38-15.37,12.04,0,24.09-.02,36.13-.04-2.68,5.51-4.01,8.27-6.69,13.78-.64,1.51-.88,2.71-.73,3.61.15.9.66,1.58,1.52,2.03.86.45,2.16.68,3.89.67,21.81,0,43.61,0,65.42,0,2.52,0,4.57-.45,6.16-1.35,1.58-.9,2.86-2.4,3.82-4.51,3.18-6.59,4.77-9.89,7.95-16.48.65-1.95.94-3.5.87-4.63-.07-1.13-.62-1.92-1.64-2.37-1.02-.45-2.64-.68-4.85-.68-21.99,0-43.99,0-65.98-.01-8.35,0-14.92-1.5-19.71-4.5-4.79-3.01-7.53-7.44-8.22-13.32-.69-5.87.87-13.1,4.69-21.68,3.81-8.13,5.72-12.2,9.53-20.33,3.97-8.58,7.98-15.17,12.02-19.77,4.04-4.59,9.27-7.87,15.67-9.83,6.41-1.96,14.83-2.94,25.28-2.94,24.38.03,48.77.06,73.15.08,9.03.02,16,1.46,20.9,4.33,4.89,2.87,7.68,7.06,8.35,12.55.67,5.5-.85,12.16-4.55,19.98-2.9,6.05-4.35,9.07-7.25,15.12-12.18-.03-24.36-.05-36.54-.07,2.6-5.42,3.9-8.12,6.5-13.54.81-2.26.82-3.88.03-4.86-.78-.98-2.52-1.47-5.21-1.48-21.58,0-43.17-.02-64.75-.05-1.9,0-3.44.19-4.62.56-1.19.38-2.22,1.02-3.09,1.92-.87.9-1.63,2.03-2.26,3.39-3.15,6.32-4.73,9.49-7.88,15.81-1.12,2.56-1.12,4.48-.03,5.76,1.1,1.28,3.15,1.92,6.14,1.92,22.42.02,44.85.04,67.27.04,8.85.01,15.52,1.49,20,4.43,4.48,2.94,6.85,7.43,7.11,13.45.26,6.02-1.63,13.48-5.67,22.35-3.87,8.12-5.81,12.19-9.68,20.31-3.88,8.58-7.89,15.16-12.03,19.75-4.15,4.59-9.46,7.86-15.93,9.81-6.47,1.95-14.9,2.92-25.28,2.91-24.29.02-48.57.02-72.86.02-8.8,0-15.7-1.45-20.71-4.38Z"/>
      <path class="cls-2" d="M1768.6,144.87c12.62.04,25.25.08,37.87.13-9.46,19.85-18.94,39.7-28.45,59.53,25.77.12,51.54.22,77.3.32,9.58-19.82,19.15-39.65,28.69-59.5,12.67.07,25.34.14,38.01.21-24.74,51.12-49.57,102.2-74.46,153.25-12.56-.06-25.12-.12-37.67-.17,9.93-20.51,19.84-41.03,29.73-61.56-25.72-.09-51.44-.19-77.17-.3-9.8,20.54-19.62,41.07-29.46,61.59-12.52-.03-25.04-.06-37.57-.08,24.44-51.12,48.84-102.25,73.17-153.43Z"/>
    </g>
  </g>
</svg>