<?xml version="1.0" encoding="UTF-8" standalone="no"?>
<svg
   version="1.1"
   viewBox="0 0 1023.9999 1024"
   id="svg261"
   sodipodi:docname="plooschter.svg"
   width="1024"
   height="1024"
   inkscape:version="1.1.2 (0a00cf5339, 2022-02-04)"
   inkscape:export-filename="ploschter.png"
   inkscape:export-xdpi="96"
   inkscape:export-ydpi="96"
   xmlns:inkscape="http://www.inkscape.org/namespaces/inkscape"
   xmlns:sodipodi="http://sodipodi.sourceforge.net/DTD/sodipodi-0.dtd"
   xmlns:xlink="http://www.w3.org/1999/xlink"
   xmlns="http://www.w3.org/2000/svg"
   xmlns:svg="http://www.w3.org/2000/svg">
  <sodipodi:namedview
     id="namedview263"
     pagecolor="#ffffff"
     bordercolor="#999999"
     borderopacity="1"
     inkscape:showpageshadow="0"
     inkscape:pageopacity="0"
     inkscape:pagecheckerboard="0"
     inkscape:deskcolor="#d1d1d1"
     showgrid="false"
     inkscape:zoom="0.35194358"
     inkscape:cx="-241.51598"
     inkscape:cy="589.58314"
     inkscape:window-width="1920"
     inkscape:window-height="1016"
     inkscape:window-x="0"
     inkscape:window-y="0"
     inkscape:window-maximized="1"
     inkscape:current-layer="svg261"
     inkscape:pageshadow="0" />
  <defs
     id="defs14">
    <style
       id="style2">
      .cls-1 {
        fill: url(#linear-gradient-2);
      }

      .cls-2 {
        fill: #ffdcae;
      }

      .cls-3 {
        fill: #fff;
      }

      .cls-4 {
        fill: url(#linear-gradient);
      }
    </style>
    <linearGradient
       id="linear-gradient"
       x1="-544.70001"
       y1="-3506.02"
       x2="-544.70001"
       y2="-3531.75"
       gradientTransform="translate(849.76,3922.37)"
       gradientUnits="userSpaceOnUse">
      <stop
         offset="0"
         stop-color="#faae6c"
         id="stop4" />
      <stop
         offset=".35"
         stop-color="#f6a96a"
         id="stop6" />
      <stop
         offset=".73"
         stop-color="#ec9d64"
         id="stop8" />
      <stop
         offset="1"
         stop-color="#e28f5e"
         id="stop10" />
    </linearGradient>
    <linearGradient
       id="linear-gradient-2"
       x1="637.19"
       y1="-2287.97"
       x2="637.19"
       y2="-2313.71"
       gradientTransform="translate(-346.39,2708.71)"
       xlink:href="#linear-gradient" />
    <linearGradient
       inkscape:collect="always"
       xlink:href="#linear-gradient"
       id="linearGradient492"
       gradientUnits="userSpaceOnUse"
       gradientTransform="translate(849.76,3922.37)"
       x1="-544.70001"
       y1="-3506.02"
       x2="-544.70001"
       y2="-3531.75" />
    <filter
       style="color-interpolation-filters:sRGB;"
       inkscape:label="Drop Shadow"
       id="filter561"
       x="-0.18857118"
       y="-0.16411811"
       width="1.41472"
       height="1.3609409">
      <feFlood
         flood-opacity="0.501961"
         flood-color="rgb(0,0,0)"
         result="flood"
         id="feFlood551" />
      <feComposite
         in="flood"
         in2="SourceGraphic"
         operator="in"
         result="composite1"
         id="feComposite553" />
      <feGaussianBlur
         in="composite1"
         stdDeviation="4.6"
         result="blur"
         id="feGaussianBlur555" />
      <feOffset
         dx="2.2"
         dy="2.2"
         result="offset"
         id="feOffset557" />
      <feComposite
         in="SourceGraphic"
         in2="offset"
         operator="over"
         result="composite2"
         id="feComposite559" />
    </filter>
  </defs>
  <!-- Generator: Adobe Illustrator 28.7.3, SVG Export Plug-In . SVG Version: 1.2.0 Build 164)  -->
  <g
     id="g259"
     transform="matrix(15.054769,0,0,15.054769,-3894.5365,-5571.0974)">
    <g
       id="Layer_1">
      <g
         id="g256">
        <g
           id="g134">
          <rect
             class="cls-4"
             x="272.47"
             y="390.60999"
             width="65.190002"
             height="25.73"
             rx="8.3699999"
             ry="8.3699999"
             transform="rotate(99.89,305.05814,403.49211)"
             id="rect16"
             style="fill:url(#linearGradient492)" />
          <rect
             class="cls-2"
             x="295.97"
             y="394.39001"
             width="18.190001"
             height="18.190001"
             rx="2.25"
             ry="2.25"
             transform="rotate(99.89,305.05814,403.49211)"
             id="rect18" />
          <rect
             class="cls-3"
             x="300.04001"
             y="398.45999"
             width="10.04"
             height="10.04"
             rx="1.09"
             ry="1.09"
             transform="rotate(99.89,305.05814,403.49211)"
             id="rect20" />
          <g
             id="g28">
            <path
               class="cls-2"
               d="m 315.56,391.99 c 0.4,0.07 0.77,-0.2 0.84,-0.59 0.07,-0.39 -0.2,-0.77 -0.59,-0.84 -0.39,-0.07 -0.77,0.2 -0.84,0.59 -0.07,0.39 0.2,0.77 0.59,0.84 z"
               id="path22" />
            <path
               class="cls-2"
               d="m 316.17,388.44 c 0.4,0.07 0.77,-0.2 0.84,-0.59 0.07,-0.39 -0.2,-0.77 -0.59,-0.84 -0.39,-0.07 -0.77,0.2 -0.84,0.59 -0.07,0.39 0.2,0.77 0.59,0.84 z"
               id="path24" />
            <path
               class="cls-2"
               d="m 316.79,384.89 c 0.4,0.07 0.77,-0.2 0.84,-0.59 0.07,-0.39 -0.2,-0.77 -0.59,-0.84 -0.39,-0.07 -0.77,0.2 -0.84,0.59 -0.07,0.39 0.2,0.77 0.59,0.84 z"
               id="path26" />
          </g>
          <g
             id="g38">
            <path
               class="cls-2"
               d="m 312.26,391.41 c 0.4,0.07 0.77,-0.2 0.84,-0.59 0.07,-0.39 -0.2,-0.77 -0.59,-0.84 -0.39,-0.07 -0.77,0.2 -0.84,0.59 -0.07,0.39 0.2,0.77 0.59,0.84 z"
               id="path30" />
            <path
               class="cls-2"
               d="m 312.88,387.86 c 0.4,0.07 0.77,-0.2 0.84,-0.59 0.07,-0.39 -0.2,-0.77 -0.59,-0.84 -0.39,-0.07 -0.77,0.2 -0.84,0.59 -0.07,0.39 0.2,0.77 0.59,0.84 z"
               id="path32" />
            <path
               class="cls-2"
               d="m 313.5,384.32 c 0.4,0.07 0.77,-0.2 0.84,-0.59 0.07,-0.39 -0.2,-0.77 -0.59,-0.84 -0.39,-0.07 -0.77,0.2 -0.84,0.59 -0.07,0.39 0.2,0.77 0.59,0.84 z"
               id="path34" />
            <path
               class="cls-2"
               d="m 314.12,380.77 c 0.4,0.07 0.77,-0.2 0.84,-0.59 0.07,-0.39 -0.2,-0.77 -0.59,-0.84 -0.39,-0.07 -0.77,0.2 -0.84,0.59 -0.07,0.39 0.2,0.77 0.59,0.84 z"
               id="path36" />
          </g>
          <g
             id="g48">
            <path
               class="cls-2"
               d="m 308.96,390.84 c 0.4,0.07 0.77,-0.2 0.84,-0.59 0.07,-0.39 -0.2,-0.77 -0.59,-0.84 -0.39,-0.07 -0.77,0.2 -0.84,0.59 -0.07,0.39 0.2,0.77 0.59,0.84 z"
               id="path40" />
            <path
               class="cls-2"
               d="m 309.58,387.29 c 0.4,0.07 0.77,-0.2 0.84,-0.59 0.07,-0.39 -0.2,-0.77 -0.59,-0.84 -0.39,-0.07 -0.77,0.2 -0.84,0.59 -0.07,0.39 0.2,0.77 0.59,0.84 z"
               id="path42" />
            <path
               class="cls-2"
               d="m 310.2,383.74 c 0.4,0.07 0.77,-0.2 0.84,-0.59 0.07,-0.39 -0.2,-0.77 -0.59,-0.84 -0.39,-0.07 -0.77,0.2 -0.84,0.59 -0.07,0.39 0.2,0.77 0.59,0.84 z"
               id="path44" />
            <path
               class="cls-2"
               d="m 310.82,380.19 c 0.4,0.07 0.77,-0.2 0.84,-0.59 0.07,-0.39 -0.2,-0.77 -0.59,-0.84 -0.39,-0.07 -0.77,0.2 -0.84,0.59 -0.07,0.39 0.2,0.77 0.59,0.84 z"
               id="path46" />
          </g>
          <g
             id="g58">
            <path
               class="cls-2"
               d="m 305.67,390.26 c 0.4,0.07 0.77,-0.2 0.84,-0.59 0.07,-0.39 -0.2,-0.77 -0.59,-0.84 -0.39,-0.07 -0.77,0.2 -0.84,0.59 -0.07,0.39 0.2,0.77 0.59,0.84 z"
               id="path50" />
            <path
               class="cls-2"
               d="m 306.29,386.72 c 0.4,0.07 0.77,-0.2 0.84,-0.59 0.07,-0.39 -0.2,-0.77 -0.59,-0.84 -0.39,-0.07 -0.77,0.2 -0.84,0.59 -0.07,0.39 0.2,0.77 0.59,0.84 z"
               id="path52" />
            <path
               class="cls-2"
               d="m 306.91,383.17 c 0.4,0.07 0.77,-0.2 0.84,-0.59 0.07,-0.39 -0.2,-0.77 -0.59,-0.84 -0.39,-0.07 -0.77,0.2 -0.84,0.59 -0.07,0.39 0.2,0.77 0.59,0.84 z"
               id="path54" />
            <path
               class="cls-2"
               d="m 307.53,379.62 c 0.4,0.07 0.77,-0.2 0.84,-0.59 0.07,-0.39 -0.2,-0.77 -0.59,-0.84 -0.39,-0.07 -0.77,0.2 -0.84,0.59 -0.07,0.39 0.2,0.77 0.59,0.84 z"
               id="path56" />
          </g>
          <g
             id="g68">
            <path
               class="cls-2"
               d="m 302.37,389.69 c 0.4,0.07 0.77,-0.2 0.84,-0.59 0.07,-0.39 -0.2,-0.77 -0.59,-0.84 -0.39,-0.07 -0.77,0.2 -0.84,0.59 -0.07,0.39 0.2,0.77 0.59,0.84 z"
               id="path60" />
            <path
               class="cls-2"
               d="m 302.99,386.14 c 0.4,0.07 0.77,-0.2 0.84,-0.59 0.07,-0.39 -0.2,-0.77 -0.59,-0.84 -0.39,-0.07 -0.77,0.2 -0.84,0.59 -0.07,0.39 0.2,0.77 0.59,0.84 z"
               id="path62" />
            <path
               class="cls-2"
               d="m 303.61,382.59 c 0.4,0.07 0.77,-0.2 0.84,-0.59 0.07,-0.39 -0.2,-0.77 -0.59,-0.84 -0.39,-0.07 -0.77,0.2 -0.84,0.59 -0.07,0.39 0.2,0.77 0.59,0.84 z"
               id="path64" />
            <path
               class="cls-2"
               d="m 304.23,379.04 c 0.4,0.07 0.77,-0.2 0.84,-0.59 0.07,-0.39 -0.2,-0.77 -0.59,-0.84 -0.39,-0.07 -0.77,0.2 -0.84,0.59 -0.07,0.39 0.2,0.77 0.59,0.84 z"
               id="path66" />
          </g>
          <g
             id="g76">
            <path
               class="cls-2"
               d="m 299.08,389.12 c 0.4,0.07 0.77,-0.2 0.84,-0.59 0.07,-0.39 -0.2,-0.77 -0.59,-0.84 -0.39,-0.07 -0.77,0.2 -0.84,0.59 -0.07,0.39 0.2,0.77 0.59,0.84 z"
               id="path70" />
            <path
               class="cls-2"
               d="m 299.7,385.57 c 0.4,0.07 0.77,-0.2 0.84,-0.59 0.07,-0.39 -0.2,-0.77 -0.59,-0.84 -0.39,-0.07 -0.77,0.2 -0.84,0.59 -0.07,0.39 0.2,0.77 0.59,0.84 z"
               id="path72" />
            <path
               class="cls-2"
               d="m 300.31,382.02 c 0.4,0.07 0.77,-0.2 0.84,-0.59 0.07,-0.39 -0.2,-0.77 -0.59,-0.84 -0.39,-0.07 -0.77,0.2 -0.84,0.59 -0.07,0.39 0.2,0.77 0.59,0.84 z"
               id="path74" />
          </g>
          <g
             id="g84">
            <path
               class="cls-2"
               d="m 311.05,417.85 c 0.4,0.07 0.66,0.45 0.59,0.84 -0.07,0.39 -0.45,0.66 -0.84,0.59 -0.39,-0.07 -0.66,-0.45 -0.59,-0.84 0.07,-0.39 0.45,-0.66 0.84,-0.59 z"
               id="path78" />
            <path
               class="cls-2"
               d="m 310.43,421.4 c 0.4,0.07 0.66,0.45 0.59,0.84 -0.07,0.39 -0.45,0.66 -0.84,0.59 -0.39,-0.07 -0.66,-0.45 -0.59,-0.84 0.07,-0.39 0.45,-0.66 0.84,-0.59 z"
               id="path80" />
            <path
               class="cls-2"
               d="m 309.81,424.95 c 0.4,0.07 0.66,0.45 0.59,0.84 -0.07,0.39 -0.45,0.66 -0.84,0.59 -0.39,-0.07 -0.66,-0.45 -0.59,-0.84 0.07,-0.39 0.45,-0.66 0.84,-0.59 z"
               id="path82" />
          </g>
          <g
             id="g94">
            <path
               class="cls-2"
               d="m 307.75,417.27 c 0.4,0.07 0.66,0.45 0.59,0.84 -0.07,0.39 -0.45,0.66 -0.84,0.59 -0.39,-0.07 -0.66,-0.45 -0.59,-0.84 0.07,-0.39 0.45,-0.66 0.84,-0.59 z"
               id="path86" />
            <path
               class="cls-2"
               d="m 307.13,420.82 c 0.4,0.07 0.66,0.45 0.59,0.84 -0.07,0.39 -0.45,0.66 -0.84,0.59 -0.39,-0.07 -0.66,-0.45 -0.59,-0.84 0.07,-0.39 0.45,-0.66 0.84,-0.59 z"
               id="path88" />
            <path
               class="cls-2"
               d="m 306.51,424.37 c 0.4,0.07 0.66,0.45 0.59,0.84 -0.07,0.39 -0.45,0.66 -0.84,0.59 -0.39,-0.07 -0.66,-0.45 -0.59,-0.84 0.07,-0.39 0.45,-0.66 0.84,-0.59 z"
               id="path90" />
            <path
               class="cls-2"
               d="m 305.89,427.92 c 0.4,0.07 0.66,0.45 0.59,0.84 -0.07,0.39 -0.45,0.66 -0.84,0.59 -0.39,-0.07 -0.66,-0.45 -0.59,-0.84 0.07,-0.39 0.45,-0.66 0.84,-0.59 z"
               id="path92" />
          </g>
          <g
             id="g104">
            <path
               class="cls-2"
               d="m 304.46,416.7 c 0.4,0.07 0.66,0.45 0.59,0.84 -0.07,0.39 -0.45,0.66 -0.84,0.59 -0.39,-0.07 -0.66,-0.45 -0.59,-0.84 0.07,-0.39 0.45,-0.66 0.84,-0.59 z"
               id="path96" />
            <path
               class="cls-2"
               d="m 303.84,420.25 c 0.4,0.07 0.66,0.45 0.59,0.84 -0.07,0.39 -0.45,0.66 -0.84,0.59 -0.39,-0.07 -0.66,-0.45 -0.59,-0.84 0.07,-0.39 0.45,-0.66 0.84,-0.59 z"
               id="path98" />
            <path
               class="cls-2"
               d="m 303.22,423.8 c 0.4,0.07 0.66,0.45 0.59,0.84 -0.07,0.39 -0.45,0.66 -0.84,0.59 -0.39,-0.07 -0.66,-0.45 -0.59,-0.84 0.07,-0.39 0.45,-0.66 0.84,-0.59 z"
               id="path100" />
            <path
               class="cls-2"
               d="m 302.6,427.35 c 0.4,0.07 0.66,0.45 0.59,0.84 -0.07,0.39 -0.45,0.66 -0.84,0.59 -0.39,-0.07 -0.66,-0.45 -0.59,-0.84 0.07,-0.39 0.45,-0.66 0.84,-0.59 z"
               id="path102" />
          </g>
          <g
             id="g114">
            <path
               class="cls-2"
               d="m 301.16,416.12 c 0.4,0.07 0.66,0.45 0.59,0.84 -0.07,0.39 -0.45,0.66 -0.84,0.59 -0.39,-0.07 -0.66,-0.45 -0.59,-0.84 0.07,-0.39 0.45,-0.66 0.84,-0.59 z"
               id="path106" />
            <path
               class="cls-2"
               d="m 300.54,419.67 c 0.4,0.07 0.66,0.45 0.59,0.84 -0.07,0.39 -0.45,0.66 -0.84,0.59 -0.39,-0.07 -0.66,-0.45 -0.59,-0.84 0.07,-0.39 0.45,-0.66 0.84,-0.59 z"
               id="path108" />
            <path
               class="cls-2"
               d="m 299.92,423.22 c 0.4,0.07 0.66,0.45 0.59,0.84 -0.07,0.39 -0.45,0.66 -0.84,0.59 -0.39,-0.07 -0.66,-0.45 -0.59,-0.84 0.07,-0.39 0.45,-0.66 0.84,-0.59 z"
               id="path110" />
            <path
               class="cls-2"
               d="m 299.3,426.77 c 0.4,0.07 0.66,0.45 0.59,0.84 -0.07,0.39 -0.45,0.66 -0.84,0.59 -0.39,-0.07 -0.66,-0.45 -0.59,-0.84 0.07,-0.39 0.45,-0.66 0.84,-0.59 z"
               id="path112" />
          </g>
          <g
             id="g124">
            <path
               class="cls-2"
               d="m 297.86,415.55 c 0.4,0.07 0.66,0.45 0.59,0.84 -0.07,0.39 -0.45,0.66 -0.84,0.59 -0.39,-0.07 -0.66,-0.45 -0.59,-0.84 0.07,-0.39 0.45,-0.66 0.84,-0.59 z"
               id="path116" />
            <path
               class="cls-2"
               d="m 297.24,419.1 c 0.4,0.07 0.66,0.45 0.59,0.84 -0.07,0.39 -0.45,0.66 -0.84,0.59 -0.39,-0.07 -0.66,-0.45 -0.59,-0.84 0.07,-0.39 0.45,-0.66 0.84,-0.59 z"
               id="path118" />
            <path
               class="cls-2"
               d="m 296.63,422.65 c 0.4,0.07 0.66,0.45 0.59,0.84 -0.07,0.39 -0.45,0.66 -0.84,0.59 -0.39,-0.07 -0.66,-0.45 -0.59,-0.84 0.07,-0.39 0.45,-0.66 0.84,-0.59 z"
               id="path120" />
            <path
               class="cls-2"
               d="m 296.01,426.2 c 0.4,0.07 0.66,0.45 0.59,0.84 -0.07,0.39 -0.45,0.66 -0.84,0.59 -0.39,-0.07 -0.66,-0.45 -0.59,-0.84 0.07,-0.39 0.45,-0.66 0.84,-0.59 z"
               id="path122" />
          </g>
          <g
             id="g132">
            <path
               class="cls-2"
               d="m 294.57,414.97 c 0.4,0.07 0.66,0.45 0.59,0.84 -0.07,0.39 -0.45,0.66 -0.84,0.59 -0.39,-0.07 -0.66,-0.45 -0.59,-0.84 0.07,-0.39 0.45,-0.66 0.84,-0.59 z"
               id="path126" />
            <path
               class="cls-2"
               d="m 293.95,418.52 c 0.4,0.07 0.66,0.45 0.59,0.84 -0.07,0.39 -0.45,0.66 -0.84,0.59 -0.39,-0.07 -0.66,-0.45 -0.59,-0.84 0.07,-0.39 0.45,-0.66 0.84,-0.59 z"
               id="path128" />
            <path
               class="cls-2"
               d="m 293.33,422.07 c 0.4,0.07 0.66,0.45 0.59,0.84 -0.07,0.39 -0.45,0.66 -0.84,0.59 -0.39,-0.07 -0.66,-0.45 -0.59,-0.84 0.07,-0.39 0.45,-0.66 0.84,-0.59 z"
               id="path130" />
          </g>
        </g>
        <g
           id="g254">
          <rect
             class="cls-1"
             x="258.20999"
             y="395"
             width="65.190002"
             height="25.73"
             rx="8.3699999"
             ry="8.3699999"
             transform="rotate(50.39,290.80122,407.82808)"
             id="rect136"
             style="fill:url(#linear-gradient-2)" />
          <rect
             class="cls-2"
             x="281.70999"
             y="398.78"
             width="18.190001"
             height="18.190001"
             rx="2.25"
             ry="2.25"
             transform="rotate(50.39,290.80122,407.82808)"
             id="rect138" />
          <rect
             class="cls-3"
             x="285.79001"
             y="402.85001"
             width="10.04"
             height="10.04"
             rx="1.09"
             ry="1.09"
             transform="rotate(50.39,290.80122,407.82808)"
             id="rect140" />
          <g
             id="g148">
            <path
               class="cls-2"
               d="m 288.88,392.43 c 0.31,-0.26 0.35,-0.72 0.1,-1.03 -0.25,-0.31 -0.72,-0.35 -1.03,-0.1 -0.31,0.25 -0.35,0.72 -0.1,1.03 0.25,0.31 0.72,0.35 1.03,0.1 z"
               id="path142" />
            <path
               class="cls-2"
               d="m 286.58,389.65 c 0.31,-0.26 0.35,-0.72 0.1,-1.03 -0.25,-0.31 -0.72,-0.35 -1.03,-0.1 -0.31,0.25 -0.35,0.72 -0.1,1.03 0.25,0.31 0.72,0.35 1.03,0.1 z"
               id="path144" />
            <path
               class="cls-2"
               d="m 284.28,386.87 c 0.31,-0.26 0.35,-0.72 0.1,-1.03 -0.25,-0.31 -0.72,-0.35 -1.03,-0.1 -0.31,0.25 -0.35,0.72 -0.1,1.03 0.25,0.31 0.72,0.35 1.03,0.1 z"
               id="path146" />
          </g>
          <g
             id="g158">
            <path
               class="cls-2"
               d="m 286.3,394.56 c 0.31,-0.26 0.35,-0.72 0.1,-1.03 -0.25,-0.31 -0.72,-0.35 -1.03,-0.1 -0.31,0.25 -0.35,0.72 -0.1,1.03 0.25,0.31 0.72,0.35 1.03,0.1 z"
               id="path150" />
            <path
               class="cls-2"
               d="m 284,391.78 c 0.31,-0.26 0.35,-0.72 0.1,-1.03 -0.25,-0.31 -0.72,-0.35 -1.03,-0.1 -0.31,0.25 -0.35,0.72 -0.1,1.03 0.25,0.31 0.72,0.35 1.03,0.1 z"
               id="path152" />
            <path
               class="cls-2"
               d="m 281.71,389.01 c 0.31,-0.26 0.35,-0.72 0.1,-1.03 -0.25,-0.31 -0.72,-0.35 -1.03,-0.1 -0.31,0.25 -0.35,0.72 -0.1,1.03 0.25,0.31 0.72,0.35 1.03,0.1 z"
               id="path154" />
            <path
               class="cls-2"
               d="m 279.41,386.23 c 0.31,-0.26 0.35,-0.72 0.1,-1.03 -0.25,-0.31 -0.72,-0.35 -1.03,-0.1 -0.31,0.25 -0.35,0.72 -0.1,1.03 0.25,0.31 0.72,0.35 1.03,0.1 z"
               id="path156" />
          </g>
          <g
             id="g168">
            <path
               class="cls-2"
               d="m 283.72,396.69 c 0.31,-0.26 0.35,-0.72 0.1,-1.03 -0.25,-0.31 -0.72,-0.35 -1.03,-0.1 -0.31,0.25 -0.35,0.72 -0.1,1.03 0.25,0.31 0.72,0.35 1.03,0.1 z"
               id="path160" />
            <path
               class="cls-2"
               d="m 281.43,393.92 c 0.31,-0.26 0.35,-0.72 0.1,-1.03 -0.25,-0.31 -0.72,-0.35 -1.03,-0.1 -0.31,0.25 -0.35,0.72 -0.1,1.03 0.25,0.31 0.72,0.35 1.03,0.1 z"
               id="path162" />
            <path
               class="cls-2"
               d="m 279.13,391.14 c 0.31,-0.26 0.35,-0.72 0.1,-1.03 -0.25,-0.31 -0.72,-0.35 -1.03,-0.1 -0.31,0.25 -0.35,0.72 -0.1,1.03 0.25,0.31 0.72,0.35 1.03,0.1 z"
               id="path164" />
            <path
               class="cls-2"
               d="m 276.83,388.36 c 0.31,-0.26 0.35,-0.72 0.1,-1.03 -0.25,-0.31 -0.72,-0.35 -1.03,-0.1 -0.31,0.25 -0.35,0.72 -0.1,1.03 0.25,0.31 0.72,0.35 1.03,0.1 z"
               id="path166" />
          </g>
          <g
             id="g178">
            <path
               class="cls-2"
               d="m 281.15,398.82 c 0.31,-0.26 0.35,-0.72 0.1,-1.03 -0.25,-0.31 -0.72,-0.35 -1.03,-0.1 -0.31,0.25 -0.35,0.72 -0.1,1.03 0.25,0.31 0.72,0.35 1.03,0.1 z"
               id="path170" />
            <path
               class="cls-2"
               d="m 278.85,396.05 c 0.31,-0.26 0.35,-0.72 0.1,-1.03 -0.25,-0.31 -0.72,-0.35 -1.03,-0.1 -0.31,0.25 -0.35,0.72 -0.1,1.03 0.25,0.31 0.72,0.35 1.03,0.1 z"
               id="path172" />
            <path
               class="cls-2"
               d="m 276.55,393.27 c 0.31,-0.26 0.35,-0.72 0.1,-1.03 -0.25,-0.31 -0.72,-0.35 -1.03,-0.1 -0.31,0.25 -0.35,0.72 -0.1,1.03 0.25,0.31 0.72,0.35 1.03,0.1 z"
               id="path174" />
            <path
               class="cls-2"
               d="m 274.26,390.5 c 0.31,-0.26 0.35,-0.72 0.1,-1.03 -0.25,-0.31 -0.72,-0.35 -1.03,-0.1 -0.31,0.25 -0.35,0.72 -0.1,1.03 0.25,0.31 0.72,0.35 1.03,0.1 z"
               id="path176" />
          </g>
          <g
             id="g188">
            <path
               class="cls-2"
               d="m 278.57,400.96 c 0.31,-0.26 0.35,-0.72 0.1,-1.03 -0.25,-0.31 -0.72,-0.35 -1.03,-0.1 -0.31,0.25 -0.35,0.72 -0.1,1.03 0.25,0.31 0.72,0.35 1.03,0.1 z"
               id="path180" />
            <path
               class="cls-2"
               d="m 276.27,398.18 c 0.31,-0.26 0.35,-0.72 0.1,-1.03 -0.25,-0.31 -0.72,-0.35 -1.03,-0.1 -0.31,0.25 -0.35,0.72 -0.1,1.03 0.25,0.31 0.72,0.35 1.03,0.1 z"
               id="path182" />
            <path
               class="cls-2"
               d="m 273.98,395.41 c 0.31,-0.26 0.35,-0.72 0.1,-1.03 -0.25,-0.31 -0.72,-0.35 -1.03,-0.1 -0.31,0.25 -0.35,0.72 -0.1,1.03 0.25,0.31 0.72,0.35 1.03,0.1 z"
               id="path184" />
            <path
               class="cls-2"
               d="m 271.68,392.63 c 0.31,-0.26 0.35,-0.72 0.1,-1.03 -0.25,-0.31 -0.72,-0.35 -1.03,-0.1 -0.31,0.25 -0.35,0.72 -0.1,1.03 0.25,0.31 0.72,0.35 1.03,0.1 z"
               id="path186" />
          </g>
          <g
             id="g196">
            <path
               class="cls-2"
               d="m 275.99,403.09 c 0.31,-0.26 0.35,-0.72 0.1,-1.03 -0.25,-0.31 -0.72,-0.35 -1.03,-0.1 -0.31,0.25 -0.35,0.72 -0.1,1.03 0.25,0.31 0.72,0.35 1.03,0.1 z"
               id="path190" />
            <path
               class="cls-2"
               d="m 273.7,400.31 c 0.31,-0.26 0.35,-0.72 0.1,-1.03 -0.25,-0.31 -0.72,-0.35 -1.03,-0.1 -0.31,0.25 -0.35,0.72 -0.1,1.03 0.25,0.31 0.72,0.35 1.03,0.1 z"
               id="path192" />
            <path
               class="cls-2"
               d="m 271.4,397.54 c 0.31,-0.26 0.35,-0.72 0.1,-1.03 -0.25,-0.31 -0.72,-0.35 -1.03,-0.1 -0.31,0.25 -0.35,0.72 -0.1,1.03 0.25,0.31 0.72,0.35 1.03,0.1 z"
               id="path194" />
          </g>
          <g
             id="g204">
            <path
               class="cls-2"
               d="m 305.61,412.65 c 0.31,-0.26 0.77,-0.21 1.03,0.1 0.26,0.31 0.21,0.77 -0.1,1.03 -0.31,0.26 -0.77,0.21 -1.03,-0.1 -0.26,-0.31 -0.21,-0.77 0.1,-1.03 z"
               id="path198" />
            <path
               class="cls-2"
               d="m 307.91,415.42 c 0.31,-0.26 0.77,-0.21 1.03,0.1 0.26,0.31 0.21,0.77 -0.1,1.03 -0.31,0.26 -0.77,0.21 -1.03,-0.1 -0.26,-0.31 -0.21,-0.77 0.1,-1.03 z"
               id="path200" />
            <path
               class="cls-2"
               d="m 310.21,418.2 c 0.31,-0.26 0.77,-0.21 1.03,0.1 0.26,0.31 0.21,0.77 -0.1,1.03 -0.31,0.26 -0.77,0.21 -1.03,-0.1 -0.26,-0.31 -0.21,-0.77 0.1,-1.03 z"
               id="path202" />
          </g>
          <g
             id="g214">
            <path
               class="cls-2"
               d="m 303.04,414.78 c 0.31,-0.26 0.77,-0.21 1.03,0.1 0.26,0.31 0.21,0.77 -0.1,1.03 -0.31,0.26 -0.77,0.21 -1.03,-0.1 -0.26,-0.31 -0.21,-0.77 0.1,-1.03 z"
               id="path206" />
            <path
               class="cls-2"
               d="m 305.33,417.55 c 0.31,-0.26 0.77,-0.21 1.03,0.1 0.26,0.31 0.21,0.77 -0.1,1.03 -0.31,0.26 -0.77,0.21 -1.03,-0.1 -0.26,-0.31 -0.21,-0.77 0.1,-1.03 z"
               id="path208" />
            <path
               class="cls-2"
               d="m 307.63,420.33 c 0.31,-0.26 0.77,-0.21 1.03,0.1 0.26,0.31 0.21,0.77 -0.1,1.03 -0.31,0.26 -0.77,0.21 -1.03,-0.1 -0.26,-0.31 -0.21,-0.77 0.1,-1.03 z"
               id="path210" />
            <path
               class="cls-2"
               d="m 309.93,423.11 c 0.31,-0.26 0.77,-0.21 1.03,0.1 0.26,0.31 0.21,0.77 -0.1,1.03 -0.31,0.26 -0.77,0.21 -1.03,-0.1 -0.26,-0.31 -0.21,-0.77 0.1,-1.03 z"
               id="path212" />
          </g>
          <g
             id="g224">
            <path
               class="cls-2"
               d="m 300.46,416.91 c 0.31,-0.26 0.77,-0.21 1.03,0.1 0.26,0.31 0.21,0.77 -0.1,1.03 -0.31,0.26 -0.77,0.21 -1.03,-0.1 -0.26,-0.31 -0.21,-0.77 0.1,-1.03 z"
               id="path216" />
            <path
               class="cls-2"
               d="m 302.76,419.69 c 0.31,-0.26 0.77,-0.21 1.03,0.1 0.26,0.31 0.21,0.77 -0.1,1.03 -0.31,0.26 -0.77,0.21 -1.03,-0.1 -0.26,-0.31 -0.21,-0.77 0.1,-1.03 z"
               id="path218" />
            <path
               class="cls-2"
               d="m 305.05,422.46 c 0.31,-0.26 0.77,-0.21 1.03,0.1 0.26,0.31 0.21,0.77 -0.1,1.03 -0.31,0.26 -0.77,0.21 -1.03,-0.1 -0.26,-0.31 -0.21,-0.77 0.1,-1.03 z"
               id="path220" />
            <path
               class="cls-2"
               d="m 307.35,425.24 c 0.31,-0.26 0.77,-0.21 1.03,0.1 0.26,0.31 0.21,0.77 -0.1,1.03 -0.31,0.26 -0.77,0.21 -1.03,-0.1 -0.26,-0.31 -0.21,-0.77 0.1,-1.03 z"
               id="path222" />
          </g>
          <g
             id="g234">
            <path
               class="cls-2"
               d="m 297.88,419.05 c 0.31,-0.26 0.77,-0.21 1.03,0.1 0.26,0.31 0.21,0.77 -0.1,1.03 -0.31,0.26 -0.77,0.21 -1.03,-0.1 -0.26,-0.31 -0.21,-0.77 0.1,-1.03 z"
               id="path226" />
            <path
               class="cls-2"
               d="m 300.18,421.82 c 0.31,-0.26 0.77,-0.21 1.03,0.1 0.26,0.31 0.21,0.77 -0.1,1.03 -0.31,0.26 -0.77,0.21 -1.03,-0.1 -0.26,-0.31 -0.21,-0.77 0.1,-1.03 z"
               id="path228" />
            <path
               class="cls-2"
               d="m 302.48,424.6 c 0.31,-0.26 0.77,-0.21 1.03,0.1 0.26,0.31 0.21,0.77 -0.1,1.03 -0.31,0.26 -0.77,0.21 -1.03,-0.1 -0.26,-0.31 -0.21,-0.77 0.1,-1.03 z"
               id="path230" />
            <path
               class="cls-2"
               d="m 304.77,427.37 c 0.31,-0.26 0.77,-0.21 1.03,0.1 0.26,0.31 0.21,0.77 -0.1,1.03 -0.31,0.26 -0.77,0.21 -1.03,-0.1 -0.26,-0.31 -0.21,-0.77 0.1,-1.03 z"
               id="path232" />
          </g>
          <g
             id="g244">
            <path
               class="cls-2"
               d="m 295.31,421.18 c 0.31,-0.26 0.77,-0.21 1.03,0.1 0.26,0.31 0.21,0.77 -0.1,1.03 -0.31,0.26 -0.77,0.21 -1.03,-0.1 -0.26,-0.31 -0.21,-0.77 0.1,-1.03 z"
               id="path236" />
            <path
               class="cls-2"
               d="m 297.6,423.95 c 0.31,-0.26 0.77,-0.21 1.03,0.1 0.26,0.31 0.21,0.77 -0.1,1.03 -0.31,0.26 -0.77,0.21 -1.03,-0.1 -0.26,-0.31 -0.21,-0.77 0.1,-1.03 z"
               id="path238" />
            <path
               class="cls-2"
               d="m 299.9,426.73 c 0.31,-0.26 0.77,-0.21 1.03,0.1 0.26,0.31 0.21,0.77 -0.1,1.03 -0.31,0.26 -0.77,0.21 -1.03,-0.1 -0.26,-0.31 -0.21,-0.77 0.1,-1.03 z"
               id="path240" />
            <path
               class="cls-2"
               d="m 302.2,429.5 c 0.31,-0.26 0.77,-0.21 1.03,0.1 0.26,0.31 0.21,0.77 -0.1,1.03 -0.31,0.26 -0.77,0.21 -1.03,-0.1 -0.26,-0.31 -0.21,-0.77 0.1,-1.03 z"
               id="path242" />
          </g>
          <g
             id="g252">
            <path
               class="cls-2"
               d="m 292.73,423.31 c 0.31,-0.26 0.77,-0.21 1.03,0.1 0.26,0.31 0.21,0.77 -0.1,1.03 -0.31,0.26 -0.77,0.21 -1.03,-0.1 -0.26,-0.31 -0.21,-0.77 0.1,-1.03 z"
               id="path246" />
            <path
               class="cls-2"
               d="m 295.03,426.09 c 0.31,-0.26 0.77,-0.21 1.03,0.1 0.26,0.31 0.21,0.77 -0.1,1.03 -0.31,0.26 -0.77,0.21 -1.03,-0.1 -0.26,-0.31 -0.21,-0.77 0.1,-1.03 z"
               id="path248" />
            <path
               class="cls-2"
               d="m 297.32,428.86 c 0.31,-0.26 0.77,-0.21 1.03,0.1 0.26,0.31 0.21,0.77 -0.1,1.03 -0.31,0.26 -0.77,0.21 -1.03,-0.1 -0.26,-0.31 -0.21,-0.77 0.1,-1.03 z"
               id="path250" />
          </g>
        </g>
      </g>
    </g>
  </g>
</svg>
