<?xml version="1.0" encoding="UTF-8" standalone="no"?>
<svg
   height="1024"
   id="svg25"
   inkscape:version="1.1.2 (0a00cf5339, 2022-02-04)"
   sodipodi:docname="handschen.svg"
   version="1.1"
   viewBox="0 0 1024 1024"
   width="1024"
   inkscape:export-filename="handchen.png"
   inkscape:export-xdpi="96"
   inkscape:export-ydpi="96"
   xmlns:inkscape="http://www.inkscape.org/namespaces/inkscape"
   xmlns:sodipodi="http://sodipodi.sourceforge.net/DTD/sodipodi-0.dtd"
   xmlns="http://www.w3.org/2000/svg"
   xmlns:svg="http://www.w3.org/2000/svg">
  <sodipodi:namedview
     bordercolor="#999999"
     borderopacity="1"
     id="namedview27"
     inkscape:current-layer="svg25"
     inkscape:cx="457.94017"
     inkscape:cy="550.92803"
     inkscape:deskcolor="#d1d1d1"
     inkscape:pagecheckerboard="0"
     inkscape:pageopacity="0"
     inkscape:showpageshadow="0"
     inkscape:window-height="1016"
     inkscape:window-maximized="1"
     inkscape:window-width="1920"
     inkscape:window-x="0"
     inkscape:window-y="0"
     inkscape:zoom="0.50006532"
     pagecolor="#ffffff"
     showgrid="false"
     inkscape:pageshadow="0" />
  <defs
     id="defs14">
    <style
       id="style2">.cls-1 {
        fill: url(#linear-gradient-2);
      }

      .cls-2 {
        fill: url(#linear-gradient);
      }
    </style>
    <linearGradient
       gradientTransform="matrix(-0.30602764,-0.95202263,-0.95202263,0.30602764,-427.86,-4573.96)"
       gradientUnits="userSpaceOnUse"
       id="linear-gradient"
       x1="-5000.9199"
       x2="-4909.0898"
       y1="849.28998"
       y2="851.09998">
      <stop
         id="stop4"
         offset="0"
         stop-color="#6bb0bc" />
      <stop
         id="stop6"
         offset=".29"
         stop-color="#167684" />
    </linearGradient>
    <linearGradient
       gradientTransform="rotate(-85.09,-2044.5603,-1918.3343)"
       gradientUnits="userSpaceOnUse"
       id="linear-gradient-2"
       x1="-4185.8799"
       x2="-4094.04"
       y1="621.21997"
       y2="623.03003">
      <stop
         id="stop9"
         offset="0"
         stop-color="#6bb0bc" />
      <stop
         id="stop11"
         offset="1"
         stop-color="#167684" />
    </linearGradient>
    <filter
       style="color-interpolation-filters:sRGB;"
       inkscape:label="Drop Shadow"
       id="filter308"
       x="-0.14494818"
       y="-0.10258567"
       width="1.318781"
       height="1.2256141">
      <feFlood
         flood-opacity="0.501961"
         flood-color="rgb(0,0,0)"
         result="flood"
         id="feFlood298" />
      <feComposite
         in="flood"
         in2="SourceGraphic"
         operator="in"
         result="composite1"
         id="feComposite300" />
      <feGaussianBlur
         in="composite1"
         stdDeviation="4.6"
         result="blur"
         id="feGaussianBlur302" />
      <feOffset
         dx="2.2"
         dy="2.2"
         result="offset"
         id="feOffset304" />
      <feComposite
         in="SourceGraphic"
         in2="offset"
         operator="over"
         result="composite2"
         id="feComposite306" />
    </filter>
  </defs>
  <!-- Generator: Adobe Illustrator 28.7.3, SVG Export Plug-In . SVG Version: 1.2.0 Build 164)  -->
  <g
     id="g23"
     transform="matrix(9.2673533,0,0,9.2673533,-2201.1563,-3234.0005)">
    <g
       id="Layer_1">
      <g
         id="g20">
        <path
           class="cls-2"
           d="m 269.63,360.78 11.08,34.46 2.36,-0.76 -9.3,-28.92 c -0.62,-1.93 0.34,-4.29 2.24,-5.01 2.09,-0.79 4.39,0.33 5.07,2.43 l 9.37,29.13 2.36,-0.76 -6.77,-21.05 c -0.62,-1.93 0.34,-4.29 2.24,-5.01 2.09,-0.79 4.39,0.33 5.07,2.43 l 6.83,21.26 11.97,37.25 c 0.6,1.87 0.78,3.84 0.54,5.79 l -1.17,9.28 2.07,6.43 c 0.5,1.54 -0.35,3.19 -1.89,3.69 l -20.09,6.46 c -1.54,0.5 -3.19,-0.35 -3.69,-1.89 l -2.52,-7.84 -8.9,-7.32 c 0,0 -13.44,-7.84 -16.65,-17.83 l -4.39,-13.66 c -0.4,-1.25 0.43,-2.57 1.74,-2.7 2.46,-0.25 6.12,0.34 7.75,5.41 1.05,3.25 2.63,4.9 4.14,5.72 l -5.47,-17.01 -8.75,-27.23 c -0.62,-1.93 0.34,-4.29 2.24,-5.01 2.09,-0.79 4.39,0.33 5.07,2.43 l 8.82,27.43 2.36,-0.76 -11.08,-34.46 c -0.65,-2.04 0.47,-4.22 2.5,-4.87 v 0 c 2.04,-0.65 4.22,0.47 4.87,2.5 z"
           id="path16"
           style="fill:url(#linear-gradient)" />
        <path
           class="cls-1"
           d="m 306.17,353.94 -3.1,36.06 -2.47,-0.21 2.6,-30.27 c 0.17,-2.02 -1.29,-4.11 -3.3,-4.38 -2.22,-0.31 -4.21,1.3 -4.4,3.5 l -2.62,30.49 -2.47,-0.21 1.89,-22.03 c 0.17,-2.02 -1.29,-4.11 -3.3,-4.38 -2.22,-0.31 -4.21,1.3 -4.4,3.5 l -1.91,22.25 -3.35,38.98 c -0.17,1.95 0.09,3.92 0.77,5.77 l 3.22,8.78 -0.58,6.73 c -0.14,1.61 1.06,3.03 2.67,3.17 l 21.03,1.81 c 1.61,0.14 3.03,-1.06 3.17,-2.67 l 0.7,-8.2 7.04,-9.13 c 0,0 11.35,-10.64 12.25,-21.1 l 1.23,-14.3 c 0.11,-1.31 -1,-2.41 -2.3,-2.25 -2.45,0.31 -5.89,1.69 -6.34,7 -0.29,3.4 -1.47,5.37 -2.76,6.5 l 1.53,-17.81 2.45,-28.49 c 0.17,-2.02 -1.29,-4.11 -3.3,-4.38 -2.22,-0.31 -4.21,1.3 -4.4,3.5 l -2.47,28.71 -2.47,-0.21 3.1,-36.06 c 0.18,-2.13 -1.4,-4.01 -3.53,-4.19 v 0 c -2.13,-0.18 -4.01,1.4 -4.19,3.53 z"
           id="path18"
           style="fill:url(#linear-gradient-2)" />
      </g>
    </g>
  </g>
</svg>
