<?xml version="1.0" encoding="UTF-8" standalone="no"?>
<svg
   id="Layer_1"
   data-name="Layer 1"
   viewBox="0 0 1024 780"
   version="1.1"
   sodipodi:docname="klinik.svg"
   inkscape:export-filename="/home/pcy113/workspaces/rescue_rush/board-game/generated/source/klinik.png"
   inkscape:export-xdpi="194.75"
   inkscape:export-ydpi="194.75"
   inkscape:version="1.1.2 (0a00cf5339, 2022-02-04)"
   width="1024"
   height="780"
   xmlns:inkscape="http://www.inkscape.org/namespaces/inkscape"
   xmlns:sodipodi="http://sodipodi.sourceforge.net/DTD/sodipodi-0.dtd"
   xmlns="http://www.w3.org/2000/svg"
   xmlns:svg="http://www.w3.org/2000/svg">
  <sodipodi:namedview
     id="namedview129"
     pagecolor="#ffffff"
     bordercolor="#111111"
     borderopacity="1"
     inkscape:pageshadow="0"
     inkscape:pageopacity="0"
     inkscape:pagecheckerboard="1"
     showgrid="false"
     inkscape:zoom="0.32583334"
     inkscape:cx="358.92691"
     inkscape:cy="766.29984"
     inkscape:window-width="1920"
     inkscape:window-height="1016"
     inkscape:window-x="0"
     inkscape:window-y="0"
     inkscape:window-maximized="1"
     inkscape:current-layer="Layer_1"
     inkscape:rotation="-2" />
  <defs
     id="defs4">
    <style
       id="style2">
      .cls-1 {
        fill: #c1cb30;
      }

      .cls-2 {
        fill: #fff;
      }

      .cls-3 {
        fill: #e12228;
      }

      .cls-4 {
        fill: #1f9cd8;
      }

      .cls-5 {
        fill: #b02024;
      }

      .cls-6 {
        fill: #d1d3d4;
      }

      .cls-7 {
        fill: #1c7dae;
      }

      .cls-8 {
        fill: #010101;
      }

      .cls-9 {
        fill: #bcbec0;
      }

      .cls-10 {
        fill: #d4df30;
      }
    </style>
    <filter
       style="color-interpolation-filters:sRGB"
       inkscape:label="Drop Shadow"
       id="filter2621"
       x="-0.018996042"
       y="-0.036848903"
       width="1.0417775"
       height="1.0810409">
      <feFlood
         flood-opacity="0.5"
         flood-color="rgb(0,0,0)"
         result="flood"
         id="feFlood2611" />
      <feComposite
         in="flood"
         in2="SourceGraphic"
         operator="in"
         result="composite1"
         id="feComposite2613" />
      <feGaussianBlur
         in="composite1"
         stdDeviation="4.5999999999999996"
         result="blur"
         id="feGaussianBlur2615" />
      <feOffset
         dx="2.2000000000000002"
         dy="2.2"
         result="offset"
         id="feOffset2617" />
      <feComposite
         in="SourceGraphic"
         in2="offset"
         operator="over"
         result="composite2"
         id="feComposite2619" />
    </filter>
  </defs>
  <g
     id="g2543"
     transform="matrix(1.6673741,0,0,1.6673741,9.9344421,-104.95804)">
    <polygon
       class="cls-3"
       points="31.12,311.37 152.89,311.89 150.92,350.17 32.19,358.66 33.12,399.67 170.9,396.54 181.86,351.02 153.76,350.18 157.62,311.78 341.8,313.84 339.33,205.47 326.27,196.02 280.09,229.39 310.36,229.35 314.17,271.22 255.82,269.92 282.38,226.69 339.12,199.53 167.25,199.63 148.1,225.96 243.17,223.79 236.12,241.04 220.17,264.14 213.06,272.46 110.38,271.22 30.89,301.34 "
       id="polygon6"
       transform="matrix(1.0426823,0,0,1.0426823,-12.805177,-12.623235)" />
    <polyline
       class="cls-3"
       points="249.96 350.28 263.13 389.17 335.17 384.26 336.29 348.32 249.96 350.28"
       id="polyline8"
       transform="matrix(1.0426823,0,0,1.0426823,-12.805177,-12.623235)" />
    <path
       class="cls-3"
       d="m 344.44905,352.96203 -4.25414,32.38571 58.4632,-1.32421 18.51803,5.59921 c 0,0 13.17951,-8.51872 14.44115,-8.33103 1.26165,0.18768 12.17853,-18.97682 12.17853,-18.97682 l 23.22054,-21.71907 c 0,0 14.40987,-1.97067 16.77675,-1.71 2.36689,0.26067 15.53597,2.74225 16.56823,3.47213 1.02182,0.72988 24.50303,22.14657 24.50303,22.14657 0,0 8.82109,12.40792 9.85335,13.39847 1.03225,0.99055 39.38211,1.37634 39.38211,1.37634 l 3.00292,-58.08783 5.29683,-153.88948 -128.85468,-9.02963 -117.06194,-2.63798 2.11665,158.9152 67.98288,2.18963 c 0,0 58.41106,-43.19832 60.94478,-43.00021 2.53372,0.19811 -36.71284,60.36087 -36.71284,60.36087 0,0 -13.84682,23.29353 -19.90481,23.16841 -6.05798,-0.12513 -66.43971,-4.30628 -66.43971,-4.30628 z"
       id="path10"
       style="stroke-width:1.04268" />
    <polygon
       class="cls-10"
       points="460.66,274.64 410.93,309.47 388.74,314.34 149.93,311.88 156.33,349.43 184.9,348.08 209.8,336.58 246.15,348.08 407.01,352 "
       id="polygon12"
       transform="matrix(1.0426823,0,0,1.0426823,-12.805177,-12.623235)" />
    <polygon
       class="cls-2"
       points="148.07,229.97 148.1,225.96 243.17,223.79 216.17,268.82 105.77,274.9 "
       id="polygon14"
       transform="matrix(1.0426823,0,0,1.0426823,-12.805177,-12.623235)" />
    <polygon
       class="cls-2"
       points="311.76,275.28 257.94,271.42 284.39,229.01 313.12,226.54 "
       id="polygon16"
       transform="matrix(1.0426823,0,0,1.0426823,-12.805177,-12.623235)" />
    <polyline
       class="cls-2"
       points="35.09 315.19 53.55 312.07 64.22 347.72 56.23 358.11 32.19 358.66 31.48 327.49 35.09 315.19"
       id="polyline18"
       transform="matrix(1.0426823,0,0,1.0426823,-12.805177,-12.623235)" />
    <polygon
       class="cls-2"
       points="115.22,350.36 114.24,306.97 152.84,309.82 150.92,350.17 119.92,358.52 "
       id="polygon20"
       transform="matrix(1.0426823,0,0,1.0426823,-12.805177,-12.623235)" />
    <polyline
       class="cls-2"
       points="63.55 318.21 106.73 317.23 111.85 338.81 69.08 345.41 61.06 334.02 63.55 318.21"
       id="polyline22"
       transform="matrix(1.0426823,0,0,1.0426823,-12.805177,-12.623235)" />
    <circle
       class="cls-2"
       cx="484.86707"
       cy="386.68237"
       r="49.245884"
       id="circle24"
       style="stroke-width:1.04268" />
    <path
       class="cls-5"
       d="m 243.66338,226.49509 c 1.94982,1.40762 2.69012,5.2447 1.45976,7.30921 -4.9736,8.3206 -13.78426,26.89077 -20.43657,37.87022 -2.88823,4.77548 -7.36134,8.35188 -12.95012,8.39359 L 81.286472,283.4464 c 0,0 21.030898,-13.42975 23.022428,-14.51414 1.99152,-1.08439 108.66834,-0.64646 108.66834,-0.64646 l 24.81584,-48.17192 5.85988,6.38121 z"
       id="path26"
       style="stroke-width:1.04268" />
    <path
       class="cls-5"
       d="m 324.70065,267.19098 c -0.13555,1.83512 3.83707,4.53567 0.55262,14.08664 -1.13652,3.31573 -3.64939,5.43238 -6.44377,5.4428 l -51.57107,-0.1564 c -4.42097,0.0104 -8.14335,-3.3053 -8.63341,-7.695 -0.22939,-2.01237 -0.29195,-3.70152 0.0834,-3.96219 0.99054,-0.6986 62.33154,1.99152 62.33154,1.99152 l 3.70152,-9.70737 z"
       id="path28"
       style="stroke-width:1.04268" />
    <path
       class="cls-6"
       d="m 108.53176,347.73819 24.59688,-1.19909 c 1.84554,-0.0938 3.28444,-1.63701 3.24274,-3.48255 l -0.68817,-30.21694 c 0,0 4.63993,-2.52329 5.90158,1.20951 1.26164,3.73281 5.67219,10.80219 5.33853,11.91786 -0.33366,1.11567 -2.35646,26.53627 -2.35646,26.53627 0,0 0.14598,6.82957 -3.95177,7.14237 -4.09774,0.31281 -15.80706,1.75171 -17.4545,1.31378 -1.64744,-0.43793 -14.1909,-4.34798 -14.44115,-5.18213 -0.25024,-0.83415 -0.18768,-8.03908 -0.18768,-8.03908 z"
       id="path30"
       style="stroke-width:1.04268" />
    <path
       class="cls-6"
       d="m 13.084624,351.21032 27.912604,-1.36591 -0.761158,-33.54309 c 0,0 4.639937,-2.52329 5.901582,1.20951 1.261646,3.7328 5.672192,10.80219 5.338533,11.91786 -0.333658,1.11567 -2.356462,26.53626 -2.356462,26.53626 0,0 0.145976,6.82957 -3.951765,7.14238 -4.097742,0.3128 -15.807064,1.7517 -17.454502,1.31378 -1.657865,-0.4275 -14.190906,-4.34799 -14.441149,-5.18214 -0.250244,-0.83414 -0.187683,-8.03908 -0.187683,-8.03908 z"
       id="path32"
       style="stroke-width:1.04268" />
    <path
       class="cls-6"
       d="m 56.439353,339.52185 36.900526,-1.49103 -0.88628,-14.88951 c 0,0 4.639936,-2.52329 5.901582,1.20952 1.261645,3.7328 5.672189,10.80218 5.338529,11.91785 -0.33365,1.11567 -2.23134,7.88268 -2.23134,7.88268 0,0 0.14598,6.82957 -3.951762,7.14238 -4.097741,0.3128 -15.807063,1.7517 -17.454501,1.31378 -1.647438,-0.43793 -23.168401,-3.58683 -23.418644,-4.41055 -0.250244,-0.82372 -0.19811,-8.66469 -0.19811,-8.66469 z"
       id="path34"
       style="stroke-width:1.04268" />
    <path
       class="cls-6"
       d="m 111.12804,259.22489 c 1.4389,-0.13555 71.92422,-1.65786 89.2536,-2.03323 2.4086,-0.0521 4.65037,-1.21994 6.06841,-3.16975 l 22.34468,-30.69657 c 0,0 11.4278,0.79244 10.79177,1.63701 -0.63604,0.83415 -13.1378,18.8517 -14.18048,19.69627 -1.04269,0.84457 -16.56822,20.34273 -17.62133,20.36358 -1.05311,0.0209 -86.53221,0.0834 -89.58727,0.0417 -3.05505,-0.0417 -1.27207,0.72988 -5.88072,-0.33366 -4.60866,-1.07396 -4.73378,-1.77256 -4.73378,-1.77256 l 3.55555,-3.72237 z"
       id="path36"
       style="stroke-width:1.04268" />
    <path
       class="cls-6"
       d="m 261.81648,263.86483 c 3.75366,0.0938 45.50266,0.53176 45.50266,0.53176 l 1.29292,-35.94125 c 0,0 9.88463,1.0114 9.90549,1.70999 0.0208,0.6986 4.57737,39.35083 4.57737,39.35083 l -13.55487,7.70543 c 0,0 -14.24304,0.95926 -22.91816,-0.83415 -8.67511,-1.79341 -31.20748,-1.54317 -30.2065,-4.07689 1.00097,-2.53372 5.39067,-8.44572 5.39067,-8.44572 z"
       id="path38"
       style="stroke-width:1.04268" />
    <polygon
       class="cls-5"
       points="506.25,347.34 521.28,369.64 521.36,399.98 558.51,399.92 570.83,172.56 559.93,175.8 544.97,360.13 515.57,358.27 490.72,336.79 460.17,340.43 440.01,359.92 334.77,367.38 337.18,387.49 430.34,395.33 445.5,349.29 475.69,333.92 "
       id="polygon40"
       transform="matrix(1.0426823,0,0,1.0426823,-12.805177,-12.623235)" />
    <polygon
       class="cls-5"
       points="174.28,398.09 33.12,399.67 31.57,387.56 179.83,380.18 "
       id="polygon42"
       transform="matrix(1.0426823,0,0,1.0426823,-12.805177,-12.623235)" />
    <polygon
       class="cls-1"
       points="205.77,340.24 184.9,348.08 168.31,352.14 153.92,347.84 155.51,332.81 338.41,333.66 336.09,351.13 246.15,348.08 226.63,336.2 "
       id="polygon44"
       transform="matrix(1.0426823,0,0,1.0426823,-12.805177,-12.623235)" />
    <path
       class="cls-1"
       d="m 342.61393,334.89234 61.55996,1.35549 51.23741,-49.77765 -12.66859,29.12211 -23.54376,30.65486 -7.62201,5.56793 -44.27229,4.99445 c 0,0 -25.59785,-4.03519 -26.32773,-3.35744 -0.72988,0.67774 1.64744,-18.55975 1.64744,-18.55975 z"
       id="path46"
       style="stroke-width:1.04268" />
    <path
       class="cls-5"
       d="m 36.138329,297.64773 291.169031,4.77549 1.79341,-107.2503 14.26389,-2.69012 c 0,0 3.6911,126.16455 1.18866,128.04138 -2.50244,1.87683 -190.65445,-0.17725 -191.70756,-0.14597 -1.05311,0.0208 -27.9856,-6.79829 -33.26157,-6.46463 -5.27597,0.33365 -97.605486,4.70249 -97.605486,4.70249 z"
       id="path48"
       style="stroke-width:1.04268" />
    <polygon
       class="cls-5"
       points="369.51,396.61 232.61,399.72 224.59,372.93 372.85,365.55 "
       id="polygon50"
       transform="matrix(1.0426823,0,0,1.0426823,-12.805177,-12.623235)" />
    <path
       class="cls-5"
       d="m 170.74861,308.52291 56.53424,-17.25639 c 7.59072,-2.31476 14.09706,-7.28835 18.31992,-14.01365 l 54.35503,-86.44879 -16.40139,-2.42945 -29.08041,43.99076 -24.11724,46.70174 -77.05422,21.86505 17.43365,7.59073 z"
       id="path52"
       style="stroke-width:1.04268" />
    <path
       class="cls-8"
       d="m 34.146806,413.2812 c -10.291274,0.34408 -19.081086,-7.35091 -19.852671,-17.65261 -1.522316,-25.68127 -3.055059,-51.36253 -4.5878019,-77.0438 -0.03128,-0.49006 -0.072988,-0.95927 -0.1042682,-1.41805 -0.2815242,-3.37829 -0.6777435,-7.99737 2.7735351,-13.37761 3.357437,-5.23426 7.496885,-6.79829 10.510237,-7.94524 0.510914,-0.19811 1.042682,-0.39622 1.584877,-0.62561 0.166829,-0.0626 0.250244,-0.0938 0.417073,-0.1564 22.146572,-7.99737 51.060152,-14.27432 67.148739,-27.45382 24.054684,-19.7067 46.378504,-54.05265 69.432214,-80.933 2.21049,-2.57543 3.3053,-3.85793 5.52622,-6.43335 2.27304,2.51286 3.40957,3.76408 5.68261,6.27694 1.02183,1.13653 2.49201,1.76214 4.04561,1.74128 0.0208,0 0.0313,0 0.0417,0 50.03832,-1.12609 100.06622,-1.54317 150.11497,-1.27207 1.37634,0 2.67969,-0.50049 3.68067,-1.42847 1.00097,-0.92799 1.55359,-2.15836 1.56402,-3.46171 0.0417,-6.36036 0.073,-9.54054 0.11469,-15.9009 0.0104,-1.67872 -0.88628,-3.23232 -2.40859,-4.17073 -8.42487,-5.15085 -12.63731,-7.72628 -21.10389,-12.84585 87.74171,0.36494 175.42087,2.92994 263.02703,7.695 0.0521,0 0.1147,0 0.16683,0.0104 10.40597,0.6986 19.07066,9.15475 18.66401,19.88396 -4.28542,73.00861 -8.61255,146.0068 -12.95011,219.01541 -0.78201,10.37469 -9.67609,18.08011 -20.0195,17.63176 -13.61743,-0.76116 -27.24529,-1.45976 -40.86272,-2.0958 1.82469,-3.76408 2.74226,-5.65133 4.5878,-9.41542 2.88823,-5.93286 4.24372,-12.3245 3.95177,-18.98724 -0.87585,-20.57212 -18.79956,-36.85882 -38.80864,-38.11004 -9.82206,-0.61518 -22.80346,4.44183 -29.82071,11.07329 -6.90256,6.52719 -12.56432,19.06023 -12.3245,28.75718 0.11469,4.82761 0.93841,9.73865 2.7214,14.28474 1.52231,3.89963 2.28347,5.84945 3.80579,9.73866 -67.47197,-2.1375 -134.95437,-2.91952 -202.45762,-2.35647 1.06353,-3.5764 1.58488,-5.36981 2.64841,-8.94621 1.25122,-4.22286 1.79341,-8.60213 1.59531,-13.0231 -1.00098,-22.02145 -21.05176,-38.6001 -42.47888,-37.93278 -9.6031,0.30237 -21.80249,6.21438 -28.16285,13.20035 -6.26652,6.89213 -10.89603,19.46688 -10.12444,28.92401 0.28152,3.40957 0.88628,6.90256 1.98109,10.16615 1.18866,3.54512 1.78299,5.31768 2.97165,8.8628 -47.52546,1.25122 -95.01964,3.15933 -142.503391,5.7139 -0.05213,0 -0.114695,0 -0.16683,0 z M 29.96565,307.97029 c -0.65689,0.27109 -1.292926,0.51091 -1.918536,0.75073 -2.293901,0.86542 -2.752681,1.07396 -3.5764,2.35646 -0.91756,1.42847 -0.896707,2.26262 -0.677743,4.93189 0.05213,0.57347 0.09384,1.15737 0.125122,1.7517 1.459755,25.68127 2.909083,51.36253 4.358412,77.0438 0.145975,2.65884 2.544144,4.77548 5.234265,4.65036 0.01043,0 0.03128,0 0.04171,0 41.603023,-2.24177 83.21647,-3.99347 124.8612,-5.24469 -0.25024,-1.59531 -0.4275,-3.20104 -0.53177,-4.81719 -0.91756,-14.24304 3.98305,-28.39224 13.5653,-38.96504 9.72822,-10.73963 23.63761,-17.23554 37.97449,-17.82987 28.50693,-1.18866 56.3674,21.43755 57.21197,51.16442 0.0834,2.84652 0,5.75561 -0.33365,8.5917 54.99106,-0.25024 109.95084,0.37537 164.92105,1.88726 -0.5839,-3.12805 -0.8967,-6.30823 -0.91756,-9.53012 -0.10427,-14.60798 5.91201,-28.89272 16.50566,-38.7565 10.52067,-9.79078 25.58743,-15.85919 40.21626,-14.95206 26.64053,1.65786 51.59192,23.85657 52.28009,51.40424 0.13555,5.36981 -0.4275,10.87517 -1.84555,16.08858 8.36231,0.4275 12.54347,0.65689 20.90578,1.11567 2.75268,0.15641 5.11957,-1.92896 5.26555,-4.65036 4.12902,-73.01904 8.23719,-146.02765 12.30365,-219.04669 0.14597,-2.65884 -2.09579,-5.04659 -4.91104,-5.23427 -0.0104,0 -0.0313,0 -0.0417,0 -74.72904,-4.06646 -149.49979,-6.53762 -224.3331,-7.41347 0.16683,1.00097 0.23982,2.03323 0.22939,3.06549 -0.0626,6.36036 -0.0938,9.53011 -0.1564,15.89047 -0.32323,10.70835 -9.45713,18.57017 -19.93608,18.59103 -49.90278,-0.2711 -99.79513,0.1564 -149.68747,1.27207 -3.02378,0.0626 -5.97457,-0.51091 -8.65427,-1.65786 -21.96931,25.57699 -42.94808,55.72094 -66.29374,76.9708 -17.131263,15.59853 -49.141609,22.36554 -72.184887,30.58187 z"
       id="path54"
       style="stroke-width:1.04268" />
    <path
       class="cls-9"
       d="m 521.06901,376.76646 c 1.93938,26.37987 -17.94457,42.57272 -40.07028,44.93961 -32.65681,3.49299 23.71059,8.15378 23.71059,8.15378 l 31.85394,-31.43687 c 0,0 -17.90285,-54.33418 -15.49425,-21.65652 z"
       id="path56"
       style="stroke-width:1.04268" />
    <path
       class="cls-8"
       d="m 482.22909,438.37856 c -21.10389,-1.06354 -40.45607,-14.79566 -48.21363,-34.45022 -2.41902,-6.12055 -3.7328,-12.66859 -3.71195,-19.22706 0.0834,-28.85102 24.94096,-54.59485 54.70954,-53.7607 28.69462,0.80286 55.18918,24.59687 54.32375,54.37588 -0.22939,7.82012 -1.96024,15.54639 -5.4428,22.6262 -9.11305,18.52847 -28.71547,30.58188 -49.36058,30.49846 -0.77159,0 -1.54317,-0.0208 -2.30433,-0.0626 z m 4.51481,-93.55988 c -0.59432,-0.0313 -1.19908,-0.0417 -1.79341,-0.0521 -21.86505,-0.11469 -40.70632,17.78816 -40.64375,39.87218 0.0208,4.92146 0.8967,9.84292 2.7214,14.29517 5.91201,14.38901 21.19773,26.08791 37.56784,25.68126 14.86865,-0.37536 30.27949,-8.97749 36.70242,-22.70962 2.43987,-5.21341 3.92048,-10.91688 3.99347,-16.80803 0.26067,-21.40627 -17.35023,-39.21529 -38.54797,-40.27882 z"
       id="path58"
       style="stroke-width:1.04268" />
    <g
       id="g64"
       transform="matrix(1.0426823,0,0,1.0426823,-12.805177,-12.623235)">
      <path
         class="cls-8"
         d="m 392.9,396 c -7.5,14.05 -23.43,24.07 -39.36,24.19 -16.74,0.12 -34.6,-9.56 -41.89,-25.21 27.09,0.13 54.17,0.48 81.25,1.03 z"
         id="path60" />
      <path
         class="cls-8"
         d="m 351.45,426.82 c -18.67,-0.43 -37.77,-11.7 -45.8,-28.9 -1.92,-3.84 -2.89,-5.76 -4.82,-9.6 34.36,0.09 68.7,0.52 103.05,1.3 -2.03,3.79 -3.04,5.68 -5.06,9.48 -8.61,16.1 -26.87,27.58 -45.14,27.72 -0.74,0 -1.49,0.02 -2.24,0 z m -26.97,-25.15 c 7.55,7.75 18.27,11.92 28.91,11.89 8.91,-0.02 20.29,-4.61 26.53,-11.19 -18.48,-0.35 -36.96,-0.59 -55.44,-0.7 z"
         id="path62" />
    </g>
    <path
       class="cls-8"
       d="m 332.05156,396.69212 c 0.0938,-73.9366 0.13555,-147.8732 0.12512,-221.8098 5.84945,0 8.77939,0.0208 14.62884,0.0417 -0.20854,73.9366 -0.46921,147.8732 -0.78202,221.8098 -5.58877,-0.0208 -8.38316,-0.0313 -13.97194,-0.0417 z"
       id="path66"
       style="stroke-width:1.04268" />
    <path
       class="cls-8"
       d="m 135.71449,364.50452 c -34.66919,0.90713 -69.317521,2.14793 -103.965853,3.7328 -10.374689,0.36494 -19.341757,-7.36133 -20.040354,-17.80901 -0.490061,-9.73865 -0.740304,-14.60798 -1.240792,-24.34663 -0.354512,-10.56237 7.966093,-19.08109 18.382489,-19.68584 35.096686,-1.59531 70.193371,-2.85695 105.31091,-3.77451 10.43725,-0.14598 19.34176,7.75755 19.73798,18.31992 0.20853,9.74908 0.30237,14.61841 0.51091,24.36749 0.0417,10.46853 -8.33103,18.82041 -18.70572,19.19578 z M 29.496443,320.21138 c -2.794389,0.13555 -4.973595,2.4503 -4.838046,5.1717 0.469207,9.73865 0.698597,14.60798 1.167804,24.34663 0.125122,2.7214 2.492011,4.82762 5.275973,4.69207 34.742173,-1.58487 69.494776,-2.82567 104.268226,-3.74323 2.78396,-0.073 4.98402,-2.33561 4.92146,-5.05701 -0.22939,-9.74908 -0.34408,-14.6184 -0.5839,-24.36748 -0.0626,-2.7214 -2.39817,-4.87975 -5.19256,-4.81719 -35.023695,0.91756 -70.016113,2.16878 -105.018957,3.76408 z"
       id="path68"
       style="stroke-width:1.04268" />
    <path
       class="cls-8"
       d="m 45.824847,360.77172 c -0.927987,-16.00518 -1.855974,-31.99992 -2.794388,-48.00509 5.693045,-0.32324 8.529141,-0.49007 14.222186,-0.79244 0.88628,16.00517 1.77256,32.01034 2.648413,48.01552 -5.630484,0.30237 -8.445726,0.4692 -14.076211,0.79243 z"
       id="path70"
       style="stroke-width:1.04268" />
    <path
       class="cls-8"
       d="m 98.09451,358.89489 c -1.042682,-16.00517 -2.085364,-31.99992 -3.138473,-48.00509 5.682623,-0.36494 8.529143,-0.5422 14.211763,-0.88628 1.00097,16.00517 2.00195,32.01034 2.99249,48.01552 -5.63048,0.34408 -8.44572,0.52134 -14.076207,0.87585 z"
       id="path72"
       style="stroke-width:1.04268" />
    <path
       class="cls-8"
       d="m 51.048686,329.5121 c -0.250244,-5.52621 -0.385793,-8.28932 -0.636037,-13.81554 17.350234,-0.77158 34.700467,-1.48061 52.050701,-2.10622 0.19811,5.52622 0.29195,8.28933 0.49006,13.81554 -17.308526,0.62561 -34.606625,1.33464 -51.904724,2.10622 z"
       id="path74"
       style="stroke-width:1.04268" />
    <path
       class="cls-8"
       d="m 104.20463,354.46349 c -17.298101,0.51091 -34.585773,1.09482 -51.873445,1.75171 -0.218963,-5.52622 -0.323232,-8.28933 -0.542195,-13.81554 17.339806,-0.65689 34.679613,-1.2408 52.02985,-1.75171 0.1564,5.52622 0.22939,8.28932 0.38579,13.82597 z"
       id="path76"
       style="stroke-width:1.04268" />
    <path
       class="cls-8"
       d="m 339.05839,321.58772 c -65.07381,-1.61616 -130.13718,-2.01238 -195.23183,-1.16781 -0.073,-5.52621 -0.1147,-8.29975 -0.18769,-13.82596 65.27191,-0.84458 130.5334,-0.44836 195.78445,1.1678 -0.14597,5.52622 -0.21896,8.28932 -0.37536,13.82597 z"
       id="path78"
       style="stroke-width:1.04268" />
    <path
       class="cls-8"
       d="m 180.08062,358.73849 c -10.80219,0.17725 -21.60438,0.38579 -32.40657,0.61518 -0.12512,-5.52622 -0.18768,-8.29975 -0.3128,-13.82597 10.83347,-0.22939 21.66694,-0.43792 32.50041,-0.61518 0.0834,5.52622 0.12512,8.29975 0.21896,13.82597 z"
       id="path80"
       style="stroke-width:1.04268" />
    <path
       class="cls-8"
       d="m 339.03753,358.90532 c -31.71839,-0.52134 -63.43679,-0.77159 -95.16561,-0.74031 -0.0104,-5.52621 -0.0208,-8.29975 -0.0313,-13.82597 31.82266,-0.0313 63.62447,0.21897 95.44714,0.74031 -0.0938,5.52622 -0.14598,8.29975 -0.23982,13.82597 z"
       id="path82"
       style="stroke-width:1.04268" />
    <path
       class="cls-8"
       d="m 403.73597,360.49019 c -21.56267,-0.64646 -43.13577,-1.17823 -64.70886,-1.58487 0.0938,-5.52622 0.14597,-8.29975 0.23981,-13.82597 21.63566,0.40665 43.26089,0.93841 64.89655,1.5953 3.94134,0.12513 7.66371,-1.67872 9.93676,-4.82762 12.4392,-17.12084 24.97224,-34.17912 37.5887,-51.16442 -11.07329,8.61256 -22.11529,17.26682 -33.13645,25.95237 -4.80676,3.80579 -10.86475,5.81816 -17.05828,5.68262 -20.7598,-0.34409 -41.53003,-0.58391 -62.28984,-0.71946 0.0209,-5.52621 0.0313,-8.29975 0.0626,-13.82596 20.83279,0.12512 41.66559,0.36494 62.50881,0.71945 2.84652,0.0626 5.5992,-0.855 7.77841,-2.58585 15.91133,-12.57475 31.89565,-25.06609 47.95295,-37.46358 4.65037,-3.5764 11.16713,-3.29487 15.48384,0.67775 4.3167,3.97261 4.89018,10.22871 1.40762,14.85822 -16.4014,21.84419 -32.65681,43.80308 -48.75583,65.88709 -5.04658,6.93384 -13.22121,10.89603 -21.89633,10.62493 z"
       id="path84"
       style="stroke-width:1.04268" />
    <path
       class="cls-8"
       d="m 205.04243,277.16945 c -34.29382,0.4275 -68.56678,1.17823 -102.83975,2.24177 -3.951767,0.12512 -7.267497,-2.85695 -7.392619,-6.67317 -0.125122,-3.81621 2.982071,-7.01725 6.954689,-7.1528 34.37724,-1.06353 68.75447,-1.81427 103.14213,-2.25219 1.93939,-0.0209 3.75366,-0.95927 4.84848,-2.50244 7.45517,-10.55194 14.95206,-21.07261 22.49065,-31.57242 -29.59132,0.5422 -59.17222,1.31378 -88.74269,2.30433 -3.96219,0.16683 -7.35091,-2.8361 -7.48646,-6.65231 -0.14597,-3.81622 2.98208,-7.02768 6.98598,-7.17366 31.04065,-1.05311 62.09173,-1.84555 93.15323,-2.38774 4.61908,-0.0834 8.90451,2.31475 11.09414,6.22481 2.18963,3.91006 1.89768,8.60213 -0.72988,12.25152 -8.33103,11.56335 -16.62035,23.15797 -24.8784,34.77345 -3.74323,5.2864 -9.92633,8.47701 -16.55779,8.55 z"
       id="path86"
       style="stroke-width:1.04268" />
    <path
       class="cls-8"
       d="m 314.07572,282.82079 c -0.13555,0 -0.26067,0 -0.39622,0 -16.63078,-0.19811 -33.26157,-0.30238 -49.89235,-0.33366 -4.79634,-0.20853 -9.09219,-2.90908 -11.22969,-7.05896 -2.11664,-4.11859 -1.77256,-9.00877 0.91756,-12.80414 8.59171,-12.61645 17.22512,-25.20163 25.90023,-37.76595 2.50244,-3.38872 6.58975,-5.41152 10.93774,-5.38024 9.58225,0.0521 14.36816,0.0938 23.93998,0.18768 6.97555,0.073 12.75201,5.34896 13.1378,11.99085 0,0.1564 0,0.22939 0.0104,0.38579 0,12.53304 0,25.06609 -0.0209,37.5887 0.13555,3.52427 -1.26164,6.96512 -3.84749,9.46755 -2.51287,2.41903 -5.93287,3.76409 -9.45713,3.72238 z m -47.55674,-14.1492 c 15.50469,0.0313 31.00937,0.12512 46.51406,0.31281 -0.0313,-11.83445 -0.0626,-23.66889 -0.0939,-35.50334 -8.83151,-0.0834 -13.24206,-0.12512 -22.07358,-0.16682 -8.15377,11.76145 -16.26584,23.55419 -24.34663,35.35735 z m -7.09024,-2.20006 c 0,0 0,0 0,0 0,0 0,0 0,0 z"
       id="path88"
       style="stroke-width:1.04268" />
    <g
       id="g108"
       transform="matrix(1.0426823,0,0,1.0426823,-12.805177,-12.623235)">
      <path
         class="cls-4"
         d="m 167.26,164.02 c 1.29,12.13 1.9,16.89 3.17,28.52 14.57,1.41 29.14,2.88 43.7,4.41 0.55,-15.16 0.86,-21.19 1.4,-36.61 -16.08,1.36 -32.17,2.61 -48.27,3.68 z"
         id="path90" />
      <path
         class="cls-4"
         d="m 288.11,159.36 c -0.3,14.5 -0.47,21.21 -0.77,35.64 14.9,0.12 29.8,0.23 44.7,0.32 0.03,-12.55 0.07,-25.1 0.1,-37.65 -14.68,0.49 -29.35,1.06 -44.03,1.69 z"
         id="path92" />
      <path
         class="cls-2"
         d="m 216.25,191.71 c -0.25,-10.91 -0.36,-15.75 -0.61,-26.82 24.16,-1.79 48.32,-3.68 72.48,-5.53 -0.82,12.71 -1.25,18.66 -2.08,31.17 -23.26,0.4 -46.53,0.78 -69.79,1.18 z"
         id="path94" />
      <path
         class="cls-6"
         d="m 214.71,186.82 c 20.47,-0.45 40.94,-0.9 61.42,-1.34 0.05,-9.82 0.09,-14.57 0.14,-24.6 0,0 -3.19,0.11 -0.95,2.91 2.25,2.8 10.28,7.99 9.62,8.87 -0.66,0.87 -5.04,20.42 -5.04,20.42 0,0 0.1,5.33 -7.52,5.59 -7.62,0.26 -29.44,1.39 -32.5,1.06 -3.07,-0.33 -26.28,-3.23 -26.73,-3.84 -0.45,-0.61 1.57,-9.05 1.57,-9.05 z"
         id="path96" />
      <path
         class="cls-7"
         d="m 290.19,195.81 c 0.54,-3.87 0.82,-5.79 1.36,-9.6 11.3,0.09 16.96,0.15 28.26,0.25 3.1,0.03 5.6,-2.49 5.53,-5.57 -0.14,-6.13 -0.21,-9.19 -0.35,-15.34 3.7,0.83 5.55,1.24 9.24,2.09 1.36,7.51 2.04,11.27 3.39,18.8 -1.08,4.85 -1.61,7.27 -2.69,12.14 -14.92,-0.9 -29.84,-1.82 -44.75,-2.76 z"
         id="path98" />
      <path
         class="cls-7"
         d="m 169.68,195.37 c 0.55,-3.57 0.83,-5.28 1.38,-8.67 13.57,0.06 20.35,0.08 33.92,0.15 -0.17,-7.49 -0.25,-11.02 -0.42,-18.67 3.69,0.71 5.54,1.07 9.24,1.78 1.34,6.79 2.01,10.01 3.35,16.78 -1.09,4.36 -1.63,6.55 -2.71,11.14 -14.91,-0.88 -29.83,-1.71 -44.75,-2.5 z"
         id="path100" />
      <path
         class="cls-8"
         d="m 179.61,202.78 c -5.65,0.06 -11,-2.22 -14.7,-5.99 -2.82,-2.87 -4.44,-6.39 -4.54,-9.92 -0.16,-5.24 -0.23,-7.74 -0.39,-13.01 -0.12,-4.15 1.74,-8.28 5.27,-11.61 3.53,-3.33 8.28,-5.38 13.38,-5.56 48.35,-1.74 96.66,-4.06 145.04,-4.61 3.62,0.02 7.19,0.96 10.27,2.84 5.52,3.35 8.77,9.05 8.71,15.21 -0.06,6.1 -0.09,9.14 -0.15,15.24 -0.05,4.79 -2.07,9.27 -5.69,12.64 -3.62,3.36 -8.38,5.2 -13.43,5.14 -47.87,-0.54 -95.73,-0.99 -143.6,-0.36 -0.06,0 -0.11,0 -0.17,0 z m 144.05,-37.45 c 0,0 -0.03,0 -0.05,0 -48.25,0.39 -96.45,2.17 -144.67,3.77 -1.32,0.04 -2.57,0.53 -3.51,1.36 -0.93,0.83 -1.43,1.88 -1.4,2.97 0.14,5.3 0.21,7.83 0.35,13.1 0.03,1.19 0.66,2.05 1.19,2.56 0.98,0.95 2.38,1.48 3.87,1.46 0.02,0 0.03,0 0.04,0 48,-0.84 95.98,-1.06 143.98,-0.69 1.32,0.01 2.57,-0.47 3.53,-1.36 0.96,-0.89 1.49,-2.06 1.5,-3.31 0.04,-6.07 0.07,-9.1 0.11,-15.17 0.01,-1.6 -0.85,-3.09 -2.31,-3.96 -0.81,-0.49 -1.7,-0.74 -2.63,-0.74 z"
         id="path102" />
      <path
         class="cls-8"
         d="m 216.07,201.39 c -3.86,-0.01 -7.01,-2.89 -7.04,-6.28 -0.1,-11.4 -0.17,-21.61 -0.27,-33.23 -0.03,-3.45 3.1,-6.51 6.99,-6.64 3.89,-0.13 7.07,2.72 7.09,6.19 0.07,11.7 0.1,22.14 0.17,33.66 0.02,3.42 -3.09,6.3 -6.95,6.29 z"
         id="path104" />
      <path
         class="cls-8"
         d="m 286.35,202.67 c -3.86,-0.07 -6.97,-3.11 -6.94,-6.7 0.07,-12.4 0.16,-24.16 0.23,-36.59 0.02,-3.6 3.19,-6.65 7.09,-6.72 3.89,-0.07 7.03,2.88 7,6.5 -0.11,12.52 -0.23,24.52 -0.34,37.03 -0.03,3.62 -3.18,6.55 -7.04,6.48 z"
         id="path106" />
    </g>
    <path
       class="cls-8"
       d="m 505.49133,386.47384 c -0.60475,11.40694 -10.79176,20.35315 -22.17785,19.80053 -11.38609,-0.55262 -20.66596,-10.43725 -20.16548,-21.85462 0.50049,-11.49036 10.73963,-20.447 22.18828,-19.89438 11.44866,0.55263 20.77023,10.46853 20.15505,21.94847 z"
       id="path110"
       style="stroke-width:1.04268" />
    <circle
       class="cls-2"
       cx="212.68529"
       cy="387.10986"
       r="49.245884"
       id="circle112"
       style="stroke-width:1.04268" />
    <path
       class="cls-9"
       d="m 248.18863,378.42433 c 1.93938,26.37986 -17.94457,42.57272 -40.07029,44.93961 -32.6568,3.49298 23.7106,8.15377 23.7106,8.15377 l 31.85394,-31.43687 c 0,0 -17.90285,-54.33417 -15.49425,-21.65651 z"
       id="path114"
       style="stroke-width:1.04268" />
    <path
       class="cls-8"
       d="m 212.70615,440.01557 c -23.23096,0.18768 -44.65809,-14.93121 -52.12369,-36.94223 -1.48061,-4.34799 -2.4503,-9.00878 -2.70055,-13.66957 -0.83414,-15.44212 5.46366,-32.21888 17.28767,-42.6457 9.36329,-8.25805 21.58353,-13.49231 34.19998,-14.1492 14.2639,-0.74031 28.43395,4.07689 39.19443,13.49231 10.8856,9.53011 17.4545,23.21011 18.05926,37.66168 0.25024,5.92244 -0.49006,11.83445 -2.20006,17.52749 -6.52719,21.76078 -26.71352,37.474 -49.37101,38.66266 -0.78201,0.0417 -1.56402,0.0626 -2.33561,0.073 z m -0.79244,-93.65372 c -0.60476,0 -1.20951,0.0313 -1.80384,0.0521 -8.45616,0.29195 -19.15408,4.68165 -25.33718,10.47896 -8.57085,8.04951 -13.63829,19.73798 -12.90841,31.63498 0.21897,3.50341 0.95927,6.96512 1.9811,10.15573 5.29682,16.63078 23.41864,28.04815 40.49778,27.44339 16.45352,-0.5839 31.98949,-13.04395 36.69199,-28.7676 0,0 0,0 0,0 1.25122,-4.23329 1.69957,-8.7064 1.5953,-13.0231 -0.23982,-9.60311 -6.34993,-21.75036 -13.46103,-27.94389 -6.63146,-5.76603 -18.13224,-10.4581 -27.24528,-10.05146 z"
       id="path116"
       style="stroke-width:1.04268" />
    <path
       class="cls-8"
       d="m 233.39296,386.12975 c 0.0521,11.41737 -9.59267,20.93706 -20.98919,21.04133 -11.39652,0.10427 -21.19773,-9.24859 -21.35413,-20.66596 -0.15641,-11.49036 9.53011,-21.03091 20.98919,-21.13517 11.44865,-0.10427 21.31243,9.26944 21.35413,20.7598 z"
       id="path118"
       style="stroke-width:1.04268" />
    <g
       id="g124"
       transform="matrix(1.0426823,0,0,1.0426823,-12.805177,-12.623235)">
      <path
         class="cls-8"
         d="m 143.28,397.47 c -4.38,19.18 -21.29,33.67 -40.87,35.19 -20.72,1.61 -40.54,-11.57 -46.91,-31.4 29.25,-1.51 58.51,-2.77 87.78,-3.79 z"
         id="path120" />
      <path
         class="cls-8"
         d="m 100.72,439.39 c -22.95,0.76 -44.55,-14.23 -51.61,-36.13 -1.05,-3.26 -1.57,-4.9 -2.62,-8.16 35.06,-1.87 70.13,-3.39 105.22,-4.54 -0.76,3.34 -1.14,5.01 -1.9,8.36 -5.02,21.94 -24.49,38.58 -46.89,40.35 -0.74,0.06 -1.47,0.1 -2.2,0.12 z M 65.58,407.38 c 7.64,11.79 21.91,20.22 36.32,18.67 13.09,-1.41 26.24,-9.28 31.88,-21.61 -22.74,0.84 -45.47,1.82 -68.2,2.94 z"
         id="path122" />
    </g>
    <path
       class="cls-8"
       d="m 280.31367,188.69786 12.78328,8.21634 -50.04875,76.04282 c -6.12054,9.30072 -15.41084,16.07816 -26.14004,19.08108 l -74.51008,23.37694 -8.23719,-12.79371 77.86751,-22.60536 c 8.17463,-2.21048 15.22316,-7.41347 19.74841,-14.57669 z"
       id="path126"
       style="stroke-width:1.04268" />
  </g>
</svg>
