<?xml version="1.0" encoding="UTF-8"?>
<svg id="Layer_1" xmlns="http://www.w3.org/2000/svg" version="1.1" xmlns:inkscape="http://www.inkscape.org/namespaces/inkscape" xmlns:sodipodi="http://sodipodi.sourceforge.net/DTD/sodipodi-0.dtd" xmlns:svg="http://www.w3.org/2000/svg" viewBox="0 0 1024 1024">
  <!-- Generator: Adobe Illustrator 29.4.0, SVG Export Plug-In . SVG Version: 2.1.0 Build 152)  -->
  <defs>
    <style>
      .st0 {
        fill: #788c9f;
      }

      .st1 {
        fill: #df6f59;
      }

      .st2 {
        fill: #47659e;
      }

      .st3 {
        fill: #788c9e;
      }

      .st4 {
        fill: #c1cad3;
      }

      .st5 {
        fill: #375da0;
      }

      .st6 {
        fill: #efd45b;
      }

      .st7 {
        fill: #f5cca5;
      }

      .st8 {
        fill: #e8c81c;
      }
    </style>
  </defs>
  <g id="svg127" inkscape:export-filename="rettungsdecken.png" inkscape:export-xdpi="96" inkscape:export-ydpi="96" inkscape:version="1.1.2 (0a00cf5339, 2022-02-04)" sodipodi:docname="rettungsdecken.svg">
    <sodipodi:namedview id="namedview129" bordercolor="#999999" borderopacity="1" inkscape:current-layer="Layer_1" inkscape:cx="-393.10002" inkscape:cy="583.99391" inkscape:deskcolor="#d1d1d1" inkscape:pagecheckerboard="0" inkscape:pageopacity="0" inkscape:pageshadow="0" inkscape:showpageshadow="0" inkscape:window-height="1016" inkscape:window-maximized="1" inkscape:window-width="1920" inkscape:window-x="0" inkscape:window-y="0" inkscape:zoom="0.35359958" pagecolor="#ffffff" showgrid="false"/>
    <path id="path6" class="st8" d="M196.3,673.6c1.1-8.4,4.4-16.1,7.5-23.9,17.2-5.4,27.1-19.6,39.8-31.2-4-2.9-7.1-1.9-10.2-1.9-10.5,0-20.6,5.3-31.4,3.4-3.7-15-10.3-28.8-17.2-42.5-8.3-16.3-8.9-33.5-8.6-51.2,3.5,0,6.9,0,10.4-.2,5-.5,10-2.4,12.7-6.2,3.3-4.8-2.3-7.6-4.4-11.1-1.7-2.7-4.1-5-6.8-8.3,11-.5,20.6-1.9,30.4-2.5,13.8-.8,27.6-1.1,41.5-1.7,23.1-1,46-7.9,69.4-3.3,12,2.4,24.4,1.8,35.3,9.6,7.2,5.2,15.7,9.4,24.8,11.6,2.7.7,4.9,1.7,5.6-2.6,2-13.4,5.6-26.6,6.2-41.3-4.6,2.7-8.5,4.5-12,6.9-19.4,13.6-38.5,7.6-52.7-6.9-3.4-3.5-4.2-6.6,1.7-9.2,9.7-4.2,19.5-8.5,28.5-13.8,4-2.3,10.4-4.8,8.6-11.4-1.8-6.8-8-5.3-13.1-5.4-2.9,0-5.7.5-8.5,1.2-11.4,2.8-23,5.3-34.4,8-1.9.5-4.1,2-5.4-.3-1.5-2.5,1.1-3.4,2.6-4.6,13.4-12.1,28.3-21.6,46.2-25.4,10.1,1.9,19.6,5.8,28.8,10.3,6,7.8,10.3,16.3,10.9,26.5,2.3-3.7-.3-8.2,3.2-11.7,2.5,3.5,1.4,6.8,1.5,9.9,1.1,22.4-4.6,44.9,0,67.3.5,2-.8,5.2,2.7,5.3,2.8,0,3.9-2.9,3.9-5-.1-7.1,3.5-12.5,6.8-18.4,4-7.2,7.1-15.1,10.5-22.5,2.7-5.8,2.8-10.9-2.9-15.3-4.6-3.5-5-8.2-1.4-12.9,1.6-2,3.6-4.2,4.1-6.6,3.1-16.5,22.2-21,27.1-36,0-.2.5-.3.8-.5,7.2-.8,12.7-6.3,19.8-7.9,7.6-1.7,15.4-10.8,13.5-15.7-2.9-7.8-3.6-16.1-6.7-23.8,2.9-5.8,5.9-11.6,8.8-17.3,5.3,2.8,3.5,12,11.7,12.6,4.2.3,8.3,2.2,12.3,3.2-.9,13.4.7,24.4,14.2,32.9,11.9,7.5,21.2,19.3,28,32.2,1.6,3.1,3.6,5.9,3.7,9.5-7,.7-12.9-1-17.3-7.2-2.4-3.3-5.4-6-8.5-8.6-8.8-7.4-18.7-13.1-30.6-11.7-5.2.7-13.1,0-13.4,8.8-.1,7.5-3.9,10.5-10.6,12.2-5.6,1.4-10.9,1-16.3,1.2-3.2.1-6.2,1.2-6.8,4.3-.8,3.9,3.5,3.2,5.4,4,7.8,2.9,15.5,3.5,23.4-.3,5.4-2.6,11.3-4.4,17-6.2,10.8-3.6,20.8-2.5,28.1,6.9,6.9,8.9,12.7,18.8,23,24.7,2.7,1.5,3.5,4.6,2,7.7-1.4,2.7-3.6,4.5-6.9,4.4-2.3,0-4.8.2-6.9-.5-6.9-2.5-12.8-.5-19.1,2.4-26.4,11.7-49.8,28.7-75.4,41.5-5.2,2.6-5.8,6.6-1.1,10.1,8.2,6.2,17.6,9.2,27.6,7,5.8-1.2,11.4-1,17.2-1.5,17.1-1.1,34,2.3,51,1.8,4.4,0,9.9,1,4.8-6.7-2.3-3.4-2.8-8.2,4.5-9.1,12.1-1.5,25.6,1.2,35-10.3,1.4-1.7,4.2-1.8,6.6-1.7.3.5,1.1.9,1,1.4-1.8,13.1,7.8,15.7,17.1,19,36.7,13,75.2,20.3,111.7,33.6,21.1,7.7,41.8,16.5,62.3,25.6,16,7,25,20.6,30.7,36.7-2.6,0-6,.7-7.6-.6-7-5.4-11.1,0-15.6,3.5-3.6,2.8-3.6,5.4.8,7.8,6.3,3.4,12.5,7.1,18.6,10.8,6.6,4,12.9,8.5,20.8,9.7,15.5,22.7,38.1,33.1,64.5,36.5,5,.7,9.2,3.1,13.3,5.9,9.6,6.6,20.3,11.6,28.5,20.1-5.1,3.5-7.8,9.1-11.1,14-2.2,3.3-2.4,7.6-.3,10.6s5.7.8,8.7.5c9.7-1.1,16.1-7.9,23.4-13,14,4.2,25.3,13.6,37.5,20.8,11.4,6.8,10.8,6.9,3.3,17.7-24.6,35.7-56.4,64.6-86.5,95.2-1.8,1.8-3.5,3.9-6.5,4.1-4.2-3.9-9.4-2-13.9-1.7-4.8.3-11.7-.8-13.4,4.4-1.8,5.9,5.9,6.6,8.9,9.9.3.5.8.8,1.1,1.2-5.9,8.6-15.7,11.8-24.4,15.3-15.3,6.2-30.5,13.5-47.1,15.6-.2-4.2.6-8.5-2.5-12.3-2.3-2.9-.6-5.4,2.9-6.5,2.5-.7,5-1.2,7.5-1.8,1.6-.3,3.9,0,3.2-2.7-.5-1.9-2.3-2.3-4.2-2.3-16.2.3-29.7,14.3-29.7,31-44.6,6.9-89.1,13.8-133.8,20.7,4-5.9,12.2-7.8,14.6-14.6,1.9-5.6,5.9-7.1,10.4-7.6,14.8-1.5,29.8-3.7,44.7-.9,1.5.2,3.1.8,4-.6,1.2-1.7.5-3.4-.8-4.6-5.2-5.1-2.5-6.3,3.1-6.6,2.6,0,5.1-1,7.6-1.5,1.6-.2,4,.3,4.1-2,0-1.1-1.2-3.1-2.3-3.4-11.3-3.1-22-10.8-34.7-6.1-12.3,4.6-24.9,8.8-36.6,15.2-8.2,4.4-17.1,7.7-26.5,3.1-2.3-1.1-6.7-.5-6.3-4.5.3-3.1,3.7-4.2,6.2-5.6,5.9-3.1,12-5.6,18.1-8.4,1.2-.6,2.7-1.4,2.6-3.1,0-1.8-1.4-2.3-2.8-2.6-9.1-2.2-18.4-1.9-27.5-1.7-1.8,0-3.9.7-3.7,2.7.2,6.6-5.1,9.3-8.6,13.4-3.1,3.5-6.8,6.8-7.1,11.6-.5,7.5-4.4,10.5-11.2,10-11.2-.9-13.4-3.1-13.4-12.6s.9-6.9.9-10.3c0-8.5,4.9-16.4-.3-25.8-9.4-17.1-16.4-35.5-25.3-52.9-5.4-10.9-9.2-23.1-20.2-30.6-3.9-2.6-6.2-8.3-12.3-5.6-6.5,2.9-12.1,6.2-12.6,14.7-.5,7.9-4.2,12.7-12.3,16.5-19.3,8.9-39.9,10.8-60.2,14.7-18.4,3.6-37,7.2-55.7,5.1-11.1-1.2-18.5,4-26.3,9.9-11.8,8.6-20.5,21.1-34.9,26.5-6.6,2.5-12.6,7-17.7,12.2-2.4,2.4-4,4.3.9,6,14,4.9,25.7,13.6,36.7,23.2,4.2,3.7,8.4,3.2,13.5,1.6,15.1-4.8,30.4-9.2,46.2-9.6,4.4,0,11.2-2.4,12.9,1.5,1.8,4.1-5.4,5.2-8.3,8.2-2.7,2.8-5.4,5.7-3.5,9.9,1.8,4.1,4.4,7.1,9.9,6.7,5.2-.5,10.4.3,15.6,0,21.7-1.9,41.6,4.4,60.8,13.3,4.4,2,11.7,4,10.6,9.4-.6,3.1-8.3,1.9-13.1,2-10.8.2-21.5-5.3-32.3-.5-22-1.5-43-7.7-64-13.7-35.5-10.3-71.7-16.9-108.1-22.9-22.4-3.7-45-6.8-67.6-8.7,0-6.1-.9-12.3-7-15.2-5.4-2.5-20.4,4.4-24.5,10.2-21.9-.2-43-5-64.3-8.7,1-5.8,6.5-5.6,10.1-6.3,4.9-1.1,5.8-3.5,5.7-7.8-.3-8.8-6.7-15-10.1-22.4-.8-1.8-2.8-1.5-4.4-.3-12.2,8.4-25.4,15.7-34.2,28.2-10-.8-19-4.5-27.9-8.7,2.4-2.3,5-5.1.6-7.1-7.2-3.3-14.7-7.9-23.2-3.2-13.5-.8-24.7-8.5-36.9-12.9-2.7-1-3.2-3.4-1-5.4,5-4.6,8.5-10.9,15.3-13.6,9.4,2.9,17.8,7.7,25.6,13.7,3.9,2.9,8.8,4,13,.9,6.8-4.9,13.5-10.6,16.9-18.1,3.9-8.5,8.4-14.5,17.9-16.4,3.3-.7,6.5-1.9,9.9-2.5,8.2-1.5,16.2-3.6,24.2-5.8,2-.6,4.9-1.4,4.9-4.2s-2.8-3.6-4.8-4.4c-5-2.2-10.2-4.4-15.4-5.2-12.6-1.9-25.3-4-37.5,2.8-6,3.3-12.3,7.1-19.9,4.6,16.4-17.9,35.6-32.7,54.1-48.4,8.3-7,15.3-15.7,25.9-19.8.3.5.6,1.1,1,1.4,24,10.5,46,1.2,68-7,3.4-1.2,3.2-5.1,0-6.9-6.9-4-13.6-8.7-21.9-9.5-.2-4.6-7.9-3.2-7-8.7l1.7-1.7c15.3-2.4,17.2-6.5,8.3-17.7l.2.3-.2-.3ZM510.2,739.7s.8-1,1.2-1.6c-2.5-3.4-4.9-6.8-7.5-10-7.9-10.2-17.3-19.9-18.2-33.4-.7-9.9-2.5-19.4-3.6-29.1-.7-5.4-2.5-5.8-7.2-4.9-11.1,2-21.4,6.6-32.1,10.2-4,1.4-8.8,1.1-11,5.9-2.2,5.1-6.5,5.8-11.4,5.8-14.7,0-29.3-3.2-44.1-1.8-8.3.8-17.1,1-23.2,7.4-4.2,4.4-8.7,6.5-14.4,6.3-6.5,0-8.7,2.9-10,9.2-2.4,11.6-.7,23.1-1.5,34.5-.1,2.2.9,4.9-1.9,6.1-2.4,1.1-4.3-.2-6.3-1.6-15.7-10.5-28.1-24.7-41.3-37.9-3.6-3.6-3.2-7,.2-10.5,2.7-2.8,5.8-4.5,9.4-5.9,12.8-5.1,25.4-10.8,37.4-17.7,2.5-1.5,5.8-2.7,5.4-6-.3-3.2-3.4-4.2-6.2-5.2-4.9-1.7-9.4-4.1-14.4-5.7-6.7-2.2-4-5-.7-7.5,7.2-5.7,16.5-6.5,24.9-8.8,23.2-6.6,47.1-8.4,71.1-7.1,6.9.3,9.1-2.2,6.8-8.7-2.9-8.6-3.5-17.3-1.1-26.4,2.2-8.3,5.9-10.6,13.5-6.5,9.5,5.2,19,10.6,28.2,16.4,4.4,2.7,9.2,4.3,12.7.6,4.1-4.4-1.4-7.4-4.2-9.6-11.6-9.3-20.2-25.3-39.5-18.4-2.8,1-4.3-2.3-3.2-4.5,3.2-6.7-1.6-9.1-5.2-13.5-10.3-12.7-23.6-14.4-38.4-13-8.5.8-16.8,0-23.3-6.5s-2.8-2.4-4.6-1.7c-17,5.2-34.3-.3-51.5,1.4-3.1.3-6.6,1-8.6-2.5-2.2-3.6,1-5.8,2.7-8.3,1-1.6,3.5-2.9,2.5-5.1-1-2.4-3.5-1.2-5.4-1.4-21.6-1.4-41.5,7.5-62.2,11.1-3.2.6-7.2,2.5-7,6.6.2,3.5,4.1,4.2,7,5.4,11.8,5.3,24.6,2.3,36.7,4.4,20.7,3.6,41.3,7.2,60.7,15.6,2,.9,5,1.2,5.1,4,0,2.8-2.8,3.5-4.9,4.3-14.5,5.8-29.7,9.4-45.2,11-5.9.6-12.2,1.2-18.1-.7-12-4-23.8-8.6-35.9-12.2-12.9-3.9-13-3.5-10.2,9.4.6,2.8,1.2,5.7,1.7,8.5.9,6.1,4.5,8.5,10.4,7.4,13.6-2.7,26.2-4.4,39.9,2.8,10.3,5.4,23.3,5.3,35.2,7.7,2,.5,4.3.6,4.4,3.2,0,2.4-2.5,2-3.9,2.6-13.8,5.7-27.9,10.9-42.3,15.1-5.1,1.5-9.1,3.5-3.7,9.4,3.3,3.6,2.6,7.8.6,12.1-3.6,7.6-8.9,14-14.3,20.4-3.6,4.4-5.4,9.2-1,13.9,5.4,5.8,5.6,12.2,3.7,19.4-1,4.1-3.2,9.6-1.5,12.3,3.6,5.9.2,9.5-2.9,11.8-10,7.6-17.4,17.8-27.2,25.5-2.2,1.7-4.2,3.7-3.1,6.5,1.1,2.9,4.3,2.6,6.9,2.4,9.7-.8,19.5-2.2,29.2-2.6,12.8-.6,26.4-4.6,37.8,3.7,8.8,6.5,18.8,9.2,28.7,13,9.7,3.7,17.8-1,26.6-3.4,20.5-5.7,41.2-10.5,62.3-13.9,15.3-2.5,30.5-6,46.2-5.4,4.2,0,8.4,2.4,12.8.2,1.5-.7,3.6-.3,3.9-2.6.2-1.9-1-3.2-2.6-4.2-3.7-2.2-7.5-4.3-11.2-6.6-1.9-1.1-4.9-1.7-4.2-4.8.6-2.8,3.3-2.8,5.6-3.2,17.2-2.3,34.4-4.4,51,3.5,2.9,1.5,6.2,2.3,9.4,3.4h-.4ZM528.9,598.8l.5,2.5c-11.3,6.9-24.9,8.7-36.6,14.8-2.4,1.2-6.8.9-6.3,4.4.3,3.7,4.4,2.5,7.1,2.9,14.2,2.4,28.4,4.4,41.6,11,1.7.9,4,1.5,3.9,4.1,0,2.4-2,3.1-4,4.1-8.4,4.9-17.8,6.6-27,8.6-19,4.1-20.2,5.1-17.4,22.8,2.4,16.2,11.1,29.5,19.6,42.8,1,1.6,2.5,3.9,4.8,3.1,2.8-1.1.5-3.4.5-5.2.5-8.5-1.7-18.2,4-24.8,7.6-8.7,17.7-15,30.2-14.3,13,.7,25.9-.8,38.5-4.5,4.2-1.2,8.5,0,12.7-2.2,9.1-4.9,10.9-13.3,13.3-22.1,1.2-4.8-.8-12.1,4.8-13.8,6.1-1.8,8.5,5.6,12.1,9.3,6.8,7,13.3,7.2,20.1.6,6.5-6.2,12.3-12.8,17.4-20.4,6.8-10.2,14.4-18.6,27.6-21.2,18.5-3.6,36.8-8.2,54.5-15.9-2.4-3.3-5.6-1.8-8.2-1.9-19.9-.8-39.8,2.9-59.7,1.7-8.2-.5-16-1.8-23.4-5.2-2.2-1-4.5-2.4-4.4-4.9,0-2.9,3.5-2.6,5.4-3.3,11.4-3.9,23.4-5.2,35.2-7.9,2.5-.6,6.2-.5,6.9-4.2.7-3.9-2.8-4.4-5.1-6-9.5-6.6-21.2-5-31.4-8.2-17.6-5.4-34.5-10.1-53.7-7.9-19.4,2.3-39.1,2.6-58.6,4.1-2.6.2-6,.5-6.3,3.3-.5,4,3.7,4,6.2,4.4,13.3,2.8,26.5,5,39.6,8,5,1.1,10.9.2,15.1,4.8-.8.9-1.1,1.6-1.5,1.7-26.4,6.1-53.2,6.2-80.1,5.4-12.2-.3-22.2-9.3-25.7-21.6-1.1-3.9-4-6.8-7.1-6.7-10.4.2-22.1.7-28.8,8.8-6.1,7.6-12.7,13.9-20.6,19-4.4,2.8-4.1,4.4-.2,7.4,10.2,7.5,20.5,15,30,23.2,4.8,4.1,8.8,5,14.8,4.1,13.3-2.2,26.6-3.3,39.9-4.9h0v.2ZM604.8,850.5c2.9-1,2.5-3.5,3.3-5.2,5.6-12.2,6.1-12.6,19.7-10.1,1.1.2,2.3.2,3.5.3,12.6.7,13.9-.9,11.2-12.7-1.9-8.3,3.2-13.4,11.4-13.7,7.2-.3,12.7,3.1,18.6,5.8,4.6,2.2,5.6,7.8,9.4,11.1,11.4,9.6,24.7,11,38.7,9.7,13.1-1.1,26.1-5.1,39.5-3.7,2.7.2,5.3-.2,6.3-3.4.6-1.9-.5-4.3-1.9-4.3-10.2.5-13.9-9.2-21.3-13.1-8.6-4.6-18-5.4-27.8-5.2-6.1,0-12.5-.2-16.1-6.3-11-18.5-36.9-31.5-57.8-28.8-6.1.8-9.3-1.7-8.8-8.3.5-7.5,7.1-6.5,11.3-8.5,5.2-2.6,7.5-4.5,2.6-10.1-7.7-8.6-15.7-16.8-24.7-24.1-15.2-12.6-16.3-12-23.1,6.1-5.1,13.6-10,22.5-29.6,16.7-14.6-4.4-29.5-9.1-47-11.1,7.5,9.2,11.9,18.2,22.1,23,6.7,3.2,19.5,4.3,12.3,17.9-.3.7.9,2.7,1.9,3.6,7,7,12.5,15.1,16.5,24.1,1.7,3.7,3.4,4.1,7.2,1.7,10.2-6.2,21.7-6.1,33.2-4.4,2.9.5,4.8,3.2,1.6,4.4-11.2,4.1-14,17.1-24.4,22.1-2.5,1.2-1.5,3.3-.5,5.1,4.1,7.1,8,14.4,12.1,21.5h.6ZM886.8,739.1c1.6-6.9-1.5-15.4-2.2-24-.5-5.8-3.2-11.4-10-13.9-10-3.5-19.7-7.9-29.7-11.6-14.6-5.4-29.5-9.9-45.1-10.6-4-.2-7.6.2-9.2,4.6-1.6,4.2-2.8,8.6-5,12.6-6.3,11.8-10,25.4-19.9,35-5.6,5.3-3.2,7.8,2,10.9,20.4,12.1,41.6,22,65.5,24.9,9.1,1.1,10,.3,12-8.5,1.6-6.8-.3-14.3,4.4-20.7,3.1-4.1,3.7-4,6.1.3,3.1,5.4,6.9,10.5,11,15.4,3.5,4.3,8,8.7,14,6.5,6-2.3,6.2-8.4,5.9-14v-7,.2h.2ZM971.8,775.7c-14.5-2.5-26.3,0-37.8,1.7-17.9,2.7-35.7,6.1-53.4,9.6-4.2.8-10.6-.6-12.1,4.1-1.4,4.3,4.8,6.6,7.4,9.9.9,1.1,2.3,2,2.8,3.3,1.8,4,2.8,7.4-3.4,9.1-5.3,1.5-10.2,3.4-15.9,3.4s-8.8,1-9.4,2.8c-2.3,7-8.4,5.8-13,7.7-4.4,1.8-9.2.7-13.6,2.2-23,7.4-46.7,11.6-70.1,16.7-1.6.3-3.9-.6-4.4,1.7-.6,2.2,1.5,2.7,3.1,3.4,12,5,23.7,9.9,37.4,9.1,16.1-1,32.4-.9,48.6,0,13.8.7,21.5-5.8,26.6-17.6,1.6-3.7,1.4-6.2-1.4-9.3-5.6-6.2-3.6-11.3,4.6-13.4,11.4-2.7,23-1.7,34.4-1.5,2.2,0,4.5,2.2,6.2-.6s-.6-5-1.9-6.9c-6-8.3-6-9.9,3.1-14,5.7-2.6,11.6-4.9,17.6-7,13.9-4.9,28.9-6.8,44.9-14.2h-.2v-.2ZM392.6,813.1c18.1-2.3,36-7.4,54.4-8.2,5.6-.2,9.6-3.1,12.5-8.2s7.6-6.9,13.3-6.6c5.4.3,10.3-1.4,15-3.9,5.8-3.3,11.3-17.2,8.9-21.7-2.9-5.6-13-7.2-21.3-3.9-3.3,1.4-5.2,3.9-6.7,6.5-4.4,7.8-11,10.2-19.5,9.2-4-.5-8-.2-12.1,0-7.7.2-14.6,1.8-19.3,9.2-4.5,7-11.7,10-19.9,10s-15.2,2.9-22.7,5.2c-2.4.8-4.3,1.9-4.1,4.8.2,2.4,1.9,3.4,4.1,3.9,5.9,1,11.1,5.2,17.7,3.9h-.2v-.2ZM215.3,865.2c12.9-.7,24.4-5.8,35.6-11.6,2.8-1.5,7.5-2.2,6.3-6.9-1-4.2-5-4-8.5-4.3-10.8-1.2-21.6-2.3-32.4-4.3-10.4-1.9-11-5.1-4.6-13.6,3.6-4.8,10.8-9.7,7-16.4-4.4-7.8-1.5-14.4-.1-21.5.3-2,1.5-4.4-.3-5.7-2.3-1.5-5,.3-6,1.9-5.8,8.9-15.7,13.6-22,21.9-5.9,7.8-9.3,17.2-10.9,26.8-1.2,7.6,6.7,10.1,10.1,15.2,1.4,1.9,2.2,4.1,3.6,5.9,5.6,7.1,11.8,13.5,22.1,12.6h.1ZM754.8,658.3c12.1,1.2,24.1-.8,36.1-1.8,8.7-.8,10-3.2,4.6-9.5-9.5-11.3-20.6-21-31.8-30.5-1.7-1.5-3.6-1.8-5.6-.8-11.1,6.2-23.6,9.4-34,17-2.4,1.7-4.4,3.6-4.3,7,.2,10.3,8.7,18.7,19.3,18.7h15.7ZM719.3,774.9c-3.2,0-6.5-.6-9.5,0s-5.9,3.6-1.8,6c7.4,4.3,14.7,9.3,23.8,9.2,18-.3,34.8-6.9,52.1-10.3,3.3-.7,6.1-3.1,8.6-5.6,6.1-6.5,5.4-9.4-3.1-11.8-3.3-.9-6.5-2.3-9.6-3.5-9.2-3.7-18.4-7.7-27.6-11.4-2.4-1-5.3-1.6-7.2.8-1.6,2-.5,4.4.7,6.6,2,4.1,4.3,8.3,6.1,12.5,2.5,5.7,1.9,9.1-5.8,9.3-9.1.3-17.7-2.5-26.6-1.7h0v-.2ZM729.6,714.2c-.5-.8-.6-1.5-.9-1.7-11.8-6.2-26.1-7.1-36.1-17.2-.9-.9-3.4-.7-5-.6-7.1.8-14,2.4-20.7,5.2-4,1.7-7.2,3.7-5.9,8.8,1.1,4.6,4,7.5,8.7,8.4,14.5,3.2,29.3,1.9,44,1.4,5.2-.2,11.4-.6,16.2-4.4h-.3ZM487.1,438.4c-7.7,2-15.7,3.4-23,6.5-5.7,2.5-12.7,2.4-17.2,7.5-1.9,2.2-4.4,4.1-2.3,7.4,4.3,6.5,22,9.2,28.7,4.2,6.9-5.2,13.4-10.8,21.4-14.3,4.9-2.2,4.6-5,.7-8.3-2.5-2.2-5.2-2.3-8.3-3.1h0ZM272.5,802.5l-.2,2.5c5.4.8,9.9,3.7,15.6,4.9,14.7,2.7,30.1,3.1,44.1,10.4,5.8,3.1,12.5,2.5,18-1.7,1.9-1.5,4.8-2.9,4.3-6-.5-3.3-3.9-3.3-6.1-3.9-17.3-4.3-35.2-4.1-52.8-6.1-7.5-.8-15.1,0-22.7,0h-.2,0ZM270,894.7c13.8-.3,18.7-12,25.3-21,1.2-1.7,3.9-5.3.8-7.8-2.4-1.9-5.7-1.1-8.2.6-8.9,5.8-18.7,10.1-26.6,17.7-4.4,4.2-2.7,5.8.3,8.6,2.5,2.3,5.3,1.8,8.3,2h.1ZM158,745.2h-10.3c-3.4,0-7.4-.5-8,4.3-.7,4.5,3.3,6.1,6.2,7.1,7.5,2.6,15.2,4.3,22.8,6.7,3.1.9,4.5.6,5.9-2.6,1.8-4,4.6-7.5,2-12-2.5-4.2-6.8-3.6-10.8-3.6h-7.8,0ZM787.5,813.8c11-1,20.7-1.8,30.4-2.7,1.4,0,3.2.2,3.6-1.6.5-2.3-1.2-2.9-2.9-3.4-14.4-4.3-29.1-6.8-43.8-8.7-2.7-.3-6.8,1.6-4.8,3.6,5.4,5.2,12.2,9.1,17.6,12.7h0ZM776.1,607.7c5,.8,9.7-.8,14.4-1.9,3.7-.9,5.7-3.5,5.9-7.5.2-4.6-3.5-5.1-6.2-5.6-4.5-.7-9.2-.8-13.7-.6-6.9.5-10.9,5.4-10.8,11.3,0,6.3,6.6,3.4,10.4,4.2h0ZM991.7,759.1c4,0,7.9,0,7.8-5,0-5.2-4.5-5.2-8.3-5.4-4.4-.2-9.4,1.7-9.2,5.6.2,3.4,5.4,5.4,9.5,4.9h.2ZM421.2,545.1c-1.6.7-5.3-.3-4.6,2.2,1.1,4,3.2,8.7,7.7,9.6,4.6.9,4.6-4.2,4.6-6.7.1-4.8-4.3-4.4-7.8-5.1h.1,0Z"/>
    <path id="path8" class="st5" d="M262.6,280.8c-.7-33,1.7-65.9.7-98.9-1.5-47.9,27.5-83.6,65-98.6,25.5-10.3,53.4-15.2,80.7-4,31.2,12.9,54.5,34.4,69.4,64.7,10.6,21.4,14.7,44.4,15.1,68,.2,21.4.9,42.8-1,64.2-.5,5.2-1.7,10.2-2.7,15.3-9.3,20.1-26.5,30.2-46.2,36.9-3.7,1.2-9.2,4.1-10.6-3.6-.6-3.2-3.3-1.2-5-.8-11.9,3.7-24.2,4-36.5,5.4-.2-.5-.5-.9-.6-1.4.2-1.1.6-2.2.8-3.3,2.7-1,5.4-1.9,8-3.1,14.3-6.3,29.7-11.3,39.6-24,9.6-12.2,16.8-26.4,22.9-40.8,4.8-11.3,4.6-22.1,0-34.2-14-36.8-42.4-59.1-74.9-77.7-9.3-5.3-23.8,1.5-26.7,11.8-6.5,22-19.3,39.4-38.4,51.9-9.3,6.1-18.4,11.9-16.1,25.5-3.7-10.3-7.8-14.3-15-13.6-7,.7-10.8,5.3-12.2,11.8-3.6,14.6,4,31.4,17.7,37,6.5,2.6,10.8,6.7,13.9,12.1,8.8,15.2,21.6,26.2,36.5,35.1,2.8,1.7,6.6,2.9,6,7.5-5.3.5-10.2-1.6-15.2-2.6-2.9-.6-6.1-.8-5.2,2.9,4,15.5-4.8,7.8-10.4,6-1.6-.6-3.4-.7-5-1.1-27.3-6-49.2-18-54.4-48.7h-.2v.3Z"/>
    <path id="path10" class="st6" d="M473.1,945c10.8-4.9,21.5.8,32.3.5,4.8,0,12.6,1,13.1-2,.9-5.4-6.3-7.4-10.6-9.4-19.3-8.9-39.2-15.3-60.8-13.3-5.2.5-10.4-.3-15.6,0-5.4.5-8-2.5-9.9-6.7s.9-6.9,3.5-9.9c2.8-2.9,10.1-4.1,8.3-8.2-1.7-3.9-8.4-1.6-12.9-1.5-16,.5-31.2,4.9-46.2,9.6-5.1,1.6-9.3,2-13.5-1.6-11-9.7-22.7-18.5-36.7-23.2-4.9-1.7-3.3-3.5-.9-6,5.1-5.2,11.1-9.7,17.7-12.2,14.4-5.4,23.2-17.8,34.9-26.5,7.9-5.8,15.2-11.1,26.3-9.9,18.8,2.2,37.4-1.5,55.7-5.1,20.3-4,40.9-5.8,60.2-14.7,8.3-3.9,11.9-8.6,12.3-16.5.5-8.5,6.1-11.8,12.6-14.7,6.2-2.8,8.5,2.9,12.3,5.6,11,7.5,14.7,19.6,20.2,30.6,8.7,17.4,15.7,35.9,25.3,52.9,5.2,9.4.3,17.3.3,25.8s-.9,6.8-.9,10.3c0,9.5,2.2,11.7,13.4,12.6,6.7.6,10.8-2.5,11.2-10,.2-4.8,4.1-8.2,7.1-11.6,3.5-4,8.8-6.8,8.6-13.4,0-2.2,1.8-2.7,3.7-2.7,9.3-.2,18.5-.5,27.5,1.7,1.5.3,2.8.8,2.8,2.6s-1.4,2.5-2.6,3.1c-6,2.8-12.1,5.3-18.1,8.4-2.5,1.2-5.9,2.5-6.2,5.6-.3,4.1,4.1,3.4,6.3,4.5,9.3,4.6,18.4,1.2,26.5-3.1,11.8-6.3,24.2-10.5,36.6-15.2,12.7-4.8,23.3,2.9,34.7,6.1,1,.2,2.3,2.3,2.3,3.4,0,2.4-2.4,1.8-4.1,2-2.5.5-5.1,1.2-7.6,1.5-5.6.3-8.3,1.5-3.1,6.6,1.4,1.2,2,3.1.8,4.6-1,1.2-2.5.8-4,.6-15-2.8-29.9-.5-44.7.9-4.4.5-8.4,1.9-10.4,7.6-2.4,6.8-10.8,8.7-14.6,14.6-15.4,1.5-27.3-8.3-40.7-13-7.1-2.5-6.5,0-6.5,4.5-4.3-.7-8.2.7-8,5.3,0,5.6,4.1,8.5,9.9,8.5,0,1.9-1,3.2-3.2,3.4-38.2,3.4-75.6,15.6-114.4,12.2-10.1-.9-20.6-.3-30.1-5.2v-.2h0ZM470.2,906.6c-.7,4.4-.6,6.9,1.9,8,3.9,1.8,6.9.5,10.2-2.2,10.9-8.8,18.8-20.3,28.1-30.5,8.2-8.7,9.6-8.8,14.8,1.5,5.8,11.4,11.7,22.9,17.3,34.4,1.7,3.4,4.4,4.5,7.7,4.2,3.5-.3,5.7-2.8,6.1-6.3.6-5.1,1.6-10.2,2-15.4,1.1-13.3,1-27.6,18.8-31.2,2.4-.5,4.9-2.3,6.5-4.2,3.3-4,6.7-8.4,4.8-13.8-1.9-5.7-8-4.8-12-4.4-11.7.8-23.3-1-35.1.6-13,1.8-26.4,1.5-39.6,2-3.3,0-6.1,1.1-8.2,4.1-11.6,16.8-18.1,35.8-23.4,53.1h.1ZM452.1,875.4c5.4.7,11.4-.3,17.3-1.9,1.8-.5,3.2-1.5,3.5-3.4s-.5-3.5-2.2-4.3c-16.7-7.7-32.7-16.8-51-20.6-5.7-1.2-6.1.9-5.1,5.3,3.5,16.3,10.8,23.1,27.2,24.9,3.2.3,6.3,0,10.3,0h-.1.1Z"/>
    <path id="path12" class="st6" d="M362.7,409.3c-18,3.9-32.9,13.3-46.2,25.5-1.5,1.4-4.1,2.2-2.6,4.6,1.4,2.4,3.5.8,5.4.3,11.4-2.7,23-5.2,34.4-8,2.8-.7,5.6-1.2,8.5-1.2,5.1.1,11.2-1.4,13.1,5.4,1.8,6.7-4.5,9.2-8.6,11.4-9.2,5.3-18.8,9.6-28.5,13.8-5.9,2.5-5,5.7-1.7,9.2,14.2,14.5,33.3,20.5,52.7,6.9,3.5-2.4,7.4-4.3,12-6.9-.6,14.8-4.2,28-6.2,41.3-.7,4.2-2.8,3.2-5.6,2.6-9.1-2.2-17.6-6.5-24.8-11.6-11-7.8-23.3-7.2-35.3-9.6-23.4-4.5-46.3,2.3-69.4,3.3-13.8.6-27.6,1-41.5,1.7-9.7.6-19.4,2-30.4,2.5,2.7,3.3,5.1,5.6,6.8,8.3,2.2,3.4,7.7,6.3,4.4,11.1-2.7,3.9-7.7,5.8-12.7,6.2-3.4.2-6.9,0-10.4.2,1.9-21.7,3.9-43.5,10-64.5,5.9-1,11.3-2.5,16.8-5.8,11.7-7,23.2-14.7,37.8-15.7,12.6-.9,25-3.4,33.2-15.2,5-7.2,10.9-13.9,16.4-20.8-8.2.3-15.2,2-21.9,4.4-23.3,8.5-47.1,12.8-71.9,7.8,1-13.8-1.7-27.9,1.9-41.7,7.8,0,14.5-6.7,22.9-3.4,5.2,2,10.4,1.2,16,.5,8.3-1.1,14.5-6.7,22.5-7.9,2.7.8,5.4,1.6,8.3,2.5,3.1,2.7,6.7,4.3,10.4,5.8,28.7,11.1,57.2,22.3,84.2,37.2v-.2h0Z"/>
    <path id="path14" class="st6" d="M596.5,498.3c-2.4-.1-5.1,0-6.6,1.7-9.3,11.6-22.9,8.8-35,10.3-7.2.9-6.7,5.8-4.5,9.1,5.1,7.7-.3,6.6-4.8,6.7-17,.5-34-2.9-51-1.8-5.8.3-11.4.2-17.2,1.5-10.1,2.2-19.5-.8-27.6-7-4.6-3.5-4.1-7.6,1.1-10.1,25.7-12.9,49.2-29.8,75.4-41.5,6.3-2.8,12.2-4.9,19.1-2.4,2,.8,4.5.5,6.9.5s5.6-1.6,6.9-4.4c1.5-3.1.6-6.1-2-7.7-10.3-5.9-16.1-15.6-23-24.7-7.2-9.4-17.3-10.5-28.1-6.9-5.8,1.9-11.7,3.6-17,6.2-7.9,3.9-15.6,3.4-23.4.3-2-.8-6.2-.1-5.4-4,.6-2.9,3.6-4.2,6.8-4.3,5.4-.2,10.9.2,16.3-1.2,6.9-1.7,10.5-4.9,10.6-12.2.2-8.7,8.2-8.2,13.4-8.8,11.9-1.5,21.7,4.3,30.6,11.7,3.1,2.6,6.2,5.4,8.5,8.6,4.4,6.1,10.3,7.8,17.3,7.2,7.1,4,8.3,12,11.6,18.2,9.1,17.4,17,35.3,21.1,54.7v.3h0Z"/>
    <path id="path16" class="st0" d="M268.1,366.5c-2.7-.8-5.4-1.6-8.3-2.5-8.2-6.2-17-11.4-26.4-15.5-8.7-6.8-17.4-13.7-26.2-20.5,5.6-13.6,9.5-28.1,25.4-34.2,10.2-3.9,20.1-8.5,30-12.8,5.2,30.6,27.1,42.7,54.4,48.7,1.7.3,3.4.6,5,1.1,5.7,1.8,14.4,9.5,10.4-6-.9-3.6,2.3-3.5,5.2-2.9,5,1,9.9,3.1,15.2,2.6-.1,13.8-11.9,13.1-20.5,16.5-3.4-1.4-6.7-.8-10,.8-18.1,8.4-36.2,16.5-54.4,24.8h.2Z"/>
    <path id="path18" class="st3" d="M391.3,329.6c12.2-1.5,24.6-1.7,36.5-5.4,1.7-.6,4.3-2.4,5,.8,1.5,7.8,6.9,5,10.6,3.6,19.8-6.7,37-17,46.2-36.9,6.2,4,11.6,8.8,15.2,15.2-7,7.9-8.3,18.2-10.9,28-2.9,5.8-5.9,11.6-8.8,17.3-3.1,4.5-3.9,10.4-8.4,14-19.6-11.8-42.1-15.7-63-24-1-.5-2.7.6-4.1.8-11.7-.3-16.5-3.9-18.4-13.5h0Z"/>
    <path id="path20" class="st6" d="M66.1,791.8c7.6,2.5,13.9-1.4,19.9-4.6,12.2-6.8,24.9-4.8,37.5-2.8,5.3.8,10.4,3.1,15.4,5.2,1.8.8,4.8,1.8,4.8,4.4s-2.8,3.6-4.9,4.2c-8,2.2-16.1,4.3-24.2,5.8-3.4.6-6.6,1.9-9.9,2.5-9.5,1.9-14,7.9-17.9,16.4-3.4,7.5-10.1,13.3-16.9,18.1-4.2,3.1-9.2,2-13-.9-7.8-6-16.2-10.8-25.6-13.7,9.9-13.3,21.6-24.7,34.8-34.5h0Z"/>
    <path id="path22" class="st8" d="M196.6,416.5c24.8,5,48.6.7,71.9-7.8,6.7-2.4,13.6-4.1,21.9-4.4-5.6,6.9-11.4,13.6-16.4,20.8-8.2,11.8-20.5,14.3-33.2,15.2-14.6,1-26.2,8.7-37.8,15.7-5.4,3.3-10.9,4.8-16.8,5.8,2.2-15.4,6.5-30.2,10.3-45.3h.1Z"/>
    <path id="path24" class="st6" d="M193.3,701.7c8.4.8,15,5.6,21.9,9.5,3.2,1.8,3.4,5.7,0,6.9-22,8.3-44.1,17.6-68,7-.5-.2-.7-.9-1-1.4,4.1-7.2,11.6-10.3,17.7-15.2,2.3,0,5.2.7,6.8-.5,6.9-4.6,13.6-9.4,22.7-6.6h0v.3Z"/>
    <path id="path26" class="st6" d="M104.6,877.3c8.9-12.5,22-19.8,34.2-28.2,1.7-1.1,3.6-1.6,4.4.3,3.4,7.5,9.7,13.5,10.1,22.4.2,4.3-.7,6.7-5.7,7.8-3.7.8-9.1.6-10.1,6.3-11.1-2.6-22.4-4-33-8.6h0Z"/>
    <path id="path28" class="st6" d="M207.4,327.8c8.7,6.8,17.4,13.7,26.2,20.5.2,5-1.9,8-6,11.4-8.6,7-17.6,6.9-27.4,4.5.7-12.5.1-25.3,7.1-36.5h.1,0Z"/>
    <path id="path30" class="st6" d="M202,619.9c10.8,1.9,20.8-3.3,31.4-3.4,2.9,0,6.2-1,10.2,1.9-12.7,11.6-22.7,25.8-39.8,31.2-.5-9.9.8-19.9-1.8-29.7h0Z"/>
    <path id="path32" class="st6" d="M836.4,646c-7.9-1.2-14.2-5.8-20.8-9.7-6.1-3.6-12.3-7.4-18.6-10.8-4.4-2.4-4.4-5-.8-7.8,4.5-3.5,8.6-9.1,15.6-3.5,1.7,1.4,5,.5,7.6.6,6.9,9.7,11.6,20.7,17,31.4h0v-.2Z"/>
    <path id="path34" class="st8" d="M200.1,364.4c9.7,2.4,18.8,2.5,27.4-4.5,4.1-3.3,6.1-6.5,6-11.4,9.4,4.2,18.2,9.3,26.4,15.5-7.9,1.1-14.3,6.8-22.5,7.9-5.6.8-10.8,1.6-16-.5-8.4-3.3-15.1,3.3-22.9,3.4.3-3.5-1.2-7.4,1.6-10.4h0Z"/>
    <path id="path36" class="st6" d="M494.1,334.9c2.6-9.7,3.9-19.9,10.9-28,6.5,8.2,9.9,17.6,11.4,27.6.9,5.3,1.1,10.8,1.6,16.1-4.1-1.1-8.2-2.9-12.3-3.2-8.2-.6-6.3-9.7-11.7-12.6h.1Z"/>
    <path id="path38" class="st6" d="M963.3,720.5c-7.4,5.1-13.7,12-23.4,13-3.1.3-6.7,2.6-8.7-.5s-1.8-7.4.3-10.6c3.3-5,6-10.5,11.1-14,8.9.6,14.2,7.4,20.6,12.1h.1Z"/>
    <path id="path40" class="st6" d="M799.9,908.5c0-16.7,13.5-30.7,29.7-31,1.9,0,3.6.3,4.2,2.3.7,2.6-1.6,2.4-3.2,2.7-2.5.6-5,1.1-7.5,1.8-3.4,1-5.1,3.5-2.9,6.5,2.9,4,2.3,8.2,2.5,12.3-7.2,3.1-15,4-22.7,5.3h0Z"/>
    <path id="path42" class="st6" d="M201.9,894.7c4-5.8,19-12.7,24.5-10.2,6,2.8,7,8.9,7,15.2-10.5-1.4-21.4-.2-31.4-4.9h-.1Z"/>
    <path id="path44" class="st6" d="M894.1,872.2s-.8-.9-1.1-1.2c-3.2-3.3-10.9-4-8.9-9.9,1.7-5.3,8.7-4.2,13.4-4.4,4.5-.3,9.7-2.2,13.9,1.7-3.6,7.2-9.7,11.3-17.2,13.9h-.1Z"/>
    <path id="path46" class="st6" d="M54,858.3c8.5-4.9,16-.2,23.2,3.2,4.4,2,1.9,4.9-.6,7.1-7.8-2.8-16.9-2.9-22.7-10.2h.1Z"/>
    <path id="path48" class="st6" d="M196.3,673.6c8.9,11.2,7,15.3-8.3,17.7-.1-7.2,3.4-12.8,8.3-17.7Z"/>
    <path id="path50" class="st6" d="M193.3,701.7c-9.1-2.9-15.7,1.8-22.7,6.6-1.6,1.1-4.5.3-6.8.5,6.2-7,15.2-10.2,22.4-15.6-.9,5.6,6.8,4.1,7,8.7h0v-.2Z"/>
    <path id="path52" class="st8" d="M620.7,934.6c-5.8,0-9.6-2.8-9.9-8.5,0-4.6,3.7-6,8-5.3,0,4.6.6,9.3,1.8,13.7h.1Z"/>
    <path id="path54" class="st6" d="M510.2,739.7c-3.2-1.1-6.3-2-9.4-3.4-16.5-7.9-33.8-5.8-51-3.5-2.3.3-5,.2-5.6,3.2-.6,3.1,2.4,3.6,4.2,4.8,3.7,2.2,7.5,4.3,11.2,6.6,1.6.9,2.8,2.2,2.6,4.2-.2,2.3-2.4,1.9-3.9,2.6-4.4,2.2-8.5,0-12.8-.2-15.7-.6-30.9,2.9-46.2,5.4-21.1,3.4-41.8,8.3-62.3,13.9-8.8,2.5-16.9,7.2-26.6,3.4-9.9-3.7-19.8-6.6-28.7-13-11.4-8.4-25-4.3-37.8-3.7-9.7.5-19.5,1.8-29.2,2.6-2.6.2-5.7.6-6.9-2.4-1.1-2.8.9-4.8,3.1-6.5,9.7-7.8,17.2-17.9,27.2-25.5,3.1-2.4,6.6-5.9,2.9-11.8-1.7-2.8.5-8.3,1.5-12.3,1.8-7.1,1.6-13.5-3.7-19.4-4.4-4.8-2.6-9.5,1-13.9,5.3-6.3,10.6-12.8,14.3-20.4,2-4.3,2.7-8.4-.6-12.1-5.3-5.9-1.5-7.9,3.7-9.4,14.4-4.2,28.4-9.4,42.3-15.1,1.5-.6,4-.3,3.9-2.6,0-2.6-2.4-2.8-4.4-3.2-11.9-2.4-24.9-2.3-35.2-7.7-13.7-7.2-26.4-5.4-39.9-2.8-5.8,1.1-9.5-1.2-10.4-7.4-.5-2.8-1.1-5.7-1.7-8.5-2.8-13-2.7-13.4,10.2-9.4,12.1,3.6,23.9,8.3,35.9,12.2,5.9,1.9,12.1,1.2,18.1.7,15.5-1.5,30.7-5.1,45.2-11,2-.8,5-1.5,4.9-4.3,0-2.8-3.2-3.2-5.1-4-19.5-8.4-40-12-60.7-15.6-12.2-2.2-24.9.9-36.7-4.4-2.9-1.4-6.8-1.9-7-5.4-.2-4.1,3.7-6,7-6.6,20.7-3.6,40.6-12.5,62.2-11.1,1.9,0,4.4-1,5.4,1.4,1,2.3-1.4,3.5-2.5,5.1-1.7,2.6-4.9,4.6-2.7,8.3,2,3.4,5.7,2.7,8.6,2.5,17.1-1.7,34.4,4,51.5-1.4,1.8-.6,3.4.6,4.6,1.7,6.6,6.6,14.8,7.2,23.3,6.5,14.8-1.4,28,.3,38.4,13,3.5,4.4,8.4,6.8,5.2,13.5-1,2.3.3,5.6,3.2,4.5,19.4-6.9,27.9,9.1,39.5,18.4,2.7,2.3,8.3,5.2,4.2,9.6-3.4,3.7-8.3,2.2-12.7-.6-9.3-5.8-18.7-11.2-28.2-16.4-7.6-4.2-11.3-1.8-13.5,6.5-2.4,9.1-1.8,17.7,1.1,26.4,2.2,6.6,0,9.1-6.8,8.7-24-1.1-47.9.6-71.1,7.1-8.4,2.4-17.7,3.2-24.9,8.8-3.3,2.5-6,5.3.7,7.5,4.9,1.6,9.5,4,14.4,5.7,2.8,1,5.9,2,6.2,5.2.3,3.4-2.9,4.6-5.4,6-12,6.8-24.6,12.6-37.4,17.7-3.6,1.5-6.7,3.2-9.4,5.9-3.4,3.6-3.9,6.9-.2,10.5,13.3,13.3,25.6,27.4,41.3,37.9,2,1.4,4,2.7,6.3,1.6,2.7-1.2,1.7-4,1.9-6.1.7-11.6-.9-23,1.5-34.5,1.2-6.2,3.5-9.3,10-9.2,5.7,0,10.2-1.9,14.4-6.3,6.1-6.5,15-6.6,23.2-7.4,14.7-1.5,29.3,1.7,44.1,1.8,5,0,9.3-.7,11.4-5.8,2-4.9,7-4.6,11-5.9,10.6-3.6,21-8.2,32.1-10.2,4.8-.9,6.7-.5,7.2,4.9,1.2,9.7,2.9,19.3,3.6,29.1.9,13.5,10.3,23.2,18.2,33.4,2.6,3.3,5,6.7,7.5,10-.5.6-.8,1-1.2,1.6h.4ZM384.2,741.6c15.6-2.4,35.7-4.9,49-23.2,2.3-3.2,6.1-5.1,10.1-6.3,6.6-2,13-4.4,19.5-6.8,3.6-1.4,9.2-1.6,7.9-7.1-1-4.5-5.8-4.9-10-5.2-12.8-.9-25.4,1.6-37.9,2.4-7.1.5-14.4.6-21.5,1.1-3.2.2-7.1.3-5.1,5.3,4.2,10.4,4.2,10-6.9,10.4-9.4.5-18.1-3.4-27.4-3.6-3.1,0-6.3-.8-7,4.2-1.8,13.3,11.4,28.9,29.3,28.9h0ZM374.6,565.9c-.9.2-3.6,0-4.6,1-8.2,8.9-17,17.3-23.6,27.6-.6.9-1.2,2.3-.9,3.1.7,1.7,2.3.9,3.7.8,15.2-1,25.7-8.9,32.6-22.1,1.2-2.5,3.6-4.9,1.8-7.9-1.8-3.1-5-2.2-8.9-2.5h-.1Z"/>
    <path id="path56" class="st6" d="M528.9,598.8c-13.4,1.6-26.7,2.7-39.9,4.9-6,1-10.1,0-14.8-4.1-9.5-8.3-19.8-15.6-30-23.2-4-2.9-4.2-4.4.2-7.4,7.9-5.1,14.5-11.6,20.6-19,6.7-8.3,18.5-8.6,28.8-8.8,3.2,0,6.1,2.8,7.1,6.7,3.5,12.5,13.5,21.3,25.7,21.6,26.8.8,53.7.6,80.1-5.4.5,0,.7-.8,1.5-1.7-4.2-4.5-10.1-3.5-15.1-4.8-13.1-3.1-26.5-5.2-39.6-8-2.5-.6-6.7-.5-6.2-4.4.3-2.8,3.7-3.1,6.3-3.3,19.5-1.4,39.2-1.8,58.6-4.1,19.1-2.3,36,2.5,53.7,7.9,10.3,3.2,21.9,1.6,31.4,8.2,2.3,1.6,5.9,2.2,5.1,6-.7,3.7-4.4,3.6-6.9,4.2-11.8,2.6-23.8,4-35.2,7.9-1.9.7-5.3.3-5.4,3.3,0,2.5,2.4,3.9,4.4,4.9,7.5,3.4,15.4,4.8,23.4,5.2,19.9,1.2,39.8-2.5,59.7-1.7,2.6,0,5.8-1.4,8.2,1.9-17.7,7.8-36,12.2-54.5,15.9-13.3,2.6-20.8,11.1-27.6,21.2-5,7.5-10.9,14.2-17.4,20.4-6.9,6.6-13.3,6.3-20.1-.6-3.6-3.7-6-11.1-12.1-9.3-5.6,1.7-3.5,9.1-4.8,13.8-2.3,8.7-4.2,17.2-13.3,22.1-4.2,2.3-8.5.9-12.7,2.2-12.6,3.7-25.4,5.2-38.5,4.5-12.7-.6-22.8,5.6-30.2,14.3-5.7,6.5-3.5,16.3-4,24.8,0,1.8,2.3,4.1-.5,5.2-2.3.9-3.7-1.5-4.8-3.1-8.5-13.4-17.2-26.7-19.6-42.8-2.6-17.7-1.5-18.8,17.4-22.8,9.2-1.9,18.6-3.7,27-8.6,1.8-1,3.7-1.7,4-4.1.2-2.6-2.2-3.3-3.9-4.1-13.1-6.6-27.4-8.5-41.6-11-2.7-.5-6.8.8-7.1-2.9-.3-3.6,4-3.2,6.3-4.4,11.7-6.1,25.1-8,36.6-14.8l-.5-2.5h0v-.2ZM626.8,623.5h4.3c24,0,21,3.1,15.3-20.7-1.8-7.6-7-12.8-16.4-12.3-8.6.5-17.1.2-25.6,2.8-5.8,1.8-12,1.4-18,0-8.9-1.9-17.9-4.2-26.8-6.1-1.8-.3-4.4-1-5.6,1.1-1.2,2.4,1.1,3.6,2.6,4.8,6.7,5.1,12.6,10.5,14.2,19.6.6,3.3,4.4,4.9,8,5.7,16.1,3.4,32.2,5.8,47.8,5.3h.2v-.2Z"/>
    <path id="path58" class="st6" d="M604.8,850.5c-4-7.1-8-14.4-12.1-21.5-1.1-1.9-2.2-4,.5-5.1,10.3-4.9,13-17.9,24.4-22.1,3.2-1.1,1.4-4-1.6-4.4-11.4-1.7-23-1.8-33.2,4.4-3.9,2.4-5.6,2-7.2-1.7-4.1-9.1-9.5-17.1-16.5-24.1s-2.3-2.9-1.9-3.6c7.1-13.7-5.7-14.7-12.3-17.9-10.2-4.8-14.6-13.8-22.1-23,17.4,2,32.3,6.7,47,11.1,19.6,5.9,24.5-3.1,29.6-16.7,6.8-18.1,7.9-18.6,23.1-6.1,8.9,7.4,16.9,15.5,24.7,24.1,4.9,5.4,2.6,7.4-2.6,10.1-4.2,2.2-10.9,1.1-11.3,8.5-.3,6.6,2.7,9.1,8.8,8.3,20.8-2.7,46.8,10.3,57.8,28.8,3.6,6.1,10,6.5,16.1,6.3,9.6-.2,19,.6,27.8,5.2,7.4,4,11.1,13.6,21.3,13.1,1.5,0,2.5,2.4,1.9,4.3-.9,3.2-3.6,3.6-6.3,3.4-13.4-1.2-26.3,2.7-39.5,3.7-14.2,1.1-27.4-.2-38.7-9.7-3.9-3.2-4.8-8.9-9.4-11.1-5.9-2.7-11.3-6.1-18.6-5.8-8.3.3-13.5,5.4-11.4,13.7,2.7,11.8,1.4,13.4-11.2,12.7-1.1,0-2.4,0-3.5-.3-13.6-2.5-14.2-2.2-19.7,10.1-.8,1.7-.5,4.2-3.3,5.2h-.6Z"/>
    <path id="path60" class="st6" d="M886.8,739.1v7c.3,5.7,0,11.8-5.9,14-6,2.3-10.5-2.2-14-6.5-4-4.9-7.9-10-11-15.4-2.4-4.3-3.2-4.4-6.1-.3-4.8,6.3-2.8,13.8-4.4,20.7-2,8.8-2.9,9.6-12,8.5-23.9-3.1-45.1-12.8-65.5-24.9-5.2-3.2-7.6-5.6-2-10.9,10-9.6,13.6-23.1,19.9-35,2.2-4,3.4-8.4,5-12.6,1.6-4.5,5.2-4.9,9.2-4.6,15.7.8,30.6,5.3,45.1,10.6,10,3.6,19.7,8,29.7,11.6,6.9,2.4,9.6,8,10,13.9.7,8.6,3.7,17,2.2,24v-.2h-.2Z"/>
    <path id="path62" class="st1" d="M409.8,343.1c1.4-.3,2.9-1.2,4.1-.8,20.8,8.4,43.5,12.2,63,24,0,3.4-1.7,6-4.2,8.2-10.3,9.1-20.4,18.8-33.3,24-11.8,4.9-23.4,9.2-29.2,21.9-.5,1-2.3,1.6-3.5,2.3-.6,0-1,.3-1.4.7-5.2.8-8.7-4.2-13.7-3.7-9.2-4.4-18.7-8.3-28.8-10.3-27-14.7-55.5-26.1-84.2-37.2-3.7-1.5-7.4-3.1-10.4-5.8,18.1-8.3,36.2-16.4,54.4-24.8,3.3-1.5,6.6-2,10-.8-.5,2.6-.2,5.1.6,7.6,8.6,28.5,46.9,44.6,73.6,31,2.5-1.2,3.7-3.3,4.8-5.8,4.4-10.5,4.1-20.7-1.5-30.7l-.2.2h0Z"/>
    <path id="path64" class="st6" d="M971.8,775.7c-16,7.5-30.9,9.3-44.9,14.2-6,2-11.9,4.4-17.6,7-9.2,4.2-9.1,5.7-3.1,14,1.5,2,3.7,4.2,1.9,6.9-1.7,2.7-4.1.6-6.2.6-11.6-.2-23.1-1.1-34.4,1.5-8.3,1.9-10.2,7-4.6,13.4,2.7,3.1,2.9,5.6,1.4,9.3-5.1,11.8-12.8,18.4-26.6,17.6-16.2-.9-32.4-1-48.6,0-13.7.8-25.4-4.1-37.4-9.1-1.6-.7-3.5-1.2-3.1-3.4.6-2.3,2.8-1.4,4.4-1.7,23.4-5.1,47.2-9.3,70.1-16.7,4.4-1.4,9.2-.3,13.6-2.2,4.8-1.9,10.8-.6,13-7.7.6-1.8,6.1-2.8,9.4-2.8,5.7,0,10.6-1.9,15.9-3.4,6.2-1.7,5.2-5.1,3.4-9.1-.6-1.2-1.9-2-2.8-3.3-2.6-3.3-8.7-5.7-7.4-9.9,1.5-4.6,7.9-3.3,12.1-4.1,17.8-3.5,35.6-6.9,53.4-9.6,11.7-1.8,23.4-4.1,37.8-1.7h.2v.2Z"/>
    <path id="path66" class="st6" d="M391.4,419.6c5-.3,8.6,4.5,13.7,3.7.3.7.6,1.5.9,2.2,1.4-.7.6-1.8.5-2.8,1.2-.8,2.9-1.2,3.5-2.3,5.8-12.7,17.4-17,29.2-21.9,12.9-5.3,22.9-15,33.3-24,2.5-2.2,4.2-4.8,4.2-8.2,4.5-3.6,5.3-9.5,8.4-14,3.1,7.7,3.6,16,6.7,23.8,1.9,5-5.9,14-13.5,15.7-7.1,1.6-12.5,7.1-19.8,7.9-.2,0-.7.2-.8.5-4.9,15.2-24,19.5-27.1,36-.5,2.4-2.5,4.5-4.1,6.6-3.6,4.8-3.3,9.4,1.4,12.9,5.8,4.4,5.7,9.5,2.9,15.3-3.5,7.6-6.6,15.3-10.5,22.5-3.3,5.9-6.9,11.2-6.8,18.4,0,2-1,5-3.9,5s-2.3-3.3-2.7-5.3c-4.6-22.4,1.1-44.9,0-67.3-.1-3.1.9-6.3-1.5-9.9-3.5,3.5-1,7.8-3.2,11.7-.6-10.2-4.9-18.7-10.9-26.5h0Z"/>
    <path id="path68" class="st6" d="M392.6,813.1c-6.6,1.5-11.8-2.8-17.7-3.9-2.2-.3-3.9-1.5-4.1-3.9-.2-2.8,1.7-4,4.1-4.8,7.4-2.4,14.6-5.2,22.7-5.2s15.5-2.8,19.9-10c4.6-7.4,11.6-8.8,19.3-9.2,4.1,0,8.2-.3,12.1,0,8.5.9,15.1-1.4,19.5-9.2,1.5-2.7,3.5-5.1,6.7-6.5,8.3-3.4,18.5-1.7,21.3,3.9,2.4,4.5-3.2,18.6-8.9,21.7-4.5,2.6-9.5,4.2-15,3.9-5.7-.3-10.4,1.5-13.3,6.6-2.8,5-6.9,7.9-12.5,8.2-18.5.8-36.2,5.8-54.4,8.2h.2v.2Z"/>
    <path id="path70" class="st6" d="M215.3,865.2c-10.3,1-16.5-5.3-22.1-12.6-1.4-1.8-2.3-4-3.6-5.9-3.5-5-11.4-7.5-10.1-15.2,1.6-9.6,5-19,10.9-26.8,6.2-8.3,16.2-12.9,22-21.9,1.1-1.7,3.9-3.5,6-1.9,1.8,1.2.7,3.6.3,5.7-1.2,7.1-4.3,13.7.1,21.5,3.7,6.6-3.4,11.6-7,16.4-6.5,8.5-5.8,11.7,4.6,13.6,10.6,1.9,21.5,2.9,32.4,4.3,3.5.5,7.5.2,8.5,4.3,1.1,4.8-3.5,5.4-6.3,6.9-11.2,5.8-22.7,10.9-35.6,11.6h-.1,0Z"/>
    <path id="path72" class="st6" d="M754.8,658.3h-15.6c-10.5,0-19.1-8.4-19.3-18.7,0-3.4,1.9-5.2,4.3-7,10.4-7.5,23-10.8,34-17,2-1.1,3.9-.7,5.6.8,11.2,9.5,22.3,19.3,31.8,30.5,5.3,6.3,4.1,8.8-4.6,9.5-12,1-24,3.1-36.1,1.8h-.1Z"/>
    <path id="path74" class="st6" d="M719.3,774.9c8.9-.8,17.7,2,26.6,1.7,7.7-.3,8.3-3.6,5.8-9.3-1.8-4.2-4-8.4-6.1-12.5-1.1-2.2-2.3-4.5-.7-6.6,1.8-2.4,4.8-1.8,7.2-.8,9.3,3.7,18.4,7.7,27.6,11.4,3.2,1.2,6.3,2.6,9.6,3.5,8.4,2.4,9.2,5.4,3.1,11.8-2.5,2.6-5.3,5-8.6,5.6-17.3,3.4-34.2,10.1-52.1,10.3-9.1,0-16.4-4.9-23.8-9.2-4-2.4-1.1-5.2,1.8-6,3.1-.7,6.3,0,9.5,0h0v.2Z"/>
    <path id="path76" class="st6" d="M729.6,714.2c-4.8,3.9-10.9,4.2-16.2,4.4-14.6.6-29.3,1.8-44-1.4-4.8-1-7.6-3.7-8.7-8.4-1.2-5.2,2-7.1,5.9-8.8,6.6-2.8,13.6-4.4,20.7-5.2,1.7-.2,4.1-.5,5,.6,10.1,10.1,24.4,11,36.1,17.2.3.2.6.9.9,1.7h.3Z"/>
    <path id="path78" class="st6" d="M487.1,438.4c3.2.7,5.8.9,8.3,3.1,4,3.3,4.2,6.1-.7,8.3-8,3.5-14.5,9.2-21.4,14.3-6.7,5-24.4,2.3-28.7-4.2-2.3-3.3.3-5.2,2.3-7.4,4.5-5.1,11.4-5,17.2-7.5,7.2-3.2,15.3-4.4,23-6.5h0Z"/>
    <path id="path80" class="st6" d="M272.5,802.5c7.6,0,15.2-.7,22.7,0,17.7,1.9,35.5,1.7,52.8,6.1,2.4.6,5.7.6,6.1,3.9.5,2.9-2.4,4.5-4.3,6-5.6,4.2-12.2,4.8-18,1.7-13.8-7.4-29.2-7.7-44.1-10.4-5.8-1-10.2-4-15.6-4.9l.2-2.5h.2,0Z"/>
    <path id="path82" class="st6" d="M270,894.7c-2.9,0-5.9.2-8.3-2-3.1-2.8-4.8-4.4-.3-8.6,7.9-7.6,17.7-11.9,26.6-17.7,2.5-1.6,5.8-2.5,8.2-.6,3.1,2.5.5,6.1-.8,7.8-6.7,9.1-11.4,20.6-25.3,21h-.1Z"/>
    <path id="path84" class="st6" d="M158,745.2h7.7c4,0,8.3-.6,10.8,3.6,2.6,4.5-.2,8-2,12-1.5,3.2-2.9,3.5-5.9,2.6-7.6-2.4-15.3-4.1-22.8-6.7-2.9-1-6.9-2.7-6.2-7.1.7-4.8,4.6-4.3,8-4.3h10.4Z"/>
    <path id="path86" class="st6" d="M787.5,813.8c-5.3-3.7-12.1-7.5-17.6-12.7-2-2,2-4,4.8-3.6,14.8,1.9,29.6,4.4,43.8,8.7,1.7.5,3.5,1.2,2.9,3.4-.5,1.8-2.3,1.5-3.6,1.6-9.7.9-19.5,1.7-30.4,2.7h0Z"/>
    <path id="path88" class="st6" d="M776.1,607.7c-3.7-.8-10.2,2.2-10.4-4.2,0-5.9,3.9-10.9,10.8-11.3,4.5-.3,9.2,0,13.7.6,2.8.5,6.5,1,6.2,5.6-.2,4-2.2,6.6-5.9,7.5-4.8,1.1-9.4,2.7-14.4,1.9h0Z"/>
    <path id="path90" class="st6" d="M991.7,759.1c-4.1.6-9.3-1.5-9.5-4.9-.2-3.9,4.8-5.8,9.2-5.6,3.7.2,8.2.3,8.3,5.4,0,4.9-3.9,5-7.8,5h-.2Z"/>
    <path id="path92" class="st6" d="M421.2,545.1c3.5.7,7.9.3,7.8,5.1,0,2.5,0,7.6-4.6,6.7-4.6-.9-6.7-5.7-7.7-9.6-.7-2.5,3.1-1.5,4.6-2.2h-.1,0Z"/>
    <path id="path94" class="st7" d="M409.8,343.1c5.6,10,5.9,20.2,1.5,30.7-1,2.5-2.2,4.4-4.8,5.8-26.7,13.6-65-2.5-73.6-31-.8-2.6-1-5.1-.6-7.6,8.5-3.4,20.4-2.8,20.5-16.5.6-4.5-3.2-5.8-6-7.5-14.8-8.9-27.6-19.9-36.5-35.1-3.2-5.6-7.5-9.5-13.9-12.1-13.7-5.7-21.3-22.3-17.7-37,1.6-6.3,5.3-11.1,12.2-11.8,7.1-.7,11.2,3.2,15,13.6-2.3-13.6,6.8-19.4,16.1-25.5,19.1-12.5,31.9-29.8,38.4-51.9,2.9-10.3,17.4-17.1,26.7-11.8,32.5,18.6,60.8,40.9,74.9,77.7,4.6,12.1,4.8,22.9,0,34.2-6,14.5-13.3,28.5-22.9,40.8-10,12.7-25.4,17.7-39.6,24-2.6,1.1-5.3,2-8,3.1-2.6.6-2,1.8-.8,3.3,0,.5.2.9.6,1.4,1.8,9.6,6.7,13.1,18.4,13.5h.2v-.3ZM378.4,289.1c5.9-.6,11.6-1.6,16.3-5.4,1.7-1.4,3.4-2.8,1.9-5-1.6-2.3-3.5-.8-5.3.2-10.2,6-19.6,5.9-28.1-3.1-1.2-1.4-2.7-2.6-4.4-1.4-2.4,1.6-.9,3.7.2,5.3,4.6,6.9,11.9,8.6,19.5,9.3h-.1ZM389.2,259.8c5.3.1,11.8-9.9,9.3-14.4-1.8-3.3-3.6-6.6-5.8-9.6-1.5-2.2-2.3-6.6-6-4.3-2.8,1.7-.5,4.8.8,6.9,3.4,5.9,8.2,11.4-.5,17.3-2,1.4-.2,3.6,2,4.1h.2ZM417.6,219.4c-4,.8-7.1,2.6-6.9,7.2.2,3.9.9,7.7,6.1,7.4,4.5-.3,7.6-2.5,7.6-7.5s-2.5-6.7-6.9-7.1h.1,0ZM361.8,218.2c-5.3.6-7.4,3.3-6.9,8.3.3,3.6,1.2,6.2,5.7,6,4.6-.3,8-2.4,8-7.2s-2.5-6.9-6.7-7h-.1ZM434.9,197.7c-9.6-7.4-17.8-7.1-22.9.5,7.5-3.5,14.2-1.1,22.9-.5ZM347,197.7c5.9-.5,11.7-3.3,17.6-.6,1.1.5,2.3,0,2.5-1.6.1-1.5-1.1-1.9-2.2-2.3-6.6-2-12.8-1.6-17.9,4.3h0v.2Z"/>
    <path id="path96" class="st3" d="M390.9,328.4c-1.2-1.5-1.7-2.7.8-3.3-.2,1.1-.6,2.2-.8,3.3Z"/>
    <path id="path98" class="st8" d="M470.2,906.6c5.4-17.3,11.9-36.2,23.4-53.1,2-2.9,4.8-4,8.2-4.1,13.3-.6,26.6-.2,39.6-2,11.8-1.6,23.3.2,35.1-.6,4-.2,10-1.1,12,4.4,1.9,5.4-1.6,10-4.8,13.8-1.6,1.9-4.1,3.7-6.5,4.2-17.8,3.5-17.7,17.9-18.8,31.2-.5,5.2-1.5,10.2-2,15.4-.3,3.5-2.5,6-6.1,6.3-3.3.3-6.1-.8-7.7-4.2-5.7-11.6-11.6-23-17.3-34.4-5.2-10.3-6.8-10.3-14.8-1.5-9.4,10.1-17.2,21.6-28.1,30.5-3.3,2.6-6.3,4-10.2,2.2-2.5-1.1-2.6-3.6-1.9-8h-.1Z"/>
    <path id="path100" class="st8" d="M452.1,875.4c-3.9,0-7.1.3-10.3,0-16.4-1.8-23.7-8.6-27.2-24.9-.9-4.4-.5-6.5,5.1-5.3,18.2,3.9,34.3,12.9,51,20.6,1.7.8,2.5,2.4,2.2,4.3s-1.7,2.9-3.5,3.4c-5.9,1.6-11.9,2.6-17.3,1.9h.1-.1Z"/>
    <path id="path102" class="st8" d="M384.2,741.6c-17.9,0-31-15.5-29.3-28.9.7-4.9,4-4.2,7-4.2,9.3.2,17.9,4,27.4,3.6,11.2-.5,11.1,0,6.9-10.4-2-5,1.9-5.1,5.1-5.3,7.1-.6,14.4-.6,21.5-1.1,12.7-.9,25.3-3.4,37.9-2.4,4.2.3,9.1.7,10,5.2,1.2,5.6-4.4,5.8-7.9,7.1-6.5,2.4-12.9,4.6-19.5,6.8-4,1.2-7.8,3.2-10.1,6.3-13.3,18.5-33.3,20.8-49,23.2h0Z"/>
    <path id="path104" class="st8" d="M374.6,565.9c4,.2,7.1-.6,8.9,2.5s-.6,5.4-1.8,7.9c-6.9,13.3-17.4,21.1-32.6,22.1-1.4,0-3.1.9-3.7-.8-.3-.8.3-2.2.9-3.1,6.6-10.3,15.4-18.7,23.6-27.6,1.1-1.1,3.7-.9,4.6-1h.1Z"/>
    <path id="path106" class="st8" d="M626.8,623.5c-15.6.6-31.8-1.8-47.8-5.3-3.5-.8-7.5-2.4-8-5.7-1.6-9.1-7.5-14.5-14.2-19.6-1.5-1.1-3.9-2.4-2.6-4.8,1.1-2.2,3.7-1.5,5.6-1.1,8.9,1.9,17.9,4.1,26.8,6.1,6,1.2,12.2,1.7,18,0,8.5-2.6,17-2.4,25.6-2.8,9.3-.5,14.6,4.9,16.4,12.3,5.7,23.9,8.7,20.6-15.3,20.7h-4.5v.2Z"/>
    <path id="path108" class="st4" d="M406.6,422.6c0,1,.8,2-.5,2.8-.3-.7-.6-1.5-.9-2.2.5-.3.9-.6,1.4-.7h0Z"/>
    <path id="path110" class="st2" d="M378.4,289.1c-7.6-.7-14.8-2.4-19.5-9.3-1-1.6-2.5-3.7-.2-5.3,1.7-1.1,3.2,0,4.4,1.4,8.5,8.9,18,9.2,28.1,3.1,1.7-1,3.7-2.5,5.3-.2,1.4,2.2-.3,3.6-1.9,5-4.8,3.9-10.3,4.8-16.3,5.4h.1Z"/>
    <path id="path112" class="st2" d="M389.2,259.8c-2.3-.5-4-2.7-2-4.1,8.6-5.9,3.9-11.4.5-17.3-1.2-2.2-3.6-5.2-.8-6.9,3.7-2.3,4.5,2.2,6,4.3,2.2,3.1,4,6.3,5.8,9.6,2.4,4.5-4,14.5-9.3,14.4h-.2Z"/>
    <path id="path114" class="st2" d="M417.6,219.4c4.3.5,6.9,2.6,6.9,7.1s-3.1,7.1-7.6,7.5c-5.2.3-5.9-3.5-6.1-7.4-.2-4.6,2.9-6.5,6.9-7.2h-.1,0Z"/>
    <path id="path116" class="st2" d="M361.8,218.2c4.2,0,6.8,2.6,6.7,7,0,4.9-3.5,6.9-8,7.2-4.3.3-5.3-2.4-5.7-6-.5-5,1.7-7.7,6.9-8.3h.1Z"/>
    <path id="path118" class="st3" d="M434.9,197.7c-8.7-.7-15.5-3.1-22.9.5,5.1-7.5,13.3-7.8,22.9-.5Z"/>
    <path id="path120" class="st3" d="M347,197.7c5.1-5.9,11.3-6.3,17.9-4.3,1,.3,2.3.8,2.2,2.3s-1.4,2-2.5,1.6c-6-2.7-11.7,0-17.6.6h0v-.2Z"/>
  </g>
</svg>