<?xml version="1.0" encoding="UTF-8" standalone="no"?>
<svg
   version="1.1"
   viewBox="0 0 1023.9999 1024"
   id="svg127"
   sodipodi:docname="rettungsdecken.svg"
   width="1024"
   height="1024"
   inkscape:version="1.1.2 (0a00cf5339, 2022-02-04)"
   inkscape:export-filename="rettungsdecken.png"
   inkscape:export-xdpi="96"
   inkscape:export-ydpi="96"
   xmlns:inkscape="http://www.inkscape.org/namespaces/inkscape"
   xmlns:sodipodi="http://sodipodi.sourceforge.net/DTD/sodipodi-0.dtd"
   xmlns="http://www.w3.org/2000/svg"
   xmlns:svg="http://www.w3.org/2000/svg">
  <sodipodi:namedview
     id="namedview129"
     pagecolor="#ffffff"
     bordercolor="#999999"
     borderopacity="1"
     inkscape:showpageshadow="0"
     inkscape:pageopacity="0"
     inkscape:pagecheckerboard="0"
     inkscape:deskcolor="#d1d1d1"
     showgrid="false"
     inkscape:zoom="0.35359958"
     inkscape:cx="-393.10002"
     inkscape:cy="583.99391"
     inkscape:window-width="1920"
     inkscape:window-height="1016"
     inkscape:window-x="0"
     inkscape:window-y="0"
     inkscape:window-maximized="1"
     inkscape:current-layer="Layer_1"
     inkscape:pageshadow="0" />
  <defs
     id="defs4">
    <style
       id="style2">
      .cls-1 {
        fill: #d6dde4;
      }

      .cls-2 {
        fill: #f5cca5;
      }

      .cls-3 {
        fill: #d5dde5;
      }

      .cls-4 {
        fill: #d6dfe6;
      }

      .cls-5 {
        fill: #47659e;
      }

      .cls-6 {
        fill: #d6dee6;
      }

      .cls-7 {
        fill: #375da0;
      }

      .cls-8 {
        fill: #788c9f;
      }

      .cls-9 {
        fill: #788c9e;
      }

      .cls-10 {
        fill: #df6f59;
      }

      .cls-11 {
        fill: #c1cad3;
      }
    </style>
    <filter
       style="color-interpolation-filters:sRGB;"
       inkscape:label="Drop Shadow"
       id="filter358"
       x="-0.1256771"
       y="-0.14243564"
       width="1.2763986"
       height="1.3132552">
      <feFlood
         flood-opacity="0.501961"
         flood-color="rgb(0,0,0)"
         result="flood"
         id="feFlood348" />
      <feComposite
         in="flood"
         in2="SourceGraphic"
         operator="in"
         result="composite1"
         id="feComposite350" />
      <feGaussianBlur
         in="composite1"
         stdDeviation="4.6"
         result="blur"
         id="feGaussianBlur352" />
      <feOffset
         dx="2.2"
         dy="2.2"
         result="offset"
         id="feOffset354" />
      <feComposite
         in="SourceGraphic"
         in2="offset"
         operator="over"
         result="composite2"
         id="feComposite356" />
    </filter>
  </defs>
  <!-- Generator: Adobe Illustrator 28.7.3, SVG Export Plug-In . SVG Version: 1.2.0 Build 164)  -->
  <g
     id="g125"
     transform="matrix(11.327824,0,0,11.327824,-2801.413,-4068.9469)">
    <g
       id="Layer_1">
      <g
         id="g122">
        <path
           class="cls-11"
           d="m 264.63,418.66 c 0.1,-0.74 0.39,-1.42 0.66,-2.11 1.52,-0.48 2.39,-1.73 3.51,-2.75 -0.35,-0.26 -0.63,-0.17 -0.9,-0.17 -0.93,0 -1.82,0.47 -2.77,0.3 -0.33,-1.32 -0.91,-2.54 -1.52,-3.75 -0.73,-1.44 -0.79,-2.96 -0.76,-4.52 0.31,0 0.61,0 0.92,-0.02 0.44,-0.04 0.88,-0.21 1.12,-0.55 0.29,-0.42 -0.2,-0.67 -0.39,-0.98 -0.15,-0.24 -0.36,-0.44 -0.6,-0.73 0.97,-0.04 1.82,-0.17 2.68,-0.22 1.22,-0.07 2.44,-0.1 3.66,-0.15 2.04,-0.09 4.06,-0.7 6.13,-0.29 1.06,0.21 2.15,0.16 3.12,0.85 0.64,0.46 1.39,0.83 2.19,1.02 0.24,0.06 0.43,0.15 0.49,-0.23 0.18,-1.18 0.49,-2.35 0.55,-3.65 -0.41,0.24 -0.75,0.4 -1.06,0.61 -1.71,1.2 -3.4,0.67 -4.65,-0.61 -0.3,-0.31 -0.37,-0.58 0.15,-0.81 0.86,-0.37 1.72,-0.75 2.52,-1.22 0.35,-0.2 0.92,-0.42 0.76,-1.01 -0.16,-0.6 -0.71,-0.47 -1.16,-0.48 -0.26,0 -0.5,0.04 -0.75,0.11 -1.01,0.25 -2.03,0.47 -3.04,0.71 -0.17,0.04 -0.36,0.18 -0.48,-0.03 -0.13,-0.22 0.1,-0.3 0.23,-0.41 1.18,-1.07 2.5,-1.91 4.08,-2.24 0.89,0.17 1.73,0.51 2.54,0.91 0.53,0.69 0.91,1.44 0.96,2.34 0.2,-0.33 -0.03,-0.72 0.28,-1.03 0.22,0.31 0.12,0.6 0.13,0.87 0.1,1.98 -0.41,3.96 0,5.94 0.04,0.18 -0.07,0.46 0.24,0.47 0.25,0 0.34,-0.26 0.34,-0.44 -0.01,-0.63 0.31,-1.1 0.6,-1.62 0.35,-0.64 0.63,-1.33 0.93,-1.99 0.24,-0.51 0.25,-0.96 -0.26,-1.35 -0.41,-0.31 -0.44,-0.72 -0.12,-1.14 0.14,-0.18 0.32,-0.37 0.36,-0.58 0.27,-1.46 1.96,-1.85 2.39,-3.18 0,-0.02 0.04,-0.03 0.07,-0.04 0.64,-0.07 1.12,-0.56 1.75,-0.7 0.67,-0.15 1.36,-0.95 1.19,-1.39 -0.26,-0.69 -0.32,-1.42 -0.59,-2.1 0.26,-0.51 0.52,-1.02 0.78,-1.53 0.47,0.25 0.31,1.06 1.03,1.11 0.37,0.03 0.73,0.19 1.09,0.28 -0.08,1.18 0.06,2.15 1.25,2.9 1.05,0.66 1.87,1.7 2.47,2.84 0.14,0.27 0.32,0.52 0.33,0.84 -0.62,0.06 -1.14,-0.09 -1.53,-0.64 -0.21,-0.29 -0.48,-0.53 -0.75,-0.76 -0.78,-0.65 -1.65,-1.16 -2.7,-1.03 -0.46,0.06 -1.16,0 -1.18,0.78 -0.01,0.66 -0.34,0.93 -0.94,1.08 -0.49,0.12 -0.96,0.09 -1.44,0.11 -0.28,0.01 -0.55,0.11 -0.6,0.38 -0.07,0.34 0.31,0.28 0.48,0.35 0.69,0.26 1.37,0.31 2.07,-0.03 0.48,-0.23 1,-0.39 1.5,-0.55 0.95,-0.32 1.84,-0.22 2.48,0.61 0.61,0.79 1.12,1.66 2.03,2.18 0.24,0.13 0.31,0.41 0.18,0.68 -0.12,0.24 -0.32,0.4 -0.61,0.39 -0.2,0 -0.42,0.02 -0.61,-0.04 -0.61,-0.22 -1.13,-0.04 -1.69,0.21 -2.33,1.03 -4.4,2.53 -6.66,3.66 -0.46,0.23 -0.51,0.58 -0.1,0.89 0.72,0.55 1.55,0.81 2.44,0.62 0.51,-0.11 1.01,-0.09 1.52,-0.13 1.51,-0.1 3,0.2 4.5,0.16 0.39,-0.01 0.87,0.09 0.42,-0.59 -0.2,-0.3 -0.25,-0.72 0.4,-0.8 1.07,-0.13 2.26,0.11 3.09,-0.91 0.12,-0.15 0.37,-0.16 0.58,-0.15 0.03,0.04 0.1,0.08 0.09,0.12 -0.16,1.16 0.69,1.39 1.51,1.68 3.24,1.15 6.64,1.79 9.86,2.97 1.86,0.68 3.69,1.46 5.5,2.26 1.41,0.62 2.21,1.82 2.71,3.24 -0.23,-0.01 -0.53,0.06 -0.67,-0.05 -0.62,-0.48 -0.98,0 -1.38,0.31 -0.32,0.25 -0.32,0.48 0.07,0.69 0.56,0.3 1.1,0.63 1.64,0.95 0.58,0.35 1.14,0.75 1.84,0.86 1.37,2 3.36,2.92 5.69,3.22 0.44,0.06 0.81,0.27 1.17,0.52 0.85,0.58 1.79,1.02 2.52,1.77 -0.45,0.31 -0.69,0.8 -0.98,1.24 -0.19,0.29 -0.21,0.67 -0.03,0.94 0.18,0.27 0.5,0.07 0.77,0.04 0.86,-0.1 1.42,-0.7 2.07,-1.15 1.24,0.37 2.23,1.2 3.31,1.84 1.01,0.6 0.95,0.61 0.29,1.56 -2.17,3.15 -4.98,5.7 -7.64,8.4 -0.16,0.16 -0.31,0.34 -0.57,0.36 -0.37,-0.34 -0.83,-0.18 -1.23,-0.15 -0.42,0.03 -1.03,-0.07 -1.18,0.39 -0.16,0.52 0.52,0.58 0.79,0.87 0.03,0.04 0.07,0.07 0.1,0.11 -0.52,0.76 -1.39,1.04 -2.15,1.35 -1.35,0.55 -2.69,1.19 -4.16,1.38 -0.02,-0.37 0.05,-0.75 -0.22,-1.09 -0.2,-0.26 -0.05,-0.48 0.26,-0.57 0.22,-0.06 0.44,-0.11 0.66,-0.16 0.14,-0.03 0.34,-0.01 0.28,-0.24 -0.04,-0.17 -0.2,-0.2 -0.37,-0.2 -1.43,0.03 -2.62,1.26 -2.62,2.74 -3.94,0.61 -7.87,1.22 -11.81,1.83 0.35,-0.52 1.08,-0.69 1.29,-1.29 0.17,-0.49 0.52,-0.63 0.92,-0.67 1.31,-0.13 2.63,-0.33 3.95,-0.08 0.13,0.02 0.27,0.07 0.35,-0.05 0.11,-0.15 0.04,-0.3 -0.07,-0.41 -0.46,-0.45 -0.22,-0.56 0.27,-0.58 0.23,-0.01 0.45,-0.09 0.67,-0.13 0.14,-0.02 0.35,0.03 0.36,-0.18 0,-0.1 -0.11,-0.27 -0.2,-0.3 -1,-0.27 -1.94,-0.95 -3.06,-0.54 -1.09,0.41 -2.2,0.78 -3.23,1.34 -0.72,0.39 -1.51,0.68 -2.34,0.27 -0.2,-0.1 -0.59,-0.04 -0.56,-0.4 0.03,-0.27 0.33,-0.37 0.55,-0.49 0.52,-0.27 1.06,-0.49 1.6,-0.74 0.11,-0.05 0.24,-0.12 0.23,-0.27 0,-0.16 -0.12,-0.2 -0.25,-0.23 -0.8,-0.19 -1.62,-0.17 -2.43,-0.15 -0.16,0 -0.34,0.06 -0.33,0.24 0.02,0.58 -0.45,0.82 -0.76,1.18 -0.27,0.31 -0.6,0.6 -0.63,1.02 -0.04,0.66 -0.39,0.93 -0.99,0.88 -0.99,-0.08 -1.18,-0.27 -1.18,-1.11 0,-0.31 0.08,-0.61 0.08,-0.91 0,-0.75 0.43,-1.45 -0.03,-2.28 -0.83,-1.51 -1.45,-3.13 -2.23,-4.67 -0.48,-0.96 -0.81,-2.04 -1.78,-2.7 -0.34,-0.23 -0.55,-0.73 -1.09,-0.49 -0.57,0.26 -1.07,0.55 -1.11,1.3 -0.04,0.7 -0.37,1.12 -1.09,1.46 -1.7,0.79 -3.52,0.95 -5.31,1.3 -1.62,0.32 -3.27,0.64 -4.92,0.45 -0.98,-0.11 -1.63,0.35 -2.32,0.87 -1.04,0.76 -1.81,1.86 -3.08,2.34 -0.58,0.22 -1.11,0.62 -1.56,1.08 -0.21,0.21 -0.35,0.38 0.08,0.53 1.24,0.43 2.27,1.2 3.24,2.05 0.37,0.33 0.74,0.28 1.19,0.14 1.33,-0.42 2.68,-0.81 4.08,-0.85 0.39,-0.01 0.99,-0.21 1.14,0.13 0.16,0.36 -0.48,0.46 -0.73,0.72 -0.24,0.25 -0.48,0.5 -0.31,0.87 0.16,0.36 0.39,0.63 0.87,0.59 0.46,-0.04 0.92,0.03 1.38,-0.01 1.92,-0.17 3.67,0.39 5.37,1.17 0.39,0.18 1.03,0.35 0.94,0.83 -0.05,0.27 -0.73,0.17 -1.16,0.18 -0.95,0.02 -1.9,-0.47 -2.85,-0.04 -1.94,-0.13 -3.8,-0.68 -5.65,-1.21 -3.13,-0.91 -6.33,-1.49 -9.54,-2.02 -1.98,-0.33 -3.97,-0.6 -5.97,-0.77 0,-0.54 -0.08,-1.09 -0.62,-1.34 -0.48,-0.22 -1.8,0.39 -2.16,0.9 -1.93,-0.02 -3.8,-0.44 -5.68,-0.77 0.09,-0.51 0.57,-0.49 0.89,-0.56 0.43,-0.1 0.51,-0.31 0.5,-0.69 -0.03,-0.78 -0.59,-1.32 -0.89,-1.98 -0.07,-0.16 -0.25,-0.13 -0.39,-0.03 -1.08,0.74 -2.24,1.39 -3.02,2.49 -0.88,-0.07 -1.68,-0.4 -2.46,-0.77 0.21,-0.2 0.44,-0.45 0.05,-0.63 -0.64,-0.29 -1.3,-0.7 -2.05,-0.28 -1.19,-0.07 -2.18,-0.75 -3.26,-1.14 -0.24,-0.09 -0.28,-0.3 -0.09,-0.48 0.44,-0.41 0.75,-0.96 1.35,-1.2 0.83,0.26 1.57,0.68 2.26,1.21 0.34,0.26 0.78,0.35 1.15,0.08 0.6,-0.43 1.19,-0.94 1.49,-1.6 0.34,-0.75 0.74,-1.28 1.58,-1.45 0.29,-0.06 0.57,-0.17 0.87,-0.22 0.72,-0.13 1.43,-0.32 2.14,-0.51 0.18,-0.05 0.43,-0.12 0.43,-0.37 0,-0.24 -0.25,-0.32 -0.42,-0.39 -0.44,-0.19 -0.9,-0.39 -1.36,-0.46 -1.11,-0.17 -2.23,-0.35 -3.31,0.25 -0.53,0.29 -1.09,0.63 -1.76,0.41 1.45,-1.58 3.14,-2.89 4.78,-4.27 0.73,-0.62 1.35,-1.39 2.29,-1.75 0.03,0.04 0.05,0.1 0.09,0.12 2.12,0.93 4.06,0.11 6,-0.62 0.3,-0.11 0.28,-0.45 0,-0.61 -0.61,-0.35 -1.2,-0.77 -1.93,-0.84 -0.02,-0.41 -0.7,-0.28 -0.62,-0.77 0.05,-0.05 0.1,-0.1 0.15,-0.15 1.35,-0.21 1.52,-0.57 0.73,-1.56 z m 27.71,5.84 c 0,0 0.07,-0.09 0.11,-0.14 -0.22,-0.3 -0.43,-0.6 -0.66,-0.88 -0.7,-0.9 -1.53,-1.76 -1.61,-2.95 -0.06,-0.87 -0.22,-1.71 -0.32,-2.57 -0.06,-0.48 -0.22,-0.51 -0.64,-0.43 -0.98,0.18 -1.89,0.58 -2.83,0.9 -0.35,0.12 -0.78,0.1 -0.97,0.52 -0.19,0.45 -0.57,0.51 -1.01,0.51 -1.3,0 -2.59,-0.28 -3.89,-0.16 -0.73,0.07 -1.51,0.09 -2.05,0.65 -0.37,0.39 -0.77,0.57 -1.27,0.56 -0.57,-0.01 -0.77,0.26 -0.88,0.81 -0.21,1.02 -0.06,2.04 -0.13,3.05 -0.01,0.19 0.08,0.43 -0.17,0.54 -0.21,0.1 -0.38,-0.02 -0.56,-0.14 -1.39,-0.93 -2.48,-2.18 -3.65,-3.35 -0.32,-0.32 -0.28,-0.62 0.02,-0.93 0.24,-0.25 0.51,-0.4 0.83,-0.52 1.13,-0.45 2.24,-0.95 3.3,-1.56 0.22,-0.13 0.51,-0.24 0.48,-0.53 -0.03,-0.28 -0.3,-0.37 -0.55,-0.46 -0.43,-0.15 -0.83,-0.36 -1.27,-0.5 -0.59,-0.19 -0.35,-0.44 -0.06,-0.66 0.64,-0.5 1.46,-0.57 2.2,-0.78 2.05,-0.58 4.16,-0.74 6.28,-0.63 0.61,0.03 0.8,-0.19 0.6,-0.77 -0.26,-0.76 -0.31,-1.53 -0.1,-2.33 0.19,-0.73 0.52,-0.94 1.19,-0.57 0.84,0.46 1.68,0.94 2.49,1.45 0.39,0.24 0.81,0.38 1.12,0.05 0.36,-0.39 -0.12,-0.65 -0.37,-0.85 -1.02,-0.82 -1.78,-2.23 -3.49,-1.62 -0.25,0.09 -0.38,-0.2 -0.28,-0.4 0.28,-0.59 -0.14,-0.8 -0.46,-1.19 -0.91,-1.12 -2.08,-1.27 -3.39,-1.15 -0.75,0.07 -1.48,0 -2.06,-0.57 -0.11,-0.11 -0.25,-0.21 -0.41,-0.15 -1.5,0.46 -3.03,-0.03 -4.55,0.12 -0.27,0.03 -0.58,0.09 -0.76,-0.22 -0.19,-0.32 0.09,-0.51 0.24,-0.73 0.09,-0.14 0.31,-0.26 0.22,-0.45 -0.09,-0.21 -0.31,-0.11 -0.48,-0.12 -1.91,-0.12 -3.66,0.66 -5.49,0.98 -0.28,0.05 -0.64,0.22 -0.62,0.58 0.02,0.31 0.36,0.37 0.62,0.48 1.04,0.47 2.17,0.2 3.24,0.39 1.83,0.32 3.65,0.64 5.36,1.38 0.18,0.08 0.44,0.11 0.45,0.35 0,0.25 -0.25,0.31 -0.43,0.38 -1.28,0.51 -2.62,0.83 -3.99,0.97 -0.52,0.05 -1.08,0.11 -1.6,-0.06 -1.06,-0.35 -2.1,-0.76 -3.17,-1.08 -1.14,-0.34 -1.15,-0.31 -0.9,0.83 0.05,0.25 0.11,0.5 0.15,0.75 0.08,0.54 0.4,0.75 0.92,0.65 1.2,-0.24 2.31,-0.39 3.52,0.25 0.91,0.48 2.06,0.47 3.11,0.68 0.18,0.04 0.38,0.05 0.39,0.28 0,0.21 -0.22,0.18 -0.34,0.23 -1.22,0.5 -2.46,0.96 -3.73,1.33 -0.45,0.13 -0.8,0.31 -0.33,0.83 0.29,0.32 0.23,0.69 0.05,1.07 -0.32,0.67 -0.79,1.24 -1.26,1.8 -0.32,0.39 -0.48,0.81 -0.09,1.23 0.48,0.51 0.49,1.08 0.33,1.71 -0.09,0.36 -0.28,0.85 -0.13,1.09 0.32,0.52 0.02,0.84 -0.26,1.04 -0.88,0.67 -1.54,1.57 -2.4,2.25 -0.19,0.15 -0.37,0.33 -0.27,0.57 0.1,0.26 0.38,0.23 0.61,0.21 0.86,-0.07 1.72,-0.19 2.58,-0.23 1.13,-0.05 2.33,-0.41 3.34,0.33 0.78,0.57 1.66,0.81 2.53,1.15 0.86,0.33 1.57,-0.09 2.35,-0.3 1.81,-0.5 3.64,-0.93 5.5,-1.23 1.35,-0.22 2.69,-0.53 4.08,-0.48 0.37,0.01 0.74,0.21 1.13,0.02 0.13,-0.06 0.32,-0.03 0.34,-0.23 0.02,-0.17 -0.09,-0.28 -0.23,-0.37 -0.33,-0.19 -0.66,-0.38 -0.99,-0.58 -0.17,-0.1 -0.43,-0.15 -0.37,-0.42 0.05,-0.25 0.29,-0.25 0.49,-0.28 1.52,-0.2 3.04,-0.39 4.5,0.31 0.26,0.13 0.55,0.2 0.83,0.3 z m 1.65,-12.44 0.04,0.22 c -1,0.61 -2.2,0.77 -3.23,1.31 -0.21,0.11 -0.6,0.08 -0.56,0.39 0.03,0.33 0.39,0.22 0.63,0.26 1.25,0.21 2.51,0.39 3.67,0.97 0.15,0.08 0.35,0.13 0.34,0.36 -0.01,0.21 -0.18,0.27 -0.35,0.36 -0.74,0.43 -1.57,0.58 -2.38,0.76 -1.68,0.36 -1.78,0.45 -1.54,2.01 0.21,1.43 0.98,2.6 1.73,3.78 0.09,0.14 0.22,0.34 0.42,0.27 0.25,-0.1 0.04,-0.3 0.04,-0.46 0.04,-0.75 -0.15,-1.61 0.35,-2.19 0.67,-0.77 1.56,-1.32 2.67,-1.26 1.15,0.06 2.29,-0.07 3.4,-0.4 0.37,-0.11 0.75,0 1.12,-0.19 0.8,-0.43 0.96,-1.17 1.17,-1.95 0.11,-0.42 -0.07,-1.07 0.42,-1.22 0.54,-0.16 0.75,0.49 1.07,0.82 0.6,0.62 1.17,0.64 1.77,0.05 0.57,-0.55 1.09,-1.13 1.54,-1.8 0.6,-0.9 1.27,-1.64 2.44,-1.87 1.63,-0.32 3.25,-0.72 4.81,-1.4 -0.21,-0.29 -0.49,-0.16 -0.72,-0.17 -1.76,-0.07 -3.51,0.26 -5.27,0.15 -0.72,-0.04 -1.41,-0.16 -2.07,-0.46 -0.19,-0.09 -0.4,-0.21 -0.39,-0.43 0.01,-0.26 0.31,-0.23 0.48,-0.29 1.01,-0.34 2.07,-0.46 3.11,-0.7 0.22,-0.05 0.55,-0.04 0.61,-0.37 0.06,-0.34 -0.25,-0.39 -0.45,-0.53 -0.84,-0.58 -1.87,-0.44 -2.77,-0.72 -1.55,-0.48 -3.05,-0.89 -4.74,-0.7 -1.71,0.2 -3.45,0.23 -5.17,0.36 -0.23,0.02 -0.53,0.04 -0.56,0.29 -0.04,0.35 0.33,0.35 0.55,0.39 1.17,0.25 2.34,0.44 3.5,0.71 0.44,0.1 0.96,0.02 1.33,0.42 -0.07,0.08 -0.1,0.14 -0.13,0.15 -2.33,0.54 -4.7,0.55 -7.07,0.48 -1.08,-0.03 -1.96,-0.82 -2.27,-1.91 -0.1,-0.34 -0.35,-0.6 -0.63,-0.59 -0.92,0.02 -1.95,0.06 -2.54,0.78 -0.54,0.67 -1.12,1.23 -1.82,1.68 -0.39,0.25 -0.36,0.39 -0.02,0.65 0.9,0.66 1.81,1.32 2.65,2.05 0.42,0.36 0.78,0.44 1.31,0.36 1.17,-0.19 2.35,-0.29 3.52,-0.43 z m 6.7,22.22 c 0.26,-0.09 0.22,-0.31 0.29,-0.46 0.49,-1.08 0.54,-1.11 1.74,-0.89 0.1,0.02 0.2,0.02 0.31,0.03 1.11,0.06 1.23,-0.08 0.99,-1.12 -0.17,-0.73 0.28,-1.18 1.01,-1.21 0.64,-0.03 1.12,0.27 1.64,0.51 0.41,0.19 0.49,0.69 0.83,0.98 1.01,0.85 2.18,0.97 3.42,0.86 1.16,-0.1 2.3,-0.45 3.49,-0.33 0.24,0.02 0.47,-0.02 0.56,-0.3 0.05,-0.17 -0.04,-0.38 -0.17,-0.38 -0.9,0.04 -1.23,-0.81 -1.88,-1.16 -0.76,-0.41 -1.59,-0.48 -2.45,-0.46 -0.54,0.01 -1.1,-0.02 -1.42,-0.56 -0.97,-1.63 -3.26,-2.78 -5.1,-2.54 -0.54,0.07 -0.82,-0.15 -0.78,-0.73 0.04,-0.66 0.63,-0.57 1,-0.75 0.46,-0.23 0.66,-0.4 0.23,-0.89 -0.68,-0.76 -1.39,-1.48 -2.18,-2.13 -1.34,-1.11 -1.44,-1.06 -2.04,0.54 -0.45,1.2 -0.88,1.99 -2.61,1.47 -1.29,-0.39 -2.6,-0.8 -4.15,-0.98 0.66,0.81 1.05,1.61 1.95,2.03 0.59,0.28 1.72,0.38 1.09,1.58 -0.03,0.06 0.08,0.24 0.17,0.32 0.62,0.62 1.1,1.33 1.46,2.13 0.15,0.33 0.3,0.36 0.64,0.15 0.9,-0.55 1.92,-0.54 2.93,-0.39 0.26,0.04 0.42,0.28 0.14,0.39 -0.99,0.36 -1.24,1.51 -2.15,1.95 -0.22,0.11 -0.13,0.29 -0.04,0.45 0.36,0.63 0.71,1.27 1.07,1.9 z m 24.9,-9.83 c 0.14,-0.61 -0.13,-1.36 -0.19,-2.12 -0.04,-0.51 -0.28,-1.01 -0.88,-1.23 -0.88,-0.31 -1.74,-0.7 -2.62,-1.02 -1.29,-0.48 -2.6,-0.87 -3.98,-0.94 -0.35,-0.02 -0.67,0.02 -0.81,0.41 -0.14,0.37 -0.25,0.76 -0.44,1.11 -0.56,1.04 -0.88,2.24 -1.76,3.09 -0.49,0.47 -0.28,0.69 0.18,0.96 1.8,1.07 3.67,1.94 5.78,2.2 0.8,0.1 0.88,0.03 1.06,-0.75 0.14,-0.6 -0.03,-1.26 0.39,-1.83 0.27,-0.36 0.33,-0.35 0.54,0.03 0.27,0.48 0.61,0.93 0.97,1.36 0.31,0.38 0.71,0.77 1.24,0.57 0.53,-0.2 0.55,-0.74 0.52,-1.24 0,-0.15 0,-0.31 0,-0.62 z m 7.5,3.23 c -1.28,-0.22 -2.32,-0.01 -3.34,0.15 -1.58,0.24 -3.15,0.54 -4.71,0.85 -0.37,0.07 -0.94,-0.05 -1.07,0.36 -0.12,0.38 0.42,0.58 0.65,0.87 0.08,0.1 0.2,0.18 0.25,0.29 0.16,0.35 0.25,0.65 -0.3,0.8 -0.47,0.13 -0.9,0.3 -1.4,0.3 -0.29,0 -0.78,0.09 -0.83,0.25 -0.2,0.62 -0.74,0.51 -1.15,0.68 -0.39,0.16 -0.81,0.06 -1.2,0.19 -2.03,0.65 -4.12,1.02 -6.19,1.47 -0.14,0.03 -0.34,-0.05 -0.39,0.15 -0.05,0.19 0.13,0.24 0.27,0.3 1.06,0.44 2.09,0.87 3.3,0.8 1.42,-0.09 2.86,-0.08 4.29,0 1.22,0.06 1.9,-0.51 2.35,-1.55 0.14,-0.33 0.12,-0.55 -0.12,-0.82 -0.49,-0.55 -0.32,-1 0.41,-1.18 1.01,-0.24 2.03,-0.15 3.04,-0.13 0.19,0 0.4,0.19 0.55,-0.05 0.15,-0.25 -0.05,-0.44 -0.17,-0.61 -0.53,-0.73 -0.53,-0.87 0.27,-1.24 0.5,-0.23 1.02,-0.43 1.55,-0.62 1.23,-0.43 2.55,-0.6 3.96,-1.25 z m -51.13,3.3 c 1.6,-0.2 3.18,-0.65 4.8,-0.72 0.49,-0.02 0.85,-0.27 1.1,-0.72 0.25,-0.45 0.67,-0.61 1.17,-0.58 0.48,0.03 0.91,-0.12 1.32,-0.34 0.51,-0.29 1,-1.52 0.79,-1.92 -0.26,-0.49 -1.15,-0.64 -1.88,-0.34 -0.29,0.12 -0.46,0.34 -0.59,0.57 -0.39,0.69 -0.97,0.9 -1.72,0.81 -0.35,-0.04 -0.71,-0.02 -1.07,0 -0.68,0.02 -1.29,0.16 -1.7,0.81 -0.4,0.62 -1.03,0.88 -1.76,0.88 -0.7,0 -1.34,0.26 -2,0.46 -0.21,0.07 -0.38,0.17 -0.36,0.42 0.02,0.21 0.17,0.3 0.36,0.34 0.52,0.09 0.98,0.46 1.56,0.34 z m -15.65,4.6 c 1.14,-0.06 2.15,-0.51 3.14,-1.02 0.25,-0.13 0.66,-0.19 0.56,-0.61 -0.09,-0.37 -0.44,-0.35 -0.75,-0.38 -0.95,-0.11 -1.91,-0.2 -2.86,-0.38 -0.92,-0.17 -0.97,-0.45 -0.41,-1.2 0.32,-0.42 0.95,-0.86 0.62,-1.45 -0.39,-0.69 -0.13,-1.27 -0.01,-1.9 0.03,-0.18 0.13,-0.39 -0.03,-0.5 -0.2,-0.13 -0.44,0.03 -0.53,0.17 -0.51,0.79 -1.39,1.2 -1.94,1.93 -0.52,0.69 -0.82,1.52 -0.96,2.37 -0.11,0.67 0.59,0.89 0.89,1.34 0.12,0.17 0.19,0.36 0.32,0.52 0.49,0.63 1.04,1.19 1.95,1.11 z m 47.63,-18.27 c 1.07,0.11 2.13,-0.07 3.19,-0.16 0.77,-0.07 0.88,-0.28 0.41,-0.84 -0.84,-1 -1.82,-1.85 -2.81,-2.69 -0.15,-0.13 -0.32,-0.16 -0.49,-0.07 -0.98,0.55 -2.08,0.83 -3,1.5 -0.21,0.15 -0.39,0.32 -0.38,0.62 0.02,0.91 0.77,1.65 1.7,1.65 0.46,0 0.92,0 1.38,0 z m -3.14,10.3 c -0.28,0 -0.57,-0.05 -0.84,0.01 -0.27,0.06 -0.52,0.32 -0.16,0.53 0.65,0.38 1.3,0.82 2.1,0.81 1.59,-0.03 3.07,-0.61 4.6,-0.91 0.29,-0.06 0.54,-0.27 0.76,-0.49 0.54,-0.57 0.48,-0.83 -0.27,-1.04 -0.29,-0.08 -0.57,-0.2 -0.85,-0.31 -0.81,-0.33 -1.62,-0.68 -2.44,-1.01 -0.21,-0.09 -0.47,-0.14 -0.64,0.07 -0.14,0.18 -0.04,0.39 0.06,0.58 0.18,0.36 0.38,0.73 0.54,1.1 0.22,0.5 0.17,0.8 -0.51,0.82 -0.8,0.03 -1.56,-0.22 -2.35,-0.15 z m 0.91,-5.36 c -0.04,-0.07 -0.05,-0.13 -0.08,-0.15 -1.04,-0.55 -2.3,-0.63 -3.19,-1.52 -0.08,-0.08 -0.3,-0.06 -0.44,-0.05 -0.63,0.07 -1.24,0.21 -1.83,0.46 -0.35,0.15 -0.64,0.33 -0.52,0.78 0.1,0.41 0.35,0.66 0.77,0.74 1.28,0.28 2.59,0.17 3.88,0.12 0.46,-0.02 1.01,-0.05 1.43,-0.39 z M 290.3,397.9 c -0.68,0.18 -1.39,0.3 -2.03,0.57 -0.5,0.22 -1.12,0.21 -1.52,0.66 -0.17,0.19 -0.39,0.36 -0.2,0.65 0.38,0.57 1.94,0.81 2.53,0.37 0.61,-0.46 1.18,-0.95 1.89,-1.26 0.43,-0.19 0.41,-0.44 0.06,-0.73 -0.22,-0.19 -0.46,-0.2 -0.73,-0.27 z m -18.94,32.14 -0.02,0.22 c 0.48,0.07 0.87,0.33 1.38,0.43 1.3,0.24 2.66,0.27 3.89,0.92 0.51,0.27 1.1,0.22 1.59,-0.15 0.17,-0.13 0.42,-0.26 0.38,-0.53 -0.04,-0.29 -0.34,-0.29 -0.54,-0.34 -1.53,-0.38 -3.11,-0.36 -4.66,-0.54 -0.66,-0.07 -1.33,-0.01 -2,-0.01 z m -0.22,8.14 c 1.22,-0.03 1.65,-1.06 2.23,-1.85 0.11,-0.15 0.34,-0.47 0.07,-0.69 -0.21,-0.17 -0.5,-0.1 -0.72,0.05 -0.79,0.51 -1.65,0.89 -2.35,1.56 -0.39,0.37 -0.24,0.51 0.03,0.76 0.22,0.2 0.47,0.16 0.73,0.18 z m -9.89,-13.2 c -0.3,0 -0.61,0 -0.91,0 -0.3,0 -0.65,-0.04 -0.71,0.38 -0.06,0.4 0.29,0.54 0.55,0.63 0.66,0.23 1.34,0.38 2.01,0.59 0.27,0.08 0.4,0.05 0.52,-0.23 0.16,-0.35 0.41,-0.66 0.18,-1.06 -0.22,-0.37 -0.6,-0.32 -0.95,-0.32 -0.23,0 -0.46,0 -0.68,0 z m 55.57,6.06 c 0.97,-0.09 1.83,-0.16 2.68,-0.24 0.12,-0.01 0.28,0.02 0.32,-0.14 0.04,-0.2 -0.11,-0.26 -0.26,-0.3 -1.27,-0.38 -2.57,-0.6 -3.87,-0.77 -0.24,-0.03 -0.6,0.14 -0.42,0.32 0.48,0.46 1.08,0.8 1.55,1.12 z m -1,-18.19 c 0.44,0.07 0.86,-0.07 1.27,-0.17 0.33,-0.08 0.5,-0.31 0.52,-0.66 0.02,-0.41 -0.31,-0.45 -0.55,-0.49 -0.4,-0.06 -0.81,-0.07 -1.21,-0.05 -0.61,0.04 -0.96,0.48 -0.95,1 0.01,0.56 0.58,0.3 0.92,0.37 z m 19.03,13.36 c 0.35,0 0.7,0 0.69,-0.44 0,-0.46 -0.4,-0.46 -0.73,-0.48 -0.39,-0.02 -0.83,0.15 -0.81,0.49 0.02,0.3 0.48,0.48 0.84,0.43 z m -50.36,-18.89 c -0.14,0.06 -0.47,-0.03 -0.41,0.19 0.1,0.35 0.28,0.77 0.68,0.85 0.41,0.08 0.41,-0.37 0.41,-0.59 0.01,-0.42 -0.38,-0.39 -0.69,-0.45 z"
           id="path6" />
        <path
           class="cls-7"
           d="m 270.49,383.99 c -0.06,-2.91 0.15,-5.82 0.06,-8.73 -0.13,-4.23 2.43,-7.38 5.74,-8.7 2.25,-0.91 4.71,-1.34 7.12,-0.35 2.75,1.14 4.81,3.04 6.13,5.71 0.94,1.89 1.3,3.92 1.33,6 0.02,1.89 0.08,3.78 -0.09,5.67 -0.04,0.46 -0.15,0.9 -0.24,1.35 -0.82,1.77 -2.34,2.67 -4.08,3.26 -0.33,0.11 -0.81,0.36 -0.94,-0.32 -0.05,-0.28 -0.29,-0.11 -0.44,-0.07 -1.05,0.33 -2.14,0.35 -3.22,0.48 -0.02,-0.04 -0.04,-0.08 -0.05,-0.12 0.02,-0.1 0.05,-0.19 0.07,-0.29 0.24,-0.09 0.48,-0.17 0.71,-0.27 1.26,-0.56 2.62,-1 3.5,-2.12 0.85,-1.08 1.48,-2.33 2.02,-3.6 0.42,-1 0.41,-1.95 0,-3.02 -1.24,-3.25 -3.74,-5.22 -6.61,-6.86 -0.82,-0.47 -2.1,0.13 -2.36,1.04 -0.57,1.94 -1.7,3.48 -3.39,4.58 -0.82,0.54 -1.62,1.05 -1.42,2.25 -0.33,-0.91 -0.69,-1.26 -1.32,-1.2 -0.62,0.06 -0.95,0.47 -1.08,1.04 -0.32,1.29 0.35,2.77 1.56,3.27 0.57,0.23 0.95,0.59 1.23,1.07 0.78,1.34 1.91,2.31 3.22,3.1 0.25,0.15 0.58,0.26 0.53,0.66 -0.47,0.04 -0.9,-0.14 -1.34,-0.23 -0.26,-0.05 -0.54,-0.07 -0.46,0.26 0.35,1.37 -0.42,0.69 -0.92,0.53 -0.14,-0.05 -0.3,-0.06 -0.44,-0.1 -2.41,-0.53 -4.34,-1.59 -4.8,-4.3 z"
           id="path8" />
        <path
           class="cls-4"
           d="m 289.07,442.62 c 0.95,-0.43 1.9,0.07 2.85,0.04 0.42,-0.01 1.11,0.09 1.16,-0.18 0.08,-0.48 -0.56,-0.65 -0.94,-0.83 -1.7,-0.79 -3.46,-1.35 -5.37,-1.17 -0.46,0.04 -0.92,-0.03 -1.38,0.01 -0.48,0.04 -0.71,-0.22 -0.87,-0.59 -0.16,-0.37 0.08,-0.61 0.31,-0.87 0.25,-0.26 0.89,-0.36 0.73,-0.72 -0.15,-0.34 -0.74,-0.14 -1.14,-0.13 -1.41,0.04 -2.75,0.43 -4.08,0.85 -0.45,0.14 -0.82,0.18 -1.19,-0.14 -0.97,-0.86 -2,-1.63 -3.24,-2.05 -0.43,-0.15 -0.29,-0.31 -0.08,-0.53 0.45,-0.46 0.98,-0.86 1.56,-1.08 1.27,-0.48 2.05,-1.57 3.08,-2.34 0.7,-0.51 1.34,-0.98 2.32,-0.87 1.66,0.19 3.3,-0.13 4.92,-0.45 1.79,-0.35 3.61,-0.51 5.31,-1.3 0.73,-0.34 1.05,-0.76 1.09,-1.46 0.04,-0.75 0.54,-1.04 1.11,-1.3 0.55,-0.25 0.75,0.26 1.09,0.49 0.97,0.66 1.3,1.73 1.78,2.7 0.77,1.54 1.39,3.17 2.23,4.67 0.46,0.83 0.03,1.53 0.03,2.28 0,0.29 -0.08,0.6 -0.08,0.91 0,0.84 0.19,1.03 1.18,1.11 0.59,0.05 0.95,-0.22 0.99,-0.88 0.02,-0.42 0.36,-0.72 0.63,-1.02 0.31,-0.35 0.78,-0.6 0.76,-1.18 0,-0.19 0.16,-0.24 0.33,-0.24 0.82,-0.02 1.63,-0.04 2.43,0.15 0.13,0.03 0.25,0.07 0.25,0.23 0,0.16 -0.12,0.22 -0.23,0.27 -0.53,0.25 -1.07,0.47 -1.6,0.74 -0.22,0.11 -0.52,0.22 -0.55,0.49 -0.03,0.36 0.36,0.3 0.56,0.4 0.82,0.41 1.62,0.11 2.34,-0.27 1.04,-0.56 2.14,-0.93 3.23,-1.34 1.12,-0.42 2.06,0.26 3.06,0.54 0.09,0.02 0.2,0.2 0.2,0.3 -0.01,0.21 -0.21,0.16 -0.36,0.18 -0.22,0.04 -0.45,0.11 -0.67,0.13 -0.49,0.03 -0.73,0.13 -0.27,0.58 0.12,0.11 0.18,0.27 0.07,0.41 -0.09,0.11 -0.22,0.07 -0.35,0.05 -1.32,-0.25 -2.64,-0.04 -3.95,0.08 -0.39,0.04 -0.74,0.17 -0.92,0.67 -0.21,0.6 -0.95,0.77 -1.29,1.29 -1.36,0.13 -2.41,-0.73 -3.59,-1.15 -0.63,-0.22 -0.57,0 -0.57,0.4 -0.38,-0.06 -0.72,0.06 -0.71,0.47 0.01,0.49 0.36,0.75 0.87,0.75 -0.01,0.17 -0.09,0.28 -0.28,0.3 -3.37,0.3 -6.67,1.38 -10.1,1.08 -0.89,-0.08 -1.82,-0.03 -2.66,-0.46 z m -0.26,-3.39 c -0.06,0.39 -0.05,0.61 0.17,0.71 0.34,0.16 0.61,0.04 0.9,-0.19 0.96,-0.78 1.66,-1.79 2.48,-2.69 0.72,-0.77 0.85,-0.78 1.31,0.13 0.51,1.01 1.03,2.02 1.53,3.04 0.15,0.3 0.39,0.4 0.68,0.37 0.31,-0.03 0.5,-0.25 0.54,-0.56 0.05,-0.45 0.14,-0.9 0.18,-1.36 0.1,-1.17 0.09,-2.44 1.66,-2.75 0.21,-0.04 0.43,-0.2 0.57,-0.37 0.29,-0.35 0.59,-0.74 0.42,-1.22 -0.17,-0.5 -0.71,-0.42 -1.06,-0.39 -1.03,0.07 -2.06,-0.09 -3.1,0.05 -1.15,0.16 -2.33,0.13 -3.5,0.18 -0.29,0.01 -0.54,0.1 -0.72,0.36 -1.02,1.48 -1.6,3.16 -2.07,4.69 z m -1.6,-2.75 c 0.48,0.06 1.01,-0.03 1.53,-0.17 0.16,-0.04 0.28,-0.13 0.31,-0.3 0.03,-0.17 -0.04,-0.31 -0.19,-0.38 -1.47,-0.68 -2.89,-1.48 -4.5,-1.82 -0.5,-0.11 -0.54,0.08 -0.45,0.47 0.31,1.44 0.95,2.04 2.4,2.2 0.28,0.03 0.56,0 0.91,0 z"
           id="path10" />
        <path
           class="cls-4"
           d="m 279.32,395.33 c -1.59,0.34 -2.9,1.17 -4.08,2.25 -0.13,0.12 -0.36,0.19 -0.23,0.41 0.12,0.21 0.31,0.07 0.48,0.03 1.01,-0.24 2.03,-0.46 3.04,-0.71 0.25,-0.06 0.49,-0.11 0.75,-0.11 0.45,0.01 0.99,-0.12 1.16,0.48 0.16,0.59 -0.4,0.81 -0.76,1.01 -0.81,0.47 -1.66,0.85 -2.52,1.22 -0.52,0.22 -0.44,0.5 -0.15,0.81 1.25,1.28 2.94,1.81 4.65,0.61 0.31,-0.21 0.65,-0.38 1.06,-0.61 -0.05,1.31 -0.37,2.47 -0.55,3.65 -0.06,0.37 -0.25,0.28 -0.49,0.23 -0.8,-0.19 -1.55,-0.57 -2.19,-1.02 -0.97,-0.69 -2.06,-0.64 -3.12,-0.85 -2.07,-0.4 -4.09,0.2 -6.13,0.29 -1.22,0.05 -2.44,0.09 -3.66,0.15 -0.86,0.05 -1.71,0.18 -2.68,0.22 0.24,0.29 0.45,0.49 0.6,0.73 0.19,0.3 0.68,0.56 0.39,0.98 -0.24,0.34 -0.68,0.51 -1.12,0.55 -0.3,0.02 -0.61,0.01 -0.92,0.02 0.17,-1.92 0.34,-3.84 0.88,-5.69 0.52,-0.09 1,-0.22 1.48,-0.51 1.03,-0.62 2.05,-1.3 3.34,-1.39 1.11,-0.08 2.21,-0.3 2.93,-1.34 0.44,-0.64 0.96,-1.23 1.45,-1.84 -0.72,0.03 -1.34,0.18 -1.93,0.39 -2.06,0.75 -4.16,1.13 -6.35,0.69 0.09,-1.22 -0.15,-2.46 0.17,-3.68 0.69,0 1.28,-0.59 2.02,-0.3 0.46,0.18 0.92,0.11 1.41,0.04 0.73,-0.1 1.28,-0.59 1.99,-0.7 0.24,0.07 0.48,0.14 0.73,0.22 0.27,0.24 0.59,0.38 0.92,0.51 2.53,0.98 5.05,1.97 7.43,3.28 z"
           id="path12" />
        <path
           class="cls-4"
           d="m 299.96,403.19 c -0.21,-0.01 -0.45,0 -0.58,0.15 -0.82,1.02 -2.02,0.78 -3.09,0.91 -0.64,0.08 -0.59,0.51 -0.4,0.8 0.45,0.68 -0.03,0.58 -0.42,0.59 -1.5,0.04 -3,-0.26 -4.5,-0.16 -0.51,0.03 -1.01,0.02 -1.52,0.13 -0.89,0.19 -1.72,-0.07 -2.44,-0.62 -0.41,-0.31 -0.36,-0.67 0.1,-0.89 2.27,-1.14 4.34,-2.63 6.66,-3.66 0.56,-0.25 1.08,-0.43 1.69,-0.21 0.18,0.07 0.4,0.04 0.61,0.04 0.29,0 0.49,-0.14 0.61,-0.39 0.13,-0.27 0.05,-0.54 -0.18,-0.68 -0.91,-0.52 -1.42,-1.38 -2.03,-2.18 -0.64,-0.83 -1.53,-0.93 -2.48,-0.61 -0.51,0.17 -1.03,0.32 -1.5,0.55 -0.7,0.34 -1.38,0.3 -2.07,0.03 -0.18,-0.07 -0.55,-0.01 -0.48,-0.35 0.05,-0.26 0.32,-0.37 0.6,-0.38 0.48,-0.02 0.96,0.02 1.44,-0.11 0.61,-0.15 0.93,-0.43 0.94,-1.08 0.02,-0.77 0.72,-0.72 1.18,-0.78 1.05,-0.13 1.92,0.38 2.7,1.03 0.27,0.23 0.55,0.48 0.75,0.76 0.39,0.54 0.91,0.69 1.53,0.64 0.63,0.35 0.73,1.06 1.02,1.61 0.8,1.54 1.5,3.12 1.86,4.83 z"
           id="path14" />
        <path
           class="cls-8"
           d="m 270.97,391.55 c -0.24,-0.07 -0.48,-0.14 -0.73,-0.22 -0.72,-0.55 -1.5,-1.01 -2.33,-1.37 -0.77,-0.6 -1.54,-1.21 -2.31,-1.81 0.49,-1.2 0.84,-2.48 2.24,-3.02 0.9,-0.34 1.77,-0.75 2.65,-1.13 0.46,2.7 2.39,3.77 4.8,4.3 0.15,0.03 0.3,0.05 0.44,0.1 0.5,0.16 1.27,0.84 0.92,-0.53 -0.08,-0.32 0.2,-0.31 0.46,-0.26 0.44,0.09 0.87,0.27 1.34,0.23 -0.01,1.22 -1.05,1.16 -1.81,1.46 -0.3,-0.12 -0.59,-0.07 -0.88,0.07 -1.6,0.74 -3.2,1.46 -4.8,2.19 z"
           id="path16" />
        <path
           class="cls-9"
           d="m 281.85,388.3 c 1.08,-0.13 2.17,-0.15 3.22,-0.48 0.15,-0.05 0.38,-0.21 0.44,0.07 0.13,0.69 0.61,0.44 0.94,0.32 1.75,-0.59 3.27,-1.5 4.08,-3.26 0.55,0.35 1.02,0.78 1.34,1.34 -0.62,0.7 -0.73,1.61 -0.96,2.47 -0.26,0.51 -0.52,1.02 -0.78,1.53 -0.27,0.4 -0.34,0.92 -0.74,1.24 -1.73,-1.04 -3.72,-1.39 -5.56,-2.12 -0.09,-0.04 -0.24,0.05 -0.36,0.07 -1.03,-0.03 -1.46,-0.34 -1.62,-1.19 z"
           id="path18" />
        <path
           class="cls-4"
           d="m 253.14,429.1 c 0.67,0.22 1.23,-0.12 1.76,-0.41 1.08,-0.6 2.2,-0.42 3.31,-0.25 0.47,0.07 0.92,0.27 1.36,0.46 0.16,0.07 0.42,0.16 0.42,0.39 0,0.25 -0.25,0.32 -0.43,0.37 -0.71,0.19 -1.42,0.38 -2.14,0.51 -0.3,0.05 -0.58,0.17 -0.87,0.22 -0.84,0.17 -1.24,0.7 -1.58,1.45 -0.3,0.66 -0.89,1.17 -1.49,1.6 -0.37,0.27 -0.81,0.18 -1.15,-0.08 -0.69,-0.53 -1.43,-0.95 -2.26,-1.21 0.87,-1.17 1.91,-2.18 3.07,-3.05 z"
           id="path20" />
        <path
           class="cls-11"
           d="m 264.66,395.97 c 2.19,0.44 4.29,0.06 6.35,-0.69 0.59,-0.21 1.2,-0.36 1.93,-0.39 -0.49,0.61 -1.01,1.2 -1.45,1.84 -0.72,1.04 -1.81,1.26 -2.93,1.34 -1.29,0.09 -2.31,0.77 -3.34,1.39 -0.48,0.29 -0.96,0.42 -1.48,0.51 0.19,-1.36 0.57,-2.67 0.91,-4 z"
           id="path22" />
        <path
           class="cls-4"
           d="m 264.37,421.14 c 0.74,0.07 1.32,0.49 1.93,0.84 0.28,0.16 0.3,0.5 0,0.61 -1.94,0.73 -3.89,1.55 -6,0.62 -0.04,-0.02 -0.06,-0.08 -0.09,-0.12 0.36,-0.64 1.02,-0.91 1.56,-1.34 0.2,0 0.46,0.06 0.6,-0.04 0.61,-0.41 1.2,-0.83 2,-0.58 z"
           id="path24" />
        <path
           class="cls-4"
           d="m 256.54,436.65 c 0.79,-1.1 1.94,-1.75 3.02,-2.49 0.15,-0.1 0.32,-0.14 0.39,0.03 0.3,0.66 0.86,1.19 0.89,1.98 0.02,0.38 -0.06,0.59 -0.5,0.69 -0.33,0.07 -0.8,0.05 -0.89,0.56 -0.98,-0.23 -1.98,-0.35 -2.91,-0.76 z"
           id="path26" />
        <path
           class="cls-6"
           d="m 265.61,388.14 c 0.77,0.6 1.54,1.21 2.31,1.81 0.02,0.44 -0.17,0.71 -0.53,1.01 -0.76,0.62 -1.55,0.61 -2.42,0.4 0.06,-1.1 0.01,-2.23 0.63,-3.22 z"
           id="path28" />
        <path
           class="cls-4"
           d="m 265.14,413.92 c 0.95,0.17 1.84,-0.29 2.77,-0.3 0.26,0 0.55,-0.09 0.9,0.17 -1.12,1.02 -2,2.28 -3.51,2.75 -0.04,-0.87 0.07,-1.76 -0.16,-2.62 z"
           id="path30" />
        <path
           class="cls-4"
           d="m 321.14,416.23 c -0.7,-0.11 -1.25,-0.51 -1.84,-0.86 -0.54,-0.32 -1.09,-0.65 -1.64,-0.95 -0.39,-0.21 -0.39,-0.44 -0.07,-0.69 0.4,-0.31 0.76,-0.8 1.38,-0.31 0.15,0.12 0.44,0.04 0.67,0.05 0.61,0.86 1.02,1.83 1.5,2.77 z"
           id="path32" />
        <path
           class="cls-11"
           d="m 264.97,391.37 c 0.86,0.21 1.66,0.22 2.42,-0.4 0.36,-0.29 0.54,-0.57 0.53,-1.01 0.83,0.37 1.61,0.82 2.33,1.37 -0.7,0.1 -1.26,0.6 -1.99,0.7 -0.49,0.07 -0.95,0.14 -1.41,-0.04 -0.74,-0.29 -1.33,0.29 -2.02,0.3 0.03,-0.31 -0.11,-0.65 0.14,-0.92 z"
           id="path34" />
        <path
           class="cls-4"
           d="m 290.92,388.76 c 0.23,-0.86 0.34,-1.76 0.96,-2.47 0.57,0.72 0.87,1.55 1.01,2.44 0.08,0.47 0.1,0.95 0.14,1.42 -0.36,-0.1 -0.72,-0.26 -1.09,-0.28 -0.72,-0.05 -0.56,-0.86 -1.03,-1.11 z"
           id="path36" />
        <path
           class="cls-6"
           d="m 332.34,422.8 c -0.65,0.45 -1.21,1.06 -2.07,1.15 -0.27,0.03 -0.59,0.23 -0.77,-0.04 -0.18,-0.27 -0.16,-0.65 0.03,-0.94 0.29,-0.44 0.53,-0.93 0.98,-1.24 0.79,0.05 1.25,0.65 1.82,1.07 z"
           id="path38" />
        <path
           class="cls-6"
           d="m 317.92,439.4 c 0,-1.47 1.19,-2.71 2.62,-2.74 0.17,0 0.32,0.03 0.37,0.2 0.06,0.23 -0.14,0.21 -0.28,0.24 -0.22,0.05 -0.44,0.1 -0.66,0.16 -0.3,0.09 -0.45,0.31 -0.26,0.57 0.26,0.35 0.2,0.72 0.22,1.09 -0.64,0.27 -1.32,0.35 -2,0.47 z"
           id="path40" />
        <path
           class="cls-4"
           d="m 265.13,438.18 c 0.35,-0.51 1.68,-1.12 2.16,-0.9 0.53,0.25 0.62,0.79 0.62,1.34 -0.93,-0.12 -1.89,-0.02 -2.77,-0.43 z"
           id="path42" />
        <path
           class="cls-4"
           d="m 326.23,436.2 c 0,0 -0.07,-0.08 -0.1,-0.11 -0.28,-0.29 -0.96,-0.35 -0.79,-0.87 0.15,-0.47 0.77,-0.37 1.18,-0.39 0.4,-0.03 0.86,-0.19 1.23,0.15 -0.32,0.64 -0.86,1 -1.52,1.23 z"
           id="path44" />
        <path
           class="cls-4"
           d="m 252.07,434.97 c 0.75,-0.43 1.41,-0.02 2.05,0.28 0.39,0.18 0.17,0.43 -0.05,0.63 -0.69,-0.25 -1.49,-0.26 -2,-0.9 z"
           id="path46" />
        <path
           class="cls-6"
           d="m 264.63,418.66 c 0.79,0.99 0.62,1.35 -0.73,1.56 -0.01,-0.64 0.3,-1.13 0.73,-1.56 z"
           id="path48" />
        <path
           class="cls-6"
           d="m 264.37,421.14 c -0.8,-0.26 -1.39,0.16 -2,0.58 -0.14,0.1 -0.4,0.03 -0.6,0.04 0.55,-0.62 1.34,-0.9 1.98,-1.38 -0.08,0.49 0.6,0.36 0.62,0.77 z"
           id="path50" />
        <path
           class="cls-11"
           d="m 302.1,441.7 c -0.51,0 -0.85,-0.25 -0.87,-0.75 -0.01,-0.41 0.33,-0.53 0.71,-0.47 -0.01,0.41 0.05,0.82 0.16,1.21 z"
           id="path52" />
        <path
           class="cls-4"
           d="m 292.34,424.5 c -0.28,-0.1 -0.56,-0.18 -0.83,-0.3 -1.46,-0.7 -2.98,-0.51 -4.5,-0.31 -0.2,0.03 -0.44,0.02 -0.49,0.28 -0.05,0.27 0.21,0.32 0.37,0.42 0.33,0.19 0.66,0.38 0.99,0.58 0.14,0.08 0.25,0.19 0.23,0.37 -0.02,0.2 -0.21,0.17 -0.34,0.23 -0.39,0.19 -0.75,-0.01 -1.13,-0.02 -1.39,-0.05 -2.73,0.26 -4.08,0.48 -1.86,0.3 -3.69,0.73 -5.5,1.23 -0.78,0.22 -1.49,0.64 -2.35,0.3 -0.87,-0.33 -1.75,-0.58 -2.53,-1.15 -1.01,-0.74 -2.21,-0.38 -3.34,-0.33 -0.86,0.04 -1.72,0.16 -2.58,0.23 -0.23,0.02 -0.5,0.05 -0.61,-0.21 -0.1,-0.25 0.08,-0.42 0.27,-0.57 0.86,-0.69 1.52,-1.58 2.4,-2.25 0.27,-0.21 0.58,-0.52 0.26,-1.04 -0.15,-0.25 0.04,-0.73 0.13,-1.09 0.16,-0.63 0.14,-1.19 -0.33,-1.71 -0.39,-0.42 -0.23,-0.84 0.09,-1.23 0.47,-0.56 0.94,-1.13 1.26,-1.8 0.18,-0.38 0.24,-0.74 -0.05,-1.07 -0.47,-0.52 -0.13,-0.7 0.33,-0.83 1.27,-0.37 2.51,-0.83 3.73,-1.33 0.13,-0.05 0.35,-0.03 0.34,-0.23 0,-0.23 -0.21,-0.25 -0.39,-0.28 -1.05,-0.21 -2.2,-0.2 -3.11,-0.68 -1.21,-0.64 -2.33,-0.48 -3.52,-0.25 -0.51,0.1 -0.84,-0.11 -0.92,-0.65 -0.04,-0.25 -0.1,-0.5 -0.15,-0.75 -0.25,-1.15 -0.24,-1.18 0.9,-0.83 1.07,0.32 2.11,0.73 3.17,1.08 0.52,0.17 1.07,0.11 1.6,0.06 1.37,-0.13 2.71,-0.45 3.99,-0.97 0.18,-0.07 0.44,-0.13 0.43,-0.38 0,-0.25 -0.28,-0.28 -0.45,-0.35 -1.72,-0.74 -3.53,-1.06 -5.36,-1.38 -1.08,-0.19 -2.2,0.08 -3.24,-0.39 -0.26,-0.12 -0.6,-0.17 -0.62,-0.48 -0.02,-0.36 0.33,-0.53 0.62,-0.58 1.83,-0.32 3.58,-1.1 5.49,-0.98 0.17,0.01 0.39,-0.09 0.48,0.12 0.09,0.2 -0.12,0.31 -0.22,0.45 -0.15,0.23 -0.43,0.41 -0.24,0.73 0.18,0.3 0.5,0.24 0.76,0.22 1.51,-0.15 3.04,0.35 4.55,-0.12 0.16,-0.05 0.3,0.05 0.41,0.15 0.58,0.58 1.31,0.64 2.06,0.57 1.31,-0.12 2.47,0.03 3.39,1.15 0.31,0.39 0.74,0.6 0.46,1.19 -0.09,0.2 0.03,0.49 0.28,0.4 1.71,-0.61 2.46,0.8 3.49,1.62 0.24,0.2 0.73,0.46 0.37,0.85 -0.3,0.33 -0.73,0.19 -1.12,-0.05 -0.82,-0.51 -1.65,-0.99 -2.49,-1.45 -0.67,-0.37 -1,-0.16 -1.19,0.57 -0.21,0.8 -0.16,1.56 0.1,2.33 0.19,0.58 0,0.8 -0.6,0.77 -2.12,-0.1 -4.23,0.05 -6.28,0.63 -0.74,0.21 -1.56,0.28 -2.2,0.78 -0.29,0.22 -0.53,0.47 0.06,0.66 0.43,0.14 0.84,0.35 1.27,0.5 0.25,0.09 0.52,0.18 0.55,0.46 0.03,0.3 -0.26,0.41 -0.48,0.53 -1.06,0.6 -2.17,1.11 -3.3,1.56 -0.32,0.13 -0.59,0.28 -0.83,0.52 -0.3,0.32 -0.34,0.61 -0.02,0.93 1.17,1.17 2.26,2.42 3.65,3.35 0.18,0.12 0.35,0.24 0.56,0.14 0.24,-0.11 0.15,-0.35 0.17,-0.54 0.06,-1.02 -0.08,-2.03 0.13,-3.05 0.11,-0.55 0.31,-0.82 0.88,-0.81 0.5,0 0.9,-0.17 1.27,-0.56 0.54,-0.57 1.32,-0.58 2.05,-0.65 1.3,-0.13 2.59,0.15 3.89,0.16 0.44,0 0.82,-0.06 1.01,-0.51 0.18,-0.43 0.62,-0.41 0.97,-0.52 0.94,-0.32 1.85,-0.72 2.83,-0.9 0.42,-0.08 0.59,-0.04 0.64,0.43 0.11,0.86 0.26,1.7 0.32,2.57 0.08,1.19 0.91,2.05 1.61,2.95 0.23,0.29 0.44,0.59 0.66,0.88 -0.04,0.05 -0.07,0.09 -0.11,0.14 z m -11.12,0.17 c 1.38,-0.21 3.15,-0.43 4.33,-2.05 0.2,-0.28 0.54,-0.45 0.89,-0.56 0.58,-0.18 1.15,-0.39 1.72,-0.6 0.32,-0.12 0.81,-0.14 0.7,-0.63 -0.09,-0.4 -0.51,-0.43 -0.88,-0.46 -1.13,-0.08 -2.24,0.14 -3.35,0.21 -0.63,0.04 -1.27,0.05 -1.9,0.1 -0.28,0.02 -0.63,0.03 -0.45,0.47 0.37,0.92 0.37,0.88 -0.61,0.92 -0.83,0.04 -1.6,-0.3 -2.42,-0.32 -0.27,0 -0.56,-0.07 -0.62,0.37 -0.16,1.17 1.01,2.55 2.59,2.55 z m -0.85,-15.51 c -0.08,0.02 -0.32,-0.01 -0.41,0.09 -0.72,0.79 -1.5,1.53 -2.08,2.44 -0.05,0.08 -0.11,0.2 -0.08,0.27 0.06,0.15 0.2,0.08 0.33,0.07 1.34,-0.09 2.27,-0.79 2.88,-1.95 0.11,-0.22 0.32,-0.43 0.16,-0.7 -0.16,-0.27 -0.44,-0.19 -0.79,-0.22 z"
           id="path54" />
        <path
           class="cls-4"
           d="m 293.99,412.06 c -1.18,0.14 -2.36,0.24 -3.52,0.43 -0.53,0.09 -0.89,0 -1.31,-0.36 -0.84,-0.73 -1.75,-1.38 -2.65,-2.05 -0.35,-0.26 -0.37,-0.39 0.02,-0.65 0.7,-0.45 1.28,-1.02 1.82,-1.68 0.59,-0.73 1.63,-0.76 2.54,-0.78 0.28,0 0.54,0.25 0.63,0.59 0.31,1.1 1.19,1.88 2.27,1.91 2.37,0.07 4.74,0.05 7.07,-0.48 0.04,0 0.06,-0.07 0.13,-0.15 -0.37,-0.4 -0.89,-0.31 -1.33,-0.42 -1.16,-0.27 -2.34,-0.46 -3.5,-0.71 -0.22,-0.05 -0.59,-0.04 -0.55,-0.39 0.03,-0.25 0.33,-0.27 0.56,-0.29 1.72,-0.12 3.46,-0.16 5.17,-0.36 1.69,-0.2 3.18,0.22 4.74,0.7 0.91,0.28 1.93,0.14 2.77,0.72 0.2,0.14 0.52,0.19 0.45,0.53 -0.06,0.33 -0.39,0.32 -0.61,0.37 -1.04,0.23 -2.1,0.35 -3.11,0.7 -0.17,0.06 -0.47,0.03 -0.48,0.29 -0.01,0.22 0.21,0.34 0.39,0.43 0.66,0.3 1.36,0.42 2.07,0.46 1.76,0.11 3.51,-0.22 5.27,-0.15 0.23,0 0.51,-0.12 0.72,0.17 -1.56,0.69 -3.18,1.08 -4.81,1.4 -1.17,0.23 -1.84,0.98 -2.44,1.87 -0.44,0.66 -0.96,1.25 -1.54,1.8 -0.61,0.58 -1.17,0.56 -1.77,-0.05 -0.32,-0.33 -0.53,-0.98 -1.07,-0.82 -0.49,0.15 -0.31,0.8 -0.42,1.22 -0.2,0.77 -0.37,1.52 -1.17,1.95 -0.37,0.2 -0.75,0.08 -1.12,0.19 -1.11,0.33 -2.24,0.46 -3.4,0.4 -1.12,-0.05 -2.01,0.49 -2.67,1.26 -0.5,0.57 -0.31,1.44 -0.35,2.19 0,0.16 0.2,0.36 -0.04,0.46 -0.2,0.08 -0.33,-0.13 -0.42,-0.27 -0.75,-1.18 -1.52,-2.36 -1.73,-3.78 -0.23,-1.56 -0.13,-1.66 1.54,-2.01 0.81,-0.17 1.64,-0.33 2.38,-0.76 0.16,-0.09 0.33,-0.15 0.35,-0.36 0.02,-0.23 -0.19,-0.29 -0.34,-0.36 -1.16,-0.58 -2.42,-0.75 -3.67,-0.97 -0.24,-0.04 -0.6,0.07 -0.63,-0.26 -0.03,-0.32 0.35,-0.28 0.56,-0.39 1.03,-0.54 2.22,-0.71 3.23,-1.31 l -0.04,-0.22 z m 8.65,2.18 c 0.17,0 0.28,0 0.38,0 2.12,-0.01 1.85,0.27 1.35,-1.83 -0.16,-0.67 -0.62,-1.13 -1.45,-1.09 -0.76,0.04 -1.51,0.02 -2.26,0.25 -0.51,0.16 -1.06,0.12 -1.59,0 -0.79,-0.17 -1.58,-0.37 -2.37,-0.54 -0.16,-0.03 -0.39,-0.09 -0.49,0.1 -0.11,0.21 0.1,0.32 0.23,0.42 0.59,0.45 1.11,0.93 1.25,1.73 0.05,0.29 0.39,0.43 0.71,0.5 1.42,0.3 2.84,0.51 4.22,0.47 z"
           id="path56" />
        <path
           class="cls-4"
           d="m 300.69,434.28 c -0.35,-0.63 -0.71,-1.27 -1.07,-1.9 -0.1,-0.17 -0.19,-0.35 0.04,-0.45 0.91,-0.43 1.15,-1.58 2.15,-1.95 0.28,-0.1 0.12,-0.35 -0.14,-0.39 -1.01,-0.15 -2.03,-0.16 -2.93,0.39 -0.34,0.21 -0.49,0.18 -0.64,-0.15 -0.36,-0.8 -0.84,-1.51 -1.46,-2.13 -0.08,-0.08 -0.2,-0.26 -0.17,-0.32 0.63,-1.21 -0.5,-1.3 -1.09,-1.58 -0.9,-0.42 -1.29,-1.22 -1.95,-2.03 1.54,0.18 2.85,0.59 4.15,0.98 1.73,0.52 2.16,-0.27 2.61,-1.47 0.6,-1.6 0.7,-1.64 2.04,-0.54 0.79,0.65 1.49,1.37 2.18,2.13 0.43,0.48 0.23,0.65 -0.23,0.89 -0.37,0.19 -0.96,0.1 -1,0.75 -0.03,0.58 0.24,0.8 0.78,0.73 1.84,-0.24 4.13,0.91 5.1,2.54 0.32,0.54 0.88,0.57 1.42,0.56 0.85,-0.02 1.68,0.05 2.45,0.46 0.65,0.35 0.98,1.2 1.88,1.16 0.13,0 0.22,0.21 0.17,0.38 -0.08,0.28 -0.32,0.32 -0.56,0.3 -1.18,-0.11 -2.32,0.24 -3.49,0.33 -1.25,0.1 -2.42,-0.02 -3.42,-0.86 -0.34,-0.28 -0.42,-0.79 -0.83,-0.98 -0.52,-0.24 -1,-0.54 -1.64,-0.51 -0.73,0.03 -1.19,0.48 -1.01,1.21 0.24,1.04 0.12,1.18 -0.99,1.12 -0.1,0 -0.21,0 -0.31,-0.03 -1.2,-0.22 -1.25,-0.19 -1.74,0.89 -0.07,0.15 -0.04,0.37 -0.29,0.46 z"
           id="path58" />
        <path
           class="cls-4"
           d="m 325.59,424.45 c 0,0.31 0,0.47 0,0.62 0.03,0.5 0,1.04 -0.52,1.24 -0.53,0.2 -0.93,-0.19 -1.24,-0.57 -0.35,-0.43 -0.7,-0.88 -0.97,-1.36 -0.21,-0.38 -0.28,-0.39 -0.54,-0.03 -0.42,0.56 -0.25,1.22 -0.39,1.83 -0.18,0.78 -0.26,0.85 -1.06,0.75 -2.11,-0.27 -3.98,-1.13 -5.78,-2.2 -0.46,-0.28 -0.67,-0.49 -0.18,-0.96 0.88,-0.85 1.2,-2.04 1.76,-3.09 0.19,-0.35 0.3,-0.74 0.44,-1.11 0.14,-0.4 0.46,-0.43 0.81,-0.41 1.39,0.07 2.7,0.47 3.98,0.94 0.88,0.32 1.74,0.71 2.62,1.02 0.61,0.21 0.85,0.71 0.88,1.23 0.06,0.76 0.33,1.5 0.19,2.12 z"
           id="path60" />
        <path
           class="cls-10"
           d="m 283.48,389.49 c 0.12,-0.03 0.26,-0.11 0.36,-0.07 1.84,0.74 3.84,1.08 5.56,2.12 0,0.3 -0.15,0.53 -0.37,0.72 -0.91,0.8 -1.8,1.66 -2.94,2.12 -1.04,0.43 -2.07,0.81 -2.58,1.93 -0.04,0.09 -0.2,0.14 -0.31,0.2 -0.05,0 -0.09,0.03 -0.12,0.06 -0.46,0.07 -0.77,-0.37 -1.21,-0.33 -0.81,-0.39 -1.65,-0.73 -2.54,-0.91 -2.38,-1.3 -4.9,-2.3 -7.43,-3.28 -0.33,-0.13 -0.65,-0.27 -0.92,-0.51 1.6,-0.73 3.2,-1.45 4.8,-2.19 0.29,-0.13 0.58,-0.18 0.88,-0.07 -0.04,0.23 -0.02,0.45 0.05,0.67 0.76,2.52 4.14,3.94 6.5,2.74 0.22,-0.11 0.33,-0.29 0.42,-0.51 0.39,-0.93 0.36,-1.83 -0.13,-2.71 z"
           id="path62" />
        <path
           class="cls-6"
           d="m 333.09,427.68 c -1.41,0.66 -2.73,0.82 -3.96,1.25 -0.53,0.18 -1.05,0.39 -1.55,0.62 -0.81,0.37 -0.8,0.5 -0.27,1.24 0.13,0.18 0.33,0.37 0.17,0.61 -0.15,0.24 -0.36,0.05 -0.55,0.05 -1.02,-0.02 -2.04,-0.1 -3.04,0.13 -0.73,0.17 -0.9,0.62 -0.41,1.18 0.24,0.27 0.26,0.49 0.12,0.82 -0.45,1.04 -1.13,1.62 -2.35,1.55 -1.43,-0.08 -2.86,-0.09 -4.29,0 -1.21,0.07 -2.24,-0.36 -3.3,-0.8 -0.14,-0.06 -0.31,-0.11 -0.27,-0.3 0.05,-0.2 0.25,-0.12 0.39,-0.15 2.07,-0.45 4.17,-0.82 6.19,-1.47 0.39,-0.12 0.81,-0.03 1.2,-0.19 0.42,-0.17 0.95,-0.05 1.15,-0.68 0.05,-0.16 0.54,-0.25 0.83,-0.25 0.5,0 0.94,-0.17 1.4,-0.3 0.55,-0.15 0.46,-0.45 0.3,-0.8 -0.05,-0.11 -0.17,-0.18 -0.25,-0.29 -0.23,-0.29 -0.77,-0.5 -0.65,-0.87 0.13,-0.41 0.7,-0.29 1.07,-0.36 1.57,-0.31 3.14,-0.61 4.71,-0.85 1.03,-0.16 2.07,-0.36 3.34,-0.15 z"
           id="path64" />
        <path
           class="cls-1"
           d="m 281.86,396.24 c 0.44,-0.03 0.76,0.4 1.21,0.33 0.03,0.06 0.05,0.13 0.08,0.19 0.12,-0.06 0.05,-0.16 0.04,-0.25 0.11,-0.07 0.26,-0.11 0.31,-0.2 0.51,-1.12 1.54,-1.5 2.58,-1.93 1.14,-0.47 2.02,-1.32 2.94,-2.12 0.22,-0.19 0.37,-0.42 0.37,-0.72 0.4,-0.32 0.47,-0.84 0.74,-1.24 0.27,0.68 0.32,1.41 0.59,2.1 0.17,0.44 -0.52,1.24 -1.19,1.39 -0.63,0.14 -1.1,0.63 -1.75,0.7 -0.02,0 -0.06,0.02 -0.07,0.04 -0.43,1.34 -2.12,1.72 -2.39,3.18 -0.04,0.21 -0.22,0.4 -0.36,0.58 -0.32,0.42 -0.29,0.83 0.12,1.14 0.51,0.39 0.5,0.84 0.26,1.35 -0.31,0.67 -0.58,1.35 -0.93,1.99 -0.29,0.52 -0.61,0.99 -0.6,1.62 0,0.18 -0.09,0.44 -0.34,0.44 -0.31,0 -0.2,-0.29 -0.24,-0.47 -0.41,-1.98 0.1,-3.96 0,-5.94 -0.01,-0.27 0.08,-0.56 -0.13,-0.87 -0.31,0.31 -0.09,0.69 -0.28,1.03 -0.05,-0.9 -0.43,-1.65 -0.96,-2.34 z"
           id="path66" />
        <path
           class="cls-6"
           d="m 281.96,430.98 c -0.58,0.13 -1.04,-0.25 -1.56,-0.34 -0.19,-0.03 -0.34,-0.13 -0.36,-0.34 -0.02,-0.25 0.15,-0.35 0.36,-0.42 0.65,-0.21 1.29,-0.46 2,-0.46 0.73,0 1.37,-0.25 1.76,-0.88 0.41,-0.65 1.02,-0.78 1.7,-0.81 0.36,-0.01 0.72,-0.03 1.07,0 0.75,0.08 1.33,-0.12 1.72,-0.81 0.13,-0.24 0.31,-0.45 0.59,-0.57 0.73,-0.3 1.63,-0.15 1.88,0.34 0.21,0.4 -0.28,1.64 -0.79,1.92 -0.4,0.23 -0.84,0.37 -1.32,0.34 -0.5,-0.03 -0.92,0.13 -1.17,0.58 -0.25,0.44 -0.61,0.7 -1.1,0.72 -1.63,0.07 -3.2,0.51 -4.8,0.72 z"
           id="path68" />
        <path
           class="cls-4"
           d="m 266.31,435.58 c -0.91,0.09 -1.46,-0.47 -1.95,-1.11 -0.12,-0.16 -0.2,-0.35 -0.32,-0.52 -0.31,-0.44 -1.01,-0.66 -0.89,-1.34 0.14,-0.85 0.44,-1.68 0.96,-2.37 0.55,-0.73 1.43,-1.14 1.94,-1.93 0.1,-0.15 0.34,-0.31 0.53,-0.17 0.16,0.11 0.06,0.32 0.03,0.5 -0.11,0.63 -0.38,1.21 0.01,1.9 0.33,0.58 -0.3,1.02 -0.62,1.45 -0.57,0.75 -0.51,1.03 0.41,1.2 0.94,0.17 1.9,0.26 2.86,0.38 0.31,0.04 0.66,0.02 0.75,0.38 0.1,0.42 -0.31,0.48 -0.56,0.61 -0.99,0.51 -2,0.96 -3.14,1.02 z"
           id="path70" />
        <path
           class="cls-4"
           d="m 313.94,417.31 c -0.46,0 -0.92,0 -1.38,0 -0.93,0 -1.69,-0.74 -1.7,-1.65 0,-0.3 0.17,-0.46 0.38,-0.62 0.92,-0.66 2.03,-0.95 3,-1.5 0.18,-0.1 0.34,-0.06 0.49,0.07 0.99,0.84 1.97,1.7 2.81,2.69 0.47,0.56 0.36,0.78 -0.41,0.84 -1.06,0.09 -2.12,0.27 -3.19,0.16 z"
           id="path72" />
        <path
           class="cls-6"
           d="m 310.8,427.61 c 0.79,-0.07 1.56,0.18 2.35,0.15 0.68,-0.03 0.73,-0.32 0.51,-0.82 -0.16,-0.37 -0.35,-0.74 -0.54,-1.1 -0.1,-0.19 -0.2,-0.4 -0.06,-0.58 0.16,-0.21 0.42,-0.16 0.64,-0.07 0.82,0.33 1.62,0.68 2.44,1.01 0.28,0.11 0.56,0.23 0.85,0.31 0.74,0.21 0.81,0.48 0.27,1.04 -0.22,0.23 -0.47,0.44 -0.76,0.49 -1.53,0.3 -3.02,0.89 -4.6,0.91 -0.8,0.01 -1.45,-0.43 -2.1,-0.81 -0.35,-0.21 -0.1,-0.46 0.16,-0.53 0.27,-0.06 0.56,-0.01 0.84,-0.01 z"
           id="path74" />
        <path
           class="cls-6"
           d="m 311.71,422.25 c -0.42,0.34 -0.96,0.37 -1.43,0.39 -1.29,0.05 -2.59,0.16 -3.88,-0.12 -0.42,-0.09 -0.67,-0.33 -0.77,-0.74 -0.11,-0.46 0.18,-0.63 0.52,-0.78 0.58,-0.25 1.2,-0.39 1.83,-0.46 0.15,-0.02 0.36,-0.04 0.44,0.05 0.89,0.89 2.15,0.97 3.19,1.52 0.03,0.02 0.05,0.08 0.08,0.15 z"
           id="path76" />
        <path
           class="cls-6"
           d="m 290.3,397.9 c 0.28,0.06 0.51,0.08 0.73,0.27 0.35,0.29 0.37,0.54 -0.06,0.73 -0.71,0.31 -1.28,0.81 -1.89,1.26 -0.59,0.44 -2.15,0.2 -2.53,-0.37 -0.2,-0.29 0.03,-0.46 0.2,-0.65 0.4,-0.45 1.01,-0.44 1.52,-0.66 0.64,-0.28 1.35,-0.39 2.03,-0.57 z"
           id="path78" />
        <path
           class="cls-3"
           d="m 271.36,430.04 c 0.67,0 1.34,-0.06 2,0.01 1.56,0.17 3.13,0.15 4.66,0.54 0.21,0.05 0.5,0.05 0.54,0.34 0.04,0.26 -0.21,0.4 -0.38,0.53 -0.49,0.37 -1.08,0.42 -1.59,0.15 -1.22,-0.65 -2.58,-0.68 -3.89,-0.92 -0.51,-0.09 -0.9,-0.35 -1.38,-0.43 l 0.02,-0.22 z"
           id="path80" />
        <path
           class="cls-6"
           d="m 271.14,438.18 c -0.26,-0.01 -0.52,0.02 -0.73,-0.18 -0.27,-0.25 -0.42,-0.39 -0.03,-0.76 0.7,-0.67 1.56,-1.05 2.35,-1.56 0.22,-0.14 0.51,-0.22 0.72,-0.05 0.27,0.22 0.04,0.54 -0.07,0.69 -0.59,0.8 -1.01,1.82 -2.23,1.85 z"
           id="path82" />
        <path
           class="cls-3"
           d="m 261.25,424.98 c 0.23,0 0.46,0 0.68,0 0.35,0 0.73,-0.05 0.95,0.32 0.23,0.4 -0.02,0.71 -0.18,1.06 -0.13,0.28 -0.26,0.31 -0.52,0.23 -0.67,-0.21 -1.35,-0.36 -2.01,-0.59 -0.26,-0.09 -0.61,-0.24 -0.55,-0.63 0.06,-0.42 0.41,-0.38 0.71,-0.38 0.3,0 0.61,0 0.91,0 z"
           id="path84" />
        <path
           class="cls-3"
           d="m 316.82,431.04 c -0.47,-0.33 -1.07,-0.66 -1.55,-1.12 -0.18,-0.18 0.18,-0.35 0.42,-0.32 1.31,0.17 2.61,0.39 3.87,0.77 0.15,0.04 0.31,0.11 0.26,0.3 -0.04,0.16 -0.2,0.13 -0.32,0.14 -0.86,0.08 -1.72,0.15 -2.68,0.24 z"
           id="path86" />
        <path
           class="cls-6"
           d="m 315.82,412.85 c -0.33,-0.07 -0.9,0.19 -0.92,-0.37 -0.01,-0.52 0.34,-0.96 0.95,-1 0.4,-0.03 0.81,-0.01 1.21,0.05 0.25,0.04 0.57,0.09 0.55,0.49 -0.02,0.35 -0.19,0.58 -0.52,0.66 -0.42,0.1 -0.83,0.24 -1.27,0.17 z"
           id="path88" />
        <path
           class="cls-3"
           d="m 334.85,426.21 c -0.36,0.05 -0.82,-0.13 -0.84,-0.43 -0.02,-0.34 0.42,-0.51 0.81,-0.49 0.33,0.02 0.72,0.03 0.73,0.48 0,0.43 -0.34,0.44 -0.69,0.44 z"
           id="path90" />
        <path
           class="cls-3"
           d="m 284.49,407.32 c 0.31,0.06 0.7,0.03 0.69,0.45 0,0.22 0,0.67 -0.41,0.59 -0.41,-0.08 -0.59,-0.5 -0.68,-0.85 -0.06,-0.22 0.27,-0.13 0.41,-0.19 z"
           id="path92" />
        <path
           class="cls-2"
           d="m 283.48,389.49 c 0.49,0.88 0.52,1.78 0.13,2.71 -0.09,0.22 -0.19,0.39 -0.42,0.51 -2.36,1.2 -5.74,-0.22 -6.5,-2.74 -0.07,-0.23 -0.09,-0.45 -0.05,-0.67 0.75,-0.3 1.8,-0.25 1.81,-1.46 0.05,-0.4 -0.28,-0.51 -0.53,-0.66 -1.31,-0.79 -2.44,-1.76 -3.22,-3.1 -0.28,-0.49 -0.66,-0.84 -1.23,-1.07 -1.21,-0.5 -1.88,-1.97 -1.56,-3.27 0.14,-0.56 0.47,-0.98 1.08,-1.04 0.63,-0.06 0.99,0.28 1.32,1.2 -0.2,-1.2 0.6,-1.71 1.42,-2.25 1.69,-1.1 2.82,-2.63 3.39,-4.58 0.26,-0.91 1.54,-1.51 2.36,-1.04 2.87,1.64 5.37,3.61 6.61,6.86 0.41,1.07 0.42,2.02 0,3.02 -0.53,1.28 -1.17,2.52 -2.02,3.6 -0.88,1.12 -2.24,1.56 -3.5,2.12 -0.23,0.1 -0.47,0.18 -0.71,0.27 -0.23,0.05 -0.18,0.16 -0.07,0.29 0,0.04 0.02,0.08 0.05,0.12 0.16,0.85 0.59,1.16 1.62,1.19 z m -2.77,-4.77 c 0.52,-0.05 1.02,-0.14 1.44,-0.48 0.15,-0.12 0.3,-0.25 0.17,-0.44 -0.14,-0.2 -0.31,-0.07 -0.47,0.02 -0.9,0.53 -1.73,0.52 -2.48,-0.27 -0.11,-0.12 -0.24,-0.23 -0.39,-0.12 -0.21,0.14 -0.08,0.33 0.02,0.47 0.41,0.61 1.05,0.76 1.72,0.82 z m 0.95,-2.59 c 0.47,0.01 1.04,-0.87 0.82,-1.27 -0.16,-0.29 -0.32,-0.58 -0.51,-0.85 -0.13,-0.19 -0.2,-0.58 -0.53,-0.38 -0.25,0.15 -0.04,0.42 0.07,0.61 0.3,0.52 0.72,1.01 -0.04,1.53 -0.18,0.12 -0.02,0.32 0.18,0.36 z m 2.51,-3.56 c -0.35,0.07 -0.63,0.23 -0.61,0.64 0.02,0.34 0.08,0.68 0.54,0.65 0.4,-0.03 0.67,-0.22 0.67,-0.66 0,-0.4 -0.22,-0.59 -0.61,-0.63 z m -4.93,-0.11 c -0.47,0.05 -0.65,0.29 -0.61,0.73 0.03,0.32 0.11,0.55 0.5,0.53 0.41,-0.03 0.71,-0.21 0.71,-0.64 0,-0.39 -0.22,-0.61 -0.59,-0.62 z m 6.46,-1.81 c -0.85,-0.65 -1.57,-0.63 -2.02,0.04 0.66,-0.31 1.25,-0.1 2.02,-0.04 z m -7.76,0 c 0.52,-0.04 1.03,-0.29 1.55,-0.05 0.1,0.04 0.2,0 0.22,-0.14 0.01,-0.13 -0.1,-0.17 -0.19,-0.2 -0.58,-0.18 -1.13,-0.14 -1.58,0.38 z"
           id="path94" />
        <path
           class="cls-9"
           d="m 281.81,388.19 c -0.11,-0.13 -0.15,-0.24 0.07,-0.29 -0.02,0.1 -0.05,0.19 -0.07,0.29 z"
           id="path96" />
        <path
           class="cls-11"
           d="m 288.81,439.23 c 0.48,-1.53 1.05,-3.2 2.07,-4.69 0.18,-0.26 0.42,-0.35 0.72,-0.36 1.17,-0.05 2.35,-0.02 3.5,-0.18 1.04,-0.14 2.06,0.02 3.1,-0.05 0.35,-0.02 0.88,-0.1 1.06,0.39 0.17,0.48 -0.14,0.88 -0.42,1.22 -0.14,0.17 -0.36,0.33 -0.57,0.37 -1.57,0.31 -1.56,1.58 -1.66,2.75 -0.04,0.46 -0.13,0.9 -0.18,1.36 -0.03,0.31 -0.22,0.53 -0.54,0.56 -0.29,0.03 -0.54,-0.07 -0.68,-0.37 -0.5,-1.02 -1.02,-2.03 -1.53,-3.04 -0.46,-0.91 -0.6,-0.91 -1.31,-0.13 -0.83,0.89 -1.52,1.91 -2.48,2.69 -0.29,0.23 -0.56,0.35 -0.9,0.19 -0.22,-0.1 -0.23,-0.32 -0.17,-0.71 z"
           id="path98" />
        <path
           class="cls-11"
           d="m 287.21,436.48 c -0.34,0 -0.63,0.03 -0.91,0 -1.45,-0.16 -2.09,-0.76 -2.4,-2.2 -0.08,-0.39 -0.04,-0.57 0.45,-0.47 1.61,0.34 3.03,1.14 4.5,1.82 0.15,0.07 0.22,0.21 0.19,0.38 -0.03,0.17 -0.15,0.26 -0.31,0.3 -0.52,0.14 -1.05,0.23 -1.53,0.17 z"
           id="path100" />
        <path
           class="cls-11"
           d="m 281.22,424.67 c -1.58,0 -2.74,-1.37 -2.59,-2.55 0.06,-0.43 0.35,-0.37 0.62,-0.37 0.82,0.02 1.58,0.35 2.42,0.32 0.99,-0.04 0.98,0 0.61,-0.92 -0.18,-0.44 0.17,-0.45 0.45,-0.47 0.63,-0.05 1.27,-0.05 1.9,-0.1 1.12,-0.08 2.23,-0.3 3.35,-0.21 0.37,0.03 0.8,0.06 0.88,0.46 0.11,0.49 -0.39,0.51 -0.7,0.63 -0.57,0.21 -1.14,0.41 -1.72,0.6 -0.35,0.11 -0.69,0.28 -0.89,0.56 -1.17,1.63 -2.94,1.84 -4.33,2.05 z"
           id="path102" />
        <path
           class="cls-11"
           d="m 280.37,409.16 c 0.35,0.02 0.63,-0.05 0.79,0.22 0.16,0.27 -0.05,0.48 -0.16,0.7 -0.61,1.17 -1.54,1.86 -2.88,1.95 -0.12,0 -0.27,0.08 -0.33,-0.07 -0.03,-0.07 0.03,-0.19 0.08,-0.27 0.58,-0.91 1.36,-1.65 2.08,-2.44 0.1,-0.1 0.33,-0.08 0.41,-0.09 z"
           id="path104" />
        <path
           class="cls-11"
           d="m 302.64,414.24 c -1.38,0.05 -2.81,-0.16 -4.22,-0.47 -0.31,-0.07 -0.66,-0.21 -0.71,-0.5 -0.14,-0.8 -0.66,-1.28 -1.25,-1.73 -0.13,-0.1 -0.34,-0.21 -0.23,-0.42 0.1,-0.19 0.33,-0.13 0.49,-0.1 0.79,0.17 1.58,0.36 2.37,0.54 0.53,0.11 1.08,0.15 1.59,0 0.75,-0.23 1.5,-0.21 2.26,-0.25 0.82,-0.04 1.29,0.43 1.45,1.09 0.5,2.11 0.77,1.82 -1.35,1.83 -0.1,0 -0.2,0 -0.38,0 z"
           id="path106" />
        <path
           class="cls-11"
           d="m 283.2,396.51 c 0,0.09 0.07,0.18 -0.04,0.25 -0.03,-0.06 -0.05,-0.13 -0.08,-0.19 0.04,-0.03 0.08,-0.05 0.12,-0.06 z"
           id="path108" />
        <path
           class="cls-5"
           d="m 280.71,384.72 c -0.67,-0.06 -1.31,-0.21 -1.72,-0.82 -0.09,-0.14 -0.22,-0.33 -0.02,-0.47 0.15,-0.1 0.28,0 0.39,0.12 0.75,0.79 1.59,0.81 2.48,0.27 0.15,-0.09 0.33,-0.22 0.47,-0.02 0.12,0.19 -0.03,0.32 -0.17,0.44 -0.42,0.34 -0.91,0.42 -1.44,0.48 z"
           id="path110" />
        <path
           class="cls-5"
           d="m 281.66,382.13 c -0.2,-0.04 -0.35,-0.24 -0.18,-0.36 0.76,-0.52 0.34,-1.01 0.04,-1.53 -0.11,-0.19 -0.32,-0.46 -0.07,-0.61 0.33,-0.2 0.4,0.19 0.53,0.38 0.19,0.27 0.35,0.56 0.51,0.85 0.21,0.4 -0.35,1.28 -0.82,1.27 z"
           id="path112" />
        <path
           class="cls-5"
           d="m 284.17,378.57 c 0.38,0.04 0.61,0.23 0.61,0.63 0,0.44 -0.27,0.63 -0.67,0.66 -0.46,0.03 -0.52,-0.31 -0.54,-0.65 -0.02,-0.41 0.26,-0.57 0.61,-0.64 z"
           id="path114" />
        <path
           class="cls-5"
           d="m 279.24,378.46 c 0.37,0 0.6,0.23 0.59,0.62 0,0.43 -0.31,0.61 -0.71,0.64 -0.38,0.03 -0.47,-0.21 -0.5,-0.53 -0.04,-0.44 0.15,-0.68 0.61,-0.73 z"
           id="path116" />
        <path
           class="cls-9"
           d="m 285.7,376.65 c -0.77,-0.06 -1.37,-0.27 -2.02,0.04 0.45,-0.66 1.17,-0.69 2.02,-0.04 z"
           id="path118" />
        <path
           class="cls-9"
           d="m 277.94,376.65 c 0.45,-0.52 1,-0.56 1.58,-0.38 0.09,0.03 0.2,0.07 0.19,0.2 -0.01,0.13 -0.12,0.18 -0.22,0.14 -0.53,-0.24 -1.03,0 -1.55,0.05 z"
           id="path120" />
      </g>
    </g>
  </g>
</svg>
