<?xml version="1.0" encoding="UTF-8" standalone="no"?>
<svg
   version="1.1"
   viewBox="0 0 1023.9999 1024"
   id="svg251"
   sodipodi:docname="draiecksduch.svg"
   width="1024"
   height="1024"
   inkscape:version="1.2.2 (b0a8486541, 2022-12-01)"
   inkscape:export-filename="draiecksduch.png"
   inkscape:export-xdpi="96"
   inkscape:export-ydpi="96"
   xmlns:inkscape="http://www.inkscape.org/namespaces/inkscape"
   xmlns:sodipodi="http://sodipodi.sourceforge.net/DTD/sodipodi-0.dtd"
   xmlns="http://www.w3.org/2000/svg"
   xmlns:svg="http://www.w3.org/2000/svg">
  <sodipodi:namedview
     id="namedview253"
     pagecolor="#ffffff"
     bordercolor="#999999"
     borderopacity="1"
     inkscape:showpageshadow="0"
     inkscape:pageopacity="0"
     inkscape:pagecheckerboard="0"
     inkscape:deskcolor="#d1d1d1"
     showgrid="false"
     inkscape:zoom="0.50006532"
     inkscape:cx="237.96891"
     inkscape:cy="574.92489"
     inkscape:window-width="1860"
     inkscape:window-height="1011"
     inkscape:window-x="60"
     inkscape:window-y="32"
     inkscape:window-maximized="1"
     inkscape:current-layer="g249"
     inkscape:pageshadow="0" />
  <defs
     id="defs4">
    <style
       id="style2">
      .cls-1 {
        fill: #f8e7e5;
      }

      .cls-2 {
        fill: #e7907a;
      }

      .cls-3 {
        fill: #231f20;
        font-family: MyriadPro-Bold, 'Myriad Pro';
        font-size: 6.15px;
        font-weight: 700;
      }

      .cls-4 {
        fill: #d02e28;
      }

      .cls-5 {
        fill: #a4cc94;
      }

      .cls-6 {
        fill: #fdfcfb;
      }

      .cls-7 {
        fill: #e16750;
      }

      .cls-8 {
        fill: #da4e39;
      }

      .cls-9 {
        fill: #d84131;
      }

      .cls-10 {
        fill: #f5dcd2;
      }
    </style>
    <filter
       style="color-interpolation-filters:sRGB;"
       inkscape:label="Drop Shadow"
       id="filter420"
       x="-0.14775791"
       y="-0.094238038"
       width="1.329377"
       height="1.2100723">
      <feFlood
         flood-opacity="0.49853720440960569"
         flood-color="rgb(0,0,0)"
         result="flood"
         id="feFlood410" />
      <feComposite
         in="flood"
         in2="SourceGraphic"
         operator="in"
         result="composite1"
         id="feComposite412" />
      <feGaussianBlur
         in="composite1"
         stdDeviation="4"
         result="blur"
         id="feGaussianBlur414" />
      <feOffset
         dx="2.2"
         dy="2.2"
         result="offset"
         id="feOffset416" />
      <feComposite
         in="SourceGraphic"
         in2="offset"
         operator="over"
         result="composite2"
         id="feComposite418" />
    </filter>
  </defs>
  <!-- Generator: Adobe Illustrator 28.7.3, SVG Export Plug-In . SVG Version: 1.2.0 Build 164)  -->
  <g
     id="g249"
     transform="matrix(9.829949,0,0,9.829949,-2363.6097,-3462.5939)">
    <rect
       style="fill:#ffffff;fill-rule:evenodd;stroke:#b7b7b7;stroke-width:2.268;stroke-linejoin:round;stroke-miterlimit:10;paint-order:stroke fill markers;stop-color:#000000;fill-opacity:1"
       id="rect465"
       width="516.76501"
       height="835.58929"
       x="256.15622"
       y="128.63066"
       ry="0"
       transform="matrix(0.10172993,0,0,0.10172993,240.44984,352.24943)" />
    <g
       id="Layer_1">
      <g
         id="g246">
        <g
           id="g240">
          <path
             class="cls-5"
             d="m 269.96,455.27 c -2.14,-0.03 -4.28,-0.06 -6.42,-0.1 -0.68,-0.01 -1.36,-0.05 -1.92,-0.07 -0.57,-0.6 -0.44,-1.2 -0.44,-1.75 0,-2.65 0,-5.29 0,-7.94 0,-27.59 0,-55.17 0,-82.76 0,-0.69 -0.05,-1.38 -0.08,-2.07 0.07,-0.1 0.15,-0.21 0.23,-0.31 0.44,0 0.88,-0.03 1.32,-0.03 19.92,0 39.84,0 59.76,0 0.5,0 1,0.03 1.51,0.04 0.03,0.75 0.09,1.51 0.09,2.26 0,29.99 0,59.98 0,89.97 0,0.8 0.12,1.63 -0.18,2.41 -0.71,0.36 -1.41,0.23 -2.09,0.24 -3.97,0.01 -7.94,0 -11.91,0 -12.48,0 -24.95,0 -37.43,0 -0.82,0 -1.63,0.06 -2.45,0.1 z m 49.47,-3.99 c 0.53,-1.07 0.35,-1.97 0.35,-2.83 0.01,-27.15 0,-54.3 0,-81.45 0,-0.5 0.02,-1.01 -0.02,-1.51 -0.03,-0.36 -0.15,-0.71 -0.25,-1.19 -0.8,-0.01 -1.55,-0.04 -2.3,-0.04 -16.25,0 -32.51,0 -48.76,0 -0.5,0 -1.01,-0.03 -1.51,0.02 -0.35,0.03 -0.69,0.17 -1.13,0.29 v 2.33 c 0,27.28 0,54.55 0,81.83 0,0.44 -0.02,0.88 0.01,1.32 0.03,0.36 0.11,0.71 0.18,1.11 0.46,0.05 0.83,0.11 1.2,0.11 17.38,0 34.76,0 52.22,0 z"
             id="path6" />
          <path
             class="cls-4"
             d="m 323.92,360.28 c -0.5,-0.01 -1,-0.04 -1.51,-0.04 -19.92,0 -39.84,0 -59.76,0 -0.44,0 -0.88,0.02 -1.32,0.03 -0.11,-0.22 -0.28,-0.43 -0.33,-0.67 -0.31,-1.61 -0.6,-3.21 -0.88,-4.83 -0.06,-0.36 -0.04,-0.73 -0.07,-1.19 0.58,-0.04 1.06,-0.09 1.55,-0.1 21.98,-0.17 62.04,-0.05 63.41,0.19 0.1,1.19 -0.49,4.76 -1.1,6.61 z"
             id="path8" />
          <path
             class="cls-6"
             d="m 319.43,451.28 c -17.45,0 -34.84,0 -52.22,0 -0.37,0 -0.73,-0.07 -1.2,-0.11 -0.07,-0.4 -0.16,-0.76 -0.18,-1.11 -0.03,-0.44 -0.01,-0.88 -0.01,-1.32 0,-27.28 0,-54.55 0,-81.83 v -2.33 c 0.44,-0.12 0.78,-0.26 1.13,-0.29 0.5,-0.05 1.01,-0.02 1.51,-0.02 16.25,0 32.51,0 48.76,0 0.75,0 1.5,0.03 2.3,0.04 0.1,0.48 0.22,0.83 0.25,1.19 0.04,0.5 0.02,1.01 0.02,1.51 0,27.15 0,54.3 0,81.45 0,0.86 0.18,1.76 -0.35,2.83 z m -24.51,-24.15 c 0.31,-0.03 0.4,-0.24 0.4,-0.51 0.25,-0.22 0.51,-0.44 0.76,-0.66 0.12,-0.12 0.24,-0.24 0.36,-0.36 v 0.02 c 0.47,-0.08 0.44,-0.43 0.39,-0.79 0.3,-0.24 0.6,-0.49 0.9,-0.73 0.3,0.02 0.55,-0.04 0.6,-0.39 l -0.02,0.02 0.38,-0.39 c 0.23,-0.25 0.47,-0.49 0.7,-0.74 0.28,0.01 0.44,-0.11 0.45,-0.39 h -0.01 c 0.33,-0.02 0.4,-0.25 0.41,-0.52 0.25,-0.21 0.51,-0.42 0.76,-0.64 0.55,-0.17 0.88,-0.5 0.8,-1.12 l 0.85,-0.74 c 0.3,0.02 0.54,-0.04 0.6,-0.39 l -0.02,0.02 c 0.13,-0.13 0.25,-0.26 0.38,-0.4 0.24,-0.25 0.48,-0.5 0.72,-0.74 0.27,0.01 0.42,-0.12 0.44,-0.39 h -0.01 c 0.33,-0.03 0.4,-0.26 0.41,-0.54 0.26,-0.21 0.51,-0.42 0.77,-0.62 l 0.36,-0.36 -0.02,0.02 c 0.46,0 0.49,-0.41 0.68,-0.67 0.21,-0.28 0.42,-0.56 0.62,-0.84 0.29,0.01 0.54,-0.05 0.6,-0.39 l -0.02,0.02 c 0.13,-0.13 0.25,-0.26 0.38,-0.4 0.24,-0.25 0.48,-0.5 0.72,-0.74 0.27,0 0.41,-0.12 0.43,-0.39 v 0 c 0.49,-0.07 0.35,-0.42 0.3,-0.73 0.29,-0.15 0.58,-0.29 0.87,-0.44 l 0.35,-0.35 -0.02,0.02 c 0.45,0 0.5,-0.41 0.69,-0.68 0.15,-0.3 0.31,-0.59 0.46,-0.89 0.23,-0.03 0.51,0.02 0.69,-0.1 0.17,-0.11 0.34,-0.39 0.33,-0.57 -0.03,-0.33 -0.27,-0.53 -0.65,-0.45 v 0 c 0.05,-0.31 -0.13,-0.4 -0.41,-0.41 -0.25,-0.24 -0.5,-0.48 -0.75,-0.71 0,-0.24 -0.06,-0.44 -0.37,-0.39 l 0.02,0.02 c 0.07,-0.34 -0.12,-0.5 -0.41,-0.59 -0.45,-0.16 -0.72,-0.5 -0.91,-0.92 -0.1,-0.29 -0.26,-0.48 -0.6,-0.4 l 0.03,0.02 c -0.12,-0.12 -0.24,-0.24 -0.36,-0.37 -0.23,-0.25 -0.45,-0.5 -0.68,-0.76 -0.05,-0.27 -0.15,-0.48 -0.49,-0.41 h 0.02 c 0.06,-0.31 -0.13,-0.41 -0.41,-0.42 -0.25,-0.24 -0.5,-0.47 -0.75,-0.71 -0.01,-0.24 -0.05,-0.44 -0.37,-0.39 l 0.02,0.02 c 0.2,-0.38 -0.11,-0.52 -0.32,-0.7 -0.48,-0.09 -0.77,-0.36 -0.85,-0.84 -0.19,-0.23 -0.35,-0.54 -0.74,-0.36 l 0.02,0.02 c -0.12,-0.12 -0.24,-0.24 -0.36,-0.37 -0.23,-0.25 -0.46,-0.5 -0.69,-0.76 -0.06,-0.51 -0.31,-0.84 -0.87,-0.84 -0.25,-0.24 -0.5,-0.47 -0.75,-0.71 -0.14,-0.77 -0.2,-0.83 -0.91,-0.97 l -0.62,-0.94 c -0.25,-0.4 -0.55,-0.73 -1.07,-0.7 l -0.71,-0.76 c -0.05,-0.52 -0.29,-0.84 -0.86,-0.83 -0.25,-0.24 -0.5,-0.48 -0.75,-0.72 -0.02,-0.22 -0.05,-0.44 -0.37,-0.38 l 0.02,0.02 c 0.21,-0.39 -0.11,-0.54 -0.34,-0.72 -0.48,-0.08 -0.76,-0.37 -0.84,-0.84 -0.25,-0.39 -0.54,-0.73 -1.07,-0.69 -0.12,-0.01 -0.23,-0.02 -0.35,-0.03 -0.02,-2.44 -0.03,-4.89 -0.07,-7.33 0,-0.34 -0.14,-0.67 -0.24,-1.09 -0.67,0.29 -1.02,0.71 -1.34,1.17 l -0.38,0.38 c -0.12,0.13 -0.25,0.25 -0.37,0.38 -0.12,0.13 -0.25,0.25 -0.37,0.38 -0.13,0.13 -0.25,0.26 -0.38,0.38 -0.26,0.25 -0.51,0.49 -0.77,0.74 q -0.67,0.17 -0.64,0.86 c -0.01,3.46 -0.02,6.92 -0.05,10.39 0,0.41 -0.09,0.83 -0.14,1.24 -0.36,0.02 -0.61,0.03 -0.86,0.05 -0.25,0.02 -0.51,0.02 -0.75,0.09 -0.62,0.18 -1.05,0.77 -1.07,1.4 -0.02,0.73 0.43,1.36 1.17,1.51 0.48,0.1 0.99,0.09 1.59,0.15 0.16,1.46 0.05,2.9 0.07,4.34 0.02,1.38 0,2.77 0,4.16 0,1.45 0.03,2.9 0,4.34 -0.04,1.43 0.17,2.88 -0.14,4.33 -0.44,0.02 -0.81,0.02 -1.18,0.07 -0.94,0.12 -1.46,0.61 -1.5,1.4 -0.05,0.84 0.5,1.45 1.5,1.63 0.41,0.08 0.87,-0.1 1.34,0.33 0,0.54 0,1.16 0,1.78 0.01,3.21 0.03,6.42 0.04,9.63 -0.02,0.46 0.33,0.65 0.65,0.85 0.13,0.13 0.25,0.26 0.38,0.38 0.12,0.13 0.25,0.26 0.37,0.38 0.12,0.13 0.25,0.25 0.37,0.38 0.12,0.13 0.25,0.26 0.37,0.38 0.12,0.13 0.25,0.26 0.37,0.38 0.13,0.13 0.25,0.26 0.38,0.38 0.38,0.44 0.65,1.05 1.51,1.06 0.03,-0.71 0.08,-1.32 0.09,-1.93 0.04,-2.39 0.06,-4.77 0.09,-7.16 0.18,-0.13 0.36,-0.26 0.53,-0.39 0.12,0.1 0.24,0.21 0.35,0.31 0.06,-0.1 0.11,-0.19 0.17,-0.29 h -0.01 z m -6.61,6.23 c -0.13,0.15 -0.4,0.29 -0.09,0.49 0.05,0.03 0.24,-0.15 0.36,-0.23 0.05,-0.12 0.09,-0.25 0.14,-0.37 -0.14,0.04 -0.27,0.07 -0.41,0.11 z m -1.51,-51.42 c -0.17,-0.1 -0.34,-0.2 -0.51,-0.3 -0.14,0.29 0,0.44 0.25,0.53 0.08,0.08 0.17,0.15 0.25,0.23 0,-0.15 0,-0.31 0,-0.46 z m -8.49,-11.06 c -2.72,-0.21 -7.02,-0.15 -8.4,0.1 -0.05,0.16 -0.15,0.34 -0.15,0.52 0,24.36 0,48.73 0,73.09 0,0.18 0.09,0.36 0.14,0.52 1.49,0.27 6.91,0.28 8.45,0 0.05,-0.16 0.14,-0.34 0.14,-0.52 0,-24.36 0,-48.73 0,-73.09 0,-0.18 -0.1,-0.35 -0.18,-0.63 z m 6.97,9.45 c -0.68,-0.41 -0.89,-0.42 -0.94,-0.08 -0.04,0.34 0,0.68 0,1.32 0.41,-0.54 0.65,-0.85 0.95,-1.24 z m 1.13,55.43 c 0.23,-0.19 0.44,-0.36 0.62,-0.55 0.04,-0.05 0,-0.25 -0.07,-0.31 -0.06,-0.05 -0.24,-0.05 -0.31,0 -0.22,0.19 -0.5,0.37 -0.25,0.85 z m -0.99,1.04 c -0.37,-0.2 -0.67,-0.36 -1,-0.54 v 1.21 c 0.43,-0.28 0.7,-0.46 1,-0.67 z m -0.8,-23.84 c -0.08,0 -0.17,0.01 -0.25,0.02 0.02,0.31 0.05,0.62 0.07,0.93 0.09,0 0.18,-0.01 0.27,-0.02 -0.03,-0.31 -0.06,-0.62 -0.08,-0.93 z m -0.09,-30.53 c -0.11,0.52 -0.18,0.73 -0.19,0.94 0,0.11 0.09,0.21 0.14,0.32 0.08,-0.14 0.21,-0.27 0.23,-0.41 0.02,-0.17 -0.07,-0.34 -0.19,-0.85 z m -0.01,20.2 c 0.11,-0.51 0.18,-0.72 0.19,-0.93 0,-0.1 -0.09,-0.21 -0.14,-0.32 -0.08,0.14 -0.21,0.27 -0.23,0.41 -0.02,0.17 0.07,0.35 0.18,0.84 z m 0,-16.27 c 0.11,-0.51 0.18,-0.72 0.19,-0.93 0,-0.1 -0.09,-0.21 -0.15,-0.32 -0.08,0.14 -0.21,0.27 -0.23,0.41 -0.02,0.17 0.07,0.35 0.18,0.84 z m 0.14,12.7 c -0.1,0.01 -0.21,0.03 -0.31,0.04 0.04,0.28 0.09,0.55 0.13,0.83 0.06,0 0.12,-0.01 0.18,-0.02 z m -0.04,32.5 c -0.06,0 -0.12,0 -0.18,0 v 0.98 c 0.06,0 0.12,0 0.18,0 z m -0.09,-2.65 c -0.11,0.52 -0.18,0.73 -0.19,0.94 0,0.11 0.09,0.22 0.14,0.32 0.08,-0.14 0.21,-0.27 0.23,-0.41 0.02,-0.17 -0.07,-0.35 -0.18,-0.85 z m -0.09,-12.68 c 0.09,0 0.17,-0.01 0.26,-0.02 -0.03,-0.31 -0.05,-0.61 -0.08,-0.92 -0.08,0 -0.17,0.01 -0.25,0.02 0.03,0.31 0.05,0.62 0.08,0.92 z m 3.53,-33.07 c -0.05,0.24 -0.12,0.37 -0.09,0.42 0.11,0.13 0.26,0.23 0.39,0.35 0.05,-0.09 0.17,-0.22 0.15,-0.25 -0.11,-0.16 -0.26,-0.3 -0.45,-0.51 z m -3.42,41.47 c 0,0 -0.13,0.08 -0.13,0.12 0,0.22 0.02,0.44 0.04,0.67 0,0 0.11,0 0.11,0 0.03,-0.22 0.06,-0.44 0.07,-0.66 0,-0.05 -0.07,-0.09 -0.1,-0.13 z m -0.11,-15.41 c 0.07,0 0.13,0 0.2,0 0.02,-0.22 0.05,-0.45 0.05,-0.67 0,-0.05 -0.1,-0.14 -0.1,-0.14 -0.08,0.05 -0.21,0.11 -0.22,0.17 0,0.21 0.04,0.43 0.06,0.64 z m 0.1,-3.17 c 0,0 -0.13,0.08 -0.13,0.12 0,0.22 0.03,0.45 0.05,0.67 0,0 0.11,0 0.11,0 0.03,-0.22 0.06,-0.44 0.07,-0.66 0,-0.04 -0.07,-0.09 -0.11,-0.13 z m -0.11,5.47 c 0.07,0 0.14,0 0.21,0 0.02,-0.22 0.04,-0.44 0.05,-0.66 0,-0.05 -0.07,-0.1 -0.1,-0.15 -0.07,0.06 -0.21,0.11 -0.21,0.17 0,0.21 0.03,0.42 0.06,0.63 z m 0.02,-23.18 c 0.06,0 0.12,0 0.18,0 0.02,-0.22 0.06,-0.45 0.07,-0.67 0,-0.04 -0.1,-0.13 -0.11,-0.13 -0.08,0.04 -0.22,0.11 -0.22,0.16 0,0.21 0.05,0.43 0.08,0.64 z m -0.1,2.21 c 0.12,0.01 0.24,0.02 0.36,0.04 -0.02,-0.27 -0.03,-0.53 -0.05,-0.8 -0.08,0 -0.15,0 -0.23,0 l -0.08,0.77 z m 0.27,1.54 c -0.06,0 -0.13,0 -0.19,0 -0.02,0.22 -0.05,0.45 -0.06,0.67 0,0.05 0.1,0.14 0.11,0.13 0.08,-0.04 0.22,-0.11 0.22,-0.17 0,-0.21 -0.04,-0.43 -0.07,-0.64 z m -0.2,3.14 h 0.19 v -0.8 h -0.19 z m 0.21,8.55 h -0.19 v 0.8 h 0.19 z m -0.02,-7.08 c -0.06,0 -0.12,0 -0.18,0 -0.03,0.22 -0.06,0.44 -0.07,0.67 0,0.04 0.1,0.13 0.11,0.12 0.08,-0.04 0.22,-0.1 0.22,-0.16 0,-0.21 -0.05,-0.42 -0.08,-0.63 z m -0.1,38.14 c 0,0 0.12,-0.09 0.12,-0.13 0,-0.22 -0.02,-0.44 -0.04,-0.66 0,0 -0.11,-0.01 -0.11,0 -0.03,0.22 -0.06,0.43 -0.07,0.65 0,0.05 0.07,0.1 0.1,0.14 z m 0.12,-7.88 c -0.06,0 -0.13,0 -0.19,0 v 0.8 h 0.19 z m -0.01,-4.64 c -0.07,0 -0.13,0 -0.2,0 -0.02,0.22 -0.05,0.44 -0.05,0.67 0,0.05 0.1,0.14 0.1,0.14 0.08,-0.05 0.21,-0.11 0.21,-0.17 0,-0.21 -0.04,-0.43 -0.07,-0.64 z m 0.01,-4.59 c -0.07,0 -0.14,0 -0.21,0 -0.02,0.22 -0.04,0.43 -0.04,0.65 0,0.05 0.06,0.1 0.1,0.15 0.07,-0.06 0.2,-0.11 0.21,-0.17 0,-0.21 -0.03,-0.41 -0.05,-0.62 z m -0.12,3.15 c 0,0 0.12,-0.09 0.12,-0.13 0,-0.22 -0.02,-0.44 -0.04,-0.66 0,0 -0.11,0 -0.11,0 -0.03,0.22 -0.06,0.44 -0.07,0.66 0,0.05 0.07,0.1 0.1,0.14 z"
             id="path10" />
          <path
             class="cls-1"
             d="m 306.15988,401.57801 c 0.32552,0.35383 0.6369,0.70767 0.96243,1.07566 0.16984,0.16984 0.33968,0.33968 0.50952,0.52368 0,0 -0.0425,-0.0283 -0.0425,-0.0283 0.0708,0.49537 0.41045,0.59444 0.84921,0.56614 0.26892,0.59444 0.65106,1.07566 1.28796,1.30211 0,0.41045 0.0708,0.77844 0.58029,0.83506 0,0 -0.0283,-0.0283 -0.0283,-0.0283 0.16984,0.18399 0.35383,0.36799 0.52368,0.55198 0.35383,0.33969 0.70767,0.67937 1.0615,1.0049 0,0.36799 0.16984,0.6086 0.58029,0.59444 v 0 c -0.16984,0.50953 -0.35383,1.0332 -0.52367,1.55688 -0.2123,0.42461 -0.43876,0.83506 -0.65106,1.25966 -0.97659,0.0991 -1.01905,0.14153 -0.97659,0.96243 0,0 0.0283,-0.0283 0.0283,-0.0283 -0.16984,0.16984 -0.32553,0.32553 -0.49537,0.49537 -0.41045,0.2123 -0.8209,0.41045 -1.23135,0.62275 -0.29722,0.28307 -0.76429,0.49537 -0.42461,1.04735 0,0 0,-0.0142 0,-0.0142 -0.46706,-0.11323 -0.56613,0.18399 -0.60859,0.55198 -0.33969,0.35384 -0.67937,0.70768 -1.01905,1.04736 -0.35384,0.0283 -0.62275,0.12738 -0.53783,0.56614 0,0 0.0283,-0.0283 0.0283,-0.0283 -0.48121,-0.12738 -0.69351,0.16984 -0.8492,0.55198 -0.29722,0.3963 -0.59445,0.7926 -0.87752,1.18889 -0.97658,0.0991 -1.01904,0.14154 -0.96243,0.94828 0,0 0.0283,-0.0283 0.0283,-0.0283 -0.41045,-0.0849 -0.46707,0.19815 -0.50953,0.50952 -0.36799,0.29722 -0.72182,0.59445 -1.08981,0.87752 -0.42461,0.0849 -0.69352,0.29722 -0.58029,0.77843 0,0 0.0141,-0.0142 0.0141,-0.0142 -0.46706,-0.11323 -0.58029,0.184 -0.62275,0.55199 -0.33968,0.35383 -0.67937,0.70767 -1.01905,1.04735 -0.35384,0.0283 -0.6086,0.12738 -0.53783,0.56614 0,0 0.0283,-0.0283 0.0283,-0.0283 -0.48122,-0.11323 -0.70768,0.16984 -0.84921,0.55199 -0.3963,0.35383 -0.79259,0.69351 -1.20304,1.04735 -0.16984,-0.18399 -0.46707,-0.35384 -0.48122,-0.55198 -0.0849,-0.7926 -0.0991,-1.59934 -0.0991,-2.39194 -0.0283,-4.00542 -0.0425,-8.025 -0.0708,-12.03042 0.59444,-0.11323 1.17473,-0.26892 1.76918,-0.35384 1.38704,-0.19815 2.05225,-0.80675 2.10886,-1.95318 0.0566,-1.20304 -0.69352,-2.15132 -2.13717,-2.20793 -0.52368,-0.0142 -1.0332,-0.11323 -1.47196,-0.16984 -0.14153,-0.28307 -0.28307,-0.43876 -0.28307,-0.59445 -0.0283,-3.56667 -0.0566,-7.13333 -0.0708,-10.7 l 0.62275,-1.17474 c 0.35384,0.33968 0.70767,0.66521 1.06151,1.0049 0.11322,0.70767 0.49537,1.13227 1.23135,1.18889 0.32553,0.35383 0.65106,0.70767 0.97658,1.07566 0.16985,0.16984 0.33969,0.33968 0.50953,0.52367 l -0.0283,-0.0283 c 0.0849,0.69352 0.56614,0.62275 1.04736,0.50952 0.12738,0.67937 0.53783,1.07566 1.20304,1.18889 -0.0849,0.43876 -0.26892,0.93413 0.45291,0.99074 l -0.0283,-0.0283 c 0.16984,0.18399 0.35384,0.36798 0.52368,0.55198 0.35384,0.33968 0.70767,0.66521 1.06151,1.00489 0.0142,0.36799 0.16984,0.6086 0.58029,0.6086 0,0 -0.0283,-0.0142 -0.0283,-0.0142 0.0142,0.45291 0.31138,0.58029 0.69352,0.58029 z"
             id="path14"
             style="stroke-width:1.41534" />
          <path
             class="cls-2"
             d="m 296.35154,409.58886 c 0.0283,4.00542 0.0425,8.025 0.0708,12.03042 0,0.80675 0.0142,1.59934 0.0991,2.39194 0.0141,0.19814 0.31138,0.36799 0.48122,0.55198 0.11322,0.87751 -0.36799,1.34458 -1.13228,1.58519 -0.15569,-0.31138 -0.25476,-0.69352 -0.48122,-0.91998 -2.87315,-2.8873 -5.76045,-5.76045 -8.6619,-8.61945 -0.19815,-0.19814 -0.55199,-0.22645 -1.04736,-0.4246 0,1.8541 0,3.43929 0,5.02447 0.0283,4.68479 0.0708,9.38374 0.0991,14.06853 -0.0425,3.38267 -0.0708,6.75119 -0.12738,10.13386 0,0.86336 -0.0708,1.72673 -0.12738,2.73162 -1.23135,-0.0141 -1.59934,-0.87751 -2.13717,-1.50027 0.12738,-0.15568 0.25476,-0.31137 0.38215,-0.46706 0.25476,0 0.49537,0 0.93412,0 0,-1.06151 0,-2.02394 0,-3.00053 0,-8.209 0.0142,-16.40384 0,-24.61284 0,-1.58519 0.31138,-3.21283 -0.46706,-4.7414 -0.0708,-0.12738 -0.0708,-0.33969 -0.0142,-0.49537 0.99074,-2.68916 0.28306,-5.44908 0.48121,-8.209 -0.45291,-0.0283 -0.69352,-0.0425 -0.94828,-0.0708 -0.12738,-0.14153 -0.25476,-0.28307 -0.38214,-0.4246 0.41045,-0.29723 0.83505,-0.59445 1.25966,-0.90582 v -31.80279 h -0.83506 l -0.38214,-0.45291 c 0.43876,-0.65106 0.93413,-1.25966 1.89656,-1.65596 0.14154,0.59445 0.33968,1.07566 0.33968,1.54273 0.0566,3.45344 0.0708,6.92103 0.0991,10.37447 -0.0142,6.21337 -0.0425,12.42673 -0.0566,18.64009 0,0.6086 -0.0849,1.25966 0.50953,1.69841 -0.16984,0.84921 -0.46707,1.68426 -0.48122,2.54762 -0.0566,2.84485 0,5.67554 -0.0283,8.52038 0,0.76428 0.24061,1.35873 0.77844,1.89656 2.57593,2.56177 5.1377,5.15185 7.72778,7.69947 0.25477,0.25476 0.69352,0.33969 1.06151,0.50953 0.12738,-0.33969 0.25476,-0.50953 0.25476,-0.66521 0.0283,-4.34511 0.0283,-8.69022 0.0425,-13.03533 0.26891,0 0.53783,0.0283 0.80674,0.0425 z"
             id="path16"
             style="stroke-width:1.41534" />
          <path
             class="cls-1"
             d="m 286.18936,402.08753 c -0.59444,-0.43876 -0.50952,-1.08981 -0.50952,-1.69841 0,-6.21337 0.0425,-12.42673 0.0566,-18.64009 0.16985,0 0.32553,0.0283 0.49538,0.0425 0.25476,0.72183 0.62275,1.25966 1.51441,0.97659 0.12738,0.67936 0.52368,1.07566 1.18889,1.18889 -0.0849,0.45291 -0.2123,0.93413 0.48122,1.01905 0,0 -0.0283,-0.0283 -0.0283,-0.0283 0.16984,0.18399 0.35384,0.35384 0.52368,0.53783 0.35384,0.33968 0.70767,0.67937 1.06151,1.01905 0.0991,0.69352 0.48122,1.11812 1.2172,1.17473 0.33968,0.35384 0.66521,0.70768 1.00489,1.07567 0.24061,0.72182 0.6086,1.27381 1.51442,0.99074 0.29722,0.43875 0.58029,0.89166 0.87751,1.33042 0.16984,0.89167 -0.39629,1.4295 -0.91997,2.02394 -0.70767,0.83506 -1.81164,1.35873 -2.05225,2.57593 v 0 c -0.38214,-0.0283 -0.56614,0.15569 -0.53783,0.53783 v 0 c -0.38215,-0.0283 -0.56614,0.15569 -0.53783,0.53783 v 0 c -0.38215,-0.0283 -0.56614,0.15569 -0.53783,0.53783 v 0 c -0.38215,-0.0283 -0.56614,0.14154 -0.53783,0.52368 v 0 c -0.38215,-0.0283 -0.56614,0.15569 -0.53784,0.53783 v 0 c -0.38214,-0.0283 -0.56613,0.15569 -0.53783,0.53783 v 0 c -0.38214,-0.0283 -0.56613,0.15569 -0.53783,0.53783 v 0 c -0.38214,-0.0283 -0.56614,0.14154 -0.53783,0.53783 v 0 c -0.38214,-0.0283 -0.55198,0.15569 -0.53783,0.53783 v 0 c -0.38214,-0.0283 -0.56614,0.15569 -0.53783,0.53784 v 0 c -0.38214,-0.0283 -0.56614,0.15568 -0.53783,0.53783 v 0 c -0.38214,-0.0283 -0.56614,0.15568 -0.53783,0.53783 v 0 z"
             id="path18"
             style="stroke-width:1.41534" />
          <path
             class="cls-1"
             d="m 285.79307,435.27736 c -0.0283,-4.68479 -0.0708,-9.38374 -0.0991,-14.06853 0,-1.58518 0,-3.17037 0,-5.02447 0.49537,0.19815 0.84921,0.22646 1.04736,0.4246 2.90146,2.859 5.78876,5.73215 8.66191,8.61945 0.24061,0.24061 0.32553,0.6086 0.48121,0.91998 -0.35383,0.29722 -0.72182,0.59444 -1.07566,0.90582 -0.4246,0.0849 -0.69352,0.26891 -0.58029,0.76428 0,0 0.0141,-0.0141 0.0141,-0.0141 -0.46706,-0.11323 -0.58029,0.18399 -0.6369,0.55198 -0.32553,0.35384 -0.66521,0.69352 -0.99074,1.04736 -0.35384,0.0283 -0.6086,0.12738 -0.53783,0.55198 0,0 0.0283,-0.0283 0.0283,-0.0283 -0.48121,-0.11323 -0.70767,0.16984 -0.8492,0.55198 -0.42461,0.33968 -0.84921,0.69352 -1.27381,1.0332 -0.3963,0.26892 -0.84921,0.50953 -0.58029,1.11812 0,0 0.0142,-0.0283 0.0142,-0.0283 -0.41045,-0.0708 -0.48122,0.19815 -0.50952,0.50952 -0.35384,0.31138 -0.72183,0.62275 -1.07567,0.93413 -0.41045,0.0566 -0.69351,0.24061 -0.56613,0.72182 0,0 0.0141,0 0.0141,0 -0.24061,0 -0.49537,-0.0142 -0.73598,-0.0283 -0.25476,0.18399 -0.50952,0.36799 -0.75013,0.55198 z"
             id="path20"
             style="stroke-width:1.41534" />
          <path
             class="cls-8"
             d="m 279.29664,442.18424 c -0.0142,-4.54326 -0.0425,-9.08651 -0.0566,-13.62977 0,-0.87751 0,-1.76918 0,-2.51931 -0.66521,-0.6086 -1.31627,-0.35384 -1.89656,-0.46706 -1.41534,-0.25477 -2.19378,-1.11813 -2.12301,-2.30702 0.0708,-1.10396 0.80674,-1.81164 2.12301,-1.98148 0.52368,-0.0708 1.04736,-0.0566 1.67011,-0.0991 0.43876,-2.05225 0.15569,-4.1045 0.19815,-6.12844 0.0566,-2.05225 0,-4.1045 0,-6.1426 0,-1.96733 0.0141,-3.9205 0,-5.88783 -0.0283,-2.0381 0.11322,-4.07619 -0.0991,-6.1426 -0.8492,-0.0708 -1.55688,-0.0708 -2.2504,-0.2123 -1.04735,-0.2123 -1.68426,-1.10397 -1.65595,-2.13717 0.0283,-0.89167 0.65106,-1.74087 1.51442,-1.98148 0.33968,-0.0991 0.70767,-0.0991 1.06151,-0.12738 0.35383,-0.0283 0.70767,-0.0425 1.21719,-0.0708 0.0708,-0.59444 0.19815,-1.17474 0.19815,-1.75503 0.0283,-4.89709 0.0425,-9.79418 0.0708,-14.70543 0.16984,0 0.33968,-0.0283 0.49537,-0.0425 0,5.33585 0,10.6717 0,16.00755 0,0.0849 0.0566,0.16984 0.0991,0.24061 0.0425,0.0708 0.0991,0.14153 0.14153,0.2123 0.16984,0.0425 0.35384,0.12738 0.50952,0.0991 0.42461,-0.0566 0.84921,-0.16984 1.25966,-0.26891 0.94828,-0.24061 1.81164,0.31137 1.8541,1.25966 -0.48122,0.29722 -0.99074,0.62275 -1.48611,0.93412 -0.69352,-0.73598 -1.38704,-0.91997 -2.29286,-0.48121 -0.0425,0.29722 -0.14153,0.6369 -0.14153,0.97658 0,3.90635 0,7.82686 -0.0283,11.73321 0,1.07566 0.15569,2.09471 0.52368,3.08545 l 0.0708,0.0283 c -0.79259,0.14153 -0.58029,0.77844 -0.58029,1.2455 0,4.17527 0,8.36469 0.0283,12.53995 0,0.24061 0.16984,0.46707 0.22646,0.62275 0.94828,0.52368 1.59934,0.0849 2.30701,-0.52367 0.49537,0.39629 1.00489,0.8209 1.51442,1.23135 -0.77844,0.91997 -1.4012,1.58518 -2.54762,0.80674 -0.36799,-0.24061 -1.03321,-0.2123 -1.51442,0.41045 v 16.14908 c -0.15569,-0.0142 -0.31138,-0.0283 -0.46707,-0.0425 z m -0.0991,-48.47555 c -0.86336,0 -1.47196,-0.0566 -2.0664,0.0142 -0.53783,0.0708 -0.8209,0.80675 -0.56614,1.25966 0.3963,0.72183 1.8541,0.87751 2.63254,0.22646 v -1.51442 z m -0.0566,28.83057 c -0.65106,-0.0142 -1.2455,-0.0708 -1.83995,-0.0425 -0.49537,0.0283 -0.77844,0.36799 -0.80674,0.87751 -0.0142,0.52368 0.28306,0.87751 0.75013,0.94828 0.58029,0.0849 1.18889,0.0142 1.89656,0.0142 z"
             id="path22"
             style="stroke-width:1.41534" />
          <path
             class="cls-2"
             d="m 292.61503,395.66187 c 0.24061,-1.20305 1.34458,-1.74088 2.05225,-2.57593 0.52368,-0.6086 1.08981,-1.13228 0.91997,-2.02394 1.01905,0.2123 1.08982,0.28307 1.28797,1.37288 -0.21231,0.3963 -0.41045,0.77844 -0.62276,1.17474 -0.12738,0.12738 -0.25476,0.25476 -0.38214,0.38214 -0.80675,-0.12738 -1.2455,0.45291 -1.76918,0.89167 -0.4246,0.36799 -0.72183,1.0332 -1.48611,0.77844 z"
             id="path24"
             style="stroke-width:1.41534" />
          <path
             class="cls-2"
             d="m 273.62111,368.52971 c -0.42461,0.55199 -0.76429,0.99074 -1.34458,1.75503 0,-0.90582 -0.0425,-1.38704 0,-1.86825 0.0566,-0.46707 0.36799,-0.46707 1.33042,0.11322 z"
             id="path26"
             style="stroke-width:1.41534" />
          <path
             class="cls-2"
             d="m 275.22045,446.98226 c -0.35384,-0.67937 0.0283,-0.94828 0.35383,-1.20305 0.0991,-0.0849 0.35384,-0.0849 0.43876,0 0.0991,0.0849 0.15569,0.36799 0.0991,0.43876 -0.25476,0.28307 -0.55198,0.50953 -0.87751,0.77844 z"
             id="path28"
             style="stroke-width:1.41534" />
          <path
             class="cls-7"
             d="m 273.81925,448.45422 c -0.4246,0.28306 -0.8209,0.53783 -1.41534,0.94828 v -1.71257 c 0.48122,0.25476 0.90582,0.48122 1.41534,0.76429 z"
             id="path30"
             style="stroke-width:1.41534" />
          <path
             class="cls-2"
             d="m 311.90617,409.53224 c 0.16985,-0.52368 0.35384,-1.04735 0.52368,-1.57103 0.53783,-0.11323 0.87751,0.16984 0.91998,0.63691 0.0142,0.26891 -0.22646,0.66521 -0.46707,0.80674 -0.25476,0.15569 -0.6369,0.0991 -0.97659,0.14154 z"
             id="path32"
             style="stroke-width:1.41534" />
          <path
             class="cls-2"
             d="m 294.72389,389.73157 c -0.90582,0.26892 -1.27381,-0.26891 -1.51442,-0.99074 0.75014,-0.0283 1.17474,0.42461 1.51442,0.99074 z"
             id="path34"
             style="stroke-width:1.41534" />
          <path
             class="cls-2"
             d="m 279.79201,375.87535 c -0.16984,0.0141 -0.33968,0.0283 -0.49537,0.0425 q -0.0425,-0.97659 0.90582,-1.2172 c 0.15569,0.15569 0.31137,0.29723 0.48121,0.45292 -0.29722,0.2406 -0.59444,0.48121 -0.87751,0.72182 z"
             id="path36"
             style="stroke-width:1.41534" />
          <path
             class="cls-7"
             d="m 272.68698,414.7124 c 0.0425,0.43876 0.0849,0.87752 0.11323,1.31627 -0.12738,0 -0.25477,0.0142 -0.38215,0.0283 -0.0283,-0.43876 -0.0708,-0.87751 -0.0991,-1.31627 0.11323,0 0.24061,-0.0141 0.35384,-0.0283 z"
             id="path38"
             style="stroke-width:1.41534" />
          <path
             class="cls-7"
             d="m 272.5596,371.50194 c 0.16984,0.70767 0.28307,0.96243 0.26891,1.20304 -0.0283,0.19815 -0.2123,0.3963 -0.32553,0.58029 -0.0708,-0.15569 -0.2123,-0.31138 -0.19814,-0.45291 0,-0.29722 0.11322,-0.58029 0.26891,-1.33042 z"
             id="path40"
             style="stroke-width:1.41534" />
          <path
             class="cls-7"
             d="m 272.54544,400.09189 c -0.15568,-0.69351 -0.28306,-0.94828 -0.25476,-1.18888 0.0283,-0.19815 0.2123,-0.38215 0.32553,-0.5803 0.0708,0.15569 0.2123,0.31138 0.19815,0.45291 -0.0142,0.29723 -0.11323,0.5803 -0.26892,1.31627 z"
             id="path42"
             style="stroke-width:1.41534" />
          <path
             class="cls-7"
             d="m 272.54544,377.06424 c -0.15568,-0.69352 -0.28306,-0.94828 -0.25476,-1.18889 0.0142,-0.19815 0.2123,-0.38214 0.32553,-0.58029 0.0708,0.15569 0.2123,0.31138 0.2123,0.45291 -0.0141,0.29722 -0.11322,0.59444 -0.26891,1.31627 z"
             id="path44"
             style="stroke-width:1.41534" />
          <path
             class="cls-7"
             d="m 272.74359,395.03912 v 1.20304 c -0.0849,0 -0.16984,0.0141 -0.25476,0.0283 -0.0566,-0.39629 -0.12738,-0.77843 -0.18399,-1.17473 0.14153,-0.0142 0.29722,-0.0425 0.43875,-0.0566 z"
             id="path46"
             style="stroke-width:1.41534" />
          <path
             class="cls-7"
             d="m 272.68698,441.03781 v 1.38704 c -0.0849,0 -0.16984,0 -0.25476,0 v -1.38704 c 0.0849,0 0.16984,0 0.25476,0 z"
             id="path48"
             style="stroke-width:1.41534" />
          <path
             class="cls-7"
             d="m 272.5596,437.28715 c 0.16984,0.70767 0.28307,0.96243 0.25476,1.20304 -0.0283,0.19815 -0.2123,0.3963 -0.32553,0.58029 -0.0708,-0.15569 -0.2123,-0.31137 -0.19815,-0.45291 0.0142,-0.29722 0.11323,-0.59444 0.26892,-1.33042 z"
             id="path50"
             style="stroke-width:1.41534" />
          <path
             class="cls-7"
             d="m 272.43222,419.34058 c -0.0425,-0.43876 -0.0708,-0.87751 -0.11323,-1.30212 0.11323,0 0.24061,-0.0141 0.35384,-0.0283 0.0425,0.43875 0.0708,0.86336 0.11322,1.30211 -0.12738,0 -0.24061,0.0142 -0.36799,0.0283 z"
             id="path52"
             style="stroke-width:1.41534" />
          <path
             class="cls-2"
             d="m 287.74624,382.75393 c -0.89166,0.26891 -1.25965,-0.25477 -1.51441,-0.97659 0.75013,-0.0566 1.16058,0.4246 1.51441,0.97659 z"
             id="path54"
             style="stroke-width:1.41534" />
          <path
             class="cls-2"
             d="m 277.42838,372.53514 c 0.26892,0.29722 0.48122,0.49537 0.63691,0.72182 0.0283,0.0425 -0.14154,0.24061 -0.2123,0.35384 -0.184,-0.15569 -0.41045,-0.29722 -0.55199,-0.49537 -0.0566,-0.0708 0.0425,-0.25476 0.12738,-0.59445 z"
             id="path56"
             style="stroke-width:1.41534" />
          <path
             class="cls-7"
             d="m 272.5879,431.22947 c 0,0 0.14154,0.11323 0.14154,0.184 -0.0142,0.31137 -0.0566,0.62275 -0.0991,0.93413 0,0 -0.15568,0 -0.15568,0 -0.0283,-0.31138 -0.0566,-0.62276 -0.0566,-0.94829 0,-0.0566 0.11323,-0.11322 0.184,-0.16984 z"
             id="path58"
             style="stroke-width:1.41534" />
          <path
             class="cls-7"
             d="m 272.43222,409.41901 c -0.0425,-0.29722 -0.0991,-0.60859 -0.0849,-0.90582 0,-0.0849 0.18399,-0.16984 0.31137,-0.2406 0,0 0.14154,0.12738 0.14154,0.19814 0,0.31138 -0.0425,0.63691 -0.0708,0.94828 -0.0991,0 -0.184,0 -0.28307,0 z"
             id="path60"
             style="stroke-width:1.41534" />
          <path
             class="cls-7"
             d="m 272.57375,404.93237 c 0,0 0.15569,0.12738 0.15569,0.184 -0.0142,0.31137 -0.0566,0.62275 -0.0991,0.93413 0,0 -0.15568,0 -0.15568,0 -0.0283,-0.31138 -0.0708,-0.63691 -0.0708,-0.94829 0,-0.0566 0.11323,-0.11322 0.18399,-0.16984 z"
             id="path62"
             style="stroke-width:1.41534" />
          <path
             class="cls-7"
             d="m 272.41806,412.67431 c -0.0283,-0.29723 -0.0849,-0.59445 -0.0849,-0.89167 0,-0.0849 0.184,-0.16984 0.29722,-0.24061 0.0566,0.0708 0.14154,0.14154 0.14154,0.2123 0,0.31138 -0.0425,0.62275 -0.0708,0.93413 -0.0991,0 -0.19815,0 -0.29722,0 z"
             id="path64"
             style="stroke-width:1.41534" />
          <path
             class="cls-7"
             d="m 272.44637,379.86662 c -0.0425,-0.29722 -0.11323,-0.6086 -0.11323,-0.90582 0,-0.0708 0.19815,-0.16984 0.31138,-0.22645 0.0283,0 0.15569,0.11322 0.15569,0.18399 -0.0142,0.31138 -0.0566,0.63691 -0.0991,0.94828 -0.0849,0 -0.16984,0 -0.25476,0 z"
             id="path66"
             style="stroke-width:1.41534" />
          <path
             class="cls-7"
             d="m 272.30484,382.99453 0.11322,-1.08981 c 0.11323,0 0.2123,0 0.32553,0 0.0283,0.38214 0.0425,0.75013 0.0708,1.13227 -0.16984,-0.0142 -0.33968,-0.0283 -0.50952,-0.0566 z"
             id="path68"
             style="stroke-width:1.41534" />
          <path
             class="cls-7"
             d="m 272.68698,385.17416 c 0.0425,0.29723 0.0991,0.6086 0.0991,0.90582 0,0.0849 -0.18399,0.16985 -0.31137,0.24061 0,0 -0.15569,-0.12738 -0.15569,-0.18399 0,-0.31138 0.0566,-0.63691 0.0849,-0.94828 0.0849,0 0.18399,0 0.26892,0 z"
             id="path70"
             style="stroke-width:1.41534" />
          <path
             class="cls-7"
             d="m 272.40391,389.61835 v -1.13228 h 0.26892 v 1.13228 z"
             id="path72"
             style="stroke-width:1.41534" />
          <path
             class="cls-7"
             d="m 272.70113,401.71954 v 1.13228 h -0.26891 v -1.13228 z"
             id="path74"
             style="stroke-width:1.41534" />
          <path
             class="cls-7"
             d="m 272.67283,391.6989 c 0.0425,0.29722 0.11322,0.59445 0.11322,0.89167 0,0.0708 -0.19815,0.16984 -0.31137,0.22645 -0.0283,0 -0.16984,-0.11322 -0.15569,-0.16984 0.0142,-0.31137 0.0566,-0.62275 0.0991,-0.94828 0.0849,0 0.16984,0 0.25477,0 z"
             id="path76"
             style="stroke-width:1.41534" />
          <path
             class="cls-2"
             d="m 292.20458,387.66517 c -0.72183,-0.0566 -1.10397,-0.48122 -1.2172,-1.17474 0.7926,0 1.14643,0.43876 1.2172,1.17474 z"
             id="path78"
             style="stroke-width:1.41534" />
          <path
             class="cls-2"
             d="m 299.18223,394.62867 c -0.73598,-0.0566 -1.11813,-0.48122 -1.23135,-1.18889 0.79259,0 1.14643,0.45291 1.23135,1.18889 z"
             id="path80"
             style="stroke-width:1.41534" />
          <path
             class="cls-2"
             d="m 310.27853,411.75433 c -0.0425,-0.80674 0,-0.86336 0.97659,-0.96243 -0.26892,0.38214 -0.33969,0.94828 -0.97659,0.96243 z"
             id="path82"
             style="stroke-width:1.41534" />
          <path
             class="cls-7"
             d="m 272.53129,445.68014 c 0,0 -0.14153,-0.14153 -0.14153,-0.19815 0.0141,-0.31137 0.0566,-0.6086 0.0991,-0.91997 0,0 0.15569,0 0.15569,0 0.0283,0.31137 0.0566,0.62275 0.0566,0.93413 0,0.0566 -0.11323,0.12738 -0.16984,0.18399 z"
             id="path84"
             style="stroke-width:1.41534" />
          <path
             class="cls-7"
             d="m 272.70113,434.52723 v 1.13227 h -0.26891 v -1.13227 c 0.0849,0 0.18399,0 0.26891,0 z"
             id="path86"
             style="stroke-width:1.41534" />
          <path
             class="cls-2"
             d="m 303.32919,418.70367 c -0.0566,-0.80674 0,-0.8492 0.96243,-0.94828 -0.26891,0.36799 -0.31138,0.96244 -0.96243,0.94828 z"
             id="path88"
             style="stroke-width:1.41534" />
          <path
             class="cls-7"
             d="m 272.68698,427.96003 c 0.0425,0.29722 0.0991,0.6086 0.0991,0.90582 0,0.0849 -0.18399,0.16984 -0.29722,0.24061 0,0 -0.14153,-0.12738 -0.14153,-0.19815 0,-0.31138 0.0425,-0.62275 0.0708,-0.94828 0.0991,0 0.184,0 0.28307,0 z"
             id="path90"
             style="stroke-width:1.41534" />
          <path
             class="cls-2"
             d="m 280.20246,374.70061 c 0.36799,-0.35383 0.72182,-0.69351 1.08981,-1.04735 0.15569,0.12738 0.29723,0.25476 0.43876,0.3963 -0.35384,0.36799 -0.70767,0.73598 -1.06151,1.11812 -0.15569,-0.15569 -0.31137,-0.29722 -0.48122,-0.45291 z"
             id="path92"
             style="stroke-width:1.41534" />
          <path
             class="cls-7"
             d="m 272.70113,421.4636 c 0.0283,0.29722 0.0849,0.59444 0.0708,0.87751 0,0.0849 -0.184,0.15569 -0.29722,0.24061 -0.0425,-0.0708 -0.14154,-0.14154 -0.14154,-0.2123 0,-0.31138 0.0425,-0.6086 0.0566,-0.91998 0.0991,0 0.19814,0 0.29722,0 z"
             id="path94"
             style="stroke-width:1.41534" />
          <path
             class="cls-7"
             d="m 272.53129,425.92193 c 0,0 -0.15569,-0.14153 -0.14153,-0.19815 0.0141,-0.31137 0.0566,-0.62275 0.0991,-0.93412 0,0 0.15569,0 0.15569,0 0.0283,0.31137 0.0566,0.62275 0.0566,0.93412 0,0.0566 -0.11323,0.12738 -0.16984,0.184 z"
             id="path96"
             style="stroke-width:1.41534" />
          <path
             class="cls-2"
             d="m 279.29664,442.18424 c 0.15569,0 0.31137,0.0283 0.46706,0.0425 0.29722,0.25476 0.59445,0.50952 0.89167,0.76429 -0.15569,0.12738 -0.29722,0.26891 -0.45291,0.39629 -0.45291,-0.28307 -0.93413,-0.55198 -0.91998,-1.20304 z"
             id="path98"
             style="stroke-width:1.41534" />
          <path
             class="cls-2"
             d="m 289.4305,384.97602 c -0.69352,-0.0849 -0.56613,-0.56614 -0.48121,-1.01905 0.32553,0.26891 0.77844,0.46706 0.48121,1.01905 z"
             id="path100"
             style="stroke-width:1.41534" />
          <path
             class="cls-2"
             d="m 308.14136,413.8915 c -0.33969,-0.55198 0.12738,-0.76428 0.4246,-1.04735 0.0708,0.43876 0.26892,0.91997 -0.4246,1.04735 z"
             id="path102"
             style="stroke-width:1.41534" />
          <path
             class="cls-2"
             d="m 303.34334,398.8747 c -0.72183,-0.0708 -0.53783,-0.55199 -0.45291,-0.99074 0.29722,0.26891 0.75013,0.46706 0.45291,0.99074 z"
             id="path104"
             style="stroke-width:1.41534" />
          <path
             class="cls-2"
             d="m 275.40444,371.1481 c -0.36799,-0.14153 -0.56614,-0.35384 -0.35384,-0.75013 0.24061,0.14153 0.48122,0.28307 0.72183,0.4246 -0.12738,0.0991 -0.25476,0.2123 -0.36799,0.33968 z"
             id="path106"
             style="stroke-width:1.41534" />
          <path
             class="cls-2"
             d="m 301.67323,396.69507 c -0.48121,0.11323 -0.96243,0.18399 -1.04735,-0.50953 0.55198,-0.25476 0.77844,0.184 1.04735,0.50953 z"
             id="path108"
             style="stroke-width:1.41534" />
          <path
             class="cls-2"
             d="m 289.4022,432.61651 c -0.26892,-0.6086 0.18399,-0.84921 0.58029,-1.11812 0.0708,0.50952 0.11323,1.00489 -0.58029,1.11812 z"
             id="path110"
             style="stroke-width:1.41534" />
          <path
             class="cls-2"
             d="m 288.92098,433.11188 c 0.0283,-0.31137 0.0991,-0.58029 0.50952,-0.50952 -0.16984,0.16984 -0.33968,0.33968 -0.50952,0.50952 z"
             id="path112"
             style="stroke-width:1.41534" />
          <path
             class="cls-2"
             d="m 289.92587,385.47139 c -0.16984,-0.184 -0.35383,-0.35384 -0.52367,-0.53783 0.45291,-0.0991 0.49537,0.2123 0.52367,0.53783 z"
             id="path114"
             style="stroke-width:1.41534" />
          <path
             class="cls-2"
             d="m 291.2563,430.47934 c 0.15569,-0.3963 0.36799,-0.66521 0.8492,-0.55198 -0.0849,0.49537 -0.4246,0.58029 -0.8492,0.55198 z"
             id="path116"
             style="stroke-width:1.41534" />
          <path
             class="cls-2"
             d="m 292.0772,429.94151 c -0.0708,-0.4246 0.18399,-0.53783 0.53783,-0.55198 -0.184,0.18399 -0.35384,0.36798 -0.53783,0.55198 z"
             id="path118"
             style="stroke-width:1.41534" />
          <path
             class="cls-2"
             d="m 293.60577,428.34217 c 0.0566,-0.36799 0.16984,-0.66521 0.6369,-0.55198 -0.0283,0.41045 -0.25476,0.58029 -0.6369,0.55198 z"
             id="path120"
             style="stroke-width:1.41534" />
          <path
             class="cls-2"
             d="m 294.22852,427.80434 c -0.11323,-0.49537 0.15569,-0.67937 0.58029,-0.76429 0,0.38215 -0.11322,0.70768 -0.58029,0.76429 z"
             id="path122"
             style="stroke-width:1.41534" />
          <path
             class="cls-2"
             d="m 277.89545,443.58543 c 0.19814,-0.0566 0.38214,-0.0991 0.58029,-0.15569 -0.0708,0.16984 -0.12738,0.35384 -0.19815,0.52368 -0.12738,-0.12738 -0.25476,-0.25476 -0.38214,-0.36799 z"
             id="path124"
             style="stroke-width:1.41534" />
          <path
             class="cls-2"
             d="m 299.04069,422.99217 c -0.0849,-0.4246 0.184,-0.53783 0.53783,-0.56614 -0.18399,0.184 -0.35383,0.36799 -0.53783,0.56614 z"
             id="path126"
             style="stroke-width:1.41534" />
          <path
             class="cls-2"
             d="m 275.77243,370.80842 c 0,0.2123 0,0.43875 0,0.65106 l -0.35384,-0.32553 c 0.11323,-0.11323 0.24061,-0.22646 0.36799,-0.33969 z"
             id="path128"
             style="stroke-width:1.41534" />
          <path
             class="cls-2"
             d="m 300.66834,396.21385 c -0.16984,-0.16984 -0.33968,-0.33968 -0.50953,-0.52368 0.16985,0.16984 0.33969,0.33969 0.50953,0.52368 z"
             id="path130"
             style="stroke-width:1.41534" />
          <path
             class="cls-2"
             d="m 300.58342,421.37868 c 0.0425,-0.36799 0.15569,-0.66522 0.62275,-0.55199 -0.0283,0.38214 -0.22646,0.56614 -0.62275,0.55199 z"
             id="path132"
             style="stroke-width:1.41534" />
          <path
             class="cls-2"
             d="m 278.27759,443.95342 c -0.16984,0.11323 -0.43876,0.36799 -0.50952,0.32553 -0.42461,-0.28307 -0.0425,-0.48122 0.12738,-0.69352 0.12738,0.11323 0.25476,0.24061 0.38214,0.36799 z"
             id="path134"
             style="stroke-width:1.41534" />
          <path
             class="cls-2"
             d="m 301.17786,420.855 c -0.11322,-0.49537 0.15569,-0.69352 0.58029,-0.77844 0,0.3963 -0.11322,0.72182 -0.58029,0.77844 z"
             id="path136"
             style="stroke-width:1.41534" />
          <path
             class="cls-2"
             d="m 280.75444,443.92511 c -0.18399,-0.18399 -0.35383,-0.36799 -0.53783,-0.53783 0.14154,-0.12738 0.29722,-0.26891 0.43876,-0.39629 0.16984,0.16984 0.33968,0.33968 0.49537,0.50952 -0.14154,0.14153 -0.28307,0.28307 -0.41045,0.4246 z"
             id="path138"
             style="stroke-width:1.41534" />
          <path
             class="cls-2"
             d="m 302.84797,419.18489 c 0.0283,-0.29722 0.0849,-0.58029 0.50952,-0.50952 -0.16984,0.16984 -0.33968,0.33968 -0.50952,0.50952 z"
             id="path140"
             style="stroke-width:1.41534" />
          <path
             class="cls-2"
             d="m 281.27812,444.4771 c -0.16984,-0.184 -0.35384,-0.36799 -0.52368,-0.53783 0.14154,-0.14154 0.28307,-0.28307 0.41045,-0.42461 0.16984,0.184 0.35384,0.35384 0.53783,0.53783 -0.14153,0.14154 -0.28307,0.28307 -0.41045,0.42461 z"
             id="path142"
             style="stroke-width:1.41534" />
          <path
             class="cls-2"
             d="m 303.85286,399.39838 c -0.16984,-0.184 -0.35383,-0.36799 -0.52367,-0.55199 0.45291,-0.0849 0.50952,0.2123 0.52367,0.55199 z"
             id="path144"
             style="stroke-width:1.41534" />
          <path
             class="cls-2"
             d="m 305.48051,401.01187 c -0.41045,0 -0.56614,-0.24061 -0.58029,-0.6086 0.3963,0 0.66521,0.14154 0.58029,0.6086 z"
             id="path146"
             style="stroke-width:1.41534" />
          <path
             class="cls-2"
             d="m 305.16913,416.5665 c 0.15569,-0.38214 0.36799,-0.67936 0.84921,-0.55198 -0.0849,0.49537 -0.43876,0.56614 -0.84921,0.55198 z"
             id="path148"
             style="stroke-width:1.41534" />
          <path
             class="cls-2"
             d="m 306.15988,401.57801 c -0.38215,0 -0.67937,-0.14154 -0.69352,-0.58029 0.48121,-0.0991 0.62275,0.19814 0.69352,0.58029 z"
             id="path150"
             style="stroke-width:1.41534" />
          <path
             class="cls-2"
             d="m 305.99003,416.02867 c -0.0849,-0.43875 0.184,-0.53783 0.53783,-0.56613 -0.18399,0.18399 -0.35383,0.36799 -0.53783,0.56613 z"
             id="path152"
             style="stroke-width:1.41534" />
          <path
             class="cls-2"
             d="m 307.61768,403.17735 c -0.16984,-0.16985 -0.33968,-0.33969 -0.50952,-0.52368 0.16984,0.16984 0.33968,0.33968 0.50952,0.52368 z"
             id="path154"
             style="stroke-width:1.41534" />
          <path
             class="cls-2"
             d="m 307.54691,414.41518 c 0.0425,-0.35384 0.14154,-0.66521 0.6086,-0.55198 -0.0283,0.38214 -0.22645,0.56613 -0.6086,0.55198 z"
             id="path156"
             style="stroke-width:1.41534" />
          <path
             class="cls-2"
             d="m 308.42443,403.70102 c -0.42461,0.0283 -0.76429,-0.0708 -0.84921,-0.56613 0.48122,-0.0991 0.70767,0.16984 0.84921,0.56613 z"
             id="path158"
             style="stroke-width:1.41534" />
          <path
             class="cls-2"
             d="m 298.20564,423.51585 c 0.15569,-0.3963 0.36799,-0.67937 0.84921,-0.55199 -0.0849,0.49537 -0.43876,0.58029 -0.84921,0.55199 z"
             id="path160"
             style="stroke-width:1.41534" />
          <path
             class="cls-2"
             d="m 281.8018,445.01493 c -0.16984,-0.184 -0.35384,-0.35384 -0.52368,-0.53783 0.14153,-0.14154 0.28307,-0.28307 0.41045,-0.42461 0.16984,0.184 0.35384,0.35384 0.52368,0.53784 -0.14154,0.14153 -0.28307,0.28306 -0.42461,0.4246 z"
             id="path162"
             style="stroke-width:1.41534" />
          <path
             class="cls-2"
             d="m 309.81146,412.2214 c 0.16985,-0.16984 0.32553,-0.32553 0.49537,-0.49537 -0.16984,0.16984 -0.32552,0.32553 -0.49537,0.49537 z"
             id="path164"
             style="stroke-width:1.41534" />
          <path
             class="cls-2"
             d="m 310.29268,405.83819 c -0.50952,-0.0566 -0.56614,-0.4246 -0.58029,-0.83505 0.41045,0.12738 0.67937,0.35384 0.58029,0.83505 z"
             id="path166"
             style="stroke-width:1.41534" />
          <path
             class="cls-2"
             d="m 281.29227,373.63911 c 0.184,-0.184 0.35384,-0.36799 0.53783,-0.53783 0.14154,0.14153 0.28307,0.28306 0.42461,0.41045 -0.16984,0.16984 -0.33969,0.33968 -0.50953,0.52367 -0.15568,-0.12738 -0.29722,-0.25476 -0.45291,-0.39629 z"
             id="path168"
             style="stroke-width:1.41534" />
          <path
             class="cls-2"
             d="m 310.80221,406.36187 c -0.16985,-0.18399 -0.35384,-0.36799 -0.52368,-0.55198 0.43875,-0.0708 0.52368,0.2123 0.52368,0.55198 z"
             id="path170"
             style="stroke-width:1.41534" />
          <path
             class="cls-2"
             d="m 282.33963,445.55276 c -0.16984,-0.184 -0.35384,-0.36799 -0.52368,-0.53783 0.14153,-0.14154 0.28307,-0.28307 0.41045,-0.4246 0.16984,0.18399 0.35384,0.35383 0.53783,0.53783 -0.14153,0.14153 -0.28307,0.28306 -0.4246,0.4246 z"
             id="path172"
             style="stroke-width:1.41534" />
          <path
             class="cls-2"
             d="m 312.444,407.97536 c -0.41045,0.0142 -0.56613,-0.22645 -0.58029,-0.59444 0.3963,0 0.65106,0.14153 0.58029,0.59444 z"
             id="path174"
             style="stroke-width:1.41534" />
          <path
             class="cls-2"
             d="m 281.81595,373.10128 0.52368,-0.53784 c 0.14153,0.14154 0.28307,0.28307 0.41045,0.41045 -0.16984,0.184 -0.35384,0.35384 -0.52368,0.53784 -0.14153,-0.14154 -0.28307,-0.28307 -0.4246,-0.41045 z"
             id="path176"
             style="stroke-width:1.41534" />
          <path
             class="cls-2"
             d="m 282.86331,446.09059 c -0.16985,-0.18399 -0.35384,-0.36799 -0.52368,-0.53783 0.14153,-0.14154 0.28307,-0.28307 0.4246,-0.4246 0.16984,0.18399 0.35384,0.36799 0.52368,0.53783 -0.14154,0.14153 -0.28307,0.28307 -0.4246,0.4246 z"
             id="path178"
             style="stroke-width:1.41534" />
          <path
             class="cls-2"
             d="m 282.35378,372.56344 c 0.16984,-0.18399 0.35384,-0.35383 0.52368,-0.53783 0.14153,0.14154 0.28307,0.28307 0.41045,0.41045 -0.16984,0.184 -0.35384,0.35384 -0.52368,0.53783 z"
             id="path180"
             style="stroke-width:1.41534" />
          <path
             class="cls-2"
             d="m 283.40114,446.64257 c -0.184,-0.18399 -0.35384,-0.36799 -0.53783,-0.53783 0.14153,-0.14153 0.28306,-0.28307 0.41045,-0.4246 0.16984,0.16984 0.33968,0.33968 0.50952,0.50952 -0.12738,0.15569 -0.25476,0.31138 -0.38214,0.46707 z"
             id="path182"
             style="stroke-width:1.41534" />
          <path
             class="cls-2"
             d="m 282.87746,372.02561 c 0.18399,-0.18399 0.35383,-0.36799 0.53783,-0.55198 0.12738,0.15569 0.25476,0.31138 0.38214,0.45291 -0.16984,0.16984 -0.33968,0.33968 -0.50952,0.50952 -0.14154,-0.14153 -0.28307,-0.28307 -0.41045,-0.41045 z"
             id="path184"
             style="stroke-width:1.41534" />
          <path
             class="cls-2"
             d="m 286.5432,434.72537 c 0.24061,0 0.49537,0.0142 0.73598,0.0283 -0.0849,0.14154 -0.15569,0.26892 -0.24061,0.41045 -0.16984,-0.14153 -0.33968,-0.29722 -0.49537,-0.43876 z"
             id="path186"
             style="stroke-width:1.41534" />
          <path
             class="cls-2"
             d="m 287.26503,434.76783 c -0.11323,-0.48121 0.15568,-0.66521 0.56613,-0.72182 0,0.38214 -0.12738,0.67936 -0.56613,0.72182 z"
             id="path188"
             style="stroke-width:1.41534" />
          <path
             class="cls-8"
             d="m 295.88447,393.99176 c 0.12739,-0.12738 0.25477,-0.25476 0.38215,-0.38214 0.0283,3.56667 0.0425,7.13333 0.0708,10.7 0,0.15569 0.14154,0.31138 0.28307,0.59445 0.43876,0.0566 0.94828,0.15568 1.47196,0.16984 1.44365,0.0566 2.19379,1.00489 2.13717,2.20793 -0.0566,1.14643 -0.72182,1.75503 -2.10886,1.95318 -0.59445,0.0849 -1.17474,0.22646 -1.76918,0.35384 -0.26892,0 -0.53783,-0.0283 -0.80675,-0.0425 -0.50952,-0.0425 -1.23135,-0.33969 -1.47196,-0.0991 -0.77844,0.75013 -1.25965,0.22646 -1.81164,-0.19815 -0.19815,-0.14153 -0.33968,-0.36799 -0.56614,-0.62275 0.28307,-0.26891 0.50953,-0.53783 0.7926,-0.73598 0.26891,-0.19815 0.59444,-0.33968 0.99074,-0.53783 0.4246,0.93413 1.18889,0.69352 1.88241,0.69352 0.16984,-0.18399 0.35383,-0.35384 0.52367,-0.53783 0,-4.5008 0,-9.00159 0,-13.51654 z m 0.46707,13.96945 c 0.6086,0.0425 1.0332,0.0991 1.44365,0.0849 0.90582,-0.0425 1.33042,-0.3963 1.23135,-0.97659 -0.11323,-0.66521 -0.6086,-0.76428 -1.16058,-0.80674 -0.16984,0 -0.35384,0 -0.52368,0 -0.83505,0.0283 -0.89167,0.0991 -0.99074,1.69841 z"
             id="path190"
             style="stroke-width:1.41534" />
          <path
             class="cls-1"
             d="m 283.28791,372.43606 c 0.16984,-0.16984 0.33968,-0.33968 0.50952,-0.50952 0.25476,0 0.49537,0 0.83506,0 v 31.80279 c -0.42461,0.31138 -0.84921,0.6086 -1.25966,0.90582 -0.0708,0.19815 -0.14154,0.3963 -0.2123,0.59445 0.19815,-0.0566 0.41045,-0.11323 0.6086,-0.16985 0.25476,0.0142 0.50952,0.0283 0.94828,0.0708 -0.19815,2.77408 0.50952,5.51984 -0.48122,8.209 -0.0566,0.14153 -0.0566,0.35384 0.0141,0.49537 0.77844,1.51442 0.45291,3.15622 0.46707,4.7414 0.0283,8.209 0,16.40385 0,24.61284 0,0.97659 0,1.93903 0,3.00053 -0.43876,0 -0.69352,0 -0.93413,0 -0.16984,-0.16984 -0.33968,-0.33968 -0.50952,-0.50952 -0.16985,-0.18399 -0.35384,-0.36799 -0.52368,-0.53783 -0.16984,-0.184 -0.35384,-0.35384 -0.52368,-0.53783 -0.16984,-0.184 -0.35384,-0.35384 -0.52368,-0.53783 -0.16984,-0.184 -0.35383,-0.35384 -0.53783,-0.53783 -0.16984,-0.16984 -0.33968,-0.33969 -0.49537,-0.50953 -0.29722,-0.25476 -0.59444,-0.50952 -0.89167,-0.76428 v -16.14908 c 0.48122,-0.63691 1.14643,-0.66522 1.51442,-0.41045 1.14643,0.77844 1.76918,0.0991 2.54762,-0.80675 -0.50952,-0.41045 -1.01904,-0.8209 -1.51442,-1.23135 -0.70767,0.6086 -1.34457,1.0332 -2.30701,0.52368 -0.0566,-0.15569 -0.22645,-0.38215 -0.22645,-0.62275 -0.0283,-4.17527 -0.0425,-8.36469 -0.0283,-12.53996 0,-0.46706 -0.2123,-1.11812 0.56614,-1.2455 0,0 0.0283,-0.11323 0.0283,-0.11323 l -0.0991,0.0849 c -0.38214,-0.99074 -0.53783,-2.00979 -0.52368,-3.08545 0.0425,-3.90635 0.0142,-7.82685 0.0283,-11.7332 0,-0.33969 0.0991,-0.69352 0.14154,-0.97659 0.90582,-0.43876 1.59933,-0.25476 2.29285,0.48122 0.49537,-0.31138 1.0049,-0.62275 1.48612,-0.93413 -0.0425,-0.96243 -0.90583,-1.50027 -1.85411,-1.25966 -0.4246,0.0991 -0.83505,0.2123 -1.25965,0.26892 -0.16984,0.0283 -0.33969,-0.0708 -0.50953,-0.0991 -0.0425,-0.0708 -0.0991,-0.12738 -0.14153,-0.2123 -0.0425,-0.0849 -0.0991,-0.16984 -0.0991,-0.24061 0,-5.33584 0,-10.67169 0,-16.00754 0.29723,-0.24061 0.59445,-0.48122 0.87752,-0.72183 0.35383,-0.36799 0.70767,-0.73598 1.06151,-1.11812 0.16984,-0.16984 0.33968,-0.33968 0.50952,-0.52368 0.16984,-0.18399 0.35384,-0.35383 0.52368,-0.53783 0.18399,-0.18399 0.35383,-0.35383 0.52368,-0.53783 z m -0.58029,39.04936 c -0.19815,-0.184 -0.3963,-0.55199 -0.67937,-0.14154 -0.0566,0.0708 0.184,0.33969 0.28307,0.52368 l 0.52368,0.2123 c -0.0425,-0.19815 -0.0849,-0.39629 -0.12738,-0.59444 z m -1.06151,-4.34511 c 0,-0.2123 0,-0.43876 0,-0.65106 -0.12738,0.0991 -0.25476,0.19815 -0.38214,0.29722 -0.32553,0.16985 -0.62276,0.46707 -0.31138,0.75014 0.35384,0.31137 0.53783,-0.12738 0.69352,-0.3963 z"
             id="path192"
             style="stroke-width:1.41534" />
          <path
             class="cls-1"
             d="m 295.3608,408.03198 c -0.69352,0 -1.45781,0.24061 -1.88241,-0.69352 -0.3963,0.2123 -0.70767,0.33968 -0.99074,0.53783 -0.26892,0.19815 -0.50953,0.46706 -0.7926,0.73598 0.22646,0.25476 0.36799,0.48122 0.56614,0.62275 0.55199,0.4246 1.0332,0.94828 1.81164,0.19815 0.24061,-0.22646 0.97659,0.0566 1.47196,0.0991 0,4.34511 -0.0283,8.69022 -0.0425,13.03533 0,0.16984 -0.11323,0.32552 -0.25476,0.66521 -0.36799,-0.16984 -0.79259,-0.25477 -1.06151,-0.50953 -2.59008,-2.54762 -5.15185,-5.1377 -7.72778,-7.69947 -0.53783,-0.53783 -0.77844,-1.13228 -0.77844,-1.89656 0.0141,-2.84484 -0.0283,-5.67553 0.0283,-8.52038 0.0142,-0.8492 0.31137,-1.69841 0.48121,-2.54762 0,0 0,0 0,0 0.46707,0.0991 0.63691,-0.0849 0.53784,-0.53783 0,0 0,0 0,0 0.45291,0.0991 0.6369,-0.0849 0.53783,-0.53783 0,0 0,0 0,0 0.45291,0.0991 0.6369,-0.0849 0.53783,-0.53783 v 0 c 0.45291,0.0991 0.6369,-0.0708 0.53783,-0.53783 0,0 0,0 0,0 0.46706,0.0991 0.6369,-0.0849 0.53783,-0.53783 0,0 0,0 0,0 0.45291,0.0991 0.6369,-0.0849 0.53783,-0.53783 0,0 0,0 0,0 0.45291,0.0991 0.63691,-0.0849 0.53783,-0.53783 0,0 0,0 0,0 0.45291,0.0991 0.63691,-0.0708 0.53783,-0.53783 0,0 0,0 0,0 0.45291,0.0991 0.63691,-0.0708 0.53783,-0.53783 0,0 0,0 0,0 0.45291,0.0991 0.63691,-0.0849 0.53783,-0.53784 v 0 c 0.45291,0.0991 0.63691,-0.0849 0.53783,-0.53783 0,0 0,0 0,0 0.45291,0.0991 0.63691,-0.0849 0.53784,-0.53783 v 0 c 0.76428,0.25476 1.0615,-0.4246 1.48611,-0.77844 0.52367,-0.45291 0.96243,-1.01904 1.76918,-0.89166 0,4.50079 0,9.00159 0,13.51654 -0.16984,0.18399 -0.35384,0.35383 -0.52368,0.53783 z"
             id="path194"
             style="stroke-width:1.41534" />
          <path
             class="cls-2"
             d="m 288.86437,399.41253 c 0.0991,0.45291 -0.0708,0.6369 -0.53783,0.53783 -0.0283,-0.38214 0.15568,-0.56614 0.53783,-0.53783 z"
             id="path196"
             style="stroke-width:1.41534" />
          <path
             class="cls-2"
             d="m 289.4022,398.8747 c 0.0991,0.45291 -0.0849,0.6369 -0.53783,0.53783 -0.0142,-0.38214 0.16984,-0.56614 0.53783,-0.53783 z"
             id="path198"
             style="stroke-width:1.41534" />
          <path
             class="cls-2"
             d="m 289.94003,398.35102 c 0.0991,0.45291 -0.0849,0.63691 -0.53783,0.53783 -0.0142,-0.38214 0.15568,-0.56614 0.53783,-0.53783 z"
             id="path200"
             style="stroke-width:1.41534" />
          <path
             class="cls-2"
             d="m 290.46371,397.81319 c 0.0991,0.45291 -0.0708,0.63691 -0.53784,0.53783 -0.0283,-0.38214 0.15569,-0.56614 0.53784,-0.53783 z"
             id="path202"
             style="stroke-width:1.41534" />
          <path
             class="cls-2"
             d="m 291.01569,397.27536 c 0.0991,0.45291 -0.0708,0.6369 -0.53783,0.53783 -0.0283,-0.38214 0.15569,-0.56614 0.53783,-0.53783 z"
             id="path204"
             style="stroke-width:1.41534" />
          <path
             class="cls-2"
             d="m 291.55352,396.73753 c 0.0849,0.45291 -0.0849,0.6369 -0.53783,0.53783 -0.0142,-0.38214 0.15569,-0.56614 0.53783,-0.53783 z"
             id="path206"
             style="stroke-width:1.41534" />
          <path
             class="cls-2"
             d="m 292.0772,396.1997 c 0.0849,0.45291 -0.0849,0.6369 -0.53783,0.53783 -0.0142,-0.38214 0.15568,-0.56614 0.53783,-0.53783 z"
             id="path208"
             style="stroke-width:1.41534" />
          <path
             class="cls-2"
             d="m 292.61503,395.67602 c 0.0991,0.45291 -0.0849,0.63691 -0.53783,0.53783 -0.0283,-0.38214 0.15569,-0.56614 0.53783,-0.53783 z"
             id="path210"
             style="stroke-width:1.41534" />
          <path
             class="cls-2"
             d="m 286.7272,401.5497 c 0.0991,0.45291 -0.0849,0.65106 -0.53784,0.53783 -0.0142,-0.38214 0.16985,-0.56614 0.53784,-0.53783 z"
             id="path212"
             style="stroke-width:1.41534" />
          <path
             class="cls-2"
             d="m 287.26503,401.01187 c 0.0991,0.45291 -0.0849,0.6369 -0.53783,0.53783 -0.0142,-0.38214 0.16984,-0.56614 0.53783,-0.53783 z"
             id="path214"
             style="stroke-width:1.41534" />
          <path
             class="cls-2"
             d="m 287.80286,400.48819 c 0.0991,0.45291 -0.0849,0.63691 -0.53783,0.53783 -0.0142,-0.38214 0.15568,-0.56614 0.53783,-0.53783 z"
             id="path216"
             style="stroke-width:1.41534" />
          <path
             class="cls-2"
             d="m 288.32654,399.95036 c 0.0991,0.45291 -0.0708,0.63691 -0.53784,0.53783 -0.0283,-0.38214 0.15569,-0.56614 0.53784,-0.53783 z"
             id="path218"
             style="stroke-width:1.41534" />
          <path
             class="cls-10"
             d="m 279.19756,393.70869 v 1.51442 c -0.77844,0.65106 -2.23624,0.49537 -2.63254,-0.22646 -0.25476,-0.45291 0.0283,-1.18888 0.56614,-1.25965 0.59444,-0.0849 1.20304,-0.0142 2.0664,-0.0142 z"
             id="path220"
             style="stroke-width:1.41534" />
          <path
             class="cls-10"
             d="m 279.14095,422.53926 v 1.79749 c -0.70767,0 -1.31627,0.0566 -1.89656,-0.0142 -0.46707,-0.0708 -0.76429,-0.4246 -0.75013,-0.94828 0.0142,-0.50952 0.29722,-0.84921 0.80674,-0.87751 0.59445,-0.0283 1.20304,0.0283 1.83995,0.0425 z"
             id="path222"
             style="stroke-width:1.41534" />
          <path
             class="cls-1"
             d="m 296.35154,407.96121 c 0.0991,-1.59934 0.15569,-1.67011 0.99074,-1.69841 0.16984,0 0.35384,0 0.52368,0 0.53783,0.0425 1.04735,0.14153 1.16058,0.80674 0.0991,0.58029 -0.32553,0.93413 -1.23135,0.97659 -0.41045,0.0141 -0.83505,-0.0425 -1.44365,-0.0849 z"
             id="path224"
             style="stroke-width:1.41534" />
          <path
             class="cls-2"
             d="m 295.3608,408.03198 c 0.16984,-0.184 0.35383,-0.35384 0.52367,-0.53783 -0.16984,0.18399 -0.35383,0.35383 -0.52367,0.53783 z"
             id="path226"
             style="stroke-width:1.41534" />
          <path
             class="cls-2"
             d="m 281.66026,407.14031 c -0.16984,0.26892 -0.35383,0.70767 -0.69352,0.3963 -0.31137,-0.28307 -0.0283,-0.59445 0.31138,-0.75014 0.12738,0.12739 0.25476,0.24061 0.3963,0.35384 z"
             id="path228"
             style="stroke-width:1.41534" />
          <polygon
             class="cls-8"
             points="290.02,409.43 289.97,409.41 290.04,409.36 "
             id="polygon230"
             transform="matrix(1.4153445,0,0,1.4153445,-130.14837,-169.76825)" />
          <path
             class="cls-2"
             d="m 281.26397,406.78647 c 0.12738,-0.0991 0.25476,-0.19814 0.38214,-0.29722 0,0.2123 0,0.43876 0,0.65106 -0.14154,-0.11323 -0.26892,-0.22645 -0.3963,-0.35384 z"
             id="path232"
             style="stroke-width:1.41534" />
          <path
             class="cls-2"
             d="m 282.31132,411.86756 c -0.0991,-0.18399 -0.33968,-0.45291 -0.28307,-0.52368 0.28307,-0.41045 0.48122,-0.0283 0.67937,0.14154 z"
             id="path234"
             style="stroke-width:1.41534" />
          <path
             class="cls-2"
             d="m 282.70762,411.48542 c 0.0425,0.19815 0.0849,0.39629 0.12738,0.59444 -0.16984,-0.0708 -0.35384,-0.14153 -0.52368,-0.2123 0.12738,-0.12738 0.26892,-0.25476 0.3963,-0.38214 z"
             id="path236"
             style="stroke-width:1.41534" />
          <path
             class="cls-2"
             d="m 283.76913,405.05975 c -0.19815,0.0566 -0.41045,0.11323 -0.6086,0.16985 0.0708,-0.19815 0.14153,-0.3963 0.2123,-0.59445 0.12738,0.14154 0.25476,0.28307 0.38214,0.4246 z"
             id="path238"
             style="stroke-width:1.41534" />
        </g>
      </g>
    </g>
  </g>
</svg>
