<?xml version="1.0" encoding="UTF-8"?>
<svg id="Layer_1" xmlns="http://www.w3.org/2000/svg" version="1.1" viewBox="0 0 1249 302">
  <!-- Generator: Adobe Illustrator 29.5.0, SVG Export Plug-In . SVG Version: 2.1.0 Build 137)  -->
  <defs>
    <style>
      .st0 {
        fill: #f84a15;
      }

      .st1 {
        fill: #fefefe;
      }
    </style>
  </defs>
  <path class="st0" d="M172-116l32.3-26.8c9,2.9,18.1,6.5,25.7,12.3l-12.5,14.5h-45.5Z"/>
  <g>
    <path class="st1" d="M411-102v-61h27.5c.4,0,6.2,2.5,7,3,5.9,3.8,8.6,11.3,7.1,18.1-.8,3.5-5.5,7.9-5.5,8.4s3.3,3.3,4.2,4.8c4.7,8.2,3.1,19.1-5.3,24.1s-6.1,2.6-6.4,2.6h-28.5ZM421-138h17.5c6.1,0,6.4-16-2-16h-15.5v16ZM421-111h16.5c.3,0,4.5-2.5,5-3,3.5-4.1.6-14-4-14h-17.5v17Z"/>
    <path class="st1" d="M356-137c-.8,1.1,9.3,13.5,10.5,14,1.9.8,2-2.6,2.2-3.8.3-1.8,0-7,.3-7.2s7.4.3,9,0c0,3.1.2,6.2-.3,9.2s-3.8,8.8-3.7,10.3c0,2.1,10,11.7,9,12.5-3.2-.5-8.5.8-11.3-.2s-2.4-5-5-4.7-5.3,3.4-7.9,4.2c-25.5,8.1-39.2-20.8-16.9-34.8-6.4-7.1-7.6-20.3,2.6-24.4,18.5-7.4,29.4,16.9,11.4,24.9ZM351.5-154.6c-6.5-.3-6,9-1,11.3,6.4-1.2,7.7-11,1-11.3ZM347.5-131c-12.9,8-7.5,24,7.7,19.7s6.8-2.2,5.3-4.8l-13-15Z"/>
    <path class="st1" d="M508.9-144.9c.9.8,4.7,19.7,6.2,23.3s.4,2.4,1.9,2.6c.9-3.3,7-25.1,8.1-25.9s7.1-.4,7.7,0c1.3.8,6.7,23.6,8.6,26.9,2.2-3.2,6.5-26,7.6-26.9s8,.3,9.9,0c-2.1,5.1-11.2,41.6-13.1,42.9s-7.3.4-8.4-.8c-2-2.4-5.4-18-7.4-22.6s-.6-2.3-2-2.5c-2.1,4.7-5.1,22.1-7.5,25s-7.3,1.5-8.4.8c-1.8-1.2-10.7-36.6-13.1-41.4-.3-2,0-1.3,1.5-1.5s8.1-.2,8.4.1Z"/>
    <path class="st1" d="M615-163v20c8.1-7.3,25,0,25,10.5v30.5h-9v-25.5c0-.4-1.7-6.3-2.1-6.9-3.4-5.5-13.9-.9-13.9,1.9v30.5h-10v-61h10Z"/>
    <path class="st1" d="M729-120h-26c-.6,3.7,2.4,8.4,6,9.6,7.4,2.3,12.6-4.4,13.5-4.4s6.5,4.8,6.5,5.3c-13.9,15-35.4,8.9-36-13-1-33.1,40.6-29.5,36.1,2.5ZM719-128c0-12.5-15.6-11.8-17,0h17Z"/>
    <path class="st1" d="M497-120h-26c-.6,6.9,5.7,11,12.3,9.8s6.1-9.3,13.7.7c-8.4,11.8-29.5,10.9-34.2-3.8-5.2-16.5,3.8-38.9,23.9-30.9,9.2,3.7,11.1,15.5,10.3,24.2ZM488-128c-1.2-12.1-17.1-12.4-17,0h17Z"/>
    <path class="st1" d="M685-102c-2.6-.4-8.9,1.2-9.9-1.6-2.1-6.4,2.4-26.6-1.7-31.3-3.5-4-13.5-1.5-13.5,2.5v30.5h-10v-43c2.8.4,6.9-.6,9.3,0s.6,2.2,1.1,2c6.6-2,7.3-4.5,15.2-1.2,4.4,1.9,9.3,8,9.3,12.7v29.5Z"/>
    <path class="st1" d="M576.8-145.8c23.5-2.8,26.4,36.6,9,43-28.8,10.6-34.5-40-9-43ZM584.7-112.3c3.6-3.6,3.7-20.6-1.4-23.5-15-8.8-18,23.4-6.6,25.6s6.4-.5,8-2.1Z"/>
    <path class="st1" d="M747-102h-9v-43c2.5.4,6.1-.6,8.3,0s-2,2,3.6.5,12.2-1.3,18,4c-1.9.9-4.3,6.1-5.6,6.4-2.7.8-5.9-5.9-12.3-1.4s-3,3.4-3,4v29.5Z"/>
  </g>
  <g>
    <path class="st1" d="M1290-241v6c-6,2-12.1,5.4-17,9.5v41.5h-17v-66h14c1,0,0,7.8,2.5,7s12.1-8.2,15-7.9,1.5,5.9,1.4,7.5l1,2.4Z"/>
    <path class="st1" d="M332-184v-90h37.5c2.2,0,9.7,2,12,3,7.2,3,12.6,9.6,13.5,17.5,1,9.3,1.3,44.1-.4,52.6s-4.6,9.4-8.1,11.9-10,5-12,5h-42.5ZM369.5-258c-5.6-1-13.6.7-19.5,0v59h18.5c1.4,0,6.5-3,7.5-4.5,1.6-2.2,1.8-4.4,2-7,.8-8.9,1-29.2-.1-37.9s-3.5-8.7-8.4-9.6Z"/>
    <path class="st1" d="M1180.9-241.1c-.6,1-6.1.5-6.8,2.7s2.1,11.1,1.9,14.9c-.5,10.5-4.7,17.9-15,21-5.5,1.7-19.2-.2-19,6.1s3.8,2.9,5.8,3.2c9.4,1.5,27.5-.5,30,12,6.8,33.5-34.9,26.2-54.8,22.3l2-13c7.2,1.8,30.5,5.5,36,1.5s1.9-5.1,1-6.7c-2.3-4.1-31.2-.5-35.8-9.5s-1-11.6,2.8-16.6,1.9-.7,2-.8c1.3-2.1-1.8-2.1-3-3.4-6.1-7-6.5-21.4-3.8-29.8,7.1-21.5,37.5-10.6,54.3-12.7,3.3-.5,3.1,7.8,2.4,8.9ZM1140.3-234.7c-2.6,2.8-3.1,17.7,3.7,19.3,12.6,3,18.7-3,15.6-15.6-1.9-7.7-15.5-7.7-19.3-3.7Z"/>
    <path class="st1" d="M913-250c3.1,12.2-5.7,9.3-7,11s1.7,3.9,1.9,5.6c1.9,18.9-1.4,29.6-21.4,32.4s-12.5-2.6-11.5,7c8.6,1.9,25.7.2,32,6.5s5.1,19.1.3,25.2c-7.7,9.8-40,6.8-51.3,3.2l1.9-12.9c9.1,2,19.1,3.9,28.5,3s11.8-1.6,8-8-31.1-.2-35.7-10.3,0-13.2,5.2-18.7c-9.8-4.3-10-20.2-7.7-29.2,6.1-24.5,39-12.4,56.7-14.8ZM890.7-234.7c-3.8-4-17.4-4-19.3,3.7-3.1,12.7,3,18.7,15.6,15.6,6.8-1.6,6.3-16.5,3.7-19.3Z"/>
    <path class="st1" d="M600-186c-20.6,5-59.3,10.3-62-19.5-.9-9.6-1.1-46.8,1.8-54.2,7.7-19.6,40.6-16.6,57.1-12.2l-.9,14.9c-12.1-.2-38.1-8.8-40.7,8.8s-1.1,29.3-.2,37.7c1.7,16.3,16.8,12.6,29,11.5v-27h16v40Z"/>
    <path class="st1" d="M725-248.5c.8-2.6,17-3.6,15,4.5,11.3-5.3,33.4-14,39.1,2.4,2.9,8.5,3.1,45.2,2,55.1s-.5,3.4-1.6,3.4h-15.5v-48.5c0-6.1-22,.3-22,3v44.5h-17v-64.5Z"/>
    <path class="st1" d="M1206-210c-2.5,21,20.7,12.7,33,11l2,13c-20.9,5.6-49.7,9.6-52-19.5s-1.3-30.2,6-38.1c9.8-10.6,36.9-10.5,43.9,3.2.9,1.7,3.2,8.4,3.2,9.8v20.5h-36ZM1226-224c3-18.1-22.6-17.2-20,0h20Z"/>
    <path class="st1" d="M1040-210h-36c-2.5,21,20.7,12.7,33,11l2,13c-14.1,4.1-41,8.7-48.9-7.6s-4.5-34.4-.9-43.7c6.7-17.4,39.9-18.9,48-2.4.5,1.1,2.8,7.6,2.8,8.2v21.5ZM1024-224c3.3-18.2-22.7-17.1-20,0h20Z"/>
    <path class="st1" d="M497-210h-36c-2.5,21,20.7,12.7,33,11l2,13c-19.8,5.3-48.4,9.6-51.7-17.8-1.3-10.7-1.7-32,6.2-40.3s29.6-9.3,38.9-1.8,7.7,10.7,7.7,14.3v21.5ZM481-224c3.3-18.2-22.7-17.1-20,0h20Z"/>
    <path class="st1" d="M711-210h-36c-1.8,20.7,20.6,12.7,33,11l2,12.9c-16.2,5.7-47.7,8.5-50.8-14.5-1-7.6-.9-32.1,2.4-38.5,7.7-15,37.6-16.4,46.2-2.1.6,1.1,3.4,7.1,3.4,7.6v23.5ZM695-224c3.4-17.9-22.1-17.5-20,0h20Z"/>
    <path class="st1" d="M1109-183h-16v-45.5c0-10.5-17.2-4-22,0v44.5h-17v-64.5c0-1.9,10.5-2,12.3-1.5s1.2,6.3,2.2,6c10.5-4.7,31.7-13.2,38.6.5.4.9,2,4.5,2,5v55.5Z"/>
    <path class="st1" d="M973-184h-14c-.4,0,1.3-3.2-1.5-3-6.4.5-10.7,6.1-20.8,4.7-14.2-1.9-18.5-19.1-13-30.5,1.8-3.8,8.7-8.3,12.7-8.3h19.5c4-22.5-15.8-15.4-30-14l-2-12.9c12.4-3.1,36.1-7.1,44.9,4.4s4,7.5,4,9v50.5ZM956-208h-15.5c-1.5,0-7.3,12.3,5,12.1,9.1-.1,11.8-2.8,10.5-12.1Z"/>
    <path class="st1" d="M844-250v14.5l-28,38.5h29v13h-49l.5-13,27.5-39h-26.5c-2.3,0-2.3-14,0-14h46.5Z"/>
    <path class="st1" d="M631-250c.3.2.9,5.9,1,7l16.5-8c1-.2,2.8,15,2.3,15.8s-15.4,6.4-16.9,9.6v41.5h-17v-66c2.2.4,13.4-.5,14,0Z"/>
    <path class="st1" d="M429-184h-17v-64.5c0-2.3,17-2.3,17,0v64.5Z"/>
    <rect class="st1" x="412" y="-278" width="17" height="20"/>
  </g>
  <path class="st0" d="M282-182c-1.7,2.8-18.1,18.2-19.4,17.9-4.8-3.5-8.1-9.8-13.6-11.9-1-1.5,5.1-6,5.5-6h27.5Z"/>
  <g>
    <path class="st0" d="M41-77c21.6-22.1,42.7-46.4,61.4-71.1,22.4-29.7,45.3-65,43.5-103.8-24.9-9.6-51.7-12.3-77.7-5.4-7,1.8-13.3,5.4-20.2,7.3,22.8-42.3,62.3-51.3,105.7-34.2,50.7,20,72.5,55.5,135.9,40.3,1.5-.4,13.4-5,13.4-3.6-12.6,26.8-38.8,37.3-67.5,34.5-12.6-1.2-24.6-6.4-36.5-9.6l-15,33.1c-.3,2,0,1.3,1.5,1.5,7.2.9,14.4,1,21.6,2.5,53.8,11,76.4,56.5,70,108.5l-10.5-23c-18.6-37.1-57.6-57.6-99.1-54-9.1.8-12.5,9.6-18.4,15.6-29.7,29.8-67.3,51.7-108,62.5v-1Z"/>
    <path class="st0" d="M201-353c37.1,7.4,42.2,60.7,5.5,73-42.4,14.3-69.2-45.1-31.1-68.1l12.5-5h13Z"/>
    <path class="st0" d="M90-51c20-17.6,41.6-33.4,62.5-50h49.5l-49,50h-63Z"/>
  </g>
</svg>