<?xml version="1.0" encoding="UTF-8"?>
<svg id="Layer_2" data-name="Layer 2" xmlns="http://www.w3.org/2000/svg" viewBox="0 0 191.53 72.45">
  <defs>
    <style>
      .cls-1 {
        fill: #4160ac;
      }

      .cls-2 {
        fill: #1a2027;
      }

      .cls-3 {
        fill: #fdfdfe;
      }
    </style>
  </defs>
  <g id="Layer_1-2" data-name="Layer 1">
    <g>
      <path class="cls-3" d="M75.52,26.92c.06-.09.14-.15.22-.22-.03.18-.03.18-.22.22Z"/>
      <path class="cls-1" d="M35.24,0c.87.92.27,1.65-.18,2.55-2.36,4.77-7,10.7-9.98,15.41-1.68,2.67-3.37,5.34-4.94,8.08,3.69.06,7.38-.4,11.06-.65,1.35-.09,2.75.22,4.03-.34l13.4-20.75c1.1-1.25,2.78-.32,1.99,1.33l-9.11,13.87-3.41,5.67c2.53-.04,5.77-.71,8.16.26.46.19,1.06.82,1.32.8.46-.04,1.49-.94,2.13-1.16,1.49-.54,3.94-.35,3.68,1.69-.35,2.69-6.66,7.28-9.58,6.31-2.4,5.97,5.99,1.67,8.23.46,3.81-2.05,7.36-4.82,10.96-7.22,3-.1.7,1.97.39,3.47,2.8-1.48,5.3-3.71,8.46-4.45,1.17-.27,4.25-.69,3.9,1.39-.08.07-.16.13-.22.22-.91.18-1.61-.35-2.81-.07-3.72.88-10.53,6.14-12.95,9.16-.42.52-1.16,2.05-1.42,2.3-.67.61-2.16-.09-1.98-.9.13-.57,2.1-3.18,2.56-3.99.52-.91,1.09-1.98,1.39-2.99-1.57,1.14-3.18,2.26-4.86,3.23-2.98,1.73-9.23,5.16-12.56,3.45-4.12-2.11,1.03-7.78,3.07-9.65-.38-.14-.62-.74-.97-.78-.82-.1-7.62-.06-8,.12-4.16,6.74-8.59,13.64-12.08,20.76-.35.72-1.06,3.05-1.38,3.43s-1.4.31-1.77.02c-.91-.72.55-3.42.97-4.33,1.34-2.89,3.18-5.67,4.6-8.54l6.6-11.23-14.96.87-14.19,24.16c-.98,1.33.05,1.56-.75,2.98-.84,1.49-2.3,3.71-4.03,1.99v-.66l15.98-28.13-13.69.78c-1.71-.16-2.44-1.29-.21-1.54,2.89-.33,6.05-.23,8.97-.44.88-.06,5.85-.42,6.15-.64,2.94-4.84,5.9-9.68,8.98-14.45,2.23-3.45,4.63-7.44,7-10.73.29-.4.75-.66.97-1.11h1.09ZM44.88,31.96c.86-.51,1.86-.82,2.7-1.35,1.47-.93,3.68-2.78,3.87-4.56-.32-.43-4.43,2.99-4.82,3.39-.33.33-2.02,2.17-1.74,2.52Z"/>
      <path class="cls-1" d="M75.74,26.7c.67-.64,1.61-.6,2.16.13l-1.17,2.93c2.79-1.56,5.4-3.81,8.6-4.54.89-.2,2.65-.47,3.34.26.26.27.18.73.22.77.09.1,1.83-1.12,2.31.42l-9.09,17.53c7.54-2.02,15.26-3.38,23-4.47l.6-.5,3.33-8.6c-3.81,2.3-8.32,5.7-12.73,6.64-2.4.51-6.24.53-6.11-2.82s6.85-10.04,10.16-9.73c1.31.12,2.14,1.1,1.78,2.4-.7,2.6-5.53,5.77-8.14,6.04-.44.05-.86-.37-1.28.07-.18.18-.52,1.18-.53,1.46-.1,1.43.69,1.47,1.86,1.4,3.73-.2,12.37-5.75,15.49-8.15,2.31-1.77,3.89-5.86,5.53-8.48,2.33-3.71,5.52-8.23,8.52-11.4.62-.65,2.71-3.13,3.51-1.53.52,1.05-.26,1.1-.64,1.56-4.97,6.07-10.01,12.1-13.27,19.35,1.11-.05,2.15-.38,3.15.36.31.23.43.71.72.81.6.21,3.83-.33,4.68-.5.94-.19,3.69-.86,4.43-1.26.25-.13.44-.28.56-.53,3.21-6.04,7.11-12.53,11.74-17.59.61-.67,3.66-4.18,4.24-2.03.27,1.01-.49,1.06-.84,1.48-4.99,5.98-9.94,12.07-13.14,19.27,1.05-.04,2.19-.37,3.12.32.27.2.32.64.59.77.64.32,3.93-.25,4.83-.43,1.37-.28,4.71-1.7,5.75-1.39,1.14.34.89,1.57-.23,1.86-1.82.48-4.47,1.08-6.32,1.35-1.18.17-2.61,0-3.82.34-.31,1.28-.57,2.58-.98,3.84-.37,1.14-1.73,3.66-1.85,4.5-.07.44.03.29.33.33,2.9.38,12.06.79,12.16,4.93.04,1.69-2.31,1.12-2.58.17-.14-.49.1-1.01-.25-1.5-.84-1.2-8.66-2.07-10.38-2.02-2.5,3.93-4.73,8.01-7.5,11.76-.66.89-3.15,4.37-3.97,4.57-.73.18-1.86-.24-1.77-1.1l5-15.49c-2.5-.05-5.01.19-7.5.44-2.15,3.84-4.4,7.66-6.99,11.23-.64.88-3.24,4.49-3.96,4.8-1.14.49-2.27-.09-1.86-1.42l4.33-13.73c-8.05,1.2-16.06,2.74-23.93,4.8-2.54,4.36-6.84,14.83-12.74,14.91-3.53.05-4.84-2.96-3.83-6.03,2.1-6.37,9.17-8.92,14.99-10.62l9.31-17.4c.08-.48-.07-.25-.32-.32-2.23-.55-3.81.48-5.73,1.49-3.56,1.88-7.27,4.8-9.8,7.93-.51.63-.94,2.23-1.96,2.18-.52-.03-1.27-.62-1.18-1.17.05-.31,2.42-3.64,2.84-4.38.97-1.72,2.03-4.62,3.03-6.06.18-.04.19-.04.22-.22ZM93.69,31.96c1.66-.66,3.52-1.72,4.82-2.95.45-.43,2.2-2.35,1.75-2.96-1.25.39-2.3,1.23-3.28,2.08-.45.39-3.63,3.42-3.28,3.83ZM113.03,28.59c-.13-.09-.01-.67-.4-.12-.3.43-.58,1.1-.81,1.59-.46.95-4.05,9-3.68,9.34.58-.16,3.24-.11,3.47-.25.61-.38,3.71-8.89,3.29-9.56-.06-.09-1.45-.71-1.86-1ZM123.89,38.52c.87-.26,2.84.44,3.41.02.62-.46,3.15-7.54,3.11-8.5,0-.25-1.74-1.45-2.06-1.57-.4-.15-.26.1-.35.26-1.69,2.94-2.89,6.62-4.11,9.79ZM121.45,38.49l3.87-9.59c-2.63.96-5.41,1.21-8.19,1.11-.32,3.18-1.85,5.99-2.87,8.95l7.19-.47ZM126.52,40.28h-3.5l-3.06,10.07c2.72-2.87,4.61-6.63,6.56-10.07ZM110.54,40.93c-.14-.13-2.96.21-3.18.43l-2.95,9.2c.83-.68,6.55-9.25,6.13-9.63ZM77.92,47.06c-4.62,1.09-9.93,4.32-11.38,9.08-.71,2.32-.38,4.4,2.49,3.14,2.18-.95,4.42-4.32,5.71-6.33.35-.55,3.44-5.66,3.19-5.89Z"/>
      <path class="cls-1" d="M191.53,27.58c-3.32,2.99-6.98,6.31-10.94,8.43s-9.84,3.48-8.43-3.17c-1.99,1.79-7.55,7.76-10.32,4.95-1.5-1.51.35-3.8.69-5.39-2.95,1.98-6.02,4.79-9.48,5.84-3.7,1.13-4.98.37-4.28-3.62,1.16-6.6,11.41-20.82,16.61-25.2,1.2-1.01,3.43-3.06,4.82-1.55,1,1.09-.65,3.42-1.26,4.45-3.34,5.69-8.44,10.77-13.3,15.15-.59.53-2.3,1.59-2.64,2.02-.42.54-1.66,3.6-1.9,4.39-.33,1.08-.59,2.2-.5,3.33,2.97-.58,5.7-2.5,8.17-4.2s5.26-3.92,7.57-6c1-.9,1.74-2.89,3.22-.73-2.25,3.34-5.34,6.48-6.26,10.49.47.41,2.7-1.19,3.17-1.54,3.08-2.3,5.57-5.55,8.43-7.99.33-.28,1.46-1.24,1.75-1.33.74-.23,1.85.24,1.73,1.06-.06.39-2.03,2.54-2.47,3.24-.67,1.07-2.59,4.82-1.6,5.84.84.87,4.9-1.48,5.84-2.04,3.4-2.04,6.49-4.79,9.43-7.42.85-.39,1.36.02,1.97.54v.44ZM168.33,9.63l-1.75,1.2c-4.02,3.96-7.46,8.5-10.5,13.24.43.09.59-.1.89-.32,1.33-.98,3.55-3.59,4.7-4.93,2.46-2.87,4.59-6.05,6.67-9.2Z"/>
      <path class="cls-2" d="M153.88,72.45v-7.01c.56.08,1.72-.22,2.08.22s.76,3,.98,3.72c.75-.29,1.12-3.86,1.44-3.95.49-.13,1.48.12,2.06.01-.12,2.04.15,4.24.01,6.26-.03.44-.04.54-.45.75h-.88v-.22c-.02-1.02.02-2.05,0-3.06,0-.15,0-.29,0-.44-.01-.21.09-.66-.11-.66-.25.06-.05.49-.11.66-.45,1.25-.64,2.77-1.53,3.72h-.88l-1.2-4.16c-.44,0,.41,3.9-.55,4.16h-.88Z"/>
      <path class="cls-2" d="M51.66,72.45v-3.07s-1.75,0-1.75,0v2.85s-1.53,0-1.53,0v-6.79c2.15-.36,1.44,1.14,1.53,2.63h1.63s.12-2.63.12-2.63h1.53c-.12,2.04.15,4.24.01,6.26-.03.44-.04.54-.45.75h-1.09Z"/>
      <path class="cls-2" d="M28.24,72.45c-1.48-.25-2.3-3.29-.36-2.6.26.09.99,2.34,2.13.98s-2.67-1.06-3.21-2.74c-1.05-3.29,5.38-3.92,4.72-.23-1.63.25-1.08-.22-1.65-.87-.9-1.04-2.25.28-1.42.98s2.75-.11,3.19,1.85c.34,1.5-.54,2.26-1.88,2.64h-1.53Z"/>
      <path class="cls-2" d="M137.25,72.45c.11-.88,1.32-6.92,1.67-7.02.47-.13,1.48.1,2.05.02.15,2.09,1.22,4.28,1.5,6.3.07.49,0,.46-.4.7h-1.09c0-.3-.11-1.48-.35-1.55-.17-.05-1.54-.02-1.6.03-.14.12-.04,1.36-.68,1.51h-1.09ZM140.53,69.61c-.41-.64-.17-1.77-.87-2.19l-.44,2.19h1.31Z"/>
      <path class="cls-2" d="M38.96,72.45c-1.75-.95-1.79-3.35-1.52-5.13.47-3.03,5.53-2.46,5.02.75-.44-.06-1,.08-1.41.01-.24-.04-.13-1.14-.37-1.3-.17-.1-1.39-.11-1.53.1-.67.98-.54,5.3,1.34,4.15.55-.34.14-2.18,1.95-.85-.06,1.16-.56,1.74-1.52,2.27h-1.97Z"/>
      <path class="cls-2" d="M20.14,72.45l.13-7.01h1.19c-.12,2.04.15,4.24.01,6.26-.03.44-.04.54-.45.75h-.88Z"/>
      <path class="cls-2" d="M176.21,72.45l.13-7.01h1.19c-.12,2.04.15,4.24.01,6.26-.03.44-.04.54-.45.75h-.88Z"/>
      <path class="cls-1" d="M75.52,65.67h-1.31c.22,1.97-.29,4.55,0,6.44.04.28,1.02.06,1.32.13v.22h-1.31c-.49-2.24-.09-4.71-.22-7.01l1.53.22Z"/>
      <polygon class="cls-2" points="170.96 65.45 170.96 66.76 168.33 66.76 168.33 68.08 170.52 68.07 170.52 69.39 168.33 69.51 168.33 70.92 170.96 70.92 170.96 72.23 166.8 72.23 166.8 65.45 170.96 65.45"/>
      <path class="cls-2" d="M75.52,65.67v2.63s1.97,0,1.97,0v-2.85s1.31,0,1.31,0v6.79h-1.31s0-2.85,0-2.85h-1.85s-.13,2.85-.13,2.85c-.29-.06-1.27.15-1.32-.13-.29-1.89.22-4.47,0-6.44h1.31Z"/>
      <path class="cls-2" d="M117.33,65.45v1.31s-2.85,0-2.85,0v1.32c1.3.07,2.71-.53,2.41,1.31h-2.41s0,1.41,0,1.41c1.2.46,3.23-.66,2.85,1.44h-4.16v-6.79h4.16Z"/>
      <path class="cls-2" d="M89.09,65.45v1.31s-2.85,0-2.85,0v1.32c1.3.07,2.71-.53,2.41,1.31-.27.28-3.11-.79-2.38,1.39.23.68,2.17.24,2.82.36v1.1h-4.16v-6.79h4.16Z"/>
      <path class="cls-2" d="M14.78,65.45c.38.11.5.96.12,1.21-.44.3-2.02-.01-2.64.1v1.32c1.3.07,2.71-.53,2.41,1.31h-2.41s0,1.63,0,1.63l2.63.12v1.1h-3.94v-6.79c1,.19,2.99-.25,3.83,0Z"/>
      <path class="cls-2" d="M126.85,65.45c.38.11.5.96.12,1.21-.44.3-2.02-.01-2.64.1v1.32c1.27.07,2.71-.54,2.41,1.31h-2.41s0,2.85,0,2.85h-1.53v-6.46s.31-.33.33-.33c.81,0,3.17-.17,3.72,0Z"/>
      <polygon class="cls-2" points="63.26 65.45 63.26 66.76 61.73 66.76 61.73 72.23 60.2 72.23 60.2 66.76 58.66 66.76 58.66 65.45 63.26 65.45"/>
      <polygon class="cls-2" points="105.29 65.45 105.29 71.14 107.7 71.14 107.7 72.23 103.97 72.23 103.97 65.45 105.29 65.45"/>
      <polygon class="cls-2" points="96.09 65.45 96.09 71.14 98.5 71.14 98.5 72.23 94.78 72.23 94.78 65.45 96.09 65.45"/>
      <path class="cls-1" d="M94.27,22.04c-.15.18-2.52,1.8-2.68,1.83-.92.14-1.86-.74-.98-1.66.22-.23,2.13-1.56,2.36-1.6.82-.16,2.03.58,1.3,1.43Z"/>
      <path class="cls-1" d="M142,35.05c.36-.1,1.07.09,1.36.31,1.45,1.1-1.8,3.04-2.51,1.63-.34-.67.61-1.79,1.15-1.94Z"/>
      <path class="cls-2" d="M14.23,63.92c-.42,1.27-.66,1.19-1.97,1.09.08-1.24.96-1.17,1.97-1.09Z"/>
      <path class="cls-2" d="M170.08,63.92c-.06,1.1-.79,1.21-1.75,1.09.06-1.1.79-1.21,1.75-1.09Z"/>
      <rect class="cls-2" x="87.12" y="63.92" width="1.32" height="1.1"/>
      <rect class="cls-2" x="85.59" y="63.92" width="1.32" height="1.1"/>
      <path class="cls-1" d="M159.14,72.23c-.37-.78-.36-2.33,0-3.06.02,1.02-.02,2.05,0,3.06Z"/>
      <path class="cls-1" d="M159.14,68.73h-.22c.06-.17-.14-.59.11-.66.2,0,.1.45.11.66Z"/>
    </g>
  </g>
</svg>