<?xml version="1.0" encoding="UTF-8"?>
<svg id="Layer_1" xmlns="http://www.w3.org/2000/svg" version="1.1" viewBox="0 0 1186 326">
  <!-- Generator: Adobe Illustrator 29.5.0, SVG Export Plug-In . SVG Version: 2.1.0 Build 137)  -->
  <defs>
    <style>
      .st0 {
        fill: #f84a15;
      }

      .st1 {
        fill: #fefefe;
      }
    </style>
  </defs>
  <path class="st1" d="M446.9-364.7v16.9h-41v24.9h38v16h-38v37.4c0,.1-1.4,1.5-1.5,1.5h-16c-.1,0-1.5-1.4-1.5-1.5v-95.2h59.9Z"/>
  <path class="st1" d="M535.6-340.5c10.9-.2,24.4,3.6,29,14.3,2.9,6.8,3,29.9,2.1,37.8-3,26.3-47.5,28.2-57.7,8.7-4.4-8.4-4.7-35.1-1.8-44.1s16.6-16.5,28.3-16.7ZM526.1-321.5c-3.2,3.7-3.1,27.5-1.5,32.3,3.1,9.7,22.6,8.7,24.2-1.3s.6-25.2-.4-28.4c-2.2-7.1-17.9-7.7-22.2-2.7Z"/>
  <path class="st1" d="M912.5-296.9h-39c-3.2,22.3,21.8,13.9,35,12l1.9,13.9c-16,4.8-46.5,9.3-53.3-10.9s-2.5-35.3,0-42.8c6.8-19.9,44.2-21.4,52.3-2.4s3.1,9.7,3.1,12.8v17.4ZM894.5-311.9c4.2-18.3-24.3-18-21,0h21Z"/>
  <path class="st1" d="M277-296.9h-39c-3.2,22.3,21.8,13.9,34.9,12,0,2.7,3.6,12.5,1.5,14s-15.9,3.7-18.9,3.9c-11.6.8-26.9-.7-32.6-12.3-4.3-8.7-4.3-39.5,0-48.2,8.4-16.9,42.9-17.6,50.9-.5.8,1.6,3.3,9.4,3.3,10.7v20.4ZM238-311.9h22c-1.4-7.1.3-12.2-8.4-13-10.3-1-14.3,2.6-13.6,13Z"/>
  <path class="st1" d="M642.7-268h-16.5c-.1,0-1.5-1.4-1.5-1.5v-50.8c0-6.5-19.8,1.6-23,2.5v48.9h-18v-69.8h14c.3,0,.3,5.4,1.5,6,9.5-5.3,31.6-12.5,39.5-2.5s4,7.1,4,8v59.3Z"/>
  <path class="st1" d="M746.6-307.9c-.5-4,1.5-12.7-2.1-15.4s-24-1.5-29.9.5c-.3-3.3-2.9-10.4-1.9-13.3s9.9-3.3,12.4-3.6c9.1-1.2,25-1.4,32.5,4.5s5.8,7.1,6.7,11.2,2.4,52.9.8,55.2-12.1,1.4-13.9.8c-2.8-1-.4-5.9-3.1-4.8s-1.6,1.7-2.8,2.2c-12,5.2-29.2,7.1-34.2-8.2-2.5-7.8-2.3-20.7,5.1-25.8s6.4-3.2,6.8-3.2h23.5ZM746.6-294.9h-15.5c-3.8,0-7.4,12.1,1.9,13,10.4,1,15.5-2,13.5-13Z"/>
  <path class="st1" d="M171.1-284.9h39v16h-58v-95.7h17.5c.1,0,1.5,1.4,1.5,1.5v78.3Z"/>
  <path class="st1" d="M337.9-337.7l-1.8,13.4c-5.4,1.2-24.1-3.1-27,1-7.9,11.2,16.5,12.9,22.6,16.2,9,4.8,9.1,17.6,7.1,26.4-4.3,18.8-34.8,14.4-48.6,9.6l1.9-13.8c6.8.9,30,8.4,30-3.5,0-11.5-24.9-7.4-29.9-19.1-2.8-6.6-2.6-19.1,1.4-25.2,6.9-10.5,33.5-7.6,44.3-4.9Z"/>
  <path class="st1" d="M1021.4-337.8l-2.1,13.8c-5.2.4-24.1-3.1-27,.5s-1.3,8.2.8,9.6c3.2,2.1,13.4,3.4,18.3,5.4,12,5,12.4,12.6,11,24.9-2.6,22.7-34.8,16.6-50,12.4l3-13.9c6.1,1.2,22.4,5.4,27.4,1.9,2.2-1.5,2.1-6.8,1.4-9.2-1.6-5.4-22.2-5.5-27.6-13.3-4.6-6.7-4.2-20.6.4-27.2,7.8-11.1,32.8-7.1,44.4-5Z"/>
  <path class="st1" d="M682.7-358.7v19.9h18l-1,14h-17v39.4c0,4.6,12.3,2.9,15,1.5-.6,3,3,13.1,1,14.5s-8.9,2.2-10.6,2.4c-35.5,3.2-19.9-34.4-23.5-56.1-1-3-8.3-1.2-10.9-1.6v-14h11v-17.9l18-2Z"/>
  <polygon class="st1" points="801.6 -369.7 801.6 -269 783.6 -269 783.6 -367.7 801.6 -369.7"/>
  <path class="st1" d="M190.1-202.2c2.1-9.7-2.2-14.7,11-13,.2,4.4,0,8.9-1.3,13.2s-3.8,6.7-3.6,8.1,11.2,11.4,9.8,12.6c-7.9-.3-13.1,2.6-16.5-6-14.1,12.1-41.7,6.3-39.4-15.3,1-9.3,11.5-14.7,11.9-16.2.6-2.5-9.4-10-2.8-20.7,9.1-14.6,33.6-4.2,26.9,12.9s-9.4,8.4-9,9.8l12.9,14.5ZM169.8-236.9c-6.6,2-.4,19,6.8,7.7s-1.4-9.3-6.8-7.7ZM168.6-212c-19.7,11.1-.7,30.9,14.3,17.3l-14.3-17.3Z"/>
  <path class="st1" d="M476.8-338.8c.3.3-.7,6.8,1.5,7s15.5-9.7,17.5-8c0,4.1,3.5,14.5.4,16.8s-12.7,5.7-17.4,9.1v45.9h-16.5c-.1,0-1.5-1.4-1.5-1.5v-69.3c2.3.4,15.4-.6,16,0Z"/>
  <path class="st1" d="M942.5-338.8c1.3.8-.2,7.8,2.5,7s15.5-10.2,17.5-8l.9,16.8c-3.2.2-17,7.7-17.7,9.7-1.5,13.2,1.4,28.9-.1,41.8-.1,1-.5,3.4-1.5,3.4h-15c-.1,0-1.5-1.4-1.5-1.5v-69.3c2.6.6,13.8-.8,15,0Z"/>
  <path class="st1" d="M412.9-246.1v64.8c-2.2-.3-5.3.5-7.3,0s-1.4-2.9-2.2-3-3.2,2.5-6.1,2.9c-18.1,2.6-22.7-12.1-21.3-27.2,1.7-17.1,12.1-22.7,27.9-16.6v-20.9h9ZM390.6-217.9c-6.3,1.9-9.3,32.5,7.6,27.5s9.8-32.7-7.6-27.5Z"/>
  <rect class="st1" x="820.6" y="-338.8" width="18" height="69.8"/>
  <path class="st1" d="M460.9-201.2h-28c-.2,8.9,5.9,12.5,14.3,10.7,3.1-.6,6.8-4.7,7.2-4.7s6.7,5.7,6.5,6.4c-13.8,13.8-36.4,9.4-38-11.9-2.9-37.2,41.9-35.2,38-.5ZM450.9-209.2c.2-13.1-18.2-13-18,0h18Z"/>
  <path class="st1" d="M305-201.2h-29c.5,9.2,6.3,12.8,15.3,10.8s4.9-8.3,11.3-.8c2.5,2.9.2,4.4-2.6,6.5-4.9,3.5-11.5,4.2-17.4,3.6-22.8-2.5-21.8-46.6,3-46.6,14.4,0,19.9,14.4,19.5,26.7ZM295-209.2c-2.1-12.7-17.5-13.2-19,0h19Z"/>
  <path class="st1" d="M310.1-187.4c-1.2-2,4.3-7.6,5.5-7.8s3.3,2.8,5.1,3.7c5.6,2.8,22.7,1.5,17.2-6.1-3.9-5.4-22.4,1.1-25.5-12.5-4.2-18.8,23.2-21.8,34.1-12,.7.9-5.4,6.7-6,6.7-1.1,0-7.4-4-11.9-3.7s-9.5,4.6-5.6,8.5,22.2-1.2,24.8,11.2c3.7,18-18.5,21.9-31.1,16.1-.9-.4-6.3-3.7-6.5-4Z"/>
  <path class="st1" d="M570.5-199c-3.8-3.3-19.5,1.8-24.2-9.2-8.5-19.9,24.8-24.2,32.5-14.5,1.9,2.4-3.5,7.2-4.7,7.4s-13.3-8.1-18.4-1.5c-6.8,8.8,12.2,7.6,16.3,8.8,15.1,4.4,10.8,24.6-3.8,26.6-8.4,1.2-19.3.2-24.9-6.9-.4-1,5.6-6.9,6-6.9s4.1,4.1,7.2,4.7,9.3.7,11.5,0c3.3-1,5.1-6.2,2.5-8.5Z"/>
  <path class="st1" d="M506.8-181.3c-6.8-.2-8.5,2.1-9-5.4s2.1-25.9-2.9-30-11.4-2.2-13.3,1.8-1.7,5.9-1.7,6.2v27.4h-9v-45.9c2.5.4,6-.6,8.3,0s.7,2,1.2,2c1.3,0,5.9-2.6,9.1-2.7,4.8-.2,10,1.5,13.4,5.1s4,5.4,4,6v35.4Z"/>
  <path class="st1" d="M519.8-218.1c-.5-.5-4.8.8-5-.6s-.3-8.1,0-8.4,4.6.4,5,0-.4-11,0-13h10c.3,2-.5,12.5,0,13s7.4-.3,9,0c2.9,13.2-7.5,7.5-9,9s-.4,22.7,0,25.5,8.4,1.8,9.1,2.5-.3,7.4,0,9c-6.1.3-12.5.4-16.5-5s-2.5-5.1-2.5-5.4c0-3.6,1-25.5,0-26.4Z"/>
  <path class="st1" d="M245-181.3c-1.9,0-10,.7-10-1.5v-44.4c2.8.4,6.8-.6,9.3,0s.7,2,1.2,2c4.7.1,8-5.4,17.2-1.3,7.2,3.2,1.8,10.6-1.4,11.1s-3.8-4.3-10.6-2.7-5.7,4.6-5.7,6.3v30.4Z"/>
  <rect class="st1" x="356.9" y="-227.1" width="9" height="45.9"/>
  <path class="st1" d="M838.5-368.7v20.9h-16.5c-.1,0-1.5-1.4-1.5-1.5v-19.4h18Z"/>
  <path class="st1" d="M299-249l-10.4,16c-2.5,1.8-6.5.6-9.6.9-.7-.6,8-15.8,9-16.4,2.4-1.4,8,0,11-.5Z"/>
  <path class="st1" d="M359.7-246.9c8.9-2.5,10.7,10.4,2.5,11.6-7,1.1-8.7-9.9-2.5-11.6Z"/>
  <g>
    <path class="st0" d="M120.1-325.8c-15.7,36.2-53.6,43.7-89.1,34.6-3.5-.9-22.7-8.4-23.7-7.7l-16,36.4c8.4,2,17.3,2.2,26,4,58,11.8,81.5,60.2,74.9,116.1l-12.5-26.9c-21.9-39.6-56.2-56-100.9-55.9-2,0-10.6,1.2-12,2s-3.7,4.8-5.4,6.6c-34.1,35.5-74.5,62.3-122.9,74.2,15.2-17.5,31.2-34.4,45.9-52.4,24.3-29.5,52.4-64.7,62.5-102.2,2.8-10.5,5.1-22,3.3-32.7-33.6-13.1-72.3-14.2-104.8,2.8,8-16.7,23.6-33.2,41-40.4,66.9-27.7,115.7,44,177.3,49.3,19.1,1.6,38.7-.7,56.4-8Z"/>
    <path class="st0" d="M-4-437.2c62.1-8.5,62.3,87.7,0,79.2-43.5-5.9-43.4-73.3,0-79.2Z"/>
    <polygon class="st0" points="11.2 -168.3 -41.2 -115.5 -109.7 -115.5 -43.2 -168.3 11.2 -168.3"/>
    <path class="st0" d="M-20.7-184.3l34.4-28.9c4.5.9,26.7,9.9,27.5,13.5l-13.4,15.3H-20.7Z"/>
    <path class="st0" d="M97.2-255c.6,2.4-.6,1.7-1.3,2.3-6.5,5.8-12.2,12.4-19.2,17.6-4-5.6-9.4-10.6-15.5-13.9-.6-.8,7-6,7.5-6h28.5Z"/>
  </g>
</svg>