<?xml version="1.0" encoding="UTF-8"?>
<svg id="Layer_1" xmlns="http://www.w3.org/2000/svg" version="1.1" viewBox="0 0 697.8 79.7">
  <!-- Generator: Adobe Illustrator 29.5.0, SVG Export Plug-In . SVG Version: 2.1.0 Build 137)  -->
  <defs>
    <style>
      .st0 {
        fill: #d3000d;
      }

      .st1 {
        fill: #fff;
      }

      .st2 {
        fill: #a50610;
      }

      .st3 {
        fill: #fa0000;
      }
    </style>
  </defs>
  <rect class="st2" x="311.8" y="0" width="141.7" height="79.7"/>
  <polygon class="st1" points="355.8 18.3 365.7 18.3 365.7 52.9 409.5 52.9 409.5 61.4 355.8 61.4 355.8 18.3"/>
  <g id="middle">
    <rect class="st0" x="155.9" y="0" width="141.7" height="79.7"/>
    <polygon class="st1" points="221.8 26.8 196.9 26.8 196.9 18.3 256.6 18.3 256.6 26.8 231.7 26.8 231.7 61.4 221.8 61.4 221.8 26.8"/>
  </g>
  <rect class="st3" y="0" width="141.7" height="79.7"/>
  <path class="st1" d="M40.3,18.3h37.8c11.5,0,17.9,5.2,17.9,13.8s-4.8,12.4-13,13.6l18.5,15.6h-14.2l-17.4-15.1h-19.8v15.1h-9.8s0-43.1,0-43.1ZM76.7,38.3c6.1,0,9-2,9-6s-2.9-5.9-9-5.9h-26.6v11.9h26.6Z"/>
  <path class="st1" d="M495.7,61.3V25.3h-13.9v-6.9h35.6v6.9h-13.9v35.9s-7.8,0-7.8,0Z"/>
  <path class="st1" d="M520.1,39.9c0-13,8.4-22.1,22.1-22.1s22,9.1,22,22.1-8.4,22.1-22,22.1-22.1-9-22.1-22.1ZM556.3,39.9c0-9.2-5-15.1-14.1-15.1s-14.1,5.9-14.1,15.1,5,15.1,14.1,15.1,14.1-5.9,14.1-15.1Z"/>
  <path class="st1" d="M571.8,61.3V18.5h18.2c12.5,0,20.7,8.5,20.7,21.4s-8.4,21.4-20.7,21.4h-18.2ZM579.6,54.4h9.7c8.6,0,13.5-5.3,13.5-14.5s-4.9-14.5-13.5-14.5h-9.7s0,29.1,0,29.1Z"/>
  <path class="st1" d="M639.8,18.5l16.5,42.2v.6h-8.6l-3.4-9.4h-18.8l-3.4,9.4h-8.2v-.6l16.4-42.2h9.5ZM628.1,45h13.8l-6.8-18.6h-.2l-6.8,18.6h0Z"/>
  <path class="st1" d="M673.3,61.3v-17.5l-16.8-24.7v-.6h9l11.5,17.9h.2l11.4-17.9h9v.6l-16.6,24.6v17.5h-7.8,0Z"/>
</svg>