<?xml version="1.0" encoding="UTF-8"?>
<svg id="Layer_1" xmlns="http://www.w3.org/2000/svg" version="1.1" xmlns:xlink="http://www.w3.org/1999/xlink" viewBox="0 0 566 48">
  <!-- Generator: Adobe Illustrator 29.5.0, SVG Export Plug-In . SVG Version: 2.1.0 Build 137)  -->
  <defs>
    <style>
      .st0 {
        fill: url(#linear-gradient2);
      }

      .st1 {
        fill: url(#linear-gradient1);
        fill-rule: evenodd;
      }

      .st2 {
        fill: url(#linear-gradient);
      }
    </style>
    <linearGradient id="linear-gradient" x1=".9" y1="24" x2="196.9" y2="24" gradientUnits="userSpaceOnUse">
      <stop offset="1" stop-color="#fff"/>
      <stop offset="1" stop-color="#231f20"/>
    </linearGradient>
    <linearGradient id="linear-gradient1" x1="197.8" y1="29.5" x2="343.2" y2="29.5" xlink:href="#linear-gradient"/>
    <linearGradient id="linear-gradient2" x1="341.3" x2="565.3" xlink:href="#linear-gradient"/>
  </defs>
  <path class="st2" d="M39.6,33.3v-.3c0,0,0,0,0,0h2.9l-1,14.5H.9v-3.1h.3c1,0,2.1-.1,3.1-.4.7-.2,1.3-.5,1.7-.9.4-.4.7-1.1.8-1.9.1-.9.2-2,.2-3.4V9.7c0-1.4,0-2.5-.2-3.4-.1-.8-.4-1.5-.7-1.9-.3-.4-.8-.7-1.5-.9-.7-.2-1.6-.3-2.8-.4h-.3V0h20.8v3.1h-.3c-1,0-2.1.1-3.1.4-.7.2-1.3.5-1.7,1-.4.5-.6,1.1-.8,2-.1.9-.2,2.1-.2,3.7v25.5c0,1.7.2,3.1.5,4.1.2.9.8,1.8,1.6,2.3.9.6,2,1,3.1,1.1,1.3.2,3,.3,5,.3s4.1-.1,5.6-.4c1.4-.3,2.7-.8,3.7-1.5,1-.8,1.8-1.9,2.4-3.1.7-1.7,1.2-3.4,1.5-5.2M143.8,40.4c.4-1,.9-2.3,1.2-3.8h.1v-.3h2.4l-.8,11.2h0s-46.8,0-46.8,0v-2.5h.3c.7,0,1.3,0,1.7,0,.3,0,.7,0,1-.2.2,0,.3-.1.3-.2,0-.3,0-.6,0-.8-.1-.2-.2-.5-.4-.7l-.7-1.1c-.4-.6-.7-1.1-1.1-1.7l-4.5-6.6-2.8,3.5c-.6.8-1.2,1.5-1.9,2.3-.6.6-1.1,1.3-1.6,2-.5.6-.9,1.1-1.1,1.6-.3.4-.4.8-.4,1.1s0,.5.7.7c.9.2,1.9.3,2.8.3h.3v2.5h-14.1v-2.5h.3c.8,0,1.5,0,2-.1.5,0,1-.2,1.4-.4.4-.2.8-.5,1.2-.8.5-.5.9-.9,1.3-1.5l9.5-12-10.1-13.6c-.8-1-1.5-1.7-2.2-2-.7-.3-1.5-.4-2.4-.5-1,0-1.7,0-2.3.2-.5.1-.9.4-1.2.8-.2.3-.4.6-.5,1-.1.4-.2,1-.3,1.6-.2,1.9-.3,3.7-.3,5.6v9.7c0,2.6-.3,4.9-.8,6.8-.5,1.8-1.4,3.4-2.6,4.7-1.3,1.3-2.8,2.2-4.6,2.7-1.8.5-4,.8-6.6.8h0c-4.8,0-8.3-1.1-10.6-3.2-2.2-2.1-3.4-5.5-3.4-10.1v-12.6c0-1.7,0-3.3-.2-5,0-.4-.1-.9-.2-1.3,0-.3-.2-.6-.3-.8-.2-.3-.6-.6-1-.7-.5-.1-1.2-.2-2.2-.2h-.3v-2.5h16.4v2.5h-.3c-1.2,0-2.1,0-2.6.2-.5.1-.9.3-1.2.7-.2.2-.3.5-.4.8-.1.4-.2.9-.3,1.3,0,.6-.1,1.2-.2,2.1,0,1,0,2,0,3v12c0,3.4.7,5.9,2.1,7.5,1.4,1.6,3.5,2.4,6.3,2.4,5.9,0,8.7-3.3,8.7-10.2v-10.6c0-1.3,0-2.4,0-3.3,0-.8,0-1.5-.2-2.3-.1-.6-.2-1.1-.4-1.5-.1-.3-.3-.7-.5-1-.4-.4-.8-.7-1.4-.8-.6-.2-1.5-.3-2.6-.3h-.3v-2.5h31.1v2.5h-.3c-.7,0-1.5,0-2.1.4-.4.2-.5.5-.5,1,0,.8.4,1.7,1.3,2.9l4.3,6.2,5.4-6.7c.4-.5.7-1,.9-1.4.2-.4.3-.8.3-1.1,0-.2,0-.3-.1-.4,0-.1-.2-.2-.4-.3-.2-.1-.5-.2-1-.2-.6,0-1.2,0-1.8,0h-.3v-2.5h13.7v2.5h-.3c-1.2,0-2.1.1-2.8.3-.6.2-1.1.5-1.5,1l-9.7,12.4,9.8,14.1c.6.9,1.5,1.7,2.5,2.3.9.5,2,.8,3.1.8.9,0,1.7-.1,2.3-.3.5-.1,1-.4,1.2-.7.3-.3.5-.8.6-1.4.1-.7.2-1.5.2-2.6v-21.2c0-1.1,0-1.9-.2-2.6-.1-.6-.3-1.1-.5-1.4-.3-.3-.6-.5-1.1-.7-.5-.1-1.2-.2-2.1-.3h-.3v-2.5h28.4l.3,9.7h-2.5v-.3c-.2-1.2-.5-2.3-.8-3.1-.4-.8-.8-1.4-1.5-1.9-.6-.5-1.5-.8-2.5-1-1-.2-2.3-.3-3.9-.3h-5c-1,0-1.1.2-1.1.2,0,0-.2.3-.2,1.2v11.3c1.7,0,3.1,0,4.2-.2,1.1-.1,1.9-.4,2.5-.7.6-.3,1-.9,1.2-1.5.3-1,.5-1.9.6-2.9v-.3h2.3v14.1h-2.2v-.3c-.2-1.2-.4-2.2-.7-2.9-.3-.7-.7-1.2-1.3-1.5-.6-.3-1.4-.6-2.5-.7-1-.1-2.4-.2-4.1-.2v9.1c0,.8.1,1.6.4,2.4.2.6.6,1.1,1.1,1.5.7.4,1.4.7,2.2.8.9.2,2.1.3,3.5.3s3.1-.1,4.2-.4c1.1-.2,2-.6,2.7-1.2.7-.6,1.3-1.4,1.7-2.3M192.6,43.9c.3.4.8.7,1.3.8h.1c.8.1,1.7.2,2.6.2h.3v2.5h-17.2v-2.5h.3c1,0,1.9-.1,2.5-.3.6-.2,1-.4,1.4-.8.3-.4.5-1,.7-1.8.1-.8.2-2,.2-3.4v-20.3l-11.5,29.5h-3.7l-11.8-29.4v19.9c0,1.5,0,2.7.2,3.6,0,.7.3,1.3.7,1.9.3.4.8.7,1.3.8.8.2,1.7.3,2.5.3h.3v2.5h-14.2v-2.5h.3c1.1,0,1.9-.1,2.6-.3.6-.2,1.1-.4,1.4-.8.3-.4.5-1,.7-1.8.1-.8.2-2,.2-3.4v-18.4c0-1.3,0-2.3-.2-3.2-.1-.8-.3-1.4-.6-1.9-.3-.4-.7-.8-1.2-.9-.6-.2-1.3-.3-2.3-.3h-.3v-2.5h13.9l10.1,26.4,10-26.4h13.4v2.5h-.3c-.9,0-1.7,0-2.2.3-.5.2-.9.5-1.2.9-.3.5-.5,1.1-.6,2-.1.9-.2,2-.2,3.4v17.8c0,1.5,0,2.7.2,3.6,0,.7.3,1.3.7,1.9"/>
  <path class="st1" d="M223.9,28.7c1.3.4,2.4,1.1,3.4,2.1h0c2,1.9,3,4.4,3,7.1,0,1.6-.4,3.1-1.1,4.3-.8,1.3-1.9,2.3-3.2,3.1-2.7,1.5-6.3,2.3-10.9,2.3h-17.2v-2.5h.3c.8,0,1.6,0,2.3-.3.5,0,.9-.3,1.3-.7.3-.3.5-.8.6-1.4.1-.7.2-1.5.2-2.6v-21.2c0-1.1,0-1.9-.1-2.6,0-.6-.2-1.1-.5-1.4-.2-.3-.5-.5-1-.7-.4-.1-1.1-.2-1.9-.3h-.3v-2.5h14.4c4.5,0,8,.8,10.4,2.3,2.5,1.6,3.7,3.8,3.7,6.6s-2.2,6-6.5,7.6c1.1,0,2.1.3,3.2.7M210,15c-.3,0-.5.1-.5.4v11.5h2.3c1.3,0,2.4-.1,3.3-.4.9-.3,1.7-.6,2.3-1.1,1.3-.9,2-2.4,2-4.5s-.5-3.7-1.5-4.6c-1-.9-2.6-1.4-4.9-1.4h-3.1ZM210.8,42.9c.9.7,2.4,1.1,4.5,1.1h0c4.5,0,6.8-2.1,6.8-6.3s-.8-4.5-2.4-5.7c-.8-.6-1.9-1.1-3.3-1.3-1.4-.3-3.1-.4-5.1-.4h-1.8v8.8c0,1.8.4,3.1,1.3,3.8M258.8,12.5c2.3.9,4.3,2.3,6.1,4h0c5.4,5.3,7,13.4,4,20.4-1,2.2-2.4,4.1-4.1,5.8-3.7,3.4-8.5,5.3-13.5,5.3-5,0-9.9-1.8-13.5-5.3-3.6-3.3-5.6-8-5.6-12.9,0-5,2-9.8,5.5-13.3,3.6-3.5,8.5-5.4,13.6-5.4,2.7,0,5.2.5,7.5,1.4M259.2,40.5c1-1.4,1.7-2.9,2.2-4.5h0c.5-1.8.8-3.7.8-6s-.2-4.5-.8-6.4c-.4-1.7-1.2-3.3-2.2-4.8-.9-1.3-2-2.3-3.4-3-1.3-.7-2.8-1-4.5-1s-3.2.3-4.5,1c-1.4.7-2.5,1.8-3.4,3-1,1.5-1.7,3.1-2.2,4.8-.5,1.9-.8,4-.8,6.4s.2,4.3.8,6c.4,1.6,1.2,3.2,2.2,4.5.9,1.2,2,2.2,3.4,2.8,1.3.7,2.8,1,4.5,1,3.1,0,6-1.4,7.9-3.8M343.2,47.5v-2.5h-.4c-2,0-3.9-.9-5.2-2.5l-9.8-11.8c2.5-.4,4.7-1.6,6.4-3.4,1.5-1.9,2.3-4.2,2.2-6.6,0-2.9-1.2-5.2-3.6-6.8-2.4-1.6-5.7-2.4-10-2.4h-29.4v2.5h.3c1.1,0,2,.1,2.6.3.6.2,1.1.5,1.4.8.2.3.4.6.5,1,.2.4.3.9.4,1.5,0,.6.2,1.4.2,2.3,0,.9,0,2,0,3.3v10.6c0,6.9-2.8,10.2-8.7,10.2s-5-.8-6.3-2.4c-1.4-1.6-2.1-4.1-2.1-7.5v-12c0-1.2,0-2.2,0-3,0-.8,0-1.5.2-2.1,0-.5.2-1,.3-1.3.1-.3.3-.6.5-.8.3-.3.7-.6,1.2-.7.5-.1,1.4-.2,2.6-.2h.3v-2.5h-16.4v2.5h.3c1,0,1.7,0,2.2.2.4.1.7.4,1,.7.1.2.2.5.3.8s.2.8.2,1.3c.2,1.7.2,3.3.2,5v12.6c0,4.6,1.1,8,3.4,10.1s5.8,3.2,10.6,3.2h0c2.5,0,4.7-.3,6.6-.8,1.7-.5,3.3-1.4,4.6-2.7,1.2-1.3,2.1-2.9,2.6-4.7.5-1.9.8-4.1.8-6.8v-9.7c0-1.3,0-2.4,0-3.3,0-.8,0-1.5.2-2.2h0s0,0,0,0c0-.6.2-1.2.3-1.6.1-.4.3-.7.5-1,.3-.4.7-.6,1.2-.8,1.4-.3,2.8-.3,4.2,0,.5.1.8.3,1.1.7.3.3.4.8.5,1.4,0,.6.1,1.5.1,2.6v21.2c0,1,0,1.9-.2,2.6-.1.6-.3,1.1-.6,1.4-.3.3-.7.5-1.2.7-.6.1-1.3.2-2.3.2h-.3v2.5h18.1v-2.5h-.3c-1.4,0-2.5,0-3.3-.2-.6,0-1.2-.3-1.7-.7-.4-.3-.7-.8-.8-1.5-.1-.7-.2-1.6-.2-2.7v-8.6c.3,0,.7.2,1,.4.5.3,1.1.9,1.8,1.8l11,14.1h10.9,0ZM318.9,14.8c-.3,0-.5.1-.5.4v12.6h2.5c2.7,0,4.7-.5,6-1.6,1.3-1,1.9-2.8,1.9-5.3s-.5-3.4-1.6-4.5c-1.1-1.1-2.6-1.7-4.5-1.7h-3.8Z"/>
  <path class="st0" d="M363.2,33.1h-.3s0,0,0,0v-2.5h14.9v2.5h-.3c-1.3,0-2.2.3-2.7.9-.5.6-.8,1.7-.8,3.3v6.4h-.3c-1.5-.1-2.9.2-4.2,1l-2,1.2c-2.6,1.5-5.6,2.2-8.6,2.1h0c-2.7,0-5.1-.4-7.3-1.2-4.2-1.6-7.5-4.9-9-9.2-.8-2.2-1.2-4.7-1.2-7.4s.4-5.4,1.3-7.7,2.1-4.4,3.7-6.1c1.6-1.7,3.5-3,5.7-3.9,4-1.6,8.5-1.8,12.6-.6,1.8.6,3.4,1.4,5,2.3l.8-2.7h2.2v12.3h-2.8v-.3c-.6-2.8-1.8-5-3.5-6.5-1.7-1.5-3.9-2.3-6.4-2.3-3-.1-5.9,1.4-7.6,3.9-1.8,2.6-2.7,6.4-2.7,11.2s.9,8.3,2.7,10.8c1.8,2.4,4.6,3.8,7.6,3.7,2,.1,4-.6,5.6-1.9,1.3-1.3,2-3,2-5.3s-.3-2.3-1-2.8c-.7-.6-1.8-1-3.4-1.1M451.5,43.9c.3.4.7.7,1.2.8h0c.8.2,1.5.3,2.3.3h.3v2.5h-16.4v-2.5h.3c.8,0,1.6-.1,2.3-.3.5-.2.9-.4,1.2-.8.3-.4.5-1,.6-1.8.1-.8.2-2,.2-3.4v-18.4c0-1.1,0-2.1-.2-3.2,0-.8-.3-1.4-.5-1.9-.2-.4-.6-.7-1.1-.9-.5-.2-1.2-.3-2-.4h-2.8v-.3c-.1-2-.4-3.6-.8-4.9-.4-1.3-1-2.3-1.8-3-.8-.7-1.7-1.3-2.8-1.6-1.1-.3-2.5-.4-4-.4s-2.7,0-3.6,0c-.9,0-1.6.2-2,.3-.5.2-.7.3-.8.4-.1.2-.2.5-.2.7v31.9c0,1.1,0,2.2.3,3.3.1.8.5,1.5,1,2.1.6.6,1.4,1,2.2,1.3,1.3.3,2.7.5,4,.5h.3v3.1h-25.1v-3.1h.3c1.7,0,3.1-.2,4.1-.5,1-.3,1.7-.7,2.3-1.3.5-.5.9-1.3,1-2.1.2-.9.3-2,.3-3.3V5.4c0-.3,0-.6-.2-.8,0-.2-.3-.3-.7-.4-.4-.1-1-.2-1.8-.3-2.4-.1-4.7,0-7.1.1-1.2.1-2.3.5-3.2,1.1-1,.7-1.8,1.8-2.2,2.9-.7,1.8-1,3.7-.9,5.6v.3h-2.9L393.3,0h46.3l.5,11.5h14.8v2.5h-.3c-.9,0-1.6.2-2.1.4-.5.2-.8.5-1.1.9-.3.4-.5,1.1-.5,1.9-.1.8-.2,1.9-.2,3.2v18.4c0,1.4,0,2.5.2,3.4,0,.8.3,1.4.6,1.8M481.2,48h0s0,0,0,0h0ZM500.6,43.9c.3.4.8.7,1.3.8h0c.8.2,1.7.2,2.6.3h.3v2.5h-17.2v-2.5h.3c1.1,0,1.9-.1,2.5-.3.6-.2,1-.4,1.4-.8s.5-1,.7-1.8c.1-.8.2-2,.2-3.4v-20.3l-11.5,29.5h-3.7l-11.8-29.4v19.9c0,1.5,0,2.7.2,3.6,0,.7.3,1.3.7,1.9.3.4.8.7,1.3.8.8.2,1.7.3,2.6.3h.3v2.5h-14.2v-2.5h.3c1.1,0,1.9-.1,2.6-.3.6-.2,1.1-.4,1.4-.8.3-.4.5-1,.7-1.8.1-.8.2-2,.2-3.4v-18.4c0-1.3,0-2.3-.2-3.2-.1-.8-.3-1.4-.6-1.9-.3-.4-.7-.8-1.2-.9-.6-.2-1.3-.3-2.3-.3h-.3v-2.5h13.9l10.1,26.4,10-26.4h13.4v2.5h-.3c-.9,0-1.7,0-2.2.3-.5.2-.9.5-1.2.9-.3.5-.5,1.1-.6,2-.1.9-.2,2-.2,3.4v17.8c0,1.5,0,2.7.2,3.6,0,.7.3,1.3.7,1.9M534.1,40.5c.4-1,.9-2.3,1.2-3.8h0s0-.3,0-.3h2.4l-.8,11.2h0s-30.4,0-30.4,0v-2.5h.3c.9,0,1.7-.1,2.3-.3.5-.1,1-.4,1.2-.7.3-.3.5-.8.6-1.4.1-.7.2-1.5.2-2.6v-21.2c0-1,0-1.9-.2-2.5-.1-.6-.3-1.1-.5-1.4-.3-.3-.6-.5-1.1-.7-.5-.1-1.2-.2-2.1-.3h-.3v-2.5h28.4l.3,9.7h-2.5v-.3c-.2-1.2-.5-2.3-.8-3.1-.4-.8-.8-1.4-1.5-1.9-.6-.5-1.5-.8-2.5-1-1-.2-2.3-.3-3.9-.3h-5c-1,0-1.1.2-1.1.2,0,0-.2.3-.2,1.2v11.3c1.7,0,3.1,0,4.2-.2,1.1-.1,1.9-.4,2.5-.7.6-.3,1-.9,1.2-1.5.3-1,.5-1.9.6-2.9v-.3h2.3v14.1h-2.2v-.3c-.2-1.2-.4-2.2-.7-2.9-.3-.7-.7-1.2-1.3-1.5-.6-.4-1.4-.6-2.5-.7-1-.1-2.4-.2-4-.2v9.1c0,.8,0,1.6.4,2.4.2.6.6,1.1,1.1,1.5.7.4,1.4.7,2.2.8.9.2,2.1.3,3.5.3s3.1-.1,4.2-.4c1.1-.2,2-.6,2.7-1.2.7-.6,1.3-1.4,1.7-2.3M562.5,30.3c.9.9,1.6,2,2.1,3.2h0c.4,1.1.7,2.4.7,3.7,0,3.1-1.3,6-3.8,7.8-1.3,1-2.7,1.7-4.2,2.2-1.6.5-3.4.8-5.4.8h0c-1.8,0-3.4-.3-4.9-.8-1.3-.5-2.7-1.2-4.1-2.2l-.8,2.6h-1.6l-.7-12.3h2.3v.3c.3,2.5,1.4,4.9,3.3,6.7,1.7,1.6,3.9,2.4,6.5,2.4,1,0,1.9-.1,2.9-.4.9-.3,1.6-.6,2.2-1.1,1.2-.9,1.9-2.3,1.9-3.8,0-.7-.1-1.3-.3-1.8-.2-.5-.6-1-1.1-1.4-.6-.5-1.4-1-2.5-1.5-1.1-.5-2.5-1.1-4.1-1.8-2.9-1-5.5-2.7-7.7-4.9-1.7-1.9-2.5-4.1-2.5-6.7-.1-4.2,2.6-8,6.6-9.3,2.9-1,6-1,8.9,0,1.2.5,2.4,1.1,3.6,2l.7-2.1h1.6l.5,10.6h-2.3v-.2c-.6-2.1-1.7-4.1-3.3-5.6-1.4-1.3-3.1-1.9-5-1.9-1.5,0-3,.4-4.2,1.3-1.1.9-1.6,2-1.6,3.3,0,.5,0,1.1.3,1.6.2.5.5.9,1,1.3.7.5,1.4,1,2.2,1.4,1,.5,2.2,1,3.7,1.6,2.1.8,3.8,1.7,5.3,2.5,1.3.7,2.6,1.7,3.6,2.8"/>
</svg>