<?xml version="1.0" encoding="UTF-8"?>
<svg id="Layer_1" xmlns="http://www.w3.org/2000/svg" version="1.1" viewBox="0 0 888.2 79.7">
  <!-- Generator: Adobe Illustrator 29.5.0, SVG Export Plug-In . SVG Version: 2.1.0 Build 137)  -->
  <defs>
    <style>
      .st0 {
        fill: #d3000d;
      }

      .st1 {
        fill: #fff;
      }

      .st2 {
        fill: #a50610;
      }

      .st3 {
        fill: #fa0000;
      }
    </style>
  </defs>
  <g>
    <rect class="st2" x="311.8" y="0" width="141.7" height="79.7"/>
    <polygon class="st1" points="355.8 18.3 365.7 18.3 365.7 52.9 409.5 52.9 409.5 61.4 355.8 61.4 355.8 18.3"/>
  </g>
  <g id="middle">
    <rect class="st0" x="155.9" y="0" width="141.7" height="79.7"/>
    <polygon class="st1" points="221.8 26.8 196.9 26.8 196.9 18.3 256.6 18.3 256.6 26.8 231.7 26.8 231.7 61.4 221.8 61.4 221.8 26.8"/>
  </g>
  <g>
    <rect class="st3" y="0" width="141.7" height="79.7"/>
    <path class="st1" d="M40.3,18.3h37.8c11.5,0,17.9,5.2,17.9,13.8s-4.8,12.4-13,13.6l18.5,15.6h-14.2l-17.4-15.1h-19.8v15.1h-9.8s0-43.1,0-43.1ZM76.7,38.3c6.1,0,9-2,9-6s-2.9-5.9-9-5.9h-26.6v11.9h26.6Z"/>
  </g>
  <g>
    <path class="st1" d="M481.9,61.3V18.5h7.8v35.9h22.6v6.8h-30.4Z"/>
    <path class="st1" d="M518.7,61.3V18.5h31.6v6.9h-23.8v10.5h21.9v6.8h-21.9v11.8h23.8v6.8h-31.6ZM525.1,13.3V5.3h7.5v8h-7.5ZM537,13.3V5.3h7.5v8h-7.5Z"/>
    <path class="st1" d="M569.1,61.3V25.3h-13.9v-6.9h35.6v6.9h-13.9v35.9h-7.8Z"/>
    <path class="st1" d="M594.2,61.3v-6.7l24.3-29v-.2h-23.7v-6.9h33.7v6.9l-24.2,28.9v.2h24.5v6.8h-34.7,0Z"/>
    <path class="st1" d="M635.9,61.3V18.5h31.6v6.9h-23.8v10.5h21.9v6.8h-21.9v11.8h23.8v6.8h-31.6Z"/>
    <path class="st1" d="M676.1,61.3V18.5h21.5c7.8,0,12.7,4.3,12.7,11.1s-1.7,7.1-4.8,8.7v.2c4.1,1.7,6.3,5.3,6.3,10.3,0,7.7-5.1,12.3-13.6,12.3h-22.1ZM683.9,35.7h12.2c4.1,0,6.3-1.8,6.3-5.4s-2.1-5-5.9-5h-12.5v10.3h0ZM683.9,54.4h13c4.5,0,7-2.1,7-5.9s-2.5-5.8-7-5.8h-13v11.7Z"/>
    <path class="st1" d="M718.6,44.8v-26.3h7.8v26c0,6.8,3.8,10.5,10.8,10.5s10.8-3.6,10.8-10.5v-26h7.8v26.3c0,10.7-7,17.2-18.6,17.2s-18.6-6.5-18.6-17.2Z"/>
    <path class="st1" d="M765.2,61.3V18.5h31.6v6.9h-23.8v10.5h21.9v6.8h-21.9v11.8h23.8v6.8h-31.6Z"/>
    <path class="st1" d="M842.3,60.7v.6h-8.8l-10.6-15.8h-9.7v15.8h-7.8V18.5h20.7c8.8,0,14.2,5.7,14.2,13.3s-3.5,11.1-9.2,12.8l11.2,16h0ZM813.2,25.3v13.3h12.3c4.3,0,6.8-2.6,6.8-6.8s-2.6-6.5-6.8-6.5c0,0-12.3,0-12.3,0Z"/>
    <path class="st1" d="M846.5,39.9c0-13.5,8.1-22.1,21.6-22.1s18.6,6.1,19.7,15h-7.9c-.9-4.9-5-8-11.8-8s-13.6,5.8-13.6,15.2,4.7,15,13.7,15,11.5-3.9,12.2-9.8h-10.7v-6.8h18.6v4.2c0,11.6-7.6,19.4-20.1,19.4s-21.6-8.6-21.6-22h0Z"/>
  </g>
</svg>