<?xml version="1.0" encoding="UTF-8"?>
<svg id="Layer_1" xmlns="http://www.w3.org/2000/svg" version="1.1" viewBox="0 0 1200 840">
  <!-- Generator: Adobe Illustrator 29.5.0, SVG Export Plug-In . SVG Version: 2.1.0 Build 137)  -->
  <defs>
    <style>
      .st0 {
        fill: #df0d1d;
      }

      .st1 {
        fill: #f08d95;
      }

      .st2 {
        fill: #fefefe;
      }
    </style>
  </defs>
  <path class="st0" d="M2633.9-146.1v836c-399.5.6-799.3.8-1199.4.5-.4-278.9-.3-557.8.4-836.5,399.8-.4,799.4-.4,1199,0Z"/>
  <polygon class="st1" points="2633.9 -147.1 2633.9 -146.1 1434.9 -146.1 2633.9 -147.1"/>
  <polygon class="st2" points="2385.1 -22.3 2385.1 463.2 2503 463.2 2503 570 2248.2 570 2248.2 -22.3 2385.1 -22.3"/>
  <g>
    <path class="st2" d="M1590.7-22.3h184.4c38.5,1.7,105.7,14,128.6,48.2l6.8,11.7V-22.3h325.7v106.9h-91.9v485.4h-134.9V84.6h-77.9c6.1,30.4,5.4,65.5.8,96.2-3.8,25.7-9.9,41-29.8,58.1-12.7,10.9-28,18-42,27,35,14.9,67.1,50.7,70,89.9,3.7,52-3.4,108.6,0,160.9,1.1,17.2,6.6,33.8,18.6,46.3,2.4,2.5,6.2,4.4,8.4,7.1h-130.4c-11.5-11.7-21-28.8-22.5-45.5-4.7-53.3,5.7-114.8-1.1-167.7-3.3-25.8-23.1-51.6-51.3-51.6h-26c-.1,0-1.5,1.4-1.5,1.5v263.2h-133.9V-22.3Z"/>
    <path class="st0" d="M1724.6,214.5V80.6h37.5c9.1,0,23.4,9.9,28.9,17.1,21.2,28.1,19.7,116.8-27.9,116.8h-38.5Z"/>
  </g>
</svg>