<?xml version="1.0" encoding="UTF-8"?>
<svg xmlns="http://www.w3.org/2000/svg" version="1.1" viewBox="0 0 600 600">
  <defs>
    <style>
      .cls-1 {
        fill: #fff;
      }

      .cls-2 {
        fill: #f90000;
      }

      .cls-3 {
        fill: #a2020c;
      }

      .cls-4 {
        fill: #f90101;
      }

      .cls-5 {
        fill: #a40610;
      }

      .cls-6 {
        fill: #fefdfd;
      }

      .cls-7 {
        fill: #fefefe;
      }

      .cls-8 {
        fill: #d2000d;
      }

      .cls-9 {
        fill: #fdfcfc;
      }

      .cls-10 {
        fill: #a2010c;
      }
    </style>
  </defs>
  <!-- Generator: Adobe Illustrator 28.7.6, SVG Export Plug-In . SVG Version: 1.2.0 Build 188)  -->
  <g>
    <g id="Layer_1">
      <rect class="cls-1" x="345" y="338.5" width="9" height="51"/>
      <g>
        <rect class="cls-5" x="401" y="209.5" width="169" height="95"/>
        <polygon class="cls-9" points="465 231.5 465 272.5 517 272.5 517 282.5 454 282.5 454 231.5 465 231.5"/>
        <path class="cls-3" d="M453,283.5l65,.5-62.6.6c-1.3.2-1.6-.3-2.4-1.1Z"/>
        <path class="cls-10" d="M453,283.5c-1-1-.9-1-1.1-2.4-1.7-15.1,1-34.1.6-49.6l.5,52Z"/>
        <rect class="cls-10" x="466" y="231.5" width="1" height="40"/>
      </g>
      <g>
        <rect class="cls-8" x="216" y="209.5" width="168" height="95"/>
        <polygon class="cls-6" points="335 231.5 335 241.5 306 241.5 306 282.5 294 282.5 294 241.5 265 241.5 265 231.5 335 231.5"/>
      </g>
      <g>
        <path class="cls-1" d="M326.9,343.1c-1.1-.8-8.7-4.6-9.4-4.6h-27.5v51h26.5c.4,0,6.3-2.4,7.2-2.8,15.1-7.7,16.6-33.8,3.3-43.6h-.1ZM313.5,381.5h-14.5v-35h15.5c7.1,0,12.5,11.2,12.5,17.5s-5.5,17.5-13.5,17.5Z"/>
        <path class="cls-1" d="M384.8,337.8c-31.4,4.6-27.5,56.3,8.6,52.6,33.4-3.4,29.9-58.3-8.6-52.6ZM395.3,381.3c-28.7,5.3-29.2-34.3-6.5-35.5,23.1-1.3,23.3,32.5,6.5,35.5Z"/>
        <path class="cls-1" d="M250.5,339.5l-19.5,50c11.9,1.8,10.6-2.1,14.7-11,3.4.6,21.4-.9,22.5.6,4.5,6.5-.5,12.7,13.9,10.4l-19.1-50.9c-2.9.2-10.7-1.2-12.4.9h-.1ZM249,370.5c0-2.7,6.3-22,7.5-22,3,7,6.5,14.4,7.5,22h-15Z"/>
        <path class="cls-1" d="M221.5,365.5c7.6-7.9,3.3-25-8-27-8.4-1.5-20.7,1.1-29.5,0v51h9v-19c3.1.5,9.5-1,12,.5,2.6,1.6,9.4,16.4,12,18,2.4,1.4,8.1,0,11,.5l-12.9-18.6c-.5-2,4.7-3.5,6.5-5.4h-.1ZM210.5,362.5h-17.5v-16h17.5c7,0,7,16,0,16Z"/>
      </g>
      <g>
        <rect class="cls-2" x="30" y="209.5" width="169" height="95"/>
        <g>
          <path class="cls-7" d="M128.5,231.5c7.1,1,14.6,5.8,15.5,13.5s-3.1,15.5-12.5,18.5c-.7.2-2.2-.4-1.5,1.5,1.4,3.5,17.3,13,20,17.5h-16.5c-1.4,0-18.9-18-21-18h-22.5v18h-12v-51h50.5Z"/>
          <path class="cls-4" d="M90,255.5v-14h37.5c3.9,0,6.5,7.8,3.1,11.1s-5.6,2.9-6.1,2.9h-34.5Z"/>
        </g>
      </g>
    </g>
  </g>
</svg>