<?xml version="1.0" encoding="UTF-8"?>
<svg xmlns="http://www.w3.org/2000/svg" viewBox="0 0 610.35 147.1">
  <defs>
    <style>
      .cls-1, .cls-2, .cls-3 {
        fill: #b3a39c;
      }

      .cls-4 {
        isolation: isolate;
      }

      .cls-5 {
        fill: #8e1a1f;
        stroke: #8e1a1f;
      }

      .cls-5, .cls-3 {
        stroke-miterlimit: 10;
        stroke-width: 2px;
      }

      .cls-2 {
        mix-blend-mode: multiply;
      }

      .cls-3 {
        stroke: #b3a39c;
      }

      .cls-6 {
        fill: #bf2f38;
      }

      .cls-7 {
        fill: #9f2214;
      }
    </style>
  </defs>
  <g class="cls-4">
    <g id="Layer_2" data-name="Layer 2">
      <g id="Calque_1" data-name="Calque 1">
        <g>
          <g>
            <path class="cls-7" d="M36.59,128.79c0,10.1-8.19,18.3-18.29,18.3S0,138.9,0,128.79s8.19-18.3,18.3-18.3,18.29,8.19,18.29,18.3Z"/>
            <circle class="cls-1" cx="73.19" cy="128.79" r="18.3"/>
            <path class="cls-1" d="M146.37,73.91c0,10.1-8.19,18.29-18.3,18.29s-18.29-8.19-18.29-18.29,8.19-18.3,18.29-18.3,18.3,8.19,18.3,18.3Z"/>
            <path class="cls-1" d="M91.48,19.01c0,10.1-8.19,18.3-18.3,18.3s-18.3-8.19-18.3-18.3S63.08.72,73.19.72s18.3,8.19,18.3,18.3Z"/>
            <path class="cls-6" d="M146.37,19.01c0,10.1-8.19,18.3-18.3,18.3s-18.29-8.19-18.29-18.3S117.97.72,128.08.72s18.3,8.19,18.3,18.3Z"/>
            <path class="cls-1" d="M36.59,73.91c0,10.1-8.19,18.29-18.29,18.29S0,84.01,0,73.91s8.19-18.3,18.3-18.3,18.29,8.19,18.29,18.3Z"/>
            <path class="cls-6" d="M36.59,128.79c0,10.1-8.19,18.3-18.29,18.3S0,138.9,0,128.79s8.19-18.3,18.3-18.3,18.29,8.19,18.29,18.3Z"/>
            <path class="cls-6" d="M73.19,55.62c-20.21,0-36.59-16.38-36.59-36.59h0C36.59,8.91,28.4.72,18.3.72S0,8.91,0,19.01s8.19,18.3,18.3,18.3h0c20.21,0,36.59,16.38,36.59,36.59h0c0,10.11,8.19,18.3,18.3,18.3s18.3-8.19,18.3-18.29-8.19-18.3-18.3-18.3h0Z"/>
            <path class="cls-2" d="M128.09,110.51c-20.21,0-36.59-16.38-36.59-36.59h0c0-10.11-8.19-18.3-18.3-18.3s-18.3,8.19-18.3,18.3,8.19,18.29,18.3,18.29h0c20.21,0,36.6,16.38,36.6,36.59h-.01c0,10.12,8.19,18.3,18.3,18.3s18.29-8.19,18.29-18.29-8.19-18.3-18.29-18.3h0Z"/>
          </g>
          <g>
            <path class="cls-5" d="M181.28,1.47v33.17h-4.42V1.47h4.42Z"/>
            <path class="cls-5" d="M216.52,1.47v33.17h-4.32l-17.34-26.17.19,26.17h-4.46V1.47h4.42l17.43,26.17-.19-26.17h4.28Z"/>
            <path class="cls-5" d="M232.54,18.62c-2.82-.85-3.62-1.13-4.65-1.79-1.5-.94-3.38-3.1-3.38-6.72,0-1.41.28-2.77.85-3.95,1.83-3.81,5.73-5.17,10.24-5.17,4.75,0,8.32,1.27,10.43,4.93,1.08,1.93,1.22,3.48,1.36,4.7l-4.37.56c-.09-.85-.23-2.44-1.27-3.85-1.83-2.58-4.98-2.58-6.2-2.58-3.9,0-6.3,1.88-6.3,5.03s2.07,3.62,4.7,4.42c.38.09,3.01.85,4.75,1.36,3.29,1.03,9.07,2.87,9.07,9.82s-6.3,9.68-12.03,9.68c-1.74,0-3.34-.24-4.75-.61-2.49-.66-5.17-1.93-6.86-5.26-1.03-2.07-1.17-3.66-1.32-5.03l4.56-.61c.14,1.27.28,2.96,1.5,4.6,2.11,2.96,5.59,3.05,7.28,3.05,5.59,0,7-3.43,7-5.5,0-3.81-3.38-4.93-7.42-6.15l-3.19-.94Z"/>
            <path class="cls-5" d="M274.45,5.51h-9.91v29.13h-4.42V5.51h-9.96V1.47h24.29v4.04Z"/>
            <path class="cls-5" d="M283.14,1.47v33.17h-4.42V1.47h4.42Z"/>
            <path class="cls-5" d="M311.66,5.51h-9.91v29.13h-4.42V5.51h-9.96V1.47h24.29v4.04Z"/>
            <path class="cls-5" d="M340.93,1.47v19.78c0,2.82-.05,5.68-1.27,8.17-2.35,4.84-7.61,5.64-10.9,5.64-1.6,0-3.24-.19-4.79-.56-2.07-.52-5.59-1.74-7.19-6.01-.8-2.07-.94-3.85-.94-11.79V1.47h4.56v17.99c0,4.6,0,7.28,1.83,9.3,1.08,1.17,3.15,2.21,6.11,2.21,2.54,0,5.07-.66,6.58-2.68,1.55-2.02,1.55-4.65,1.55-9.63V1.47h4.46Z"/>
            <path class="cls-5" d="M369.45,5.51h-9.91v29.13h-4.42V5.51h-9.96V1.47h24.29v4.04Z"/>
            <path class="cls-5" d="M413.38,1.47v33.17h-4.32l-17.34-26.17.19,26.17h-4.46V1.47h4.42l17.43,26.17-.19-26.17h4.28Z"/>
            <path class="cls-5" d="M438.47,24.58h-12.59l-3.62,10.05h-4.7l12.36-33.17h4.42l12.5,33.17h-4.6l-3.76-10.05ZM437.06,20.83l-4.93-13.44-4.89,13.44h9.82Z"/>
            <path class="cls-5" d="M468.4,5.51h-9.91v29.13h-4.42V5.51h-9.96V1.47h24.29v4.04Z"/>
            <path class="cls-5" d="M477.09,1.47v33.17h-4.42V1.47h4.42Z"/>
            <path class="cls-5" d="M512.24,29.89c-4.04,4.79-9.16,5.17-12.03,5.17-3.43,0-8.17-.61-12.07-5.5-3.15-3.99-3.66-8.46-3.66-11.51,0-10.29,6.58-16.91,15.74-16.91,7.7,0,15.97,4.56,15.97,16.82,0,2.26-.23,7.56-3.95,11.93ZM505.19,30.22c1.55-.75,2.87-1.93,3.81-3.29,1.79-2.58,2.54-6.48,2.54-9.26,0-7.14-3.99-12.73-11.28-12.73-2.49,0-5.87.61-8.55,4.28-2.3,3.1-2.58,6.58-2.58,8.64,0,7.94,3.99,13.39,11.18,13.39,1.69,0,3.38-.33,4.89-1.03Z"/>
            <path class="cls-5" d="M549.54,1.47v33.17h-4.32l-17.34-26.17.19,26.17h-4.46V1.47h4.42l17.43,26.17-.19-26.17h4.28Z"/>
            <path class="cls-5" d="M574.63,24.58h-12.59l-3.62,10.05h-4.7l12.36-33.17h4.42l12.5,33.17h-4.6l-3.76-10.05ZM573.22,20.83l-4.93-13.44-4.89,13.44h9.82Z"/>
            <path class="cls-5" d="M591.64,30.6h17.71v4.04h-22.13V1.47h4.42v29.13Z"/>
            <path class="cls-5" d="M176.86,56.38h12.12c2.21.05,8.22.19,11.98,5.45,1.69,2.44,2.82,6.11,2.82,10.81,0,4.18-.94,8.64-3.24,11.65-4.04,5.31-10.19,5.26-16.49,5.26h-7.19v-33.17ZM181.28,60.28v25.32h2.82c6.06.05,10.1.05,12.87-3.99,1.83-2.58,2.26-6.62,2.26-9.07,0-6.77-2.82-10.2-6.15-11.46-1.88-.75-3.76-.75-8.69-.8h-3.1Z"/>
            <path class="cls-5" d="M215.53,85.56h18.93v3.99h-23.35v-33.17h22.79v4.18h-18.37v10.05h17.34v3.95h-17.34v10.99Z"/>
            <path class="cls-5" d="M248.18,73.53c-2.82-.85-3.62-1.13-4.65-1.79-1.5-.94-3.38-3.1-3.38-6.72,0-1.41.28-2.77.85-3.95,1.83-3.81,5.73-5.17,10.24-5.17,4.75,0,8.32,1.27,10.43,4.93,1.08,1.93,1.22,3.48,1.36,4.7l-4.37.56c-.09-.85-.23-2.44-1.27-3.85-1.83-2.58-4.98-2.58-6.2-2.58-3.9,0-6.3,1.88-6.3,5.03s2.07,3.62,4.7,4.42c.38.09,3.01.85,4.75,1.36,3.29,1.03,9.07,2.87,9.07,9.82s-6.3,9.68-12.03,9.68c-1.74,0-3.34-.24-4.75-.61-2.49-.66-5.17-1.93-6.86-5.26-1.03-2.07-1.17-3.66-1.32-5.03l4.56-.61c.14,1.27.28,2.96,1.5,4.6,2.11,2.96,5.59,3.05,7.28,3.05,5.59,0,7-3.43,7-5.5,0-3.81-3.38-4.93-7.42-6.15l-3.19-.94Z"/>
            <path class="cls-5" d="M287.98,85.51h17.71v4.04h-22.13v-33.17h4.42v29.13Z"/>
            <path class="cls-5" d="M328.2,79.5h-12.59l-3.62,10.05h-4.7l12.36-33.17h4.42l12.5,33.17h-4.6l-3.76-10.05ZM326.79,75.74l-4.93-13.44-4.89,13.44h9.82Z"/>
            <path class="cls-5" d="M366.72,56.38v33.17h-4.32l-17.34-26.17.19,26.17h-4.46v-33.17h4.42l17.43,26.17-.19-26.17h4.28Z"/>
            <path class="cls-5" d="M403.84,72.4v17.15h-3.57l-.28-4.32c-2.73,3.81-7.38,4.75-10.81,4.75-9.49,0-15.08-7.05-15.08-16.82s5.07-17.24,15.88-17.24c1.74,0,5.73.14,9.07,2.63,3.76,2.87,4.56,7.05,4.89,8.74l-4.56.28c-.7-4.32-3.85-7.7-9.63-7.7-6.11,0-10.95,4.04-10.95,13.34,0,8.36,4.84,12.97,10.99,12.97,5.64,0,9.73-3.81,10.2-9.96h-10.48v-3.81h14.33Z"/>
            <path class="cls-5" d="M437.25,56.38v19.78c0,2.82-.05,5.68-1.27,8.17-2.35,4.84-7.61,5.64-10.9,5.64-1.6,0-3.24-.19-4.79-.56-2.07-.52-5.59-1.74-7.19-6.01-.8-2.07-.94-3.85-.94-11.79v-15.22h4.56v17.99c0,4.6,0,7.28,1.83,9.3,1.08,1.17,3.15,2.21,6.11,2.21,2.54,0,5.07-.66,6.58-2.68,1.55-2.02,1.55-4.65,1.55-9.63v-17.19h4.46Z"/>
            <path class="cls-5" d="M450.97,85.56h18.93v3.99h-23.35v-33.17h22.79v4.18h-18.37v10.05h17.34v3.95h-17.34v10.99Z"/>
            <path class="cls-5" d="M483.62,73.53c-2.82-.85-3.62-1.13-4.65-1.79-1.5-.94-3.38-3.1-3.38-6.72,0-1.41.28-2.77.85-3.95,1.83-3.81,5.73-5.17,10.24-5.17,4.75,0,8.32,1.27,10.43,4.93,1.08,1.93,1.22,3.48,1.36,4.7l-4.37.56c-.09-.85-.23-2.44-1.27-3.85-1.83-2.58-4.98-2.58-6.2-2.58-3.9,0-6.3,1.88-6.3,5.03s2.07,3.62,4.7,4.42c.38.09,3.01.85,4.75,1.36,3.29,1.03,9.07,2.87,9.07,9.82s-6.3,9.68-12.03,9.68c-1.74,0-3.34-.24-4.75-.61-2.49-.66-5.17-1.93-6.86-5.26-1.03-2.07-1.17-3.66-1.32-5.03l4.56-.61c.14,1.27.28,2.96,1.5,4.6,2.11,2.96,5.59,3.05,7.28,3.05,5.59,0,7-3.43,7-5.5,0-3.81-3.38-4.93-7.42-6.15l-3.19-.94Z"/>
            <path class="cls-3" d="M181.17,140.42h17.71v4.04h-22.13v-33.17h4.42v29.13Z"/>
            <path class="cls-3" d="M229.75,111.3v19.78c0,2.82-.05,5.68-1.27,8.17-2.35,4.84-7.61,5.64-10.9,5.64-1.6,0-3.24-.19-4.79-.56-2.07-.52-5.59-1.74-7.19-6.01-.8-2.07-.94-3.85-.94-11.79v-15.22h4.56v17.99c0,4.6,0,7.28,1.83,9.3,1.08,1.17,3.15,2.21,6.11,2.21,2.54,0,5.07-.66,6.58-2.68,1.55-2.02,1.55-4.65,1.55-9.63v-17.19h4.46Z"/>
            <path class="cls-3" d="M253.11,127.13l12.31,17.34h-5.36l-9.58-13.86-9.44,13.86h-5.5l12.22-17.34-11.28-15.83h5.5l8.5,12.36,8.55-12.36h5.45l-11.37,15.83Z"/>
            <path class="cls-3" d="M275.61,140.47h18.93v3.99h-23.35v-33.17h22.79v4.18h-18.37v10.05h17.34v3.95h-17.34v10.99Z"/>
            <path class="cls-3" d="M332.14,111.3v33.17h-4.37l.56-26.92-10.43,26.92h-3.38l-10.29-27.39.47,27.39h-4.37v-33.17h5.59l10.43,26.73,10.34-26.73h5.45Z"/>
            <path class="cls-3" d="M337.92,111.3h12.12c3.01,0,6.62.19,8.93,2.4,1.6,1.5,2.26,3.66,2.26,5.83,0,4.7-2.77,6.72-5.17,7.38,1.36.33,3.19.85,4.65,2.73.99,1.32,1.64,3.15,1.64,5.36,0,2.91-1.17,5.4-2.77,6.86-2.73,2.54-6.44,2.54-12.64,2.63h-9.02v-33.17ZM342.38,125.06h5.07c3.29,0,5.59,0,7.19-.75,1.55-.7,2.21-2.63,2.21-4.13,0-4.37-2.87-5.07-7.99-5.07h-6.48v9.96ZM342.38,140.57h5.83c2.44,0,5.31,0,7.14-1.13,1.22-.7,2.54-2.25,2.54-4.74,0-1.79-.7-3.34-1.79-4.23-1.79-1.6-4.09-1.55-8.74-1.5h-4.98v11.6Z"/>
            <path class="cls-3" d="M395.9,139.72c-4.04,4.79-9.16,5.17-12.03,5.17-3.43,0-8.17-.61-12.07-5.5-3.15-3.99-3.66-8.46-3.66-11.51,0-10.29,6.58-16.91,15.74-16.91,7.7,0,15.97,4.56,15.97,16.82,0,2.26-.23,7.56-3.95,11.93ZM388.85,140.05c1.55-.75,2.87-1.93,3.81-3.29,1.79-2.58,2.54-6.48,2.54-9.26,0-7.14-3.99-12.73-11.28-12.73-2.49,0-5.87.61-8.55,4.28-2.3,3.1-2.58,6.58-2.58,8.64,0,7.94,3.99,13.39,11.18,13.39,1.69,0,3.38-.33,4.89-1.03Z"/>
            <path class="cls-3" d="M430.71,111.3v19.78c0,2.82-.05,5.68-1.27,8.17-2.35,4.84-7.61,5.64-10.9,5.64-1.6,0-3.24-.19-4.79-.56-2.07-.52-5.59-1.74-7.19-6.01-.8-2.07-.94-3.85-.94-11.79v-15.22h4.56v17.99c0,4.6,0,7.28,1.83,9.3,1.08,1.17,3.15,2.21,6.11,2.21,2.54,0,5.07-.66,6.58-2.68,1.55-2.02,1.55-4.65,1.55-9.63v-17.19h4.46Z"/>
            <path class="cls-3" d="M440.87,144.47h-4.37v-33.17h13.11c6.77,0,11.46,2.4,11.46,9.35,0,4.28-2.21,7.33-6.11,8.13,1.74.28,3.95.8,4.89,4.93.19.8.8,4.7.99,5.59.8,3.81,1.74,4.65,2.3,5.17h-5.45c-1.17-1.74-1.27-2.77-2.11-8.41-.56-3.76-1.46-5.36-7.7-5.36h-7v13.77ZM440.87,126.99h6.67c3.76.05,7.09.05,8.5-3.34.33-.85.47-1.74.47-2.63,0-5.12-3.95-5.83-9.16-5.83h-6.48v11.79Z"/>
            <path class="cls-3" d="M498.66,127.32v17.15h-3.57l-.28-4.32c-2.73,3.81-7.38,4.75-10.81,4.75-9.49,0-15.08-7.05-15.08-16.82s5.07-17.24,15.88-17.24c1.74,0,5.73.14,9.07,2.63,3.76,2.87,4.56,7.05,4.89,8.74l-4.56.28c-.7-4.32-3.85-7.7-9.63-7.7-6.11,0-10.95,4.04-10.95,13.34,0,8.36,4.84,12.97,10.99,12.97,5.64,0,9.73-3.81,10.2-9.96h-10.48v-3.81h14.33Z"/>
          </g>
        </g>
      </g>
    </g>
  </g>
</svg>