<svg xmlns="http://www.w3.org/2000/svg" width="214.126" height="93.041" viewBox="0 0 214.126 93.041">
    <defs>
        <clipPath id="clip-path">
            <rect id="Rectangle_41" width="214.126" height="93.041" fill="none"/>
        </clipPath>
    </defs>
    <g id="Group_1" clip-path="url(#clip-path)">
        <path id="Path_1" d="M160.892,58.026v-.413h2.9v.265a1.176,1.176,0,1,0,2.335,0V51.136h2.9v6.89a4.069,4.069,0,0,1-8.127,0" transform="translate(-55.254 -17.403)" fill="#096"/>
        <path id="Path_2" d="M181.21,61.749a5.512,5.512,0,1,1,5.731-5.507,5.426,5.426,0,0,1-5.731,5.507m0-2.688a2.82,2.82,0,1,0-2.755-2.819,2.683,2.683,0,0,0,2.755,2.819" transform="translate(-60.258 -17.266)" fill="#096"/>
        <path id="Path_3" d="M204.629,51.136V61.621h-2.377l-4.146-5.69v5.69H195.32V51.136h2.516l4.007,5.5v-5.5Z" transform="translate(-67.078 -17.403)" fill="#096"/>
        <path id="Path_4" d="M218.617,61.62l-2.993-4.632V61.62h-2.875V51.135h2.875v4.42l2.758-4.42h3.334l-3.342,5.079,3.653,5.406Z" transform="translate(-73.063 -17.403)" fill="#096"/>
        <path id="Path_5" d="M28.134,83.24v2.505h-6.8V75.261h6.677v2.5H24.193V79.3h3.427v2.37H24.193V83.24Z" transform="translate(-7.325 -25.613)" fill="#096"/>
        <path id="Path_6" d="M43.791,75.261V85.746H41.413l-4.146-5.69v5.69H34.481V75.261H37l4.007,5.5v-5.5Z" transform="translate(-11.842 -25.613)" fill="#096"/>
        <path id="Path_7" d="M58.936,77.862H56.1v7.884H53.214V77.862H50.379v-2.6h8.557Z" transform="translate(-17.301 -25.613)" fill="#096"/>
        <path id="Path_8" d="M69.014,82.537H67.971v3.208H65.1V75.261h4.522a3.649,3.649,0,0,1,3.88,3.711,3.36,3.36,0,0,1-1.656,2.961l2.072,3.813H70.707ZM67.971,80.1h1.313a1.145,1.145,0,1,0,0-2.277H67.971Z" transform="translate(-22.356 -25.613)" fill="#096"/>
        <path id="Path_9" d="M87.328,83.24v2.505h-6.8V75.261H87.2v2.5H83.388V79.3h3.427v2.37H83.388V83.24Z" transform="translate(-27.654 -25.613)" fill="#096"/>
        <path id="Path_10" d="M101.985,79.049a3.722,3.722,0,0,1-3.866,3.8H96.557v2.9H93.676V75.261h4.443a3.712,3.712,0,0,1,3.866,3.788m-2.955.007a1.2,1.2,0,0,0-1.255-1.273H96.557v2.544h1.217a1.2,1.2,0,0,0,1.255-1.272" transform="translate(-32.171 -25.613)" fill="#096"/>
        <path id="Path_11" d="M112.159,82.537h-1.042v3.208h-2.874V75.261h4.522a3.649,3.649,0,0,1,3.88,3.711,3.36,3.36,0,0,1-1.657,2.961l2.072,3.813h-3.209ZM111.117,80.1h1.313a1.145,1.145,0,1,0,0-2.277h-1.313Z" transform="translate(-37.173 -25.613)" fill="#096"/>
        <path id="Path_12" d="M130.474,83.24v2.505h-6.8V75.261h6.677v2.5h-3.815V79.3h3.427v2.37h-3.427V83.24Z" transform="translate(-42.472 -25.613)" fill="#096"/>
        <path id="Path_13" d="M146.131,75.261V85.746h-2.378l-4.146-5.69v5.69h-2.786V75.261h2.517l4.007,5.5v-5.5Z" transform="translate(-46.988 -25.613)" fill="#096"/>
        <path id="Path_14" d="M161.054,83.24v2.505h-6.8V75.261h6.677v2.5h-3.815V79.3h3.427v2.37h-3.427V83.24Z" transform="translate(-52.974 -25.613)" fill="#096"/>
        <path id="Path_15" d="M167.113,81.69V75.261h2.938v6.374a1.619,1.619,0,1,0,3.234,0V75.261h2.938V81.69a4.562,4.562,0,0,1-9.111,0" transform="translate(-57.391 -25.613)" fill="#096"/>
        <path id="Path_16" d="M188.017,82.537h-1.042v3.208H184.1V75.261h4.522a3.649,3.649,0,0,1,3.88,3.711,3.36,3.36,0,0,1-1.657,2.961l2.072,3.813h-3.209ZM186.975,80.1h1.313a1.145,1.145,0,1,0,0-2.277h-1.313Z" transform="translate(-63.225 -25.613)" fill="#096"/>
        <path id="Path_17" d="M206.333,83.24v2.505h-6.8V75.261h6.677v2.5h-3.815V79.3h3.427v2.37h-3.427V83.24Z" transform="translate(-68.523 -25.613)" fill="#096"/>
        <path id="Path_18" d="M221.99,75.261V85.746h-2.377l-4.146-5.69v5.69h-2.786V75.261H215.2l4.007,5.5v-5.5Z" transform="translate(-73.04 -25.613)" fill="#096"/>
        <path id="Path_19" d="M78.653,108.267v1.6H72.6V99.387h1.712v8.88Z" transform="translate(-24.934 -33.824)" fill="#8cc341"/>
        <path id="Path_20" d="M83.487,105.949V99.387H85.21v6.458a2.467,2.467,0,1,0,4.931,0V99.387h1.724v6.562a4.189,4.189,0,0,1-8.377,0" transform="translate(-28.672 -33.824)" fill="#8cc341"/>
        <path id="Path_21" d="M105.03,109.871l-2.533-4.092-2.529,4.092H98.031l3.416-5.5-3.169-4.988H100.2l2.292,3.682,2.282-3.682h1.9l-3.142,5.048,3.417,5.436Z" transform="translate(-33.666 -33.824)" fill="#8cc341"/>
        <path id="Path_22" d="M119.907,108.245v1.626h-6.224V99.386h6.06V101H115.4v2.738h3.96v1.577H115.4v2.932Z" transform="translate(-39.042 -33.824)" fill="#8cc341"/>
        <path id="Path_23" d="M136.582,109.871l-1.214-7.6-3.393,7.438h-.437l-3.395-7.433-1.223,7.595h-1.746l1.706-10.485h1.685l3.182,7.13,3.2-7.13h1.706l1.68,10.485Z" transform="translate(-42.988 -33.824)" fill="#8cc341"/>
        <path id="Path_24" d="M154.118,104.408a2.7,2.7,0,0,1,1.483,2.525,3.054,3.054,0,0,1-3.214,2.938H148.1V99.387h4.2a2.8,2.8,0,0,1,3.027,2.7,2.827,2.827,0,0,1-1.215,2.325Zm-.492-2.075a1.356,1.356,0,0,0-1.425-1.364h-2.41V103.7h2.41a1.356,1.356,0,0,0,1.425-1.364m-1.333,5.893a1.484,1.484,0,1,0,0-2.963h-2.5v2.963Z" transform="translate(-50.862 -33.824)" fill="#8cc341"/>
        <path id="Path_25" d="M167.1,109.967a5.44,5.44,0,1,1,5.5-5.44,5.333,5.333,0,0,1-5.5,5.44m3.755-5.44a3.759,3.759,0,1,0-3.755,3.783,3.675,3.675,0,0,0,3.755-3.783" transform="translate(-55.496 -33.722)" fill="#8cc341"/>
        <path id="Path_26" d="M181.129,105.949V99.387h1.724v6.458a2.467,2.467,0,1,0,4.931,0V99.387h1.723v6.562a4.189,4.189,0,0,1-8.377,0" transform="translate(-62.204 -33.824)" fill="#8cc341"/>
        <path id="Path_27" d="M201.417,105.991h-1.98v3.88h-1.712V99.387h4.062a3.308,3.308,0,0,1,3.505,3.317,3.184,3.184,0,0,1-2.121,3.046l2.41,4.122H203.66Zm-1.98-1.611h2.249a1.7,1.7,0,1,0,0-3.382h-2.249Z" transform="translate(-67.904 -33.824)" fill="#8cc341"/>
        <path id="Path_28" d="M221.9,104.452c-.043,3.214-2.2,5.521-5.267,5.521a5.435,5.435,0,0,1-.034-10.867,5.089,5.089,0,0,1,5.146,3.89h-1.766a3.409,3.409,0,0,0-3.346-2.226,3.774,3.774,0,0,0,0,7.539,3.379,3.379,0,0,0,3.41-2.371h-3.72v-1.486Z" transform="translate(-72.562 -33.728)" fill="#8cc341"/>
        <path id="Path_29" d="M247.5,59.679V51.134H235.122V93.448L253.11,66.027V51.134Z" transform="translate(-80.747 -17.402)" fill="#8cc341"/>
        <path id="Path_30" d="M290.276,28.542H272.3l-9.776,14.9h9.77l-9.77,14.893V70.856Z" transform="translate(-90.156 -9.714)" fill="#8cc341"/>
        <path id="Path_31" d="M262.519,51.134h0V66.027l9.77-14.893Z" transform="translate(-90.156 -17.402)" fill="#096"/>
        <path id="Path_32" d="M259.587,26.088h9.777l3.121-4.757h-18.5v19.66h5.605Z" transform="translate(-87.224 -7.26)" fill="#8cc341"/>
        <path id="Path_33" d="M259.587,51.134h-5.605v8.545Z" transform="translate(-87.224 -17.402)" fill="#096"/>
        <path id="Path_34" d="M262.519,43.446h0l9.777-14.9h-9.777Z" transform="translate(-90.156 -9.714)" fill="#096"/>
    </g>
</svg>