<?xml version="1.0" encoding="UTF-8"?>
<svg id="Layer_2" data-name="Layer 2" xmlns="http://www.w3.org/2000/svg" viewBox="0 0 176.88 45.12">
  <defs>
    <style>
      .cls-1 {
        fill: #199dcd;
      }

      .cls-2 {
        fill: #ed7525;
      }

      .cls-3 {
        fill: #58b14b;
      }

      .cls-4 {
        fill: #1e1d1c;
      }

      .cls-5 {
        fill: #f7b223;
      }

      .cls-6 {
        fill: #fefefd;
      }

      .cls-7 {
        fill: #262523;
      }
    </style>
  </defs>
  <g id="Layer_1-2" data-name="Layer 1">
    <g>
      <path class="cls-6" d="M29,45.12H0V0h176.88v45.12h-7.91c.43-.63,1.39-.78,1.97-1.2,2.43-1.77,3.35-5.2,3.3-8.11h-7.91v2.86h4.31c-1.49,5.13-8.66,4.88-10.18-.25-1.94-6.54,5.81-11.14,9.84-5.47l2.97-1.46c-1.99-4.21-7.76-5.06-11.74-3.22-6.85,3.17-6.4,13.89.48,16.83h-5.75l-.33-1.11-4.7-6.17c3.66-.84,5.03-5.05,2.83-8.08-.44-.61-2.26-1.82-2.95-1.82h-7.07v17.19h-3.36v-3.1h-6.23v-4.54h5.99v-2.86h-5.99v-3.82h6.23v-2.86h-9.59v17.19h-3.83v-17.19h-3.36v17.19h-7.67c1.1-.48,2.36-.77,3.24-1.66,2.37-2.39,1.48-7.06-2.04-7.65.18-.45.99-.74,1.2-1.12.87-1.54.51-4.67-.91-5.8-.24-.19-1.86-.95-2.1-.95h-6.59v17.19h-2.88v-3.1h-7.91l8.15-14.09h-12.7v2.86h6.95l-8.15,14.32h-2.64v-17.19h-3.36v17.19h-1.68l-7.1-17.2-2.93.05c-2.33,4.97-4.16,10.38-6.58,15.29-.16.32-.66,1.7-1.12,1.38l-4.8-6.8c3.45-.99,5.01-4.86,2.88-7.88-.47-.67-2.2-2.03-3-2.03h-7.07v17.19h-2.16l-7.46-9.19.26-.73,6.72-7.27h-4.19c-.47,0-5.27,6.32-6.35,6.92v-6.92h-3.36v17.19h-7.67v-4.05c-2.52-.32-4.6-.84-6.56-2.44-1.54-1.26-3.75-4.56-3.75-6.53V.48h-4.07v32.35c0,2.12,2.71,6.82,4.34,8.31,2.33,2.14,5.11,3.17,8.12,3.98ZM8.39.48h-4.07v24.71c0,1.63-2.38,3.8-4.07,3.46v4.06c1.98.04,3.9-.62,5.38-1.92,1-.87,2.76-3.64,2.76-4.89V.48ZM14.62.48h-4.31v26.14c0,1.33-1.99,4.4-3,5.37-1.81,1.73-4.56,2.9-7.07,2.87v4.06c5.21.1,10.46-3.11,12.74-7.72.78-1.57,1.64-4.33,1.64-6.01V.48ZM26.84.48h-4.31v30.44c0,1.9,1.29,4.6,2.74,5.86,1.66,1.44,3.46,2.03,5.65,2.14v-4.06c-.73-.11-1.96-.43-2.56-.8-.31-.19-1.52-2.03-1.52-2.18V.48ZM116.72,20.05l-7.43-17.9-6.95,17.9c.31-.05.96.11,1.17-.03.25-.17,2.04-4.93,2.21-5.67,1,.08,7.19-.24,7.43.12.42.79,1.81,5.24,2.17,5.55.19.17,1.06-.02,1.4.04ZM63.19,17.58c2.66-2.86,2.99-8.01.76-11.22-5.62-8.07-18.95-2.65-16.17,7.75,1.72,6.46,10.92,8.29,15.42,3.46ZM68.79,2.63v17.43h1.2V5.49l14.38,14.8V2.86s-.96-.05-.96,0v14.8l-14.62-15.04ZM148.69,17.28c7.7-8.76-5.07-20.19-13.19-12.18-8.63,8.51,5.01,21.49,13.19,12.18ZM154.35,2.63v17.43h1.2V5.73l14.38,14.56V2.86h-1.2v14.56l-14.38-14.8ZM46.02,2.86c-.25-.26-6.27.2-7.19,0v17.19h1.2v-9.07h5.99s.05-.95,0-.95h-5.99V3.82h5.99s.03-.92,0-.95ZM94.79,2.86c-1.63-.31-4.13.23-5.87,0v17.19h5.15c.43,0,2.18-.68,2.68-.91,7.06-3.27,5.5-14.87-1.96-16.28ZM125.83,2.86h-10.07s-.05.95,0,.95h4.55v16.23h1.2V3.82h4.31s-.03-.78,0-.95ZM129.66,2.86h-1.2v17.19h1.2V2.86Z"/>
      <path class="cls-4" d="M55.13,45.12v-17.19h7.07c.8,0,2.53,1.36,3,2.03,2.14,3.02.58,6.89-2.88,7.88l4.8,6.8c.46.31.97-1.06,1.12-1.38,2.42-4.91,4.25-10.32,6.58-15.29l2.93-.05,7.1,17.2h-3.6c-.57-.71-1.14-3.21-1.65-3.67s-5.83,0-6.95-.13l-1.46,3.8h-7.91l-4.67-7.16-.12,7.16h-3.36ZM58.48,30.56v5.01c5.44.83,5.44-5.61,0-5.01ZM78.61,38.67l-2.16-5.97c-.34.03-.37.35-.48.59-.82,1.73-1.45,3.6-2.15,5.38h4.79Z"/>
      <path class="cls-2" d="M29,45.12c-3.01-.81-5.79-1.84-8.12-3.98-1.63-1.5-4.34-6.19-4.34-8.31V.48h4.07v31.63c0,1.97,2.2,5.27,3.75,6.53,1.96,1.59,4.04,2.12,6.55,2.44v4.05s-1.91,0-1.91,0Z"/>
      <path class="cls-4" d="M162.02,45.12c-6.87-2.94-7.33-13.66-.48-16.83,3.99-1.85,9.75-.99,11.74,3.22l-2.97,1.46c-4.04-5.67-11.78-1.08-9.84,5.47,1.52,5.12,8.69,5.37,10.18.25h-4.31v-2.86h7.91c.05,2.91-.87,6.33-3.3,8.11-.59.43-1.54.57-1.97,1.2h-6.95Z"/>
      <path class="cls-4" d="M109.05,45.12v-17.19h6.59c.24,0,1.85.76,2.1.95,1.41,1.13,1.77,4.26.91,5.8-.22.38-1.02.67-1.2,1.12,3.53.59,4.42,5.26,2.04,7.65-.88.89-2.15,1.18-3.24,1.66h-7.19ZM112.41,34.85c4.75.61,4.75-4.8,0-4.3v4.3ZM112.41,37.48v4.77c1.74.11,4.73.02,4.82-2.26.1-2.65-2.91-2.55-4.82-2.51Z"/>
      <path class="cls-4" d="M144.04,45.12v-17.19h7.07c.69,0,2.51,1.22,2.95,1.82,2.2,3.03.83,7.24-2.83,8.08l4.7,6.17.33,1.11h-4.07l-4.44-7.16c-.55-.09-.33.24-.36.59-.18,2.11.13,4.44,0,6.57h-3.36ZM147.4,30.56v5.01c5.61.9,5.56-5.79,0-5.01Z"/>
      <path class="cls-4" d="M38.59,45.12v-17.19h3.36v6.92c1.08-.6,5.88-6.92,6.35-6.92h4.19l-6.72,7.27-.26.73,7.46,9.19h-4.55l-6.23-7.88c-.51.39-.11,6.77-.24,7.88h-3.36Z"/>
      <polygon class="cls-4" points="92.51 45.12 100.66 30.8 93.71 30.8 93.71 27.93 106.42 27.93 98.27 42.02 106.18 42.02 106.18 45.12 92.51 45.12"/>
      <polygon class="cls-4" points="131.1 45.12 131.1 27.93 140.69 27.93 140.69 30.8 134.46 30.8 134.46 34.62 140.45 34.62 140.45 37.48 134.46 37.48 134.46 42.02 140.69 42.02 140.69 45.12 131.1 45.12"/>
      <rect class="cls-4" x="86.52" y="27.93" width="3.36" height="17.19"/>
      <rect class="cls-4" x="123.91" y="27.93" width="3.36" height="17.19"/>
      <path class="cls-6" d="M71.18,45.12l1.46-3.8c1.12.13,6.45-.32,6.95.13s1.08,2.96,1.65,3.67h-10.07Z"/>
      <path class="cls-6" d="M41.94,45.12c.13-1.11-.27-7.49.24-7.88l6.23,7.88h-6.47Z"/>
      <path class="cls-6" d="M147.4,45.12c.13-2.13-.18-4.46,0-6.57.03-.36-.19-.69.36-.59l4.44,7.16h-4.79Z"/>
      <polygon class="cls-6" points="58.48 45.12 58.6 37.96 63.27 45.12 58.48 45.12"/>
      <path class="cls-3" d="M14.62.48v24.71c0,1.67-.86,4.44-1.64,6.01-2.29,4.61-7.53,7.82-12.74,7.72v-4.06c2.51.03,5.26-1.14,7.07-2.87,1.01-.97,3-4.04,3-5.37V.48h4.31Z"/>
      <path class="cls-5" d="M26.84.48v31.39c0,.16,1.21,1.99,1.52,2.18.6.37,1.83.69,2.56.8v4.06c-2.19-.1-3.99-.7-5.65-2.14-1.45-1.26-2.74-3.96-2.74-5.86V.48h4.31Z"/>
      <path class="cls-1" d="M8.39.48v25.42c0,1.25-1.76,4.02-2.76,4.89-1.49,1.29-3.4,1.96-5.38,1.92v-4.06c1.69.33,4.07-1.84,4.07-3.46V.48h4.07Z"/>
      <path class="cls-7" d="M63.19,17.58c-4.49,4.83-13.69,3-15.42-3.46-2.78-10.41,10.55-15.83,16.17-7.75,2.23,3.2,1.9,8.35-.76,11.22ZM62.42,6.59c-4.54-5.58-13.66-2.69-13.67,4.79,0,10.42,15.22,10.27,15.4.16.03-1.95-.53-3.48-1.73-4.95Z"/>
      <path class="cls-7" d="M148.69,17.28c-8.18,9.31-21.82-3.67-13.19-12.18,8.12-8,20.89,3.42,13.19,12.18ZM147.98,6.58c-4.18-5.23-13.02-2.95-13.76,3.8-.7,6.3,5.39,10.7,11.19,8.04,4.45-2.04,5.53-8.14,2.58-11.84Z"/>
      <polygon class="cls-7" points="154.35 2.63 168.73 17.43 168.73 2.86 169.93 2.86 169.93 20.29 155.55 5.73 155.55 20.05 154.35 20.05 154.35 2.63"/>
      <path class="cls-7" d="M68.79,2.63l14.62,15.04V2.86s.96-.05.96,0v17.43l-14.38-14.8v14.56h-1.2V2.63Z"/>
      <path class="cls-7" d="M94.79,2.86c7.46,1.41,9.02,13.01,1.96,16.28-.5.23-2.25.91-2.68.91h-5.15V2.86c1.74.23,4.24-.31,5.87,0ZM90.12,3.82v15.28c4.31.27,9.37-1.44,9.84-6.31.28-2.83-.33-5.32-2.5-7.21-1.86-1.62-4.94-1.78-7.34-1.76Z"/>
      <path class="cls-7" d="M116.72,20.05c-.35-.06-1.21.13-1.4-.04-.36-.31-1.75-4.76-2.17-5.55-.25-.36-6.44-.04-7.43-.12-.17.74-1.96,5.5-2.21,5.67-.21.14-.85-.02-1.17.03l6.95-17.9,7.43,17.9ZM112.65,13.37l-3.35-8.12-2.88,8.12h6.23Z"/>
      <path class="cls-7" d="M46.02,2.86s.05.95,0,.95h-5.99v6.21h5.99s.05.95,0,.95h-5.99v9.07h-1.2V2.86c.92.2,6.94-.26,7.19,0Z"/>
      <path class="cls-4" d="M125.83,2.86c-.03.17.05.95,0,.95h-4.31v16.23h-1.2V3.82h-4.55s-.05-.95,0-.95h10.07Z"/>
      <rect class="cls-4" x="128.47" y="2.86" width="1.2" height="17.19"/>
      <path class="cls-6" d="M58.48,30.56c5.44-.6,5.44,5.84,0,5.01v-5.01Z"/>
      <path class="cls-6" d="M78.61,38.67h-4.79c.69-1.78,1.33-3.65,2.15-5.38.11-.23.14-.56.48-.59l2.16,5.97Z"/>
      <path class="cls-6" d="M112.41,37.48c1.91-.04,4.92-.14,4.82,2.51-.09,2.28-3.08,2.37-4.82,2.26v-4.77Z"/>
      <path class="cls-6" d="M112.41,34.85v-4.3c4.75-.5,4.75,4.9,0,4.3Z"/>
      <path class="cls-6" d="M147.4,30.56c5.56-.78,5.61,5.91,0,5.01v-5.01Z"/>
      <path class="cls-6" d="M62.42,6.59c1.19,1.47,1.76,3,1.73,4.95-.17,10.11-15.41,10.27-15.4-.16,0-7.48,9.13-10.38,13.67-4.79Z"/>
      <path class="cls-6" d="M147.98,6.58c2.95,3.7,1.87,9.8-2.58,11.84-5.79,2.66-11.89-1.75-11.19-8.04.75-6.75,9.59-9.03,13.76-3.8Z"/>
      <path class="cls-6" d="M90.12,3.82c2.41-.02,5.49.14,7.34,1.76,2.16,1.88,2.77,4.38,2.5,7.21-.47,4.87-5.53,6.58-9.84,6.31V3.82Z"/>
      <polygon class="cls-6" points="112.65 13.37 106.42 13.37 109.29 5.25 112.65 13.37"/>
    </g>
  </g>
</svg>