<?xml version="1.0" encoding="UTF-8"?>
<svg id="Layer_1" xmlns="http://www.w3.org/2000/svg" version="1.1" viewBox="0 0 184.5 33">
  <!-- Generator: Adobe Illustrator 29.1.0, SVG Export Plug-In . SVG Version: 2.1.0 Build 142)  -->
  <defs>
    <style>
      .st0 {
        fill: #fff;
      }

      .st1 {
        fill: #41ab34;
      }
    </style>
  </defs>
  <polygon class="st1" points="57.6 32.9 79.8 .1 71.4 .1 49.2 32.9 57.6 32.9"/>
  <g>
    <polygon class="st0" points="59.4 15.2 49.2 .1 57.5 .1 63.6 9 59.4 15.2"/>
    <polygon class="st0" points="79.7 32.9 69.6 17.9 65.4 24 71.4 32.9 79.7 32.9"/>
  </g>
  <rect class="st0" x="38.8" y=".1" width="7.2" height="32.8"/>
  <rect class="st0" x="145.3" y=".1" width="7.2" height="32.8"/>
  <path class="st0" d="M142.4,16.5h0c0-2.4-.4-4.5-1.1-6.5-.8-2-1.8-3.7-3.2-5.2-1.4-1.5-3-2.6-4.9-3.5C131.3.4,129.3,0,127,0c-2.2,0-4.3.4-6.2,1.3-1.9.9-3.5,2.1-4.9,3.6-1.4,1.5-2.4,3.3-3.2,5.2-.8,2-1.2,4.1-1.2,6.4h0c0,2.4.4,4.5,1.2,6.5.7,2,1.8,3.7,3.2,5.1,1.4,1.5,3,2.7,4.8,3.5,1.9.9,3.9,1.3,6.2,1.3s4.3-.5,6.2-1.3c1.9-.8,3.5-2.1,4.9-3.6,1.4-1.5,2.4-3.2,3.2-5.2.8-2,1.2-4.1,1.2-6.4ZM135.7,16.6c0,1.4-.2,2.6-.6,3.8-.5,1.2-1,2.3-1.8,3.2-.8.9-1.7,1.6-2.8,2.1-1.1.5-2.2.8-3.5.8s-2.5-.3-3.5-.8c-1.1-.5-2-1.2-2.8-2.1-.8-.9-1.4-2-1.8-3.2-.5-1.2-.7-2.5-.7-3.9h0c0-1.5.2-2.7.7-4,.4-1.2,1-2.2,1.8-3.1.7-.9,1.7-1.6,2.7-2.1,1-.5,2.2-.8,3.5-.8s2.4.3,3.5.8c1.1.5,2,1.3,2.8,2.2s1.4,2,1.8,3.2c.4,1.2.6,2.5.6,3.9h0Z"/>
  <polygon class="st0" points="94.4 32.9 81.2 .1 89.1 .1 97.7 23.1 106.2 .1 113.9 .1 100.8 32.9 94.4 32.9"/>
  <path class="st0" d="M183.7,6.8c-.6-1.4-1.4-2.6-2.5-3.6-1.1-1-2.4-1.8-3.9-2.3-1.5-.5-3.3-.8-5.3-.8h-13.3v32.8s7.2,0,7.2,0v-9.8h5.4c1.8,0,3.5-.2,5.2-.7,1.6-.5,3-1.2,4.2-2.2,1.2-1,2.1-2.2,2.8-3.6.7-1.5,1-3.1,1-5h0c0-1.8-.3-3.3-.8-4.7ZM177.3,11.7c0,1.4-.5,2.6-1.5,3.5-1,1-2.4,1.5-4.2,1.5h-5.7V6.6h5.5c1.8,0,3.2.4,4.3,1.3,1,.8,1.5,2.1,1.5,3.7h0Z"/>
  <polygon class="st0" points="25.2 .1 16.3 13.2 7.4 .1 0 .1 0 32.9 7.1 32.9 7.1 11.9 16.3 25.5 16.3 25.5 16.3 25.5 25.5 11.9 25.5 32.9 32.6 32.9 32.6 .1 25.2 .1"/>
</svg>