<?xml version="1.0" encoding="UTF-8" standalone="no"?>
<svg
   version="1.1"
   viewBox="0 0 260.78739 381.73228"
   id="svg19"
   sodipodi:docname="backside.material.svg"
   width="69mm"
   height="101mm"
   inkscape:version="1.2.2 (b0a8486541, 2022-12-01)"
   inkscape:export-filename="backside.material.pdf"
   inkscape:export-xdpi="743.09"
   inkscape:export-ydpi="743.09"
   xmlns:inkscape="http://www.inkscape.org/namespaces/inkscape"
   xmlns:sodipodi="http://sodipodi.sourceforge.net/DTD/sodipodi-0.dtd"
   xmlns="http://www.w3.org/2000/svg"
   xmlns:svg="http://www.w3.org/2000/svg">
  <sodipodi:namedview
     id="namedview21"
     pagecolor="#ffffff"
     bordercolor="#999999"
     borderopacity="1"
     inkscape:showpageshadow="0"
     inkscape:pageopacity="0"
     inkscape:pagecheckerboard="0"
     inkscape:deskcolor="#d1d1d1"
     showgrid="false"
     inkscape:zoom="0.70719915"
     inkscape:cx="86.25576"
     inkscape:cy="163.32033"
     inkscape:window-width="1860"
     inkscape:window-height="1011"
     inkscape:window-x="60"
     inkscape:window-y="32"
     inkscape:window-maximized="1"
     inkscape:current-layer="g20"
     inkscape:document-units="mm"
     inkscape:pageshadow="0" />
  <defs
     id="defs4">
    <style
       id="style2">
      .cls-1 {
        fill: #fff;
      }

      .cls-2 {
        fill: #ffc941;
      }
    </style>
  </defs>
  <!-- Generator: Adobe Illustrator 28.7.3, SVG Export Plug-In . SVG Version: 1.2.0 Build 164)  -->
  <g
     id="g17"
     transform="matrix(1.4114612,0,0,1.4114612,-345.84239,-504.23502)">
    <g
       id="g20"
       transform="matrix(0,-1.0062915,1.0062915,0,-366.18252,1135.2731)"
       style="fill:#ffffff;fill-opacity:1;stroke:none;stroke-opacity:1">
      <rect
         style="fill:#00709c;stroke-width:2.94551;stroke-linejoin:round;stroke-miterlimit:10;paint-order:stroke fill markers;stop-color:#000000;fill-opacity:1"
         id="rect2664"
         width="226.42422"
         height="313.16852"
         x="219.44977"
         y="331.65408"
         transform="matrix(0,0.9937478,-0.9937478,0,1128.1752,363.89309)" />
      <path
         d="m 622.32,699.19 c 0,-1.66 1.35,-3.01 3.01,-3.01 h 13.46 c 1.66,0 3.01,1.35 3.01,3.01 0,1.66 -1.35,3.01 -3.01,3.01 h -13.46 c -1.66,0 -3.01,-1.35 -3.01,-3.01 z"
         id="path8"
         style="fill:#ffffff;fill-opacity:1;stroke:none;stroke-opacity:1" />
      <path
         d="m 629.05,705.85 v -13.32 c 0,-1.66 1.35,-3.01 3.01,-3.01 1.66,0 3.01,1.35 3.01,3.01 v 13.32 c 0,1.66 -1.35,3.01 -3.01,3.01 -1.66,0 -3.01,-1.35 -3.01,-3.01 z"
         id="path10"
         style="fill:#ffffff;fill-opacity:1;stroke:none;stroke-opacity:1" />
      <path
         d="m 652.59,712.51 c 0,-1.66 1.35,-3.01 3.01,-3.01 h 6.73 c 2.05,0 3.72,-1.64 3.72,-3.65 v -13.32 c 0,-2.01 -1.67,-3.65 -3.72,-3.65 h -6.73 c -1.66,0 -3.01,-1.35 -3.01,-3.01 0,-1.66 1.35,-3.01 3.01,-3.01 h 6.73 c 5.37,0 9.74,4.34 9.74,9.67 v 13.32 c 0,5.33 -4.37,9.67 -9.74,9.67 h -6.73 c -1.66,0 -3.01,-1.35 -3.01,-3.01 z"
         id="path12"
         style="fill:#ffffff;fill-opacity:1;stroke:none;stroke-opacity:1" />
      <path
         d="m 605.5,719.17 c 0,-1.66 1.35,-3.01 3.01,-3.01 h 47.09 c 1.66,0 3.01,1.35 3.01,3.01 0,1.66 -1.35,3.01 -3.01,3.01 h -47.09 c -1.66,0 -3.01,-1.35 -3.01,-3.01 z"
         id="path14"
         style="fill:#ffffff;fill-opacity:1;stroke:none;stroke-opacity:1" />
      <path
         d="m 605.5,679.22 c 0,-1.66 1.35,-3.01 3.01,-3.01 h 47.09 c 1.66,0 3.01,1.35 3.01,3.01 0,1.66 -1.35,3.01 -3.01,3.01 h -47.09 c -1.66,0 -3.01,-1.35 -3.01,-3.01 z"
         id="path16"
         style="fill:#ffffff;fill-opacity:1;stroke:none;stroke-opacity:1" />
      <path
         d="m 605.5,731.07 v -63.76 c 0,-2.44 1.98,-4.42 4.42,-4.42 h 44.26 c 2.44,0 4.42,1.98 4.42,4.42 v 63.76 c 0,2.44 -1.98,4.42 -4.42,4.42 h -44.26 c -2.44,0 -4.42,-1.98 -4.42,-4.42 z m 6.02,-62.16 v 60.57 h 41.08 v -60.57 z m 41.07,62.16 v 0 c 0,0 0,0 0,0 z"
         id="path18"
         style="fill:#ffffff;fill-opacity:1;stroke:none;stroke-opacity:1" />
    </g>
  </g>
</svg>
