<svg version="1.0" x="0px" y="0px" xmlns="http://www.w3.org/2000/svg" width="612px" height="361px"
      viewBox="0 0 612 361">
    <polyline stroke="#000000" stroke-opacity="1" fill="none" stroke-linecap="round" stroke-width="25"
    points="406.157043,180.963684 479.731018,138.453094 553.402039,96.030975" />
    <polyline stroke="#000000" stroke-opacity="1" fill="none" stroke-linecap="round" stroke-width="25"
    points="109.081116,350.514893 184.084717,308.883545 257.657532,266.464722" />
    <polyline stroke="#000000" stroke-opacity="1" fill="none" stroke-linecap="round" stroke-width="25"
    points="356.709167,351.479492 356.662415,266.565155" />
    <polyline stroke="#000000" stroke-opacity="1" fill="none" stroke-linecap="round" stroke-width="25"
    points="553.458435,265.030212 479.833618,223.456543 406.157043,180.963684" />
    <polyline stroke="#000000" stroke-opacity="1" fill="none" stroke-linecap="round" stroke-width="25"
    points="257.539978,95.109802 257.493347,10.132782" />
    <polyline stroke="#000000" stroke-opacity="1" fill="none" stroke-linecap="round" stroke-width="25"
    points="356.596863,95.241455 430.217529,52.842010" />
    <polyline stroke="#000000" stroke-opacity="1" fill="none" stroke-linecap="round" stroke-width="25"
    points="59.579529,264.789246 59.460449,180.634338 59.395691,95.664276" />
    <polyline stroke="#000000" stroke-opacity="1" fill="none" stroke-linecap="round" stroke-width="25"
    points="257.539978,95.109802 182.441650,52.560699 108.827209,10.000000" />
    <polyline stroke="#000000" stroke-opacity="1" fill="none" stroke-linecap="round" stroke-width="25"
    points="10.000000,180.599762 59.460449,180.634338" />
    <polyline stroke="#000000" stroke-opacity="1" fill="none" stroke-linecap="round" stroke-width="25"
    points="59.395691,95.664276 133.045837,138.209961" />
    <polyline stroke="#000000" stroke-opacity="1" fill="none" stroke-linecap="round" stroke-width="25"
    points="133.045837,138.209961 182.441650,52.560699" />
    <polyline stroke="#000000" stroke-opacity="1" fill="none" stroke-linecap="round" stroke-width="25"
    points="503.944031,350.671143 430.315674,308.160706" />
    <polyline stroke="#000000" stroke-opacity="1" fill="none" stroke-linecap="round" stroke-width="25"
    points="553.458435,265.030212 553.485168,180.131714" />
    <polyline stroke="#000000" stroke-opacity="1" fill="none" stroke-linecap="round" stroke-width="25"
    points="59.579529,264.789246 133.132141,222.365417" />
    <polyline stroke="#000000" stroke-opacity="1" fill="none" stroke-linecap="round" stroke-width="25"
    points="257.493347,10.132782 356.445496,11.085388" />
    <polyline stroke="#000000" stroke-opacity="1" fill="none" stroke-linecap="round" stroke-width="25"
    points="503.798645,10.384644 430.217529,52.842010" />
    <polyline stroke="#000000" stroke-opacity="1" fill="none" stroke-linecap="round" stroke-width="25"
    points="553.402039,96.030975 553.485168,180.131714" />
    <polyline stroke="#000000" stroke-opacity="1" fill="none" stroke-linecap="round" stroke-width="25"
    points="430.217529,52.842010 479.731018,138.453094" />
    <polyline stroke="#000000" stroke-opacity="1" fill="none" stroke-linecap="round" stroke-width="25"
    points="208.111389,180.774292 133.045837,138.209961" />
    <polyline stroke="#000000" stroke-opacity="1" fill="none" stroke-linecap="round" stroke-width="25"
    points="257.772522,350.591553 356.709167,351.479492" />
    <polyline stroke="#000000" stroke-opacity="1" fill="none" stroke-linecap="round" stroke-width="25"
    points="356.596863,95.241455 356.445496,11.085388" />
    <polyline stroke="#000000" stroke-opacity="1" fill="none" stroke-linecap="round" stroke-width="25"
    points="356.662415,266.565155 430.315674,308.160706" />
    <polyline stroke="#000000" stroke-opacity="1" fill="none" stroke-linecap="round" stroke-width="25"
    points="208.111389,180.774292 133.132141,222.365417" />
    <polyline stroke="#000000" stroke-opacity="1" fill="none" stroke-linecap="round" stroke-width="25"
    points="430.315674,308.160706 479.833618,223.456543" />
    <polyline stroke="#000000" stroke-opacity="1" fill="none" stroke-linecap="round" stroke-width="25"
    points="257.657532,266.464722 257.772522,350.591553" />
    <polyline stroke="#000000" stroke-opacity="1" fill="none" stroke-linecap="round" stroke-width="25"
    points="133.132141,222.365417 184.084717,308.883545" />
    <polyline stroke="#000000" stroke-opacity="1" fill="none" stroke-linecap="round" stroke-width="25"
    points="553.485168,180.131714 602.996643,180.554596" />
</svg>